%TF.GenerationSoftware,tscircuit,circuit-json-to-gerber,0.0.111*%
%TF.CreationDate,2026-10-06T20:24:23.001Z*%
%TF.SameCoordinates,Original*%
%TF.FileFunction,Soldermask,Bot*%
%TF.FilePolarity,Negative*%
%FSLAX46Y46*%
%MOMM*%
G04 Gerber Fmt 4.6, Leading zero omitted, Abs format (unit mm)*
G04 Created by tscircuit (builder) date 2026-10-06T20:24:23.001Z*
G01*
%LPD*%
G75*
G04 APERTURE MACROS START*
%AMHORZPILL*
0 Horizontal pill (stadium) shape macro*
0 Parameters:*
0 $1 = Total width*
0 $2 = Total height*
0 $3 = Circle diameter (equal to height)*
0 $4 = Circle center offset
0 21 = Center Line(Exposure, Width, Height, Center X, Center Y, Rotation)*
0 1 = Circle(Exposure, Diameter, Center X, Center Y, Rotation)*
21,1,$1-$3,$2,0.0,0.0,0.0*
1,1,$3,0.0-$4,0.0*
1,1,$3,$4,0.0*%
%AMVERTPILL*
0 Vertical pill (stadium) shape macro*
0 Parameters:*
0 $1 = Total width*
0 $2 = Total height*
0 $3 = Circle diameter (equal to width)*
0 $4 = Circle center offset
0 21 = Center Line(Exposure, Width, Height, Center X, Center Y, Rotation)*
21,1,$1,$2-$3,0.0,0.0,0.0*
1,1,$3,0.0,0.0-$4*
1,1,$3,0.0,$4*%
%AMROUNDRECT*
0 Rectangle with rounded corners*
0 $1 Corner radius*
0 $2 $3 $4 $5 $6 $7 $8 $9 X,Y Position of each corner*
0 Polygon box body*
4,1,4,$2,$3,$4,$5,$6,$7,$8,$9,$2,$3,0*
0 Circles for rounded corners*
1,1,$1+$1,$2,$3*
1,1,$1+$1,$4,$5*
1,1,$1+$1,$6,$7*
1,1,$1+$1,$8,$9*
0 Rectangles between the rounded corners*
20,1,$1+$1,$2,$3,$4,$5,0*
20,1,$1+$1,$4,$5,$6,$7,0*
20,1,$1+$1,$6,$7,$8,$9,0*
20,1,$1+$1,$8,$9,$2,$3,0*%
G04 APERTURE MACROS END*
G04 aperture START LIST*
%ADD10C,0.150000*%
%ADD11C,0.180000*%
%ADD12C,0.280000*%
%ADD13C,0.400000*%
%ADD14C,0.270000*%
%ADD15C,0.153700*%
%ADD16C,0.198000*%
%ADD17C,0.600000*%
%ADD18C,0.380000*%
%ADD19C,2.500000*%
%ADD20C,0.200000*%
%ADD21C,0.399999*%
%ADD22C,0.254000*%
%ADD23C,0.100000*%
%ADD24C,0.588010*%
%ADD25R,0.499999X0.540004*%
%ADD26R,0.349999X0.378003*%
%ADD27R,0.565658X0.540004*%
%ADD28R,0.395961X0.378003*%
%ADD29R,1.727987X1.485011*%
%ADD30R,1.209591X1.039508*%
%ADD31R,1.410005X1.350010*%
%ADD32R,0.987003X0.945007*%
%ADD33R,0.799998X0.899998*%
%ADD34R,0.559999X0.629999*%
%ADD35R,1.485011X1.727987*%
%ADD36R,1.039508X1.209591*%
%ADD37R,0.540004X0.499999*%
%ADD38R,0.378003X0.349999*%
%ADD39C,0.649986*%
%ADD40R,0.280010X0.664997*%
%ADD41R,0.196007X0.465498*%
%ADD42R,0.664997X0.280010*%
%ADD43R,0.465498X0.196007*%
%ADD44R,1.499997X1.499997*%
%ADD45R,1.049998X1.049998*%
%ADD46R,0.399999X0.799998*%
%ADD47R,0.279999X0.559999*%
%ADD48R,2.599995X1.999996*%
%ADD49R,1.819996X1.399997*%
%ADD50R,0.599999X0.899998*%
%ADD51R,0.419999X0.629999*%
%ADD52R,0.210007X0.664997*%
%ADD53R,0.147005X0.465498*%
%ADD54R,0.664997X0.210007*%
%ADD55R,0.465498X0.147005*%
%ADD56R,0.999998X0.650011*%
%ADD57R,0.699999X0.455008*%
%ADD58R,1.699997X0.599999*%
%ADD59R,1.189998X0.419999*%
%ADD60R,1.799996X1.199998*%
%ADD61R,1.259997X0.839998*%
%ADD62R,0.599999X0.299999*%
%ADD63R,0.419999X0.210000*%
%ADD64R,0.200000X0.564998*%
%ADD65R,0.140000X0.395498*%
%ADD66R,0.399999X0.564998*%
%ADD67R,0.279999X0.395498*%
%ADD68R,1.037488X0.532003*%
%ADD69R,0.726242X0.372402*%
%ADD70R,3.650005X2.650007*%
%ADD71R,2.555004X1.855005*%
%ADD72R,0.510007X0.399999*%
%ADD73R,0.357005X0.279999*%
%ADD74R,0.540004X0.565658*%
%ADD75R,0.378003X0.395961*%
%TD*%
G04 aperture END LIST*
D19*
X-15250000Y-15250000D03*
D19*
X-15250000Y015250000D03*
D19*
X015250000Y-15250000D03*
D19*
X015250000Y015250000D03*
D24*
X004595000Y015205937D03*
X004595000Y015205937D02*
X004595000Y013993951D01*
X004595000Y013993951D03*
D24*
X005865000Y015205937D03*
X005865000Y015205937D02*
X005865000Y013993951D01*
X005865000Y013993951D03*
D24*
X007135000Y015205937D03*
X007135000Y015205937D02*
X007135000Y013993951D01*
X007135000Y013993951D03*
D24*
X008405000Y015205937D03*
X008405000Y015205937D02*
X008405000Y013993951D01*
X008405000Y013993951D03*
D24*
X004595000Y010006049D03*
X004595000Y010006049D02*
X004595000Y008794063D01*
X004595000Y008794063D03*
D24*
X005865000Y010006049D03*
X005865000Y010006049D02*
X005865000Y008794063D01*
X005865000Y008794063D03*
D24*
X007135000Y010006049D03*
X007135000Y010006049D02*
X007135000Y008794063D01*
X007135000Y008794063D03*
D24*
X008405000Y010006049D03*
X008405000Y010006049D02*
X008405000Y008794063D01*
X008405000Y008794063D03*
D25*
X005379884Y007600000D03*
D25*
X006220116Y007600000D03*
D27*
X010317184Y012750000D03*
D27*
X011182816Y012750000D03*
D27*
X006567184Y016500000D03*
D27*
X007432816Y016500000D03*
D29*
X-14000000Y-05842580D03*
D29*
X-14000000Y-02657420D03*
D31*
X-08500002Y-15750000D03*
D31*
X-10499998Y-15750000D03*
D33*
X-13299976Y-00750000D03*
D33*
X-14700024Y-00750000D03*
D35*
X-12407420Y003500000D03*
D35*
X-15592580Y003500000D03*
D37*
X-09000000Y002829884D03*
D37*
X-09000000Y003670116D03*
D39*
X002890012Y-11310010D03*
D39*
X-02890012Y-11310010D03*
D40*
X-11000128Y009592586D03*
D40*
X-11500000Y009592586D03*
D40*
X-12000126Y009592586D03*
D42*
X-12907414Y010499874D03*
D42*
X-12907414Y011000000D03*
D42*
X-12907414Y011499872D03*
D40*
X-12000126Y012407414D03*
D40*
X-11500000Y012407414D03*
D40*
X-11000128Y012407414D03*
D42*
X-10092586Y011499872D03*
D42*
X-10092586Y011000000D03*
D42*
X-10092586Y010499874D03*
D44*
X-11500000Y011000000D03*
D46*
X-09029466Y-04229946D03*
D46*
X-09679960Y-04229946D03*
D46*
X-10329692Y-04229946D03*
D46*
X-10979678Y-04229946D03*
D46*
X-09029466Y-01030054D03*
D46*
X-09679706Y-01030054D03*
D46*
X-10329692Y-01030054D03*
D46*
X-10979678Y-01030054D03*
D48*
X-10000000Y-02279988D03*
D50*
X-07024891Y-13500000D03*
D50*
X-05975109Y-13500000D03*
D33*
X-10700024Y-13500000D03*
D33*
X-09299976Y-13500000D03*
D33*
X-11200024Y014550000D03*
D33*
X-09799976Y014550000D03*
D25*
X-07979884Y010900000D03*
D25*
X-08820116Y010900000D03*
D25*
X-00829884Y-11250000D03*
D25*
X-01670116Y-11250000D03*
D25*
X000829884Y-11250000D03*
D25*
X001670116Y-11250000D03*
D27*
X-15932816Y-07750000D03*
D27*
X-15067184Y-07750000D03*
D27*
X-03567184Y-00000000D03*
D27*
X-04432816Y000000000D03*
D27*
X002432816Y-05250000D03*
D27*
X001567184Y-05250000D03*
D27*
X003817184Y-07750000D03*
D27*
X004682816Y-07750000D03*
D27*
X002432816Y-12500000D03*
D27*
X001567184Y-12500000D03*
D27*
X004932816Y-12000000D03*
D27*
X004067184Y-12000000D03*
D27*
X003432816Y-13750000D03*
D27*
X002567184Y-13750000D03*
D25*
X003829884Y-06500000D03*
D25*
X004670116Y-06500000D03*
D52*
X007800202Y-10767994D03*
D52*
X007400152Y-10767994D03*
D52*
X007000356Y-10767994D03*
D52*
X006600306Y-10767994D03*
D54*
X005968354Y-10599948D03*
D54*
X005967846Y-10199898D03*
D54*
X005967846Y-09800102D03*
D54*
X005967846Y-09400052D03*
D52*
X006600306Y-09232006D03*
D52*
X007000356Y-09232006D03*
D52*
X007400152Y-09232006D03*
D52*
X007800202Y-09232006D03*
D54*
X008432154Y-09400052D03*
D54*
X008432154Y-09800102D03*
D54*
X008432154Y-10199898D03*
D54*
X008432154Y-10599948D03*
D56*
X006200002Y-07449960D03*
D56*
X006200002Y-05550040D03*
D56*
X008199998Y-06500000D03*
D27*
X008817184Y-02750000D03*
D27*
X009682816Y-02750000D03*
D25*
X010620116Y-10600000D03*
D25*
X009779884Y-10600000D03*
D25*
X003829884Y-05000000D03*
D25*
X004670116Y-05000000D03*
D27*
X011817184Y-10000000D03*
D27*
X012682816Y-10000000D03*
D27*
X011567184Y-12000000D03*
D27*
X012432816Y-12000000D03*
D27*
X011317184Y-13750000D03*
D27*
X012182816Y-13750000D03*
D27*
X004567184Y-03750000D03*
D27*
X005432816Y-03750000D03*
D27*
X008067184Y-04000000D03*
D27*
X008932816Y-04000000D03*
D27*
X010317184Y-04750000D03*
D27*
X011182816Y-04750000D03*
D58*
X012037234Y007499993D03*
D58*
X012037234Y008499991D03*
D58*
X012037742Y-00500245D03*
D58*
X012037742Y000499753D03*
D58*
X012037742Y001499751D03*
D58*
X012037742Y002499749D03*
D58*
X012037742Y003499747D03*
D58*
X012037742Y004499745D03*
D58*
X012037742Y005499743D03*
D58*
X012037742Y006499741D03*
D60*
X015912766Y009800217D03*
D60*
X015912766Y-01800217D03*
D62*
X-06250014Y005999873D03*
D62*
X-07749986Y005999873D03*
D62*
X-07749986Y006499999D03*
D62*
X-07749986Y005500001D03*
D62*
X-06250014Y006499999D03*
D62*
X-06250014Y005500001D03*
D64*
X008000002Y002899999D03*
D64*
X008499874Y002899999D03*
D66*
X009000000Y002899999D03*
D64*
X009499872Y002899999D03*
D64*
X009999998Y002899999D03*
D64*
X008000002Y002100001D03*
D64*
X008499874Y002100001D03*
D66*
X009000000Y002100001D03*
D64*
X009499872Y002100001D03*
D64*
X009999998Y002100001D03*
D64*
X008000002Y000899999D03*
D64*
X008499874Y000899999D03*
D66*
X009000000Y000899999D03*
D64*
X009499872Y000899999D03*
D64*
X009999998Y000899999D03*
D64*
X008000002Y000100001D03*
D64*
X008499874Y000100001D03*
D66*
X009000000Y000100001D03*
D64*
X009499872Y000100001D03*
D64*
X009999998Y000100001D03*
D68*
X007648656Y004550040D03*
D68*
X007648656Y006449960D03*
D68*
X009851344Y005500000D03*
D27*
X005317184Y006000000D03*
D27*
X006182816Y006000000D03*
D27*
X005067184Y004000000D03*
D27*
X005932816Y004000000D03*
D27*
X005567184Y002000000D03*
D27*
X006432816Y002000000D03*
D27*
X005817184Y000000000D03*
D27*
X006682816Y000000000D03*
D27*
X006567184Y-02000000D03*
D27*
X007432816Y-02000000D03*
D27*
X003067184Y006000000D03*
D27*
X003932816Y006000000D03*
D27*
X003567184Y002750000D03*
D27*
X004432816Y002750000D03*
D27*
X004432816Y001500000D03*
D27*
X003567184Y001500000D03*
D27*
X004432816Y-00000000D03*
D27*
X003567184Y000000000D03*
D27*
X005182816Y-02000000D03*
D27*
X004317184Y-02000000D03*
D27*
X-04932816Y006000000D03*
D27*
X-04067184Y006000000D03*
D27*
X003317184Y007500000D03*
D27*
X004182816Y007500000D03*
D25*
X009829884Y011500000D03*
D25*
X010670116Y011500000D03*
D25*
X009670116Y-01250000D03*
D25*
X008829884Y-01250000D03*
D25*
X-07420116Y008050000D03*
D25*
X-06579884Y008050000D03*
D27*
X-01432816Y004750000D03*
D27*
X-00567184Y004750000D03*
D27*
X-01432816Y006000000D03*
D27*
X-00567184Y006000000D03*
D27*
X000817184Y006000000D03*
D27*
X001682816Y006000000D03*
D70*
X-04500127Y-07750000D03*
D42*
X-02092461Y-08749998D03*
D42*
X-02092461Y-08250126D03*
D42*
X-02092461Y-07750000D03*
D42*
X-02092461Y-07250128D03*
D42*
X-02092461Y-06750002D03*
D40*
X-03000003Y-05842460D03*
D40*
X-03500129Y-05842460D03*
D40*
X-04000001Y-05842460D03*
D40*
X-04500127Y-05842460D03*
D40*
X-04999999Y-05842460D03*
D40*
X-05500125Y-05842460D03*
D40*
X-05999997Y-05842460D03*
D42*
X-06907539Y-06750002D03*
D42*
X-06907539Y-07250128D03*
D42*
X-06907539Y-07750000D03*
D42*
X-06907539Y-08250126D03*
D42*
X-06907539Y-08749998D03*
D40*
X-05999997Y-09657540D03*
D40*
X-05500125Y-09657540D03*
D40*
X-04999999Y-09657540D03*
D40*
X-04500127Y-09657540D03*
D40*
X-04000001Y-09657540D03*
D40*
X-03500129Y-09657540D03*
D40*
X-03000003Y-09657540D03*
D72*
X-04350014Y-03000127D03*
D72*
X-05649986Y-03499999D03*
D72*
X-05649986Y-02500001D03*
D27*
X-05317184Y-11250000D03*
D27*
X-06182816Y-11250000D03*
D27*
X-03817184Y-13200000D03*
D27*
X-04682816Y-13200000D03*
D27*
X-12817184Y-07500000D03*
D27*
X-13682816Y-07500000D03*
D27*
X-05567184Y-01250000D03*
D27*
X-06432816Y-01250000D03*
D74*
X-00000000Y-13232816D03*
D74*
X000000000Y-12367184D03*
D27*
X000832816Y-15850000D03*
D27*
X-00032816Y-15850000D03*
D27*
X-01417184Y-16190000D03*
D27*
X-02282816Y-16190000D03*
D27*
X-00682816Y-05250000D03*
D27*
X000182816Y-05250000D03*
D27*
X-07432816Y000000000D03*
D27*
X-06567184Y000000000D03*
D33*
X001500024Y-06500000D03*
D33*
X000099976Y-06500000D03*
D33*
X-08950024Y-11875000D03*
D33*
X-07549976Y-11875000D03*
D27*
X-02432816Y-13750000D03*
D27*
X-01567184Y-13750000D03*
M02*