%TF.GenerationSoftware,tscircuit,circuit-json-to-gerber,0.0.111*%
%TF.CreationDate,2026-10-06T20:24:23.002Z*%
%TF.SameCoordinates,Original*%
%TF.FileFunction,Copper,L3,Inr*%
%TF.FilePolarity,Positive*%
%FSLAX46Y46*%
%MOMM*%
G04 Gerber Fmt 4.6, Leading zero omitted, Abs format (unit mm)*
G04 Created by tscircuit (builder) date 2026-10-06T20:24:23.002Z*
G01*
%LPD*%
G75*
G04 APERTURE MACROS START*
%AMHORZPILL*
0 Horizontal pill (stadium) shape macro*
0 Parameters:*
0 $1 = Total width*
0 $2 = Total height*
0 $3 = Circle diameter (equal to height)*
0 $4 = Circle center offset
0 21 = Center Line(Exposure, Width, Height, Center X, Center Y, Rotation)*
0 1 = Circle(Exposure, Diameter, Center X, Center Y, Rotation)*
21,1,$1-$3,$2,0.0,0.0,0.0*
1,1,$3,0.0-$4,0.0*
1,1,$3,$4,0.0*%
%AMVERTPILL*
0 Vertical pill (stadium) shape macro*
0 Parameters:*
0 $1 = Total width*
0 $2 = Total height*
0 $3 = Circle diameter (equal to width)*
0 $4 = Circle center offset
0 21 = Center Line(Exposure, Width, Height, Center X, Center Y, Rotation)*
21,1,$1,$2-$3,0.0,0.0,0.0*
1,1,$3,0.0,0.0-$4*
1,1,$3,0.0,$4*%
%AMROUNDRECT*
0 Rectangle with rounded corners*
0 $1 Corner radius*
0 $2 $3 $4 $5 $6 $7 $8 $9 X,Y Position of each corner*
0 Polygon box body*
4,1,4,$2,$3,$4,$5,$6,$7,$8,$9,$2,$3,0*
0 Circles for rounded corners*
1,1,$1+$1,$2,$3*
1,1,$1+$1,$4,$5*
1,1,$1+$1,$6,$7*
1,1,$1+$1,$8,$9*
0 Rectangles between the rounded corners*
20,1,$1+$1,$2,$3,$4,$5,0*
20,1,$1+$1,$4,$5,$6,$7,0*
20,1,$1+$1,$6,$7,$8,$9,0*
20,1,$1+$1,$8,$9,$2,$3,0*%
G04 APERTURE MACROS END*
G04 aperture START LIST*
%ADD10C,0.150000*%
%ADD11C,0.270000*%
%ADD12C,0.198000*%
%ADD13C,0.600000*%
%ADD14C,0.380000*%
%ADD15C,2.500000*%
%ADD16C,0.200000*%
%ADD17C,0.399999*%
%ADD18C,0.254000*%
%ADD19C,0.100000*%
%ADD20C,0.649986*%
%ADD21C,0.001000*%
%TD*%
G04 aperture END LIST*
D21*
G36*
X-02941619Y-14793500D02*
G01*
X-02885482Y-14776471D01*
G01*
X-02833745Y-14748817D01*
G01*
X-02788398Y-14711602D01*
G01*
X-02751183Y-14666255D01*
G01*
X-02723529Y-14614518D01*
G01*
X-02706500Y-14558381D01*
G01*
X-02700750Y-14500000D01*
G01*
X-02706500Y-14441619D01*
G01*
X-02740401Y-14329863D01*
G01*
X-02700213Y-14299356D01*
G01*
X-02948181Y-14141558D01*
G01*
X-02961400Y-14196948D01*
G01*
X-03058381Y-14206500D01*
G01*
X-03114518Y-14223529D01*
G01*
X-03166255Y-14251183D01*
G01*
X-03211602Y-14288398D01*
G01*
X-03248817Y-14333745D01*
G01*
X-03276471Y-14385482D01*
G01*
X-03293500Y-14441619D01*
G01*
X-03299250Y-14500000D01*
G01*
X-03293500Y-14558381D01*
G01*
X-03276471Y-14614518D01*
G01*
X-03248817Y-14666255D01*
G01*
X-03211602Y-14711602D01*
G01*
X-03166255Y-14748817D01*
G01*
X-03114518Y-14776471D01*
G01*
X-03058381Y-14793500D01*
G01*
X-03000000Y-14799250D01*
G01*
X-02941619Y-14793500D01*
G37*
D21*
G36*
X-04626714Y-09856474D02*
G01*
X-04630772Y-09856474D01*
G01*
X-04630772Y-09830772D01*
G01*
X-04656474Y-09830772D01*
G01*
X-04656474Y-09802413D01*
G01*
X-04679273Y-09802413D01*
G01*
X-04679273Y-09771672D01*
G01*
X-04698949Y-09771672D01*
G01*
X-04698949Y-09738845D01*
G01*
X-04715313Y-09738845D01*
G01*
X-04715313Y-09704247D01*
G01*
X-04728207Y-09704247D01*
G01*
X-04728207Y-09668211D01*
G01*
X-04737506Y-09668211D01*
G01*
X-04737506Y-09631085D01*
G01*
X-04743122Y-09631085D01*
G01*
X-04743122Y-09593227D01*
G01*
X-04745000Y-09593227D01*
G01*
X-04745000Y-08132480D01*
G01*
X-04752784Y-08128319D01*
G01*
X-04821734Y-08071734D01*
G01*
X-04878319Y-08002784D01*
G01*
X-04920365Y-07924121D01*
G01*
X-04946257Y-07838766D01*
G01*
X-04955000Y-07750000D01*
G01*
X-04946257Y-07661234D01*
G01*
X-04920365Y-07575879D01*
G01*
X-04878319Y-07497216D01*
G01*
X-04821734Y-07428266D01*
G01*
X-04752784Y-07371681D01*
G01*
X-04674121Y-07329635D01*
G01*
X-04588766Y-07303743D01*
G01*
X-04500000Y-07295000D01*
G01*
X-04411234Y-07303743D01*
G01*
X-04325879Y-07329635D01*
G01*
X-04247216Y-07371681D01*
G01*
X-04178266Y-07428266D01*
G01*
X-04121681Y-07497216D01*
G01*
X-04079635Y-07575879D01*
G01*
X-04053743Y-07661234D01*
G01*
X-04045000Y-07750000D01*
G01*
X-04053743Y-07838766D01*
G01*
X-04079635Y-07924121D01*
G01*
X-04121681Y-08002784D01*
G01*
X-04178266Y-08071734D01*
G01*
X-04233912Y-08117401D01*
G01*
X-04159112Y-09445117D01*
G01*
X-04138142Y-09451479D01*
G01*
X-04102386Y-09455000D01*
G01*
X-02355000Y-09455000D01*
G01*
X-02355000Y-08993788D01*
G01*
X-02307381Y-08972580D01*
G01*
X-02310209Y-08967287D01*
G01*
X-02310598Y-08967458D01*
G01*
X-02760598Y-07942458D01*
G01*
X-02760209Y-07942287D01*
G01*
X-02762492Y-07938017D01*
G01*
X-02775581Y-07894871D01*
G01*
X-02780000Y-07850000D01*
G01*
X-02779734Y-07847297D01*
G01*
X-02779984Y-07847294D01*
G01*
X-02754984Y-05722294D01*
G01*
X-02754734Y-05722297D01*
G01*
X-02750581Y-05680129D01*
G01*
X-02737492Y-05636983D01*
G01*
X-02716238Y-05597219D01*
G01*
X-02687635Y-05562365D01*
G01*
X-01793231Y-04667961D01*
G01*
X-01795000Y-04650000D01*
G01*
X-01788371Y-04582694D01*
G01*
X-01768738Y-04517974D01*
G01*
X-01738499Y-04461400D01*
G01*
X-03706100Y-04461400D01*
G01*
X-03750971Y-04456981D01*
G01*
X-03794117Y-04443892D01*
G01*
X-03833881Y-04422638D01*
G01*
X-03868735Y-04394035D01*
G01*
X-03935512Y-04327258D01*
G01*
X-03960234Y-04334757D01*
G01*
X-04049000Y-04343500D01*
G01*
X-04137766Y-04334757D01*
G01*
X-04223121Y-04308865D01*
G01*
X-04301784Y-04266819D01*
G01*
X-04370734Y-04210234D01*
G01*
X-04427319Y-04141284D01*
G01*
X-04469365Y-04062621D01*
G01*
X-04495257Y-03977266D01*
G01*
X-04504000Y-03888500D01*
G01*
X-04495257Y-03799734D01*
G01*
X-04469365Y-03714379D01*
G01*
X-04427319Y-03635716D01*
G01*
X-04370734Y-03566766D01*
G01*
X-04301784Y-03510181D01*
G01*
X-04223121Y-03468135D01*
G01*
X-04137766Y-03442243D01*
G01*
X-04049000Y-03433500D01*
G01*
X-03960234Y-03442243D01*
G01*
X-03874879Y-03468135D01*
G01*
X-03796216Y-03510181D01*
G01*
X-03727266Y-03566766D01*
G01*
X-03670681Y-03635716D01*
G01*
X-03628635Y-03714379D01*
G01*
X-03602743Y-03799734D01*
G01*
X-03594000Y-03888500D01*
G01*
X-03602743Y-03977266D01*
G01*
X-03610064Y-04001400D01*
G01*
X-01073297Y-04001400D01*
G01*
X-01061119Y-03978616D01*
G01*
X-01004534Y-03909666D01*
G01*
X-00935584Y-03853081D01*
G01*
X-00856921Y-03811035D01*
G01*
X-00771566Y-03785143D01*
G01*
X-00682800Y-03776400D01*
G01*
X-00594034Y-03785143D01*
G01*
X-00508679Y-03811035D01*
G01*
X-00430016Y-03853081D01*
G01*
X-00361066Y-03909666D01*
G01*
X-00304481Y-03978616D01*
G01*
X-00297773Y-03991166D01*
G01*
X-00268952Y-03956048D01*
G01*
X-00216672Y-03913143D01*
G01*
X-00157026Y-03881262D01*
G01*
X-00092306Y-03861629D01*
G01*
X-00025000Y-03855000D01*
G01*
X000042306Y-03861629D01*
G01*
X000107026Y-03881262D01*
G01*
X000166672Y-03913143D01*
G01*
X000218952Y-03956048D01*
G01*
X000261857Y-04008328D01*
G01*
X000293738Y-04067974D01*
G01*
X000313371Y-04132694D01*
G01*
X000320000Y-04200000D01*
G01*
X000313371Y-04267306D01*
G01*
X000293738Y-04332026D01*
G01*
X000261857Y-04391672D01*
G01*
X000218952Y-04443952D01*
G01*
X000166672Y-04486857D01*
G01*
X000107026Y-04518738D01*
G01*
X000042306Y-04538371D01*
G01*
X-00025000Y-04545000D01*
G01*
X-00092306Y-04538371D01*
G01*
X-00157026Y-04518738D01*
G01*
X-00216672Y-04486857D01*
G01*
X-00268952Y-04443952D01*
G01*
X-00277445Y-04433603D01*
G01*
X-00304481Y-04484184D01*
G01*
X-00361066Y-04553134D01*
G01*
X-00430016Y-04609719D01*
G01*
X-00508679Y-04651765D01*
G01*
X-00594034Y-04677657D01*
G01*
X-00682800Y-04686400D01*
G01*
X-00771566Y-04677657D01*
G01*
X-00856921Y-04651765D01*
G01*
X-00935584Y-04609719D01*
G01*
X-01004534Y-04553134D01*
G01*
X-01061119Y-04484184D01*
G01*
X-01073297Y-04461400D01*
G01*
X-01161501Y-04461400D01*
G01*
X-01131262Y-04517974D01*
G01*
X-01111629Y-04582694D01*
G01*
X-01105000Y-04650000D01*
G01*
X-01111629Y-04717306D01*
G01*
X-01131262Y-04782026D01*
G01*
X-01163143Y-04841672D01*
G01*
X-01206048Y-04893952D01*
G01*
X-01258328Y-04936857D01*
G01*
X-01317974Y-04968738D01*
G01*
X-01382694Y-04988371D01*
G01*
X-01450000Y-04995000D01*
G01*
X-01467961Y-04993231D01*
G01*
X-02145763Y-05671033D01*
G01*
X-02088766Y-05653743D01*
G01*
X-02000000Y-05645000D01*
G01*
X-01911234Y-05653743D01*
G01*
X-01825879Y-05679635D01*
G01*
X-01747216Y-05721681D01*
G01*
X-01678266Y-05778266D01*
G01*
X-01621681Y-05847216D01*
G01*
X-01579635Y-05925879D01*
G01*
X-01553743Y-06011234D01*
G01*
X-01545000Y-06100000D01*
G01*
X-01553743Y-06188766D01*
G01*
X-01579635Y-06274121D01*
G01*
X-01621681Y-06352784D01*
G01*
X-01678266Y-06421734D01*
G01*
X-01747216Y-06478319D01*
G01*
X-01825798Y-06520322D01*
G01*
X-01829202Y-06545000D01*
G01*
X003100000Y-06545000D01*
G01*
X003119730Y-06545000D01*
G01*
X001837365Y-05262635D01*
G01*
X001808762Y-05227781D01*
G01*
X001787508Y-05188017D01*
G01*
X001774419Y-05144871D01*
G01*
X001770000Y-05100000D01*
G01*
X001770000Y-04274804D01*
G01*
X001728319Y-04352784D01*
G01*
X001671734Y-04421734D01*
G01*
X001602784Y-04478319D01*
G01*
X001524121Y-04520365D01*
G01*
X001438766Y-04546257D01*
G01*
X001350000Y-04555000D01*
G01*
X001261234Y-04546257D01*
G01*
X001175879Y-04520365D01*
G01*
X001097216Y-04478319D01*
G01*
X001028266Y-04421734D01*
G01*
X000971681Y-04352784D01*
G01*
X000929635Y-04274121D01*
G01*
X000903743Y-04188766D01*
G01*
X000895000Y-04100000D01*
G01*
X000903743Y-04011234D01*
G01*
X000929635Y-03925879D01*
G01*
X000971681Y-03847216D01*
G01*
X001028266Y-03778266D01*
G01*
X001097216Y-03721681D01*
G01*
X001175879Y-03679635D01*
G01*
X001261234Y-03653743D01*
G01*
X001350000Y-03645000D01*
G01*
X001438766Y-03653743D01*
G01*
X001524121Y-03679635D01*
G01*
X001602784Y-03721681D01*
G01*
X001671734Y-03778266D01*
G01*
X001728319Y-03847216D01*
G01*
X001770000Y-03925196D01*
G01*
X001770000Y-03305000D01*
G01*
X-05360862Y-03305000D01*
G01*
X-06629163Y-04534763D01*
G01*
X-06595000Y-04549223D01*
G01*
X-06595000Y-04697382D01*
G01*
X-06564842Y-04681262D01*
G01*
X-06500122Y-04661629D01*
G01*
X-06432816Y-04655000D01*
G01*
X-06365510Y-04661629D01*
G01*
X-06300790Y-04681262D01*
G01*
X-06241144Y-04713143D01*
G01*
X-06188864Y-04756048D01*
G01*
X-06145959Y-04808328D01*
G01*
X-06114078Y-04867974D01*
G01*
X-06094445Y-04932694D01*
G01*
X-06087816Y-05000000D01*
G01*
X-06094445Y-05067306D01*
G01*
X-06114078Y-05132026D01*
G01*
X-06145959Y-05191672D01*
G01*
X-06188864Y-05243952D01*
G01*
X-06241144Y-05286857D01*
G01*
X-06300790Y-05318738D01*
G01*
X-06365510Y-05338371D01*
G01*
X-06432816Y-05345000D01*
G01*
X-06500122Y-05338371D01*
G01*
X-06564842Y-05318738D01*
G01*
X-06624488Y-05286857D01*
G01*
X-06676768Y-05243952D01*
G01*
X-06719673Y-05191672D01*
G01*
X-06751554Y-05132026D01*
G01*
X-06771187Y-05067306D01*
G01*
X-06772399Y-05055000D01*
G01*
X-06995716Y-05055000D01*
G01*
X-05430000Y-06925310D01*
G01*
X-05430000Y-06150000D01*
G01*
X-05425581Y-06105129D01*
G01*
X-05423257Y-06097469D01*
G01*
X-05423886Y-06097321D01*
G01*
X-05113561Y-04778441D01*
G01*
X-05121734Y-04771734D01*
G01*
X-05178319Y-04702784D01*
G01*
X-05220365Y-04624121D01*
G01*
X-05246257Y-04538766D01*
G01*
X-05255000Y-04450000D01*
G01*
X-05246257Y-04361234D01*
G01*
X-05220365Y-04275879D01*
G01*
X-05178319Y-04197216D01*
G01*
X-05121734Y-04128266D01*
G01*
X-05052784Y-04071681D01*
G01*
X-04974121Y-04029635D01*
G01*
X-04888766Y-04003743D01*
G01*
X-04800000Y-03995000D01*
G01*
X-04711234Y-04003743D01*
G01*
X-04625879Y-04029635D01*
G01*
X-04547216Y-04071681D01*
G01*
X-04478266Y-04128266D01*
G01*
X-04421681Y-04197216D01*
G01*
X-04379635Y-04275879D01*
G01*
X-04353743Y-04361234D01*
G01*
X-04345000Y-04450000D01*
G01*
X-04353743Y-04538766D01*
G01*
X-04379635Y-04624121D01*
G01*
X-04421681Y-04702784D01*
G01*
X-04478266Y-04771734D01*
G01*
X-04547216Y-04828319D01*
G01*
X-04625879Y-04870365D01*
G01*
X-04665453Y-04882370D01*
G01*
X-04970000Y-06176694D01*
G01*
X-04970000Y-10005006D01*
G01*
X-04618346Y-10005006D01*
G01*
X-04626714Y-09856474D01*
G37*
%LPC*%
D21*
G36*
X-05649986Y-04645000D02*
G01*
X-05582680Y-04638371D01*
G01*
X-05517960Y-04618738D01*
G01*
X-05458314Y-04586857D01*
G01*
X-05406034Y-04543952D01*
G01*
X-05363129Y-04491672D01*
G01*
X-05331248Y-04432026D01*
G01*
X-05311615Y-04367306D01*
G01*
X-05304986Y-04300000D01*
G01*
X-05311615Y-04232694D01*
G01*
X-05331248Y-04167974D01*
G01*
X-05363129Y-04108328D01*
G01*
X-05406034Y-04056048D01*
G01*
X-05458314Y-04013143D01*
G01*
X-05517960Y-03981262D01*
G01*
X-05582680Y-03961629D01*
G01*
X-05649986Y-03955000D01*
G01*
X-05717292Y-03961629D01*
G01*
X-05782012Y-03981262D01*
G01*
X-05841658Y-04013143D01*
G01*
X-05893938Y-04056048D01*
G01*
X-05936843Y-04108328D01*
G01*
X-05968724Y-04167974D01*
G01*
X-05988357Y-04232694D01*
G01*
X-05994986Y-04300000D01*
G01*
X-05988357Y-04367306D01*
G01*
X-05968724Y-04432026D01*
G01*
X-05936843Y-04491672D01*
G01*
X-05893938Y-04543952D01*
G01*
X-05841658Y-04586857D01*
G01*
X-05782012Y-04618738D01*
G01*
X-05717292Y-04638371D01*
G01*
X-05649986Y-04645000D01*
G37*
D21*
G36*
X-04000000Y-05455000D02*
G01*
X-03911234Y-05446257D01*
G01*
X-03825879Y-05420365D01*
G01*
X-03747216Y-05378319D01*
G01*
X-03678266Y-05321734D01*
G01*
X-03621681Y-05252784D01*
G01*
X-03579635Y-05174121D01*
G01*
X-03553743Y-05088766D01*
G01*
X-03545000Y-05000000D01*
G01*
X-03553743Y-04911234D01*
G01*
X-03579635Y-04825879D01*
G01*
X-03621681Y-04747216D01*
G01*
X-03678266Y-04678266D01*
G01*
X-03747216Y-04621681D01*
G01*
X-03825879Y-04579635D01*
G01*
X-03911234Y-04553743D01*
G01*
X-04000000Y-04545000D01*
G01*
X-04088766Y-04553743D01*
G01*
X-04174121Y-04579635D01*
G01*
X-04252784Y-04621681D01*
G01*
X-04321734Y-04678266D01*
G01*
X-04378319Y-04747216D01*
G01*
X-04420365Y-04825879D01*
G01*
X-04446257Y-04911234D01*
G01*
X-04455000Y-05000000D01*
G01*
X-04446257Y-05088766D01*
G01*
X-04420365Y-05174121D01*
G01*
X-04378319Y-05252784D01*
G01*
X-04321734Y-05321734D01*
G01*
X-04252784Y-05378319D01*
G01*
X-04174121Y-05420365D01*
G01*
X-04088766Y-05446257D01*
G01*
X-04000000Y-05455000D01*
G37*
D21*
G36*
X-00050000Y-05945000D02*
G01*
X000017306Y-05938371D01*
G01*
X000082026Y-05918738D01*
G01*
X000141672Y-05886857D01*
G01*
X000193952Y-05843952D01*
G01*
X000236857Y-05791672D01*
G01*
X000268738Y-05732026D01*
G01*
X000288371Y-05667306D01*
G01*
X000295000Y-05600000D01*
G01*
X000288371Y-05532694D01*
G01*
X000268738Y-05467974D01*
G01*
X000236857Y-05408328D01*
G01*
X000193952Y-05356048D01*
G01*
X000141672Y-05313143D01*
G01*
X000082026Y-05281262D01*
G01*
X000017306Y-05261629D01*
G01*
X-00050000Y-05255000D01*
G01*
X-00117306Y-05261629D01*
G01*
X-00182026Y-05281262D01*
G01*
X-00241672Y-05313143D01*
G01*
X-00293952Y-05356048D01*
G01*
X-00336857Y-05408328D01*
G01*
X-00368738Y-05467974D01*
G01*
X-00388371Y-05532694D01*
G01*
X-00395000Y-05600000D01*
G01*
X-00388371Y-05667306D01*
G01*
X-00368738Y-05732026D01*
G01*
X-00336857Y-05791672D01*
G01*
X-00293952Y-05843952D01*
G01*
X-00241672Y-05886857D01*
G01*
X-00182026Y-05918738D01*
G01*
X-00117306Y-05938371D01*
G01*
X-00050000Y-05945000D01*
G37*
%LPD*%
D21*
G36*
X-05927781Y-02541238D02*
G01*
X-05962635Y-02512635D01*
G01*
X-05991238Y-02477781D01*
G01*
X-06012492Y-02438017D01*
G01*
X-06025581Y-02394871D01*
G01*
X-06030000Y-02350000D01*
G01*
X-06030000Y-02328522D01*
G01*
X-06057666Y-02362234D01*
G01*
X-06126616Y-02418819D01*
G01*
X-06205279Y-02460865D01*
G01*
X-06290634Y-02486757D01*
G01*
X-06379400Y-02495500D01*
G01*
X-06468166Y-02486757D01*
G01*
X-06553521Y-02460865D01*
G01*
X-06632184Y-02418819D01*
G01*
X-06701134Y-02362234D01*
G01*
X-06757719Y-02293284D01*
G01*
X-06799765Y-02214621D01*
G01*
X-06825657Y-02129266D01*
G01*
X-06834400Y-02040500D01*
G01*
X-06825657Y-01951734D01*
G01*
X-06799765Y-01866379D01*
G01*
X-06757719Y-01787716D01*
G01*
X-06701134Y-01718766D01*
G01*
X-06653897Y-01680000D01*
G01*
X-07000000Y-01680000D01*
G01*
X-07044871Y-01675581D01*
G01*
X-07088017Y-01662492D01*
G01*
X-07127781Y-01641238D01*
G01*
X-07162635Y-01612635D01*
G01*
X-07191238Y-01577781D01*
G01*
X-07212492Y-01538017D01*
G01*
X-07225581Y-01494871D01*
G01*
X-07230000Y-01450000D01*
G01*
X-07230000Y002170000D01*
G01*
X-08950000Y002170000D01*
G01*
X-08994871Y002174419D01*
G01*
X-09038017Y002187508D01*
G01*
X-09077781Y002208762D01*
G01*
X-09112635Y002237365D01*
G01*
X-09141238Y002272219D01*
G01*
X-09162492Y002311983D01*
G01*
X-09175581Y002355129D01*
G01*
X-09180000Y002400000D01*
G01*
X-09180000Y005337585D01*
G01*
X-10036442Y004252028D01*
G01*
X-10034543Y004245766D01*
G01*
X-10025800Y004157000D01*
G01*
X-10034543Y004068234D01*
G01*
X-10060435Y003982879D01*
G01*
X-10102481Y003904216D01*
G01*
X-10159066Y003835266D01*
G01*
X-10228016Y003778681D01*
G01*
X-10306679Y003736635D01*
G01*
X-10392034Y003710743D01*
G01*
X-10480800Y003702000D01*
G01*
X-10569566Y003710743D01*
G01*
X-10654921Y003736635D01*
G01*
X-10733584Y003778681D01*
G01*
X-10802534Y003835266D01*
G01*
X-10859119Y003904216D01*
G01*
X-10901165Y003982879D01*
G01*
X-10927057Y004068234D01*
G01*
X-10935800Y004157000D01*
G01*
X-10927057Y004245766D01*
G01*
X-10901165Y004331121D01*
G01*
X-10859119Y004409784D01*
G01*
X-10802534Y004478734D01*
G01*
X-10733584Y004535319D01*
G01*
X-10654921Y004577365D01*
G01*
X-10569566Y004603257D01*
G01*
X-10492095Y004610887D01*
G01*
X-09746805Y005555558D01*
G01*
X-09768029Y005549119D01*
G01*
X-09812900Y005544700D01*
G01*
X-10762503Y005544700D01*
G01*
X-10774681Y005521916D01*
G01*
X-10831266Y005452966D01*
G01*
X-10900216Y005396381D01*
G01*
X-10978879Y005354335D01*
G01*
X-11064234Y005328443D01*
G01*
X-11153000Y005319700D01*
G01*
X-11241766Y005328443D01*
G01*
X-11327121Y005354335D01*
G01*
X-11405784Y005396381D01*
G01*
X-11474734Y005452966D01*
G01*
X-11531319Y005521916D01*
G01*
X-11573365Y005600579D01*
G01*
X-11599257Y005685934D01*
G01*
X-11605378Y005748083D01*
G01*
X-12393876Y004921434D01*
G01*
X-12388800Y004869900D01*
G01*
X-12397543Y004781134D01*
G01*
X-12423435Y004695779D01*
G01*
X-12465481Y004617116D01*
G01*
X-12522066Y004548166D01*
G01*
X-12591016Y004491581D01*
G01*
X-12669679Y004449535D01*
G01*
X-12755034Y004423643D01*
G01*
X-12843800Y004414900D01*
G01*
X-12932566Y004423643D01*
G01*
X-13017921Y004449535D01*
G01*
X-13096584Y004491581D01*
G01*
X-13165534Y004548166D01*
G01*
X-13222119Y004617116D01*
G01*
X-13264165Y004695779D01*
G01*
X-13290057Y004781134D01*
G01*
X-13298800Y004869900D01*
G01*
X-13290057Y004958666D01*
G01*
X-13264165Y005044021D01*
G01*
X-13222119Y005122684D01*
G01*
X-13165534Y005191634D01*
G01*
X-13096584Y005248219D01*
G01*
X-13017921Y005290265D01*
G01*
X-12932566Y005316157D01*
G01*
X-12843800Y005324900D01*
G01*
X-12813423Y005321908D01*
G01*
X-11813627Y006370080D01*
G01*
X-11813199Y006369671D01*
G01*
X-11808842Y006374980D01*
G01*
X-11778600Y006399799D01*
G01*
X-11779325Y006400753D01*
G01*
X-10109325Y007670753D01*
G01*
X-10108600Y007669799D01*
G01*
X-10094896Y007681045D01*
G01*
X-10062052Y007698600D01*
G01*
X-10062613Y007699731D01*
G01*
X-07740251Y008851316D01*
G01*
X-08924734Y008875159D01*
G01*
X-08924724Y008875674D01*
G01*
X-08975473Y008880672D01*
G01*
X-09028654Y008896805D01*
G01*
X-09028701Y008896691D01*
G01*
X-09248701Y008986691D01*
G01*
X-09248654Y008986805D01*
G01*
X-09249875Y008987175D01*
G01*
X-09271384Y008998672D01*
G01*
X-09272012Y008997456D01*
G01*
X-09822089Y009281661D01*
G01*
X-09825879Y009279635D01*
G01*
X-09911234Y009253743D01*
G01*
X-10000000Y009245000D01*
G01*
X-10088766Y009253743D01*
G01*
X-10174121Y009279635D01*
G01*
X-10252784Y009321681D01*
G01*
X-10321734Y009378266D01*
G01*
X-10378319Y009447216D01*
G01*
X-10420365Y009525879D01*
G01*
X-10446257Y009611234D01*
G01*
X-10455000Y009700000D01*
G01*
X-10446257Y009788766D01*
G01*
X-10420365Y009874121D01*
G01*
X-10378319Y009952784D01*
G01*
X-10377657Y009953591D01*
G01*
X-13255000Y009606226D01*
G01*
X-13255000Y006493384D01*
G01*
X-13221681Y006452784D01*
G01*
X-13179635Y006374121D01*
G01*
X-13153743Y006288766D01*
G01*
X-13145000Y006200000D01*
G01*
X-13153743Y006111234D01*
G01*
X-13179635Y006025879D01*
G01*
X-13221681Y005947216D01*
G01*
X-13278266Y005878266D01*
G01*
X-13347216Y005821681D01*
G01*
X-13425879Y005779635D01*
G01*
X-13511234Y005753743D01*
G01*
X-13600000Y005745000D01*
G01*
X-13688766Y005753743D01*
G01*
X-13774121Y005779635D01*
G01*
X-13852784Y005821681D01*
G01*
X-13921734Y005878266D01*
G01*
X-13978319Y005947216D01*
G01*
X-14020365Y006025879D01*
G01*
X-14046257Y006111234D01*
G01*
X-14055000Y006200000D01*
G01*
X-14046257Y006288766D01*
G01*
X-14020365Y006374121D01*
G01*
X-13978319Y006452784D01*
G01*
X-13921734Y006521734D01*
G01*
X-13852784Y006578319D01*
G01*
X-13774121Y006620365D01*
G01*
X-13745000Y006629199D01*
G01*
X-13745000Y009547071D01*
G01*
X-14137353Y009499704D01*
G01*
X-14140981Y009492916D01*
G01*
X-14197566Y009423966D01*
G01*
X-14266516Y009367381D01*
G01*
X-14345179Y009325335D01*
G01*
X-14430534Y009299443D01*
G01*
X-14519300Y009290700D01*
G01*
X-14608066Y009299443D01*
G01*
X-14693421Y009325335D01*
G01*
X-14772084Y009367381D01*
G01*
X-14841034Y009423966D01*
G01*
X-14841300Y009424290D01*
G01*
X-14841300Y005523870D01*
G01*
X-14241865Y004924435D01*
G01*
X-14213262Y004889581D01*
G01*
X-14192008Y004849817D01*
G01*
X-14178919Y004806671D01*
G01*
X-14174500Y004761800D01*
G01*
X-14174500Y003370870D01*
G01*
X-10649693Y-00153878D01*
G01*
X-10655000Y-00100000D01*
G01*
X-10646257Y-00011234D01*
G01*
X-10620365Y000074121D01*
G01*
X-10578319Y000152784D01*
G01*
X-10521734Y000221734D01*
G01*
X-10452784Y000278319D01*
G01*
X-10412221Y000300000D01*
G01*
X-10452784Y000321681D01*
G01*
X-10521734Y000378266D01*
G01*
X-10578319Y000447216D01*
G01*
X-10620365Y000525879D01*
G01*
X-10646257Y000611234D01*
G01*
X-10655000Y000700000D01*
G01*
X-10646257Y000788766D01*
G01*
X-10620365Y000874121D01*
G01*
X-10578319Y000952784D01*
G01*
X-10521734Y001021734D01*
G01*
X-10452784Y001078319D01*
G01*
X-10412221Y001100000D01*
G01*
X-10452784Y001121681D01*
G01*
X-10521734Y001178266D01*
G01*
X-10578319Y001247216D01*
G01*
X-10620365Y001325879D01*
G01*
X-10646257Y001411234D01*
G01*
X-10655000Y001500000D01*
G01*
X-10646257Y001588766D01*
G01*
X-10620365Y001674121D01*
G01*
X-10578319Y001752784D01*
G01*
X-10521734Y001821734D01*
G01*
X-10452784Y001878319D01*
G01*
X-10374121Y001920365D01*
G01*
X-10288766Y001946257D01*
G01*
X-10200000Y001955000D01*
G01*
X-10111234Y001946257D01*
G01*
X-10025879Y001920365D01*
G01*
X-09947216Y001878319D01*
G01*
X-09878266Y001821734D01*
G01*
X-09821681Y001752784D01*
G01*
X-09779635Y001674121D01*
G01*
X-09753743Y001588766D01*
G01*
X-09745000Y001500000D01*
G01*
X-09753743Y001411234D01*
G01*
X-09779635Y001325879D01*
G01*
X-09821681Y001247216D01*
G01*
X-09878266Y001178266D01*
G01*
X-09947216Y001121681D01*
G01*
X-09987779Y001100000D01*
G01*
X-09947216Y001078319D01*
G01*
X-09878266Y001021734D01*
G01*
X-09821681Y000952784D01*
G01*
X-09779635Y000874121D01*
G01*
X-09753743Y000788766D01*
G01*
X-09745000Y000700000D01*
G01*
X-09753743Y000611234D01*
G01*
X-09779635Y000525879D01*
G01*
X-09821681Y000447216D01*
G01*
X-09878266Y000378266D01*
G01*
X-09947216Y000321681D01*
G01*
X-09987779Y000300000D01*
G01*
X-09947216Y000278319D01*
G01*
X-09878266Y000221734D01*
G01*
X-09821681Y000152784D01*
G01*
X-09779635Y000074121D01*
G01*
X-09753743Y-00011234D01*
G01*
X-09745000Y-00100000D01*
G01*
X-09753743Y-00188766D01*
G01*
X-09779635Y-00274121D01*
G01*
X-09821681Y-00352784D01*
G01*
X-09878266Y-00421734D01*
G01*
X-09947216Y-00478319D01*
G01*
X-10025879Y-00520365D01*
G01*
X-10111234Y-00546257D01*
G01*
X-10200000Y-00555000D01*
G01*
X-10253871Y-00549694D01*
G01*
X-08258532Y-02545000D01*
G01*
X-05920743Y-02545000D01*
G01*
X-05927781Y-02541238D01*
G37*
D21*
G36*
X013468091Y-17031909D02*
G01*
X013154697Y-16650037D01*
G01*
X012921824Y-16214362D01*
G01*
X012778421Y-15741628D01*
G01*
X012730000Y-15250000D01*
G01*
X012778421Y-14758372D01*
G01*
X012921824Y-14285638D01*
G01*
X013154697Y-13849963D01*
G01*
X013468091Y-13468091D01*
G01*
X013849963Y-13154697D01*
G01*
X014285638Y-12921824D01*
G01*
X014758372Y-12778421D01*
G01*
X015250000Y-12730000D01*
G01*
X015741628Y-12778421D01*
G01*
X016214362Y-12921824D01*
G01*
X016650037Y-13154697D01*
G01*
X017031909Y-13468091D01*
G01*
X017200000Y-13672911D01*
G01*
X017200000Y013672911D01*
G01*
X017031909Y013468091D01*
G01*
X016650037Y013154697D01*
G01*
X016214362Y012921824D01*
G01*
X015741628Y012778421D01*
G01*
X015250000Y012730000D01*
G01*
X014758372Y012778421D01*
G01*
X014285638Y012921824D01*
G01*
X013849963Y013154697D01*
G01*
X013468091Y013468091D01*
G01*
X013154697Y013849963D01*
G01*
X012921824Y014285638D01*
G01*
X012778421Y014758372D01*
G01*
X012730000Y015250000D01*
G01*
X012778421Y015741628D01*
G01*
X012921824Y016214362D01*
G01*
X013154697Y016650037D01*
G01*
X013468091Y017031909D01*
G01*
X013672911Y017200000D01*
G01*
X-13672911Y017200000D01*
G01*
X-13468091Y017031909D01*
G01*
X-13154697Y016650037D01*
G01*
X-12921824Y016214362D01*
G01*
X-12778421Y015741628D01*
G01*
X-12730000Y015250000D01*
G01*
X-12778421Y014758372D01*
G01*
X-12921824Y014285638D01*
G01*
X-13154697Y013849963D01*
G01*
X-13468091Y013468091D01*
G01*
X-13849963Y013154697D01*
G01*
X-14285638Y012921824D01*
G01*
X-14758372Y012778421D01*
G01*
X-15250000Y012730000D01*
G01*
X-15741628Y012778421D01*
G01*
X-16214362Y012921824D01*
G01*
X-16650037Y013154697D01*
G01*
X-17031909Y013468091D01*
G01*
X-17200000Y013672911D01*
G01*
X-17200000Y-01710430D01*
G01*
X-17152784Y-01671681D01*
G01*
X-17074121Y-01629635D01*
G01*
X-16988766Y-01603743D01*
G01*
X-16900000Y-01595000D01*
G01*
X-16811234Y-01603743D01*
G01*
X-16768615Y-01616671D01*
G01*
X-16774000Y-01562000D01*
G01*
X-16765257Y-01473234D01*
G01*
X-16739365Y-01387879D01*
G01*
X-16697319Y-01309216D01*
G01*
X-16640734Y-01240266D01*
G01*
X-16571784Y-01183681D01*
G01*
X-16493121Y-01141635D01*
G01*
X-16445000Y-01127038D01*
G01*
X-16445000Y005817520D01*
G01*
X-16452784Y005821681D01*
G01*
X-16521734Y005878266D01*
G01*
X-16578319Y005947216D01*
G01*
X-16620365Y006025879D01*
G01*
X-16646257Y006111234D01*
G01*
X-16655000Y006200000D01*
G01*
X-16646257Y006288766D01*
G01*
X-16620365Y006374121D01*
G01*
X-16578319Y006452784D01*
G01*
X-16521734Y006521734D01*
G01*
X-16452784Y006578319D01*
G01*
X-16374121Y006620365D01*
G01*
X-16288766Y006646257D01*
G01*
X-16200000Y006655000D01*
G01*
X-16111234Y006646257D01*
G01*
X-16025879Y006620365D01*
G01*
X-15947216Y006578319D01*
G01*
X-15878266Y006521734D01*
G01*
X-15821681Y006452784D01*
G01*
X-15779635Y006374121D01*
G01*
X-15753743Y006288766D01*
G01*
X-15745000Y006200000D01*
G01*
X-15753743Y006111234D01*
G01*
X-15779635Y006025879D01*
G01*
X-15821681Y005947216D01*
G01*
X-15878266Y005878266D01*
G01*
X-15947216Y005821681D01*
G01*
X-15955000Y005817520D01*
G01*
X-15955000Y-01291768D01*
G01*
X-15940681Y-01309216D01*
G01*
X-15898635Y-01387879D01*
G01*
X-15872743Y-01473234D01*
G01*
X-15864000Y-01562000D01*
G01*
X-15872743Y-01650766D01*
G01*
X-15898635Y-01736121D01*
G01*
X-15940681Y-01814784D01*
G01*
X-15955000Y-01832232D01*
G01*
X-15955000Y-02751353D01*
G01*
X-15951479Y-02787109D01*
G01*
X-15943270Y-02814169D01*
G01*
X-15929940Y-02839108D01*
G01*
X-15912000Y-02860967D01*
G01*
X-15890141Y-02878907D01*
G01*
X-15829159Y-02911502D01*
G01*
X-14955000Y-03348581D01*
G01*
X-14955000Y-03145000D01*
G01*
X-12627893Y-03145000D01*
G01*
X-12576471Y-03314518D01*
G01*
X-12548817Y-03366255D01*
G01*
X-12511602Y-03411602D01*
G01*
X-12466255Y-03448817D01*
G01*
X-12414518Y-03476471D01*
G01*
X-12358381Y-03493500D01*
G01*
X-12300000Y-03499250D01*
G01*
X-12241619Y-03493500D01*
G01*
X-12156864Y-03467790D01*
G01*
X-12088398Y-03411602D01*
G01*
X-12051183Y-03366255D01*
G01*
X-12023529Y-03314518D01*
G01*
X-11972107Y-03145000D01*
G01*
X-07964985Y-03145000D01*
G01*
X-07928219Y-03076216D01*
G01*
X-07871634Y-03007266D01*
G01*
X-07868873Y-03005000D01*
G01*
X-08353800Y-03005000D01*
G01*
X-08398671Y-03000581D01*
G01*
X-08441817Y-02987492D01*
G01*
X-08481581Y-02966238D01*
G01*
X-08516435Y-02937635D01*
G01*
X-08516440Y-02937629D01*
G01*
X-14567129Y003112960D01*
G01*
X-14567135Y003112965D01*
G01*
X-14595738Y003147819D01*
G01*
X-14616992Y003187583D01*
G01*
X-14630081Y003230729D01*
G01*
X-14634500Y003275600D01*
G01*
X-14634500Y004666530D01*
G01*
X-15233935Y005265965D01*
G01*
X-15262538Y005300819D01*
G01*
X-15283792Y005340583D01*
G01*
X-15296881Y005383729D01*
G01*
X-15301300Y005428600D01*
G01*
X-15301300Y009414090D01*
G01*
X-15358216Y009367381D01*
G01*
X-15436879Y009325335D01*
G01*
X-15522234Y009299443D01*
G01*
X-15611000Y009290700D01*
G01*
X-15699766Y009299443D01*
G01*
X-15785121Y009325335D01*
G01*
X-15863784Y009367381D01*
G01*
X-15932734Y009423966D01*
G01*
X-15989319Y009492916D01*
G01*
X-16031365Y009571579D01*
G01*
X-16057257Y009656934D01*
G01*
X-16066000Y009745700D01*
G01*
X-16057257Y009834466D01*
G01*
X-16031365Y009919821D01*
G01*
X-15989319Y009998484D01*
G01*
X-15932734Y010067434D01*
G01*
X-15863784Y010124019D01*
G01*
X-15785121Y010166065D01*
G01*
X-15699766Y010191957D01*
G01*
X-15611000Y010200700D01*
G01*
X-15522234Y010191957D01*
G01*
X-15436879Y010166065D01*
G01*
X-15358216Y010124019D01*
G01*
X-15301300Y010077310D01*
G01*
X-15301300Y011195500D01*
G01*
X-15296881Y011240371D01*
G01*
X-15283792Y011283517D01*
G01*
X-15262538Y011323281D01*
G01*
X-15233935Y011358135D01*
G01*
X-14429435Y012162635D01*
G01*
X-14421998Y012168738D01*
G01*
X-14420365Y012174121D01*
G01*
X-14378319Y012252784D01*
G01*
X-14321734Y012321734D01*
G01*
X-14252784Y012378319D01*
G01*
X-14174121Y012420365D01*
G01*
X-14088766Y012446257D01*
G01*
X-14000000Y012455000D01*
G01*
X-13911234Y012446257D01*
G01*
X-13825879Y012420365D01*
G01*
X-13747216Y012378319D01*
G01*
X-13678266Y012321734D01*
G01*
X-13621681Y012252784D01*
G01*
X-13579635Y012174121D01*
G01*
X-13553743Y012088766D01*
G01*
X-13545000Y012000000D01*
G01*
X-13553743Y011911234D01*
G01*
X-13579635Y011825879D01*
G01*
X-13621681Y011747216D01*
G01*
X-13678266Y011678266D01*
G01*
X-13747216Y011621681D01*
G01*
X-13825879Y011579635D01*
G01*
X-13911234Y011553743D01*
G01*
X-14000000Y011545000D01*
G01*
X-14007518Y011545741D01*
G01*
X-13978266Y011521734D01*
G01*
X-13921681Y011452784D01*
G01*
X-13879635Y011374121D01*
G01*
X-13853743Y011288766D01*
G01*
X-13845000Y011200000D01*
G01*
X-13853743Y011111234D01*
G01*
X-13879635Y011025879D01*
G01*
X-13921273Y010947980D01*
G01*
X-13850000Y010955000D01*
G01*
X-13761234Y010946257D01*
G01*
X-13675879Y010920365D01*
G01*
X-13597216Y010878319D01*
G01*
X-13528266Y010821734D01*
G01*
X-13471681Y010752784D01*
G01*
X-13467520Y010745000D01*
G01*
X-13255000Y010745000D01*
G01*
X-13255000Y010190438D01*
G01*
X-09584058Y010633610D01*
G01*
X-09583899Y010632292D01*
G01*
X-09549300Y010635700D01*
G01*
X-09545574Y010635333D01*
G01*
X-09545570Y010635676D01*
G01*
X-07345628Y010607382D01*
G01*
X-07378319Y010647216D01*
G01*
X-07420365Y010725879D01*
G01*
X-07446257Y010811234D01*
G01*
X-07455000Y010900000D01*
G01*
X-07446257Y010988766D01*
G01*
X-07420365Y011074121D01*
G01*
X-07378319Y011152784D01*
G01*
X-07321734Y011221734D01*
G01*
X-07252784Y011278319D01*
G01*
X-07174121Y011320365D01*
G01*
X-07166753Y011322600D01*
G01*
X-07203759Y011322600D01*
G01*
X-07254716Y011280781D01*
G01*
X-07333379Y011238735D01*
G01*
X-07418734Y011212843D01*
G01*
X-07507500Y011204100D01*
G01*
X-07596266Y011212843D01*
G01*
X-07681621Y011238735D01*
G01*
X-07760284Y011280781D01*
G01*
X-07829234Y011337366D01*
G01*
X-07885819Y011406316D01*
G01*
X-07927865Y011484979D01*
G01*
X-07953757Y011570334D01*
G01*
X-07962500Y011659100D01*
G01*
X-07953757Y011747866D01*
G01*
X-07927865Y011833221D01*
G01*
X-07885819Y011911884D01*
G01*
X-07829234Y011980834D01*
G01*
X-07760284Y012037419D01*
G01*
X-07745220Y012045471D01*
G01*
X-07750000Y012045000D01*
G01*
X-07838766Y012053743D01*
G01*
X-07924121Y012079635D01*
G01*
X-08002784Y012121681D01*
G01*
X-08071734Y012178266D01*
G01*
X-08128319Y012247216D01*
G01*
X-08170365Y012325879D01*
G01*
X-08196257Y012411234D01*
G01*
X-08205000Y012500000D01*
G01*
X-08196257Y012588766D01*
G01*
X-08170365Y012674121D01*
G01*
X-08128319Y012752784D01*
G01*
X-08071734Y012821734D01*
G01*
X-08002784Y012878319D01*
G01*
X-07924121Y012920365D01*
G01*
X-07838766Y012946257D01*
G01*
X-07750000Y012955000D01*
G01*
X-07661234Y012946257D01*
G01*
X-07575879Y012920365D01*
G01*
X-07497216Y012878319D01*
G01*
X-07428266Y012821734D01*
G01*
X-07371681Y012752784D01*
G01*
X-07359503Y012730000D01*
G01*
X-02248157Y012730000D01*
G01*
X-02303319Y012797216D01*
G01*
X-02345365Y012875879D01*
G01*
X-02371257Y012961234D01*
G01*
X-02380000Y013050000D01*
G01*
X-02371257Y013138766D01*
G01*
X-02345365Y013224121D01*
G01*
X-02303319Y013302784D01*
G01*
X-02246734Y013371734D01*
G01*
X-02177784Y013428319D01*
G01*
X-02099121Y013470365D01*
G01*
X-02013766Y013496257D01*
G01*
X-01925000Y013505000D01*
G01*
X-01836234Y013496257D01*
G01*
X-01750879Y013470365D01*
G01*
X-01672216Y013428319D01*
G01*
X-01603266Y013371734D01*
G01*
X-01546681Y013302784D01*
G01*
X-01504635Y013224121D01*
G01*
X-01478743Y013138766D01*
G01*
X-01470000Y013050000D01*
G01*
X-01478743Y012961234D01*
G01*
X-01504635Y012875879D01*
G01*
X-01546681Y012797216D01*
G01*
X-01601843Y012730000D01*
G01*
X004950000Y012730000D01*
G01*
X004994871Y012725581D01*
G01*
X005038017Y012712492D01*
G01*
X005077781Y012691238D01*
G01*
X005112635Y012662635D01*
G01*
X005112643Y012662626D01*
G01*
X009067276Y008707600D01*
G01*
X010203000Y008707600D01*
G01*
X010247871Y008703181D01*
G01*
X010291017Y008690092D01*
G01*
X010330781Y008668838D01*
G01*
X010365612Y008640253D01*
G01*
X010365614Y008640255D01*
G01*
X010365629Y008640240D01*
G01*
X010365635Y008640235D01*
G01*
X010365640Y008640229D01*
G01*
X013286458Y005720141D01*
G01*
X013311234Y005727657D01*
G01*
X013400000Y005736400D01*
G01*
X013488766Y005727657D01*
G01*
X013512875Y005720344D01*
G01*
X010494508Y008738711D01*
G01*
X010383759Y008738711D01*
G01*
X010338888Y008743130D01*
G01*
X010295742Y008756219D01*
G01*
X010255978Y008777473D01*
G01*
X010221124Y008806076D01*
G01*
X008954725Y010072476D01*
G01*
X008926121Y010107329D01*
G01*
X008904867Y010147093D01*
G01*
X008891779Y010190239D01*
G01*
X008887359Y010235110D01*
G01*
X008887359Y010369015D01*
G01*
X005900885Y013530000D01*
G01*
X-07533029Y013530000D01*
G01*
X-08457774Y013530000D01*
G01*
X-10362637Y012806152D01*
G01*
X-10659730Y012454136D01*
G01*
X-10655128Y012407414D01*
G01*
X-10661757Y012340108D01*
G01*
X-10681390Y012275388D01*
G01*
X-10713271Y012215742D01*
G01*
X-10756176Y012163462D01*
G01*
X-10808456Y012120557D01*
G01*
X-10868102Y012088676D01*
G01*
X-10932822Y012069043D01*
G01*
X-11000128Y012062414D01*
G01*
X-11067434Y012069043D01*
G01*
X-11132154Y012088676D01*
G01*
X-11191800Y012120557D01*
G01*
X-11244080Y012163462D01*
G01*
X-11286985Y012215742D01*
G01*
X-11318866Y012275388D01*
G01*
X-11338499Y012340108D01*
G01*
X-11345128Y012407414D01*
G01*
X-11338499Y012474720D01*
G01*
X-11318866Y012539440D01*
G01*
X-11286985Y012599086D01*
G01*
X-11244080Y012651366D01*
G01*
X-11191800Y012694271D01*
G01*
X-11132154Y012726152D01*
G01*
X-11067434Y012745785D01*
G01*
X-11010810Y012751362D01*
G01*
X-10761990Y013046181D01*
G01*
X-10838766Y013053743D01*
G01*
X-10924121Y013079635D01*
G01*
X-11002784Y013121681D01*
G01*
X-11071734Y013178266D01*
G01*
X-11128319Y013247216D01*
G01*
X-11170365Y013325879D01*
G01*
X-11196257Y013411234D01*
G01*
X-11205000Y013500000D01*
G01*
X-11196257Y013588766D01*
G01*
X-11170365Y013674121D01*
G01*
X-11128319Y013752784D01*
G01*
X-11071734Y013821734D01*
G01*
X-11002784Y013878319D01*
G01*
X-10924121Y013920365D01*
G01*
X-10838766Y013946257D01*
G01*
X-10750000Y013955000D01*
G01*
X-10661234Y013946257D01*
G01*
X-10575879Y013920365D01*
G01*
X-10497216Y013878319D01*
G01*
X-10428266Y013821734D01*
G01*
X-10371681Y013752784D01*
G01*
X-10329635Y013674121D01*
G01*
X-10303743Y013588766D01*
G01*
X-10295000Y013500000D01*
G01*
X-10303743Y013411234D01*
G01*
X-10329635Y013325879D01*
G01*
X-10339759Y013306937D01*
G01*
X-08581700Y013975000D01*
G01*
X-08581498Y013974470D01*
G01*
X-08544871Y013985581D01*
G01*
X-08500000Y013990000D01*
G01*
X-07533029Y013990000D01*
G01*
X-01360410Y013990000D01*
G01*
X-01360734Y013990266D01*
G01*
X-01417319Y014059216D01*
G01*
X-01459365Y014137879D01*
G01*
X-01485257Y014223234D01*
G01*
X-01494000Y014312000D01*
G01*
X-01485257Y014400766D01*
G01*
X-01459365Y014486121D01*
G01*
X-01417319Y014564784D01*
G01*
X-01360734Y014633734D01*
G01*
X-01291784Y014690319D01*
G01*
X-01213121Y014732365D01*
G01*
X-01127766Y014758257D01*
G01*
X-01039000Y014767000D01*
G01*
X-00950234Y014758257D01*
G01*
X-00864879Y014732365D01*
G01*
X-00786216Y014690319D01*
G01*
X-00717266Y014633734D01*
G01*
X-00660681Y014564784D01*
G01*
X-00618635Y014486121D01*
G01*
X-00592743Y014400766D01*
G01*
X-00584000Y014312000D01*
G01*
X-00592743Y014223234D01*
G01*
X-00618635Y014137879D01*
G01*
X-00660681Y014059216D01*
G01*
X-00717266Y013990266D01*
G01*
X-00717590Y013990000D01*
G01*
X006000000Y013990000D01*
G01*
X006044871Y013985581D01*
G01*
X006088017Y013972492D01*
G01*
X006127781Y013951238D01*
G01*
X006162635Y013922635D01*
G01*
X006166785Y013917577D01*
G01*
X006167184Y013917954D01*
G01*
X009284543Y010618436D01*
G01*
X009284144Y010618059D01*
G01*
X009308597Y010588263D01*
G01*
X009329852Y010548499D01*
G01*
X009342940Y010505353D01*
G01*
X009347359Y010460482D01*
G01*
X009347359Y010330380D01*
G01*
X009524224Y010153515D01*
G01*
X009496235Y010205879D01*
G01*
X009470343Y010291234D01*
G01*
X009461600Y010380000D01*
G01*
X009470343Y010468766D01*
G01*
X009496235Y010554121D01*
G01*
X009538281Y010632784D01*
G01*
X009594866Y010701734D01*
G01*
X009663816Y010758319D01*
G01*
X009742479Y010800365D01*
G01*
X009827834Y010826257D01*
G01*
X009916600Y010835000D01*
G01*
X010005366Y010826257D01*
G01*
X010090721Y010800365D01*
G01*
X010169384Y010758319D01*
G01*
X010238334Y010701734D01*
G01*
X010294919Y010632784D01*
G01*
X010336965Y010554121D01*
G01*
X010362857Y010468766D01*
G01*
X010371600Y010380000D01*
G01*
X010362857Y010291234D01*
G01*
X010336965Y010205879D01*
G01*
X010294919Y010127216D01*
G01*
X010238334Y010058266D01*
G01*
X010169384Y010001681D01*
G01*
X010090721Y009959635D01*
G01*
X010005366Y009933743D01*
G01*
X009916600Y009925000D01*
G01*
X009827834Y009933743D01*
G01*
X009742479Y009959635D01*
G01*
X009690114Y009987624D01*
G01*
X010479027Y009198711D01*
G01*
X010589777Y009198711D01*
G01*
X010634648Y009194292D01*
G01*
X010677794Y009181203D01*
G01*
X010717558Y009159949D01*
G01*
X010752412Y009131345D01*
G01*
X015276762Y004606995D01*
G01*
X015305366Y004572142D01*
G01*
X015326620Y004532378D01*
G01*
X015339708Y004489231D01*
G01*
X015344128Y004444360D01*
G01*
X015344128Y-01403536D01*
G01*
X015339708Y-01448407D01*
G01*
X015326620Y-01491553D01*
G01*
X015305366Y-01531317D01*
G01*
X015276762Y-01566170D01*
G01*
X015250006Y-01588129D01*
G01*
X015250474Y-01588764D01*
G01*
X010691786Y-04944419D01*
G01*
X010722643Y-04933399D01*
G01*
X010722925Y-04934189D01*
G01*
X010755129Y-04924419D01*
G01*
X010800000Y-04920000D01*
G01*
X011350000Y-04920000D01*
G01*
X011394871Y-04924419D01*
G01*
X011438017Y-04937508D01*
G01*
X011477781Y-04958762D01*
G01*
X011512635Y-04987365D01*
G01*
X011541238Y-05022219D01*
G01*
X011562492Y-05061983D01*
G01*
X011575581Y-05105129D01*
G01*
X011580000Y-05150000D01*
G01*
X011580000Y-06606900D01*
G01*
X012844830Y-06606900D01*
G01*
X013238242Y-06213488D01*
G01*
X013230743Y-06188766D01*
G01*
X013222000Y-06100000D01*
G01*
X013230743Y-06011234D01*
G01*
X013256635Y-05925879D01*
G01*
X013298681Y-05847216D01*
G01*
X013355266Y-05778266D01*
G01*
X013424216Y-05721681D01*
G01*
X013502879Y-05679635D01*
G01*
X013588234Y-05653743D01*
G01*
X013677000Y-05645000D01*
G01*
X013765766Y-05653743D01*
G01*
X013851121Y-05679635D01*
G01*
X013929784Y-05721681D01*
G01*
X013998734Y-05778266D01*
G01*
X014055319Y-05847216D01*
G01*
X014097365Y-05925879D01*
G01*
X014123257Y-06011234D01*
G01*
X014132000Y-06100000D01*
G01*
X014123257Y-06188766D01*
G01*
X014097365Y-06274121D01*
G01*
X014055319Y-06352784D01*
G01*
X013998734Y-06421734D01*
G01*
X013929784Y-06478319D01*
G01*
X013851121Y-06520365D01*
G01*
X013765766Y-06546257D01*
G01*
X013677000Y-06555000D01*
G01*
X013588234Y-06546257D01*
G01*
X013563512Y-06538758D01*
G01*
X013102735Y-06999535D01*
G01*
X013067881Y-07028138D01*
G01*
X013028117Y-07049392D01*
G01*
X012984971Y-07062481D01*
G01*
X012940100Y-07066900D01*
G01*
X011350000Y-07066900D01*
G01*
X011305129Y-07062481D01*
G01*
X011261983Y-07049392D01*
G01*
X011222219Y-07028138D01*
G01*
X011187365Y-06999535D01*
G01*
X011158762Y-06964681D01*
G01*
X011137508Y-06924917D01*
G01*
X011124419Y-06881771D01*
G01*
X011120000Y-06836900D01*
G01*
X011120000Y-06038468D01*
G01*
X011114219Y-06049284D01*
G01*
X011057634Y-06118234D01*
G01*
X010988684Y-06174819D01*
G01*
X010910021Y-06216865D01*
G01*
X010824666Y-06242757D01*
G01*
X010735900Y-06251500D01*
G01*
X010647134Y-06242757D01*
G01*
X010561779Y-06216865D01*
G01*
X010483116Y-06174819D01*
G01*
X010414166Y-06118234D01*
G01*
X010357581Y-06049284D01*
G01*
X010315535Y-05970621D01*
G01*
X010289643Y-05885266D01*
G01*
X010280900Y-05796500D01*
G01*
X010289643Y-05707734D01*
G01*
X010315535Y-05622379D01*
G01*
X010351953Y-05554245D01*
G01*
X010177357Y-05616601D01*
G01*
X010177075Y-05615811D01*
G01*
X010175682Y-05616234D01*
G01*
X010175981Y-05617087D01*
G01*
X009406346Y-05886459D01*
G01*
X009449121Y-05899435D01*
G01*
X009527784Y-05941481D01*
G01*
X009596734Y-05998066D01*
G01*
X009653319Y-06067016D01*
G01*
X009695365Y-06145679D01*
G01*
X009721257Y-06231034D01*
G01*
X009730000Y-06319800D01*
G01*
X009721257Y-06408566D01*
G01*
X009695365Y-06493921D01*
G01*
X009653319Y-06572584D01*
G01*
X009596734Y-06641534D01*
G01*
X009527784Y-06698119D01*
G01*
X009449121Y-06740165D01*
G01*
X009363766Y-06766057D01*
G01*
X009275000Y-06774800D01*
G01*
X009186234Y-06766057D01*
G01*
X009100879Y-06740165D01*
G01*
X009022216Y-06698119D01*
G01*
X008953266Y-06641534D01*
G01*
X008930000Y-06613184D01*
G01*
X008930000Y-06850000D01*
G01*
X008925581Y-06894871D01*
G01*
X008912492Y-06938017D01*
G01*
X008891238Y-06977781D01*
G01*
X008862635Y-07012635D01*
G01*
X008827781Y-07041238D01*
G01*
X008788017Y-07062492D01*
G01*
X008744871Y-07075581D01*
G01*
X008700000Y-07080000D01*
G01*
X003750000Y-07080000D01*
G01*
X003705129Y-07075581D01*
G01*
X003661983Y-07062492D01*
G01*
X003622219Y-07041238D01*
G01*
X003605000Y-07027107D01*
G01*
X003605000Y-08326834D01*
G01*
X003662200Y-08321200D01*
G01*
X003750966Y-08329943D01*
G01*
X003775688Y-08337442D01*
G01*
X004914165Y-07198965D01*
G01*
X004949019Y-07170362D01*
G01*
X004988783Y-07149108D01*
G01*
X005031929Y-07136019D01*
G01*
X005076800Y-07131600D01*
G01*
X009280800Y-07131600D01*
G01*
X009325671Y-07136019D01*
G01*
X009368817Y-07149108D01*
G01*
X009408581Y-07170362D01*
G01*
X009443435Y-07198965D01*
G01*
X010081007Y-07836537D01*
G01*
X010086543Y-07780334D01*
G01*
X010112435Y-07694979D01*
G01*
X010154481Y-07616316D01*
G01*
X010211066Y-07547366D01*
G01*
X010280016Y-07490781D01*
G01*
X010358679Y-07448735D01*
G01*
X010444034Y-07422843D01*
G01*
X010532800Y-07414100D01*
G01*
X010621566Y-07422843D01*
G01*
X010706921Y-07448735D01*
G01*
X010785584Y-07490781D01*
G01*
X010854534Y-07547366D01*
G01*
X010911119Y-07616316D01*
G01*
X010953165Y-07694979D01*
G01*
X010979057Y-07780334D01*
G01*
X010987800Y-07869100D01*
G01*
X010979057Y-07957866D01*
G01*
X010953165Y-08043221D01*
G01*
X010911119Y-08121884D01*
G01*
X010854534Y-08190834D01*
G01*
X010785584Y-08247419D01*
G01*
X010706921Y-08289465D01*
G01*
X010621566Y-08315357D01*
G01*
X010565363Y-08320893D01*
G01*
X013043262Y-10798792D01*
G01*
X013083621Y-10811035D01*
G01*
X013162284Y-10853081D01*
G01*
X013231234Y-10909666D01*
G01*
X013287819Y-10978616D01*
G01*
X013329865Y-11057279D01*
G01*
X013355757Y-11142634D01*
G01*
X013364500Y-11231400D01*
G01*
X013355757Y-11320166D01*
G01*
X013329865Y-11405521D01*
G01*
X013287819Y-11484184D01*
G01*
X013231234Y-11553134D01*
G01*
X013162284Y-11609719D01*
G01*
X013083621Y-11651765D01*
G01*
X012998266Y-11677657D01*
G01*
X012909500Y-11686400D01*
G01*
X012820734Y-11677657D01*
G01*
X012735379Y-11651765D01*
G01*
X012656716Y-11609719D01*
G01*
X012587766Y-11553134D01*
G01*
X012531181Y-11484184D01*
G01*
X012489135Y-11405521D01*
G01*
X012463243Y-11320166D01*
G01*
X012454500Y-11231400D01*
G01*
X012463243Y-11142634D01*
G01*
X012489135Y-11057279D01*
G01*
X012531181Y-10978616D01*
G01*
X012549826Y-10955896D01*
G01*
X011022662Y-09428732D01*
G01*
X011016857Y-09487666D01*
G01*
X010990965Y-09573021D01*
G01*
X010948919Y-09651684D01*
G01*
X010892334Y-09720634D01*
G01*
X010823384Y-09777219D01*
G01*
X010744721Y-09819265D01*
G01*
X010659366Y-09845157D01*
G01*
X010570600Y-09853900D01*
G01*
X010481834Y-09845157D01*
G01*
X010396479Y-09819265D01*
G01*
X010317816Y-09777219D01*
G01*
X010248866Y-09720634D01*
G01*
X010192281Y-09651684D01*
G01*
X010150235Y-09573021D01*
G01*
X010124343Y-09487666D01*
G01*
X010115600Y-09398900D01*
G01*
X010124343Y-09310134D01*
G01*
X010150235Y-09224779D01*
G01*
X010192281Y-09146116D01*
G01*
X010248866Y-09077166D01*
G01*
X010317816Y-09020581D01*
G01*
X010396479Y-08978535D01*
G01*
X010481834Y-08952643D01*
G01*
X010540768Y-08946838D01*
G01*
X009185530Y-07591600D01*
G01*
X007727254Y-07591600D01*
G01*
X007760234Y-07618666D01*
G01*
X007816819Y-07687616D01*
G01*
X007858865Y-07766279D01*
G01*
X007864057Y-07783395D01*
G01*
X007868266Y-07778266D01*
G01*
X007937216Y-07721681D01*
G01*
X008015879Y-07679635D01*
G01*
X008101234Y-07653743D01*
G01*
X008190000Y-07645000D01*
G01*
X008278766Y-07653743D01*
G01*
X008364121Y-07679635D01*
G01*
X008442784Y-07721681D01*
G01*
X008511734Y-07778266D01*
G01*
X008568319Y-07847216D01*
G01*
X008610365Y-07925879D01*
G01*
X008636257Y-08011234D01*
G01*
X008645000Y-08100000D01*
G01*
X008636257Y-08188766D01*
G01*
X008610365Y-08274121D01*
G01*
X008568319Y-08352784D01*
G01*
X008511734Y-08421734D01*
G01*
X008442784Y-08478319D01*
G01*
X008364121Y-08520365D01*
G01*
X008307634Y-08537500D01*
G01*
X008755903Y-08537500D01*
G01*
X008768081Y-08514716D01*
G01*
X008824666Y-08445766D01*
G01*
X008893616Y-08389181D01*
G01*
X008972279Y-08347135D01*
G01*
X009057634Y-08321243D01*
G01*
X009146400Y-08312500D01*
G01*
X009235166Y-08321243D01*
G01*
X009320521Y-08347135D01*
G01*
X009399184Y-08389181D01*
G01*
X009468134Y-08445766D01*
G01*
X009524719Y-08514716D01*
G01*
X009566765Y-08593379D01*
G01*
X009592657Y-08678734D01*
G01*
X009601400Y-08767500D01*
G01*
X009592657Y-08856266D01*
G01*
X009566765Y-08941621D01*
G01*
X009524719Y-09020284D01*
G01*
X009468134Y-09089234D01*
G01*
X009399184Y-09145819D01*
G01*
X009320521Y-09187865D01*
G01*
X009235166Y-09213757D01*
G01*
X009146400Y-09222500D01*
G01*
X009057634Y-09213757D01*
G01*
X008972279Y-09187865D01*
G01*
X008893616Y-09145819D01*
G01*
X008824666Y-09089234D01*
G01*
X008768081Y-09020284D01*
G01*
X008755903Y-08997500D01*
G01*
X007329170Y-08997500D01*
G01*
X006747037Y-09579633D01*
G01*
X006767306Y-09581629D01*
G01*
X006832026Y-09601262D01*
G01*
X006891672Y-09633143D01*
G01*
X006943952Y-09676048D01*
G01*
X006986857Y-09728328D01*
G01*
X007018738Y-09787974D01*
G01*
X007038371Y-09852694D01*
G01*
X007045000Y-09920000D01*
G01*
X007043231Y-09937961D01*
G01*
X010625270Y-13520000D01*
G01*
X011927418Y-13520000D01*
G01*
X011938868Y-13506048D01*
G01*
X011991148Y-13463143D01*
G01*
X012050794Y-13431262D01*
G01*
X012115514Y-13411629D01*
G01*
X012182820Y-13405000D01*
G01*
X012250126Y-13411629D01*
G01*
X012314846Y-13431262D01*
G01*
X012374492Y-13463143D01*
G01*
X012426772Y-13506048D01*
G01*
X012469677Y-13558328D01*
G01*
X012501558Y-13617974D01*
G01*
X012521191Y-13682694D01*
G01*
X012527820Y-13750000D01*
G01*
X012521191Y-13817306D01*
G01*
X012501558Y-13882026D01*
G01*
X012469677Y-13941672D01*
G01*
X012426772Y-13993952D01*
G01*
X012374492Y-14036857D01*
G01*
X012314846Y-14068738D01*
G01*
X012250126Y-14088371D01*
G01*
X012182820Y-14095000D01*
G01*
X012115514Y-14088371D01*
G01*
X012050794Y-14068738D01*
G01*
X011991148Y-14036857D01*
G01*
X011938868Y-13993952D01*
G01*
X011927418Y-13980000D01*
G01*
X010530000Y-13980000D01*
G01*
X010485129Y-13975581D01*
G01*
X010441983Y-13962492D01*
G01*
X010402219Y-13941238D01*
G01*
X010367365Y-13912635D01*
G01*
X008197250Y-11742520D01*
G01*
X008217165Y-11779779D01*
G01*
X008243057Y-11865134D01*
G01*
X008251800Y-11953900D01*
G01*
X008243057Y-12042666D01*
G01*
X008217165Y-12128021D01*
G01*
X008175119Y-12206684D01*
G01*
X008118534Y-12275634D01*
G01*
X008049584Y-12332219D01*
G01*
X007970921Y-12374265D01*
G01*
X007885566Y-12400157D01*
G01*
X007796800Y-12408900D01*
G01*
X007708034Y-12400157D01*
G01*
X007622679Y-12374265D01*
G01*
X007544016Y-12332219D01*
G01*
X007475066Y-12275634D01*
G01*
X007418481Y-12206684D01*
G01*
X007376435Y-12128021D01*
G01*
X007350543Y-12042666D01*
G01*
X007341800Y-11953900D01*
G01*
X007350543Y-11865134D01*
G01*
X007357551Y-11842032D01*
G01*
X007351672Y-11846857D01*
G01*
X007292026Y-11878738D01*
G01*
X007227306Y-11898371D01*
G01*
X007160000Y-11905000D01*
G01*
X007092694Y-11898371D01*
G01*
X007027974Y-11878738D01*
G01*
X006968328Y-11846857D01*
G01*
X006916048Y-11803952D01*
G01*
X006873143Y-11751672D01*
G01*
X006841262Y-11692026D01*
G01*
X006821629Y-11627306D01*
G01*
X006815000Y-11560000D01*
G01*
X006821629Y-11492694D01*
G01*
X006841262Y-11427974D01*
G01*
X006873143Y-11368328D01*
G01*
X006916048Y-11316048D01*
G01*
X006968328Y-11273143D01*
G01*
X007027974Y-11241262D01*
G01*
X007092694Y-11221629D01*
G01*
X007160000Y-11215000D01*
G01*
X007227306Y-11221629D01*
G01*
X007292026Y-11241262D01*
G01*
X007351672Y-11273143D01*
G01*
X007403952Y-11316048D01*
G01*
X007446857Y-11368328D01*
G01*
X007478738Y-11427974D01*
G01*
X007498371Y-11492694D01*
G01*
X007505000Y-11560000D01*
G01*
X007499900Y-11611786D01*
G01*
X007544016Y-11575581D01*
G01*
X007622679Y-11533535D01*
G01*
X007708034Y-11507643D01*
G01*
X007796800Y-11498900D01*
G01*
X007885566Y-11507643D01*
G01*
X007970921Y-11533535D01*
G01*
X008008180Y-11553450D01*
G01*
X006717961Y-10263231D01*
G01*
X006700000Y-10265000D01*
G01*
X006632694Y-10258371D01*
G01*
X006567974Y-10238738D01*
G01*
X006508328Y-10206857D01*
G01*
X006456048Y-10163952D01*
G01*
X006413143Y-10111672D01*
G01*
X006381262Y-10052026D01*
G01*
X006361629Y-09987306D01*
G01*
X006359633Y-09967037D01*
G01*
X004087800Y-12238870D01*
G01*
X004087800Y-12385903D01*
G01*
X004110584Y-12398081D01*
G01*
X004179534Y-12454666D01*
G01*
X004236119Y-12523616D01*
G01*
X004278165Y-12602279D01*
G01*
X004304057Y-12687634D01*
G01*
X004312800Y-12776400D01*
G01*
X004304057Y-12865166D01*
G01*
X004278165Y-12950521D01*
G01*
X004236119Y-13029184D01*
G01*
X004214569Y-13055443D01*
G01*
X004464629Y-13032181D01*
G01*
X004496681Y-12972216D01*
G01*
X004553266Y-12903266D01*
G01*
X004622216Y-12846681D01*
G01*
X004700879Y-12804635D01*
G01*
X004786234Y-12778743D01*
G01*
X004875000Y-12770000D01*
G01*
X004963766Y-12778743D01*
G01*
X005049121Y-12804635D01*
G01*
X005127784Y-12846681D01*
G01*
X005196734Y-12903266D01*
G01*
X005252732Y-12971500D01*
G01*
X005253743Y-12961234D01*
G01*
X005279635Y-12875879D01*
G01*
X005321681Y-12797216D01*
G01*
X005378266Y-12728266D01*
G01*
X005447216Y-12671681D01*
G01*
X005525879Y-12629635D01*
G01*
X005611234Y-12603743D01*
G01*
X005700000Y-12595000D01*
G01*
X005788766Y-12603743D01*
G01*
X005866386Y-12627289D01*
G01*
X005817881Y-12568184D01*
G01*
X005775835Y-12489521D01*
G01*
X005749943Y-12404166D01*
G01*
X005741200Y-12315400D01*
G01*
X005749943Y-12226634D01*
G01*
X005775835Y-12141279D01*
G01*
X005817881Y-12062616D01*
G01*
X005874466Y-11993666D01*
G01*
X005943416Y-11937081D01*
G01*
X006022079Y-11895035D01*
G01*
X006107434Y-11869143D01*
G01*
X006196200Y-11860400D01*
G01*
X006284966Y-11869143D01*
G01*
X006370321Y-11895035D01*
G01*
X006448984Y-11937081D01*
G01*
X006517934Y-11993666D01*
G01*
X006574519Y-12062616D01*
G01*
X006616565Y-12141279D01*
G01*
X006642457Y-12226634D01*
G01*
X006651200Y-12315400D01*
G01*
X006642457Y-12404166D01*
G01*
X006616565Y-12489521D01*
G01*
X006574519Y-12568184D01*
G01*
X006517934Y-12637134D01*
G01*
X006448984Y-12693719D01*
G01*
X006370321Y-12735765D01*
G01*
X006284966Y-12761657D01*
G01*
X006196200Y-12770400D01*
G01*
X006107434Y-12761657D01*
G01*
X006029814Y-12738111D01*
G01*
X006078319Y-12797216D01*
G01*
X006120365Y-12875879D01*
G01*
X006146257Y-12961234D01*
G01*
X006155000Y-13050000D01*
G01*
X006146257Y-13138766D01*
G01*
X006120365Y-13224121D01*
G01*
X006078319Y-13302784D01*
G01*
X006021734Y-13371734D01*
G01*
X005952784Y-13428319D01*
G01*
X005874121Y-13470365D01*
G01*
X005788766Y-13496257D01*
G01*
X005700000Y-13505000D01*
G01*
X005611234Y-13496257D01*
G01*
X005525879Y-13470365D01*
G01*
X005447216Y-13428319D01*
G01*
X005378266Y-13371734D01*
G01*
X005322268Y-13303500D01*
G01*
X005321257Y-13313766D01*
G01*
X005295365Y-13399121D01*
G01*
X005253319Y-13477784D01*
G01*
X005196734Y-13546734D01*
G01*
X005127784Y-13603319D01*
G01*
X005049121Y-13645365D01*
G01*
X004963766Y-13671257D01*
G01*
X004875000Y-13680000D01*
G01*
X004786234Y-13671257D01*
G01*
X004700879Y-13645365D01*
G01*
X004622216Y-13603319D01*
G01*
X004553266Y-13546734D01*
G01*
X004506899Y-13490235D01*
G01*
X003821303Y-13554011D01*
G01*
X003821201Y-13552912D01*
G01*
X003800000Y-13555000D01*
G01*
X003755129Y-13550581D01*
G01*
X003711983Y-13537492D01*
G01*
X003711556Y-13537264D01*
G01*
X003711538Y-13537308D01*
G01*
X003411538Y-13412308D01*
G01*
X003411556Y-13412264D01*
G01*
X003372219Y-13391238D01*
G01*
X003355000Y-13377107D01*
G01*
X003355000Y-14766144D01*
G01*
X003158381Y-14706500D01*
G01*
X003100000Y-14700750D01*
G01*
X003041619Y-14706500D01*
G01*
X002985482Y-14723529D01*
G01*
X002933745Y-14751183D01*
G01*
X002888398Y-14788398D01*
G01*
X002851183Y-14833745D01*
G01*
X002823529Y-14885482D01*
G01*
X002806500Y-14941619D01*
G01*
X002800750Y-15000000D01*
G01*
X002806500Y-15058381D01*
G01*
X002823529Y-15114518D01*
G01*
X002851183Y-15166255D01*
G01*
X002888398Y-15211602D01*
G01*
X002933745Y-15248817D01*
G01*
X002985482Y-15276471D01*
G01*
X003041619Y-15293500D01*
G01*
X003100000Y-15299250D01*
G01*
X003158381Y-15293500D01*
G01*
X003355000Y-15233856D01*
G01*
X003355000Y-16255000D01*
G01*
X-12943545Y-16255000D01*
G01*
X-13154697Y-16650037D01*
G01*
X-13468091Y-17031909D01*
G01*
X-13672911Y-17200000D01*
G01*
X013672911Y-17200000D01*
G01*
X013468091Y-17031909D01*
G37*
%LPC*%
D21*
G36*
X-12250000Y014545000D02*
G01*
X-12161234Y014553743D01*
G01*
X-12075879Y014579635D01*
G01*
X-11997216Y014621681D01*
G01*
X-11928266Y014678266D01*
G01*
X-11871681Y014747216D01*
G01*
X-11829635Y014825879D01*
G01*
X-11803743Y014911234D01*
G01*
X-11795000Y015000000D01*
G01*
X-11803743Y015088766D01*
G01*
X-11829635Y015174121D01*
G01*
X-11871681Y015252784D01*
G01*
X-11928266Y015321734D01*
G01*
X-11997216Y015378319D01*
G01*
X-12075879Y015420365D01*
G01*
X-12161234Y015446257D01*
G01*
X-12250000Y015455000D01*
G01*
X-12338766Y015446257D01*
G01*
X-12424121Y015420365D01*
G01*
X-12502784Y015378319D01*
G01*
X-12571734Y015321734D01*
G01*
X-12628319Y015252784D01*
G01*
X-12670365Y015174121D01*
G01*
X-12696257Y015088766D01*
G01*
X-12705000Y015000000D01*
G01*
X-12696257Y014911234D01*
G01*
X-12670365Y014825879D01*
G01*
X-12628319Y014747216D01*
G01*
X-12571734Y014678266D01*
G01*
X-12502784Y014621681D01*
G01*
X-12424121Y014579635D01*
G01*
X-12338766Y014553743D01*
G01*
X-12250000Y014545000D01*
G37*
D21*
G36*
X009575000Y013270000D02*
G01*
X009663766Y013278743D01*
G01*
X009749121Y013304635D01*
G01*
X009827784Y013346681D01*
G01*
X009896734Y013403266D01*
G01*
X009953319Y013472216D01*
G01*
X009995365Y013550879D01*
G01*
X010021257Y013636234D01*
G01*
X010030000Y013725000D01*
G01*
X010021257Y013813766D01*
G01*
X009995365Y013899121D01*
G01*
X009953319Y013977784D01*
G01*
X009896734Y014046734D01*
G01*
X009827784Y014103319D01*
G01*
X009749121Y014145365D01*
G01*
X009663766Y014171257D01*
G01*
X009607494Y014176799D01*
G01*
X009620365Y014200879D01*
G01*
X009646257Y014286234D01*
G01*
X009655000Y014375000D01*
G01*
X009646257Y014463766D01*
G01*
X009620365Y014549121D01*
G01*
X009578319Y014627784D01*
G01*
X009521734Y014696734D01*
G01*
X009452784Y014753319D01*
G01*
X009374121Y014795365D01*
G01*
X009288766Y014821257D01*
G01*
X009200000Y014830000D01*
G01*
X009111234Y014821257D01*
G01*
X009025879Y014795365D01*
G01*
X008947216Y014753319D01*
G01*
X008878266Y014696734D01*
G01*
X008821681Y014627784D01*
G01*
X008779635Y014549121D01*
G01*
X008753743Y014463766D01*
G01*
X008745000Y014375000D01*
G01*
X008753743Y014286234D01*
G01*
X008779635Y014200879D01*
G01*
X008821681Y014122216D01*
G01*
X008878266Y014053266D01*
G01*
X008947216Y013996681D01*
G01*
X009025879Y013954635D01*
G01*
X009111234Y013928743D01*
G01*
X009167506Y013923201D01*
G01*
X009154635Y013899121D01*
G01*
X009128743Y013813766D01*
G01*
X009120000Y013725000D01*
G01*
X009128743Y013636234D01*
G01*
X009154635Y013550879D01*
G01*
X009196681Y013472216D01*
G01*
X009253266Y013403266D01*
G01*
X009322216Y013346681D01*
G01*
X009400879Y013304635D01*
G01*
X009486234Y013278743D01*
G01*
X009575000Y013270000D01*
G37*
D21*
G36*
X-12000126Y012062414D02*
G01*
X-11932820Y012069043D01*
G01*
X-11868100Y012088676D01*
G01*
X-11808454Y012120557D01*
G01*
X-11756174Y012163462D01*
G01*
X-11713269Y012215742D01*
G01*
X-11681388Y012275388D01*
G01*
X-11661755Y012340108D01*
G01*
X-11655126Y012407414D01*
G01*
X-11661755Y012474720D01*
G01*
X-11681388Y012539440D01*
G01*
X-11713269Y012599086D01*
G01*
X-11756174Y012651366D01*
G01*
X-11808454Y012694271D01*
G01*
X-11868100Y012726152D01*
G01*
X-11932820Y012745785D01*
G01*
X-12000126Y012752414D01*
G01*
X-12067432Y012745785D01*
G01*
X-12132152Y012726152D01*
G01*
X-12191798Y012694271D01*
G01*
X-12244078Y012651366D01*
G01*
X-12286983Y012599086D01*
G01*
X-12318864Y012539440D01*
G01*
X-12338497Y012474720D01*
G01*
X-12345126Y012407414D01*
G01*
X-12338497Y012340108D01*
G01*
X-12318864Y012275388D01*
G01*
X-12286983Y012215742D01*
G01*
X-12244078Y012163462D01*
G01*
X-12191798Y012120557D01*
G01*
X-12132152Y012088676D01*
G01*
X-12067432Y012069043D01*
G01*
X-12000126Y012062414D01*
G37*
D21*
G36*
X009829884Y011155000D02*
G01*
X009897190Y011161629D01*
G01*
X009961910Y011181262D01*
G01*
X010021556Y011213143D01*
G01*
X010073836Y011256048D01*
G01*
X010116741Y011308328D01*
G01*
X010148622Y011367974D01*
G01*
X010168255Y011432694D01*
G01*
X010174884Y011500000D01*
G01*
X010168255Y011567306D01*
G01*
X010148622Y011632026D01*
G01*
X010116741Y011691672D01*
G01*
X010073836Y011743952D01*
G01*
X010021556Y011786857D01*
G01*
X009961910Y011818738D01*
G01*
X009897190Y011838371D01*
G01*
X009829884Y011845000D01*
G01*
X009762578Y011838371D01*
G01*
X009697858Y011818738D01*
G01*
X009638212Y011786857D01*
G01*
X009585932Y011743952D01*
G01*
X009543027Y011691672D01*
G01*
X009511146Y011632026D01*
G01*
X009491513Y011567306D01*
G01*
X009484884Y011500000D01*
G01*
X009491513Y011432694D01*
G01*
X009511146Y011367974D01*
G01*
X009543027Y011308328D01*
G01*
X009585932Y011256048D01*
G01*
X009638212Y011213143D01*
G01*
X009697858Y011181262D01*
G01*
X009762578Y011161629D01*
G01*
X009829884Y011155000D01*
G37*
D21*
G36*
X007935400Y010224700D02*
G01*
X008024166Y010233443D01*
G01*
X008109521Y010259335D01*
G01*
X008188184Y010301381D01*
G01*
X008257134Y010357966D01*
G01*
X008313719Y010426916D01*
G01*
X008355765Y010505579D01*
G01*
X008381657Y010590934D01*
G01*
X008390400Y010679700D01*
G01*
X008381657Y010768466D01*
G01*
X008355765Y010853821D01*
G01*
X008313719Y010932484D01*
G01*
X008257134Y011001434D01*
G01*
X008188184Y011058019D01*
G01*
X008109521Y011100065D01*
G01*
X008024166Y011125957D01*
G01*
X007935400Y011134700D01*
G01*
X007846634Y011125957D01*
G01*
X007819277Y011117658D01*
G01*
X007820000Y011125000D01*
G01*
X007813371Y011192306D01*
G01*
X007793738Y011257026D01*
G01*
X007761857Y011316672D01*
G01*
X007718952Y011368952D01*
G01*
X007666672Y011411857D01*
G01*
X007607026Y011443738D01*
G01*
X007542306Y011463371D01*
G01*
X007475000Y011470000D01*
G01*
X007407694Y011463371D01*
G01*
X007342974Y011443738D01*
G01*
X007283328Y011411857D01*
G01*
X007231048Y011368952D01*
G01*
X007188143Y011316672D01*
G01*
X007156262Y011257026D01*
G01*
X007136629Y011192306D01*
G01*
X007130000Y011125000D01*
G01*
X007136629Y011057694D01*
G01*
X007156262Y010992974D01*
G01*
X007188143Y010933328D01*
G01*
X007231048Y010881048D01*
G01*
X007283328Y010838143D01*
G01*
X007342974Y010806262D01*
G01*
X007407694Y010786629D01*
G01*
X007475000Y010780000D01*
G01*
X007493185Y010781791D01*
G01*
X007489143Y010768466D01*
G01*
X007480400Y010679700D01*
G01*
X007489143Y010590934D01*
G01*
X007515035Y010505579D01*
G01*
X007557081Y010426916D01*
G01*
X007613666Y010357966D01*
G01*
X007682616Y010301381D01*
G01*
X007761279Y010259335D01*
G01*
X007846634Y010233443D01*
G01*
X007935400Y010224700D01*
G37*
D21*
G36*
X-11500000Y010545000D02*
G01*
X-11411234Y010553743D01*
G01*
X-11325879Y010579635D01*
G01*
X-11247216Y010621681D01*
G01*
X-11178266Y010678266D01*
G01*
X-11121681Y010747216D01*
G01*
X-11079635Y010825879D01*
G01*
X-11053743Y010911234D01*
G01*
X-11045000Y011000000D01*
G01*
X-11053743Y011088766D01*
G01*
X-11079635Y011174121D01*
G01*
X-11121681Y011252784D01*
G01*
X-11178266Y011321734D01*
G01*
X-11247216Y011378319D01*
G01*
X-11325879Y011420365D01*
G01*
X-11411234Y011446257D01*
G01*
X-11500000Y011455000D01*
G01*
X-11588766Y011446257D01*
G01*
X-11674121Y011420365D01*
G01*
X-11752784Y011378319D01*
G01*
X-11821734Y011321734D01*
G01*
X-11878319Y011252784D01*
G01*
X-11920365Y011174121D01*
G01*
X-11946257Y011088766D01*
G01*
X-11955000Y011000000D01*
G01*
X-11946257Y010911234D01*
G01*
X-11920365Y010825879D01*
G01*
X-11878319Y010747216D01*
G01*
X-11821734Y010678266D01*
G01*
X-11752784Y010621681D01*
G01*
X-11674121Y010579635D01*
G01*
X-11588766Y010553743D01*
G01*
X-11500000Y010545000D01*
G37*
D21*
G36*
X012600000Y009770000D02*
G01*
X012688766Y009778743D01*
G01*
X012774121Y009804635D01*
G01*
X012852784Y009846681D01*
G01*
X012921734Y009903266D01*
G01*
X012978319Y009972216D01*
G01*
X013020365Y010050879D01*
G01*
X013046257Y010136234D01*
G01*
X013055000Y010225000D01*
G01*
X013046257Y010313766D01*
G01*
X013020365Y010399121D01*
G01*
X012978319Y010477784D01*
G01*
X012921734Y010546734D01*
G01*
X012852784Y010603319D01*
G01*
X012774121Y010645365D01*
G01*
X012688766Y010671257D01*
G01*
X012600000Y010680000D01*
G01*
X012511234Y010671257D01*
G01*
X012425879Y010645365D01*
G01*
X012347216Y010603319D01*
G01*
X012278266Y010546734D01*
G01*
X012221681Y010477784D01*
G01*
X012179635Y010399121D01*
G01*
X012153743Y010313766D01*
G01*
X012145000Y010225000D01*
G01*
X012153743Y010136234D01*
G01*
X012179635Y010050879D01*
G01*
X012221681Y009972216D01*
G01*
X012278266Y009903266D01*
G01*
X012347216Y009846681D01*
G01*
X012425879Y009804635D01*
G01*
X012511234Y009778743D01*
G01*
X012600000Y009770000D01*
G37*
D21*
G36*
X011475200Y009245300D02*
G01*
X011563966Y009254043D01*
G01*
X011649321Y009279935D01*
G01*
X011727984Y009321981D01*
G01*
X011796934Y009378566D01*
G01*
X011853519Y009447516D01*
G01*
X011895565Y009526179D01*
G01*
X011921457Y009611534D01*
G01*
X011930200Y009700300D01*
G01*
X011921457Y009789066D01*
G01*
X011895565Y009874421D01*
G01*
X011853519Y009953084D01*
G01*
X011796934Y010022034D01*
G01*
X011727984Y010078619D01*
G01*
X011649321Y010120665D01*
G01*
X011563966Y010146557D01*
G01*
X011475200Y010155300D01*
G01*
X011386434Y010146557D01*
G01*
X011301079Y010120665D01*
G01*
X011222416Y010078619D01*
G01*
X011153466Y010022034D01*
G01*
X011096881Y009953084D01*
G01*
X011054835Y009874421D01*
G01*
X011028943Y009789066D01*
G01*
X011020200Y009700300D01*
G01*
X011028943Y009611534D01*
G01*
X011054835Y009526179D01*
G01*
X011096881Y009447516D01*
G01*
X011153466Y009378566D01*
G01*
X011222416Y009321981D01*
G01*
X011301079Y009279935D01*
G01*
X011386434Y009254043D01*
G01*
X011475200Y009245300D01*
G37*
D21*
G36*
X-11809700Y-03073400D02*
G01*
X-11720934Y-03064657D01*
G01*
X-11635579Y-03038765D01*
G01*
X-11556916Y-02996719D01*
G01*
X-11487966Y-02940134D01*
G01*
X-11431381Y-02871184D01*
G01*
X-11389335Y-02792521D01*
G01*
X-11363443Y-02707166D01*
G01*
X-11354700Y-02618400D01*
G01*
X-11363443Y-02529634D01*
G01*
X-11389335Y-02444279D01*
G01*
X-11431381Y-02365616D01*
G01*
X-11487966Y-02296666D01*
G01*
X-11556916Y-02240081D01*
G01*
X-11635579Y-02198035D01*
G01*
X-11720934Y-02172143D01*
G01*
X-11809700Y-02163400D01*
G01*
X-11898466Y-02172143D01*
G01*
X-11983821Y-02198035D01*
G01*
X-12062484Y-02240081D01*
G01*
X-12131434Y-02296666D01*
G01*
X-12188019Y-02365616D01*
G01*
X-12230065Y-02444279D01*
G01*
X-12255957Y-02529634D01*
G01*
X-12264700Y-02618400D01*
G01*
X-12255957Y-02707166D01*
G01*
X-12230065Y-02792521D01*
G01*
X-12188019Y-02871184D01*
G01*
X-12131434Y-02940134D01*
G01*
X-12062484Y-02996719D01*
G01*
X-11983821Y-03038765D01*
G01*
X-11898466Y-03064657D01*
G01*
X-11809700Y-03073400D01*
G37*
D21*
G36*
X010021600Y-07474500D02*
G01*
X010110366Y-07465757D01*
G01*
X010195721Y-07439865D01*
G01*
X010274384Y-07397819D01*
G01*
X010343334Y-07341234D01*
G01*
X010399919Y-07272284D01*
G01*
X010441965Y-07193621D01*
G01*
X010467857Y-07108266D01*
G01*
X010476600Y-07019500D01*
G01*
X010467857Y-06930734D01*
G01*
X010441965Y-06845379D01*
G01*
X010399919Y-06766716D01*
G01*
X010343334Y-06697766D01*
G01*
X010274384Y-06641181D01*
G01*
X010195721Y-06599135D01*
G01*
X010110366Y-06573243D01*
G01*
X010021600Y-06564500D01*
G01*
X009932834Y-06573243D01*
G01*
X009847479Y-06599135D01*
G01*
X009768816Y-06641181D01*
G01*
X009699866Y-06697766D01*
G01*
X009643281Y-06766716D01*
G01*
X009601235Y-06845379D01*
G01*
X009575343Y-06930734D01*
G01*
X009566600Y-07019500D01*
G01*
X009575343Y-07108266D01*
G01*
X009601235Y-07193621D01*
G01*
X009643281Y-07272284D01*
G01*
X009699866Y-07341234D01*
G01*
X009768816Y-07397819D01*
G01*
X009847479Y-07439865D01*
G01*
X009932834Y-07465757D01*
G01*
X010021600Y-07474500D01*
G37*
D21*
G36*
X010600000Y-11955000D02*
G01*
X010688766Y-11946257D01*
G01*
X010774121Y-11920365D01*
G01*
X010852784Y-11878319D01*
G01*
X010921734Y-11821734D01*
G01*
X010978319Y-11752784D01*
G01*
X011020365Y-11674121D01*
G01*
X011046257Y-11588766D01*
G01*
X011055000Y-11500000D01*
G01*
X011046257Y-11411234D01*
G01*
X011020365Y-11325879D01*
G01*
X010978319Y-11247216D01*
G01*
X010921734Y-11178266D01*
G01*
X010852784Y-11121681D01*
G01*
X010774121Y-11079635D01*
G01*
X010688766Y-11053743D01*
G01*
X010600000Y-11045000D01*
G01*
X010511234Y-11053743D01*
G01*
X010425879Y-11079635D01*
G01*
X010347216Y-11121681D01*
G01*
X010278266Y-11178266D01*
G01*
X010221681Y-11247216D01*
G01*
X010179635Y-11325879D01*
G01*
X010153743Y-11411234D01*
G01*
X010145000Y-11500000D01*
G01*
X010153743Y-11588766D01*
G01*
X010179635Y-11674121D01*
G01*
X010221681Y-11752784D01*
G01*
X010278266Y-11821734D01*
G01*
X010347216Y-11878319D01*
G01*
X010425879Y-11920365D01*
G01*
X010511234Y-11946257D01*
G01*
X010600000Y-11955000D01*
G37*
D21*
G36*
X011567184Y-12345000D02*
G01*
X011634490Y-12338371D01*
G01*
X011699210Y-12318738D01*
G01*
X011758856Y-12286857D01*
G01*
X011811136Y-12243952D01*
G01*
X011854041Y-12191672D01*
G01*
X011885922Y-12132026D01*
G01*
X011905555Y-12067306D01*
G01*
X011912184Y-12000000D01*
G01*
X011905555Y-11932694D01*
G01*
X011885922Y-11867974D01*
G01*
X011854041Y-11808328D01*
G01*
X011811136Y-11756048D01*
G01*
X011758856Y-11713143D01*
G01*
X011699210Y-11681262D01*
G01*
X011634490Y-11661629D01*
G01*
X011567184Y-11655000D01*
G01*
X011499878Y-11661629D01*
G01*
X011435158Y-11681262D01*
G01*
X011375512Y-11713143D01*
G01*
X011323232Y-11756048D01*
G01*
X011280327Y-11808328D01*
G01*
X011248446Y-11867974D01*
G01*
X011228813Y-11932694D01*
G01*
X011222184Y-12000000D01*
G01*
X011228813Y-12067306D01*
G01*
X011248446Y-12132026D01*
G01*
X011280327Y-12191672D01*
G01*
X011323232Y-12243952D01*
G01*
X011375512Y-12286857D01*
G01*
X011435158Y-12318738D01*
G01*
X011499878Y-12338371D01*
G01*
X011567184Y-12345000D01*
G37*
D21*
G36*
X007000000Y-13305000D02*
G01*
X007088766Y-13296257D01*
G01*
X007174121Y-13270365D01*
G01*
X007252784Y-13228319D01*
G01*
X007321734Y-13171734D01*
G01*
X007378319Y-13102784D01*
G01*
X007420365Y-13024121D01*
G01*
X007446257Y-12938766D01*
G01*
X007455000Y-12850000D01*
G01*
X007446257Y-12761234D01*
G01*
X007420365Y-12675879D01*
G01*
X007378319Y-12597216D01*
G01*
X007321734Y-12528266D01*
G01*
X007252784Y-12471681D01*
G01*
X007174121Y-12429635D01*
G01*
X007088766Y-12403743D01*
G01*
X007000000Y-12395000D01*
G01*
X006911234Y-12403743D01*
G01*
X006825879Y-12429635D01*
G01*
X006747216Y-12471681D01*
G01*
X006678266Y-12528266D01*
G01*
X006621681Y-12597216D01*
G01*
X006579635Y-12675879D01*
G01*
X006553743Y-12761234D01*
G01*
X006545000Y-12850000D01*
G01*
X006553743Y-12938766D01*
G01*
X006579635Y-13024121D01*
G01*
X006621681Y-13102784D01*
G01*
X006678266Y-13171734D01*
G01*
X006747216Y-13228319D01*
G01*
X006825879Y-13270365D01*
G01*
X006911234Y-13296257D01*
G01*
X007000000Y-13305000D01*
G37*
D21*
G36*
X011651800Y-13428200D02*
G01*
X011740566Y-13419457D01*
G01*
X011825921Y-13393565D01*
G01*
X011904584Y-13351519D01*
G01*
X011973534Y-13294934D01*
G01*
X012030119Y-13225984D01*
G01*
X012072165Y-13147321D01*
G01*
X012098057Y-13061966D01*
G01*
X012106800Y-12973200D01*
G01*
X012098057Y-12884434D01*
G01*
X012072165Y-12799079D01*
G01*
X012030119Y-12720416D01*
G01*
X011973534Y-12651466D01*
G01*
X011904584Y-12594881D01*
G01*
X011825921Y-12552835D01*
G01*
X011740566Y-12526943D01*
G01*
X011651800Y-12518200D01*
G01*
X011563034Y-12526943D01*
G01*
X011477679Y-12552835D01*
G01*
X011399016Y-12594881D01*
G01*
X011330066Y-12651466D01*
G01*
X011273481Y-12720416D01*
G01*
X011231435Y-12799079D01*
G01*
X011205543Y-12884434D01*
G01*
X011196800Y-12973200D01*
G01*
X011205543Y-13061966D01*
G01*
X011231435Y-13147321D01*
G01*
X011273481Y-13225984D01*
G01*
X011330066Y-13294934D01*
G01*
X011399016Y-13351519D01*
G01*
X011477679Y-13393565D01*
G01*
X011563034Y-13419457D01*
G01*
X011651800Y-13428200D01*
G37*
%LPD*%
D21*
G36*
X002061234Y-09346257D02*
G01*
X001975879Y-09320365D01*
G01*
X001897216Y-09278319D01*
G01*
X001828266Y-09221734D01*
G01*
X001771681Y-09152784D01*
G01*
X001729635Y-09074121D01*
G01*
X001703743Y-08988766D01*
G01*
X001695000Y-08900000D01*
G01*
X001703743Y-08811234D01*
G01*
X001729635Y-08725879D01*
G01*
X001743062Y-08700759D01*
G01*
X001700000Y-08705000D01*
G01*
X001611234Y-08696257D01*
G01*
X001525879Y-08670365D01*
G01*
X001447216Y-08628319D01*
G01*
X001378266Y-08571734D01*
G01*
X001321681Y-08502784D01*
G01*
X001279635Y-08424121D01*
G01*
X001253743Y-08338766D01*
G01*
X001245000Y-08250000D01*
G01*
X001253743Y-08161234D01*
G01*
X001279635Y-08075879D01*
G01*
X001321681Y-07997216D01*
G01*
X001378266Y-07928266D01*
G01*
X001447216Y-07871681D01*
G01*
X001525879Y-07829635D01*
G01*
X001611234Y-07803743D01*
G01*
X001700000Y-07795000D01*
G01*
X001788766Y-07803743D01*
G01*
X001874121Y-07829635D01*
G01*
X001952784Y-07871681D01*
G01*
X002021734Y-07928266D01*
G01*
X002078319Y-07997216D01*
G01*
X002082480Y-08005000D01*
G01*
X002793227Y-08005000D01*
G01*
X002793227Y-08006878D01*
G01*
X002831085Y-08006878D01*
G01*
X002831085Y-08012494D01*
G01*
X002868211Y-08012494D01*
G01*
X002868211Y-08021793D01*
G01*
X002904247Y-08021793D01*
G01*
X002904247Y-08034687D01*
G01*
X002938845Y-08034687D01*
G01*
X002938845Y-08051051D01*
G01*
X002971672Y-08051051D01*
G01*
X002971672Y-08070727D01*
G01*
X003002413Y-08070727D01*
G01*
X003002413Y-08093526D01*
G01*
X003030772Y-08093526D01*
G01*
X003030772Y-08119228D01*
G01*
X003056474Y-08119228D01*
G01*
X003056474Y-08147587D01*
G01*
X003079273Y-08147587D01*
G01*
X003079273Y-08178328D01*
G01*
X003098949Y-08178328D01*
G01*
X003098949Y-08211155D01*
G01*
X003115313Y-08211155D01*
G01*
X003115313Y-08245753D01*
G01*
X003128207Y-08245753D01*
G01*
X003128207Y-08281789D01*
G01*
X003137506Y-08281789D01*
G01*
X003137506Y-08318915D01*
G01*
X003143122Y-08318915D01*
G01*
X003143122Y-08356773D01*
G01*
X003145000Y-08356773D01*
G01*
X003145000Y-09350000D01*
G01*
X003450000Y-09350000D01*
G01*
X003450000Y-09176211D01*
G01*
X003409416Y-09154519D01*
G01*
X003340466Y-09097934D01*
G01*
X003283881Y-09028984D01*
G01*
X003241835Y-08950321D01*
G01*
X003215943Y-08864966D01*
G01*
X003207200Y-08776200D01*
G01*
X003215943Y-08687434D01*
G01*
X003241835Y-08602079D01*
G01*
X003283881Y-08523416D01*
G01*
X003340466Y-08454466D01*
G01*
X003409416Y-08397881D01*
G01*
X003450000Y-08376189D01*
G01*
X003450000Y-06875270D01*
G01*
X003274730Y-06700000D01*
G01*
X-01850581Y-06700000D01*
G01*
X-01952990Y-07442467D01*
G01*
X-01932026Y-07431262D01*
G01*
X-01867306Y-07411629D01*
G01*
X-01800000Y-07405000D01*
G01*
X-01732694Y-07411629D01*
G01*
X-01667974Y-07431262D01*
G01*
X-01608328Y-07463143D01*
G01*
X-01556048Y-07506048D01*
G01*
X-01513143Y-07558328D01*
G01*
X-01481262Y-07617974D01*
G01*
X-01461629Y-07682694D01*
G01*
X-01455000Y-07750000D01*
G01*
X-01461629Y-07817306D01*
G01*
X-01481262Y-07882026D01*
G01*
X-01493295Y-07904539D01*
G01*
X-01471734Y-07878266D01*
G01*
X-01402784Y-07821681D01*
G01*
X-01324121Y-07779635D01*
G01*
X-01238766Y-07753743D01*
G01*
X-01150000Y-07745000D01*
G01*
X-01061234Y-07753743D01*
G01*
X-00975879Y-07779635D01*
G01*
X-00897216Y-07821681D01*
G01*
X-00828266Y-07878266D01*
G01*
X-00771681Y-07947216D01*
G01*
X-00729635Y-08025879D01*
G01*
X-00703743Y-08111234D01*
G01*
X-00695000Y-08200000D01*
G01*
X-00703743Y-08288766D01*
G01*
X-00729635Y-08374121D01*
G01*
X-00748294Y-08409029D01*
G01*
X-00702784Y-08371681D01*
G01*
X-00624121Y-08329635D01*
G01*
X-00538766Y-08303743D01*
G01*
X-00450000Y-08295000D01*
G01*
X-00361234Y-08303743D01*
G01*
X-00347325Y-08307962D01*
G01*
X-00402784Y-08278319D01*
G01*
X-00471734Y-08221734D01*
G01*
X-00528319Y-08152784D01*
G01*
X-00570365Y-08074121D01*
G01*
X-00596257Y-07988766D01*
G01*
X-00605000Y-07900000D01*
G01*
X-00596257Y-07811234D01*
G01*
X-00570365Y-07725879D01*
G01*
X-00528319Y-07647216D01*
G01*
X-00471734Y-07578266D01*
G01*
X-00402784Y-07521681D01*
G01*
X-00324121Y-07479635D01*
G01*
X-00238766Y-07453743D01*
G01*
X-00150000Y-07445000D01*
G01*
X-00061234Y-07453743D01*
G01*
X000024121Y-07479635D01*
G01*
X000102784Y-07521681D01*
G01*
X000171734Y-07578266D01*
G01*
X000228319Y-07647216D01*
G01*
X000270365Y-07725879D01*
G01*
X000296257Y-07811234D01*
G01*
X000305000Y-07900000D01*
G01*
X000296257Y-07988766D01*
G01*
X000270365Y-08074121D01*
G01*
X000228319Y-08152784D01*
G01*
X000171734Y-08221734D01*
G01*
X000102784Y-08278319D01*
G01*
X000024121Y-08320365D01*
G01*
X-00061234Y-08346257D01*
G01*
X-00150000Y-08355000D01*
G01*
X-00238766Y-08346257D01*
G01*
X-00252675Y-08342038D01*
G01*
X-00197216Y-08371681D01*
G01*
X-00128266Y-08428266D01*
G01*
X-00071681Y-08497216D01*
G01*
X-00029635Y-08575879D01*
G01*
X-00003743Y-08661234D01*
G01*
X000005000Y-08750000D01*
G01*
X-00003743Y-08838766D01*
G01*
X-00029635Y-08924121D01*
G01*
X-00071681Y-09002784D01*
G01*
X-00128266Y-09071734D01*
G01*
X-00197216Y-09128319D01*
G01*
X-00275879Y-09170365D01*
G01*
X-00361234Y-09196257D01*
G01*
X-00450000Y-09205000D01*
G01*
X-00538766Y-09196257D01*
G01*
X-00624121Y-09170365D01*
G01*
X-00702784Y-09128319D01*
G01*
X-00771734Y-09071734D01*
G01*
X-00828319Y-09002784D01*
G01*
X-00870365Y-08924121D01*
G01*
X-00896257Y-08838766D01*
G01*
X-00905000Y-08750000D01*
G01*
X-00896257Y-08661234D01*
G01*
X-00870365Y-08575879D01*
G01*
X-00851706Y-08540971D01*
G01*
X-00897216Y-08578319D01*
G01*
X-00975879Y-08620365D01*
G01*
X-01061234Y-08646257D01*
G01*
X-01150000Y-08655000D01*
G01*
X-01238766Y-08646257D01*
G01*
X-01324121Y-08620365D01*
G01*
X-01402784Y-08578319D01*
G01*
X-01471734Y-08521734D01*
G01*
X-01528319Y-08452784D01*
G01*
X-01570365Y-08374121D01*
G01*
X-01596257Y-08288766D01*
G01*
X-01605000Y-08200000D01*
G01*
X-01596257Y-08111234D01*
G01*
X-01570365Y-08025879D01*
G01*
X-01548167Y-07984348D01*
G01*
X-01556048Y-07993952D01*
G01*
X-01608328Y-08036857D01*
G01*
X-01667974Y-08068738D01*
G01*
X-01732694Y-08088371D01*
G01*
X-01800000Y-08095000D01*
G01*
X-01850973Y-08089980D01*
G01*
X-01637225Y-08557555D01*
G01*
X-00699498Y-09350000D01*
G01*
X002099236Y-09350000D01*
G01*
X002061234Y-09346257D01*
G37*
D21*
G36*
X003200000Y-15442849D02*
G01*
X003188766Y-15446257D01*
G01*
X003100000Y-15455000D01*
G01*
X003011234Y-15446257D01*
G01*
X002925879Y-15420365D01*
G01*
X002847216Y-15378319D01*
G01*
X002778266Y-15321734D01*
G01*
X002721681Y-15252784D01*
G01*
X002679635Y-15174121D01*
G01*
X002653743Y-15088766D01*
G01*
X002645000Y-15000000D01*
G01*
X002653743Y-14911234D01*
G01*
X002679635Y-14825879D01*
G01*
X002721681Y-14747216D01*
G01*
X002778266Y-14678266D01*
G01*
X002847216Y-14621681D01*
G01*
X002925879Y-14579635D01*
G01*
X003011234Y-14553743D01*
G01*
X003100000Y-14545000D01*
G01*
X003188766Y-14553743D01*
G01*
X003200000Y-14557151D01*
G01*
X003200000Y-13247608D01*
G01*
X001605331Y-11900000D01*
G01*
X000053244Y-11900000D01*
G01*
X000813394Y-12237844D01*
G01*
X000813394Y-12288613D01*
G01*
X000935424Y-12288613D01*
G01*
X000935424Y-12373961D01*
G01*
X001016570Y-12373961D01*
G01*
X001016570Y-12498825D01*
G01*
X001045000Y-12498825D01*
G01*
X001045000Y-14517520D01*
G01*
X001052784Y-14521681D01*
G01*
X001121734Y-14578266D01*
G01*
X001178319Y-14647216D01*
G01*
X001220365Y-14725879D01*
G01*
X001246257Y-14811234D01*
G01*
X001255000Y-14900000D01*
G01*
X001246257Y-14988766D01*
G01*
X001220365Y-15074121D01*
G01*
X001178319Y-15152784D01*
G01*
X001121734Y-15221734D01*
G01*
X001052784Y-15278319D01*
G01*
X000974121Y-15320365D01*
G01*
X000888766Y-15346257D01*
G01*
X000800000Y-15355000D01*
G01*
X000711234Y-15346257D01*
G01*
X000625879Y-15320365D01*
G01*
X000547216Y-15278319D01*
G01*
X000478266Y-15221734D01*
G01*
X000421681Y-15152784D01*
G01*
X000379635Y-15074121D01*
G01*
X000353743Y-14988766D01*
G01*
X000345000Y-14900000D01*
G01*
X000353743Y-14811234D01*
G01*
X000379635Y-14725879D01*
G01*
X000421681Y-14647216D01*
G01*
X000478266Y-14578266D01*
G01*
X000547216Y-14521681D01*
G01*
X000555000Y-14517520D01*
G01*
X000555000Y-14347886D01*
G01*
X000480000Y-14347886D01*
G01*
X000480000Y-14450000D01*
G01*
X000475581Y-14494871D01*
G01*
X000462492Y-14538017D01*
G01*
X000441238Y-14577781D01*
G01*
X000412635Y-14612635D01*
G01*
X000377781Y-14641238D01*
G01*
X000338017Y-14662492D01*
G01*
X000294871Y-14675581D01*
G01*
X000250000Y-14680000D01*
G01*
X-02000000Y-14680000D01*
G01*
X-02044871Y-14675581D01*
G01*
X-02088017Y-14662492D01*
G01*
X-02127781Y-14641238D01*
G01*
X-02162635Y-14612635D01*
G01*
X-02478369Y-14296901D01*
G01*
X-02554646Y-14391990D01*
G01*
X-02560761Y-14388098D01*
G01*
X-02553743Y-14411234D01*
G01*
X-02545000Y-14500000D01*
G01*
X-02553743Y-14588766D01*
G01*
X-02579635Y-14674121D01*
G01*
X-02621681Y-14752784D01*
G01*
X-02678266Y-14821734D01*
G01*
X-02747216Y-14878319D01*
G01*
X-02825879Y-14920365D01*
G01*
X-02911234Y-14946257D01*
G01*
X-03000000Y-14955000D01*
G01*
X-03088766Y-14946257D01*
G01*
X-03174121Y-14920365D01*
G01*
X-03252784Y-14878319D01*
G01*
X-03321734Y-14821734D01*
G01*
X-03378319Y-14752784D01*
G01*
X-03420365Y-14674121D01*
G01*
X-03446257Y-14588766D01*
G01*
X-03455000Y-14500000D01*
G01*
X-03446257Y-14411234D01*
G01*
X-03420365Y-14325879D01*
G01*
X-03378319Y-14247216D01*
G01*
X-03321734Y-14178266D01*
G01*
X-03252784Y-14121681D01*
G01*
X-03174121Y-14079635D01*
G01*
X-03088766Y-14053743D01*
G01*
X-03086524Y-14053522D01*
G01*
X-03564381Y-13749431D01*
G01*
X-03564381Y-13684028D01*
G01*
X-03659130Y-13684028D01*
G01*
X-03659130Y-13599142D01*
G01*
X-03721519Y-13599142D01*
G01*
X-03721519Y-13488280D01*
G01*
X-03764957Y-13488280D01*
G01*
X-03967080Y-12932441D01*
G01*
X-03916141Y-12900000D01*
G01*
X-10400000Y-12900000D01*
G01*
X-10458527Y-12894236D01*
G01*
X-10514805Y-12877164D01*
G01*
X-10566671Y-12849441D01*
G01*
X-10612132Y-12812132D01*
G01*
X-10649441Y-12766671D01*
G01*
X-10677164Y-12714805D01*
G01*
X-10694236Y-12658527D01*
G01*
X-10700000Y-12600000D01*
G01*
X-10700000Y-07900000D01*
G01*
X-13900000Y-07900000D01*
G01*
X-13900000Y-09313233D01*
G01*
X-13838690Y-09313297D01*
G01*
X-13838690Y-09313448D01*
G01*
X-13722612Y-09313448D01*
G01*
X-13496382Y-09407433D01*
G01*
X-13496382Y-09455656D01*
G01*
X-13411532Y-09455656D01*
G01*
X-13234552Y-09633007D01*
G01*
X-13234552Y-09718035D01*
G01*
X-13186548Y-09718035D01*
G01*
X-13093091Y-09944330D01*
G01*
X-13093297Y-10141310D01*
G01*
X-13093448Y-10141310D01*
G01*
X-13093448Y-10271953D01*
G01*
X-13387319Y-11741310D01*
G01*
X-13413448Y-11741310D01*
G01*
X-13413448Y-11857388D01*
G01*
X-13507433Y-12083618D01*
G01*
X-13555656Y-12083618D01*
G01*
X-13555656Y-12168468D01*
G01*
X-13733007Y-12345448D01*
G01*
X-13818035Y-12345448D01*
G01*
X-13818035Y-12393452D01*
G01*
X-13900000Y-12427303D01*
G01*
X-13900000Y-13127952D01*
G01*
X-13849963Y-13154697D01*
G01*
X-13468091Y-13468091D01*
G01*
X-13154697Y-13849963D01*
G01*
X-12921824Y-14285638D01*
G01*
X-12778421Y-14758372D01*
G01*
X-12730000Y-15250000D01*
G01*
X-12778421Y-15741628D01*
G01*
X-12887132Y-16100000D01*
G01*
X003200000Y-16100000D01*
G01*
X003200000Y-15442849D01*
G37*
%LPC*%
D21*
G36*
X-11800000Y-09055000D02*
G01*
X-11711234Y-09046257D01*
G01*
X-11625879Y-09020365D01*
G01*
X-11547216Y-08978319D01*
G01*
X-11478266Y-08921734D01*
G01*
X-11421681Y-08852784D01*
G01*
X-11379635Y-08774121D01*
G01*
X-11353743Y-08688766D01*
G01*
X-11345000Y-08600000D01*
G01*
X-11353743Y-08511234D01*
G01*
X-11379635Y-08425879D01*
G01*
X-11421681Y-08347216D01*
G01*
X-11478266Y-08278266D01*
G01*
X-11547216Y-08221681D01*
G01*
X-11625879Y-08179635D01*
G01*
X-11711234Y-08153743D01*
G01*
X-11800000Y-08145000D01*
G01*
X-11888766Y-08153743D01*
G01*
X-11974121Y-08179635D01*
G01*
X-12052784Y-08221681D01*
G01*
X-12121734Y-08278266D01*
G01*
X-12178319Y-08347216D01*
G01*
X-12220365Y-08425879D01*
G01*
X-12246257Y-08511234D01*
G01*
X-12255000Y-08600000D01*
G01*
X-12246257Y-08688766D01*
G01*
X-12220365Y-08774121D01*
G01*
X-12178319Y-08852784D01*
G01*
X-12121734Y-08921734D01*
G01*
X-12052784Y-08978319D01*
G01*
X-11974121Y-09020365D01*
G01*
X-11888766Y-09046257D01*
G01*
X-11800000Y-09055000D01*
G37*
D21*
G36*
X-12550000Y-14005000D02*
G01*
X-12461234Y-13996257D01*
G01*
X-12375879Y-13970365D01*
G01*
X-12297216Y-13928319D01*
G01*
X-12228266Y-13871734D01*
G01*
X-12171681Y-13802784D01*
G01*
X-12129635Y-13724121D01*
G01*
X-12103743Y-13638766D01*
G01*
X-12095000Y-13550000D01*
G01*
X-12103743Y-13461234D01*
G01*
X-12129635Y-13375879D01*
G01*
X-12171681Y-13297216D01*
G01*
X-12228266Y-13228266D01*
G01*
X-12297216Y-13171681D01*
G01*
X-12375879Y-13129635D01*
G01*
X-12461234Y-13103743D01*
G01*
X-12550000Y-13095000D01*
G01*
X-12638766Y-13103743D01*
G01*
X-12724121Y-13129635D01*
G01*
X-12802784Y-13171681D01*
G01*
X-12871734Y-13228266D01*
G01*
X-12928319Y-13297216D01*
G01*
X-12970365Y-13375879D01*
G01*
X-12996257Y-13461234D01*
G01*
X-13005000Y-13550000D01*
G01*
X-12996257Y-13638766D01*
G01*
X-12970365Y-13724121D01*
G01*
X-12928319Y-13802784D01*
G01*
X-12871734Y-13871734D01*
G01*
X-12802784Y-13928319D01*
G01*
X-12724121Y-13970365D01*
G01*
X-12638766Y-13996257D01*
G01*
X-12550000Y-14005000D01*
G37*
D21*
G36*
X-11670000Y-13845000D02*
G01*
X-11602694Y-13838371D01*
G01*
X-11537974Y-13818738D01*
G01*
X-11478328Y-13786857D01*
G01*
X-11426048Y-13743952D01*
G01*
X-11383143Y-13691672D01*
G01*
X-11351262Y-13632026D01*
G01*
X-11331629Y-13567306D01*
G01*
X-11325000Y-13500000D01*
G01*
X-11331629Y-13432694D01*
G01*
X-11351262Y-13367974D01*
G01*
X-11383143Y-13308328D01*
G01*
X-11426048Y-13256048D01*
G01*
X-11478328Y-13213143D01*
G01*
X-11537974Y-13181262D01*
G01*
X-11602694Y-13161629D01*
G01*
X-11670000Y-13155000D01*
G01*
X-11737306Y-13161629D01*
G01*
X-11802026Y-13181262D01*
G01*
X-11861672Y-13213143D01*
G01*
X-11913952Y-13256048D01*
G01*
X-11956857Y-13308328D01*
G01*
X-11988738Y-13367974D01*
G01*
X-12008371Y-13432694D01*
G01*
X-12015000Y-13500000D01*
G01*
X-12008371Y-13567306D01*
G01*
X-11988738Y-13632026D01*
G01*
X-11956857Y-13691672D01*
G01*
X-11913952Y-13743952D01*
G01*
X-11861672Y-13786857D01*
G01*
X-11802026Y-13818738D01*
G01*
X-11737306Y-13838371D01*
G01*
X-11670000Y-13845000D01*
G37*
D21*
G36*
X-07200000Y-14955000D02*
G01*
X-07111234Y-14946257D01*
G01*
X-07025879Y-14920365D01*
G01*
X-06947216Y-14878319D01*
G01*
X-06878266Y-14821734D01*
G01*
X-06821681Y-14752784D01*
G01*
X-06779635Y-14674121D01*
G01*
X-06753743Y-14588766D01*
G01*
X-06745000Y-14500000D01*
G01*
X-06753743Y-14411234D01*
G01*
X-06779635Y-14325879D01*
G01*
X-06821681Y-14247216D01*
G01*
X-06878266Y-14178266D01*
G01*
X-06947216Y-14121681D01*
G01*
X-07025879Y-14079635D01*
G01*
X-07111234Y-14053743D01*
G01*
X-07200000Y-14045000D01*
G01*
X-07288766Y-14053743D01*
G01*
X-07374121Y-14079635D01*
G01*
X-07452784Y-14121681D01*
G01*
X-07521734Y-14178266D01*
G01*
X-07578319Y-14247216D01*
G01*
X-07620365Y-14325879D01*
G01*
X-07646257Y-14411234D01*
G01*
X-07655000Y-14500000D01*
G01*
X-07646257Y-14588766D01*
G01*
X-07620365Y-14674121D01*
G01*
X-07578319Y-14752784D01*
G01*
X-07521734Y-14821734D01*
G01*
X-07452784Y-14878319D01*
G01*
X-07374121Y-14920365D01*
G01*
X-07288766Y-14946257D01*
G01*
X-07200000Y-14955000D01*
G37*
D21*
G36*
X-07000000Y-15855000D02*
G01*
X-06911234Y-15846257D01*
G01*
X-06825879Y-15820365D01*
G01*
X-06747216Y-15778319D01*
G01*
X-06678266Y-15721734D01*
G01*
X-06621681Y-15652784D01*
G01*
X-06579635Y-15574121D01*
G01*
X-06553743Y-15488766D01*
G01*
X-06545000Y-15400000D01*
G01*
X-06553743Y-15311234D01*
G01*
X-06579635Y-15225879D01*
G01*
X-06621681Y-15147216D01*
G01*
X-06678266Y-15078266D01*
G01*
X-06747216Y-15021681D01*
G01*
X-06825879Y-14979635D01*
G01*
X-06911234Y-14953743D01*
G01*
X-07000000Y-14945000D01*
G01*
X-07088766Y-14953743D01*
G01*
X-07174121Y-14979635D01*
G01*
X-07252784Y-15021681D01*
G01*
X-07321734Y-15078266D01*
G01*
X-07378319Y-15147216D01*
G01*
X-07420365Y-15225879D01*
G01*
X-07446257Y-15311234D01*
G01*
X-07455000Y-15400000D01*
G01*
X-07446257Y-15488766D01*
G01*
X-07420365Y-15574121D01*
G01*
X-07378319Y-15652784D01*
G01*
X-07321734Y-15721734D01*
G01*
X-07252784Y-15778319D01*
G01*
X-07174121Y-15820365D01*
G01*
X-07088766Y-15846257D01*
G01*
X-07000000Y-15855000D01*
G37*
D21*
G36*
X-01100000Y-15855000D02*
G01*
X-01011234Y-15846257D01*
G01*
X-00925879Y-15820365D01*
G01*
X-00847216Y-15778319D01*
G01*
X-00778266Y-15721734D01*
G01*
X-00721681Y-15652784D01*
G01*
X-00679635Y-15574121D01*
G01*
X-00653743Y-15488766D01*
G01*
X-00645000Y-15400000D01*
G01*
X-00653743Y-15311234D01*
G01*
X-00679635Y-15225879D01*
G01*
X-00721681Y-15147216D01*
G01*
X-00778266Y-15078266D01*
G01*
X-00847216Y-15021681D01*
G01*
X-00925879Y-14979635D01*
G01*
X-01011234Y-14953743D01*
G01*
X-01100000Y-14945000D01*
G01*
X-01188766Y-14953743D01*
G01*
X-01274121Y-14979635D01*
G01*
X-01352784Y-15021681D01*
G01*
X-01421734Y-15078266D01*
G01*
X-01478319Y-15147216D01*
G01*
X-01520365Y-15225879D01*
G01*
X-01546257Y-15311234D01*
G01*
X-01555000Y-15400000D01*
G01*
X-01546257Y-15488766D01*
G01*
X-01520365Y-15574121D01*
G01*
X-01478319Y-15652784D01*
G01*
X-01421734Y-15721734D01*
G01*
X-01352784Y-15778319D01*
G01*
X-01274121Y-15820365D01*
G01*
X-01188766Y-15846257D01*
G01*
X-01100000Y-15855000D01*
G37*
D21*
G36*
X001900000Y-15855000D02*
G01*
X001988766Y-15846257D01*
G01*
X002074121Y-15820365D01*
G01*
X002152784Y-15778319D01*
G01*
X002221734Y-15721734D01*
G01*
X002278319Y-15652784D01*
G01*
X002320365Y-15574121D01*
G01*
X002346257Y-15488766D01*
G01*
X002355000Y-15400000D01*
G01*
X002346257Y-15311234D01*
G01*
X002320365Y-15225879D01*
G01*
X002278319Y-15147216D01*
G01*
X002221734Y-15078266D01*
G01*
X002152784Y-15021681D01*
G01*
X002074121Y-14979635D01*
G01*
X001988766Y-14953743D01*
G01*
X001900000Y-14945000D01*
G01*
X001811234Y-14953743D01*
G01*
X001725879Y-14979635D01*
G01*
X001647216Y-15021681D01*
G01*
X001578266Y-15078266D01*
G01*
X001521681Y-15147216D01*
G01*
X001479635Y-15225879D01*
G01*
X001453743Y-15311234D01*
G01*
X001445000Y-15400000D01*
G01*
X001453743Y-15488766D01*
G01*
X001479635Y-15574121D01*
G01*
X001521681Y-15652784D01*
G01*
X001578266Y-15721734D01*
G01*
X001647216Y-15778319D01*
G01*
X001725879Y-15820365D01*
G01*
X001811234Y-15846257D01*
G01*
X001900000Y-15855000D01*
G37*
D21*
G36*
X-03100000Y-15745000D02*
G01*
X-03032694Y-15738371D01*
G01*
X-02967974Y-15718738D01*
G01*
X-02908328Y-15686857D01*
G01*
X-02856048Y-15643952D01*
G01*
X-02813143Y-15591672D01*
G01*
X-02781262Y-15532026D01*
G01*
X-02761629Y-15467306D01*
G01*
X-02755000Y-15400000D01*
G01*
X-02761629Y-15332694D01*
G01*
X-02781262Y-15267974D01*
G01*
X-02813143Y-15208328D01*
G01*
X-02856048Y-15156048D01*
G01*
X-02908328Y-15113143D01*
G01*
X-02967974Y-15081262D01*
G01*
X-03032694Y-15061629D01*
G01*
X-03100000Y-15055000D01*
G01*
X-03167306Y-15061629D01*
G01*
X-03232026Y-15081262D01*
G01*
X-03291672Y-15113143D01*
G01*
X-03343952Y-15156048D01*
G01*
X-03386857Y-15208328D01*
G01*
X-03418738Y-15267974D01*
G01*
X-03438371Y-15332694D01*
G01*
X-03445000Y-15400000D01*
G01*
X-03438371Y-15467306D01*
G01*
X-03418738Y-15532026D01*
G01*
X-03386857Y-15591672D01*
G01*
X-03343952Y-15643952D01*
G01*
X-03291672Y-15686857D01*
G01*
X-03232026Y-15718738D01*
G01*
X-03167306Y-15738371D01*
G01*
X-03100000Y-15745000D01*
G37*
D21*
G36*
X-00032816Y-16045000D02*
G01*
X000034490Y-16038371D01*
G01*
X000099210Y-16018738D01*
G01*
X000158856Y-15986857D01*
G01*
X000211136Y-15943952D01*
G01*
X000254041Y-15891672D01*
G01*
X000285922Y-15832026D01*
G01*
X000305555Y-15767306D01*
G01*
X000312184Y-15700000D01*
G01*
X000305555Y-15632694D01*
G01*
X000285922Y-15567974D01*
G01*
X000254041Y-15508328D01*
G01*
X000211136Y-15456048D01*
G01*
X000158856Y-15413143D01*
G01*
X000099210Y-15381262D01*
G01*
X000034490Y-15361629D01*
G01*
X-00032816Y-15355000D01*
G01*
X-00100122Y-15361629D01*
G01*
X-00164842Y-15381262D01*
G01*
X-00224488Y-15413143D01*
G01*
X-00276768Y-15456048D01*
G01*
X-00319673Y-15508328D01*
G01*
X-00351554Y-15567974D01*
G01*
X-00371187Y-15632694D01*
G01*
X-00377816Y-15700000D01*
G01*
X-00371187Y-15767306D01*
G01*
X-00351554Y-15832026D01*
G01*
X-00319673Y-15891672D01*
G01*
X-00276768Y-15943952D01*
G01*
X-00224488Y-15986857D01*
G01*
X-00164842Y-16018738D01*
G01*
X-00100122Y-16038371D01*
G01*
X-00032816Y-16045000D01*
G37*
%LPD*%
D21*
G36*
X-08346651Y-04453762D02*
G01*
X-08306887Y-04432508D01*
G01*
X-08263741Y-04419419D01*
G01*
X-08218870Y-04415000D01*
G01*
X-07166458Y-04415000D01*
G01*
X-06750000Y-04011196D01*
G01*
X-06750000Y-03300000D01*
G01*
X-07097756Y-03300000D01*
G01*
X-07094900Y-03329000D01*
G01*
X-07103643Y-03417766D01*
G01*
X-07129535Y-03503121D01*
G01*
X-07171581Y-03581784D01*
G01*
X-07228166Y-03650734D01*
G01*
X-07297116Y-03707319D01*
G01*
X-07375779Y-03749365D01*
G01*
X-07461134Y-03775257D01*
G01*
X-07549900Y-03784000D01*
G01*
X-07638666Y-03775257D01*
G01*
X-07663388Y-03767758D01*
G01*
X-08361934Y-04466304D01*
G01*
X-08346651Y-04453762D01*
G37*
D21*
G36*
X-14692681Y-10058690D02*
G01*
X-14666552Y-10058690D01*
G01*
X-14666552Y-09942612D01*
G01*
X-14572567Y-09716382D01*
G01*
X-14524344Y-09716382D01*
G01*
X-14524344Y-09631532D01*
G01*
X-14346993Y-09454552D01*
G01*
X-14261965Y-09454552D01*
G01*
X-14261965Y-09406548D01*
G01*
X-14035670Y-09313091D01*
G01*
X-13838690Y-09313297D01*
G01*
X-13838690Y-09313448D01*
G01*
X-13722612Y-09313448D01*
G01*
X-13496382Y-09407433D01*
G01*
X-13496382Y-09455656D01*
G01*
X-13411532Y-09455656D01*
G01*
X-13234552Y-09633007D01*
G01*
X-13234552Y-09718035D01*
G01*
X-13186548Y-09718035D01*
G01*
X-13093091Y-09944330D01*
G01*
X-13093297Y-10141310D01*
G01*
X-13093448Y-10141310D01*
G01*
X-13093448Y-10271953D01*
G01*
X-13099057Y-10300000D01*
G01*
X-11500000Y-10300000D01*
G01*
X-11500000Y-08939570D01*
G01*
X-11547216Y-08978319D01*
G01*
X-11625879Y-09020365D01*
G01*
X-11711234Y-09046257D01*
G01*
X-11800000Y-09055000D01*
G01*
X-11888766Y-09046257D01*
G01*
X-11974121Y-09020365D01*
G01*
X-12052784Y-08978319D01*
G01*
X-12121734Y-08921734D01*
G01*
X-12178319Y-08852784D01*
G01*
X-12220365Y-08774121D01*
G01*
X-12242849Y-08700000D01*
G01*
X-12300000Y-08700000D01*
G01*
X-12900000Y-08700000D01*
G01*
X-12958527Y-08694236D01*
G01*
X-13014805Y-08677164D01*
G01*
X-13066671Y-08649441D01*
G01*
X-13112132Y-08612132D01*
G01*
X-13149441Y-08566671D01*
G01*
X-13177164Y-08514805D01*
G01*
X-13194236Y-08458527D01*
G01*
X-13200000Y-08400000D01*
G01*
X-13200000Y-05443469D01*
G01*
X-13217345Y-05429235D01*
G01*
X-14254575Y-04392005D01*
G01*
X-14283178Y-04357151D01*
G01*
X-14304432Y-04317387D01*
G01*
X-14317521Y-04274241D01*
G01*
X-14321940Y-04229370D01*
G01*
X-14317521Y-04184499D01*
G01*
X-14304432Y-04141353D01*
G01*
X-14283178Y-04101589D01*
G01*
X-14254575Y-04066735D01*
G01*
X-14219721Y-04038132D01*
G01*
X-14179957Y-04016878D01*
G01*
X-14146238Y-04006649D01*
G01*
X-14142257Y-03966234D01*
G01*
X-14116365Y-03880879D01*
G01*
X-14074319Y-03802216D01*
G01*
X-14017734Y-03733266D01*
G01*
X-13948784Y-03676681D01*
G01*
X-13870121Y-03634635D01*
G01*
X-13784766Y-03608743D01*
G01*
X-13696000Y-03600000D01*
G01*
X-13607234Y-03608743D01*
G01*
X-13521879Y-03634635D01*
G01*
X-13443216Y-03676681D01*
G01*
X-13374266Y-03733266D01*
G01*
X-13317681Y-03802216D01*
G01*
X-13275635Y-03880879D01*
G01*
X-13249743Y-03966234D01*
G01*
X-13241000Y-04055000D01*
G01*
X-13249743Y-04143766D01*
G01*
X-13275635Y-04229121D01*
G01*
X-13317681Y-04307784D01*
G01*
X-13374266Y-04376734D01*
G01*
X-13443216Y-04433319D01*
G01*
X-13521094Y-04474946D01*
G01*
X-13209371Y-04786669D01*
G01*
X-13237565Y-04733921D01*
G01*
X-13263457Y-04648566D01*
G01*
X-13272200Y-04559800D01*
G01*
X-13263457Y-04471034D01*
G01*
X-13237565Y-04385679D01*
G01*
X-13195519Y-04307016D01*
G01*
X-13138934Y-04238066D01*
G01*
X-13069984Y-04181481D01*
G01*
X-12991321Y-04139435D01*
G01*
X-12905966Y-04113543D01*
G01*
X-12817200Y-04104800D01*
G01*
X-12728434Y-04113543D01*
G01*
X-12643079Y-04139435D01*
G01*
X-12564416Y-04181481D01*
G01*
X-12495466Y-04238066D01*
G01*
X-12438881Y-04307016D01*
G01*
X-12426703Y-04329800D01*
G01*
X-12211905Y-04329800D01*
G01*
X-12221734Y-04321734D01*
G01*
X-12278319Y-04252784D01*
G01*
X-12320365Y-04174121D01*
G01*
X-12346257Y-04088766D01*
G01*
X-12355000Y-04000000D01*
G01*
X-12346257Y-03911234D01*
G01*
X-12320365Y-03825879D01*
G01*
X-12278319Y-03747216D01*
G01*
X-12221734Y-03678266D01*
G01*
X-12166017Y-03632541D01*
G01*
X-12211234Y-03646257D01*
G01*
X-12300000Y-03655000D01*
G01*
X-12388766Y-03646257D01*
G01*
X-12474121Y-03620365D01*
G01*
X-12552784Y-03578319D01*
G01*
X-12621734Y-03521734D01*
G01*
X-12678319Y-03452784D01*
G01*
X-12720365Y-03374121D01*
G01*
X-12742849Y-03300000D01*
G01*
X-14800000Y-03300000D01*
G01*
X-14800000Y-10300000D01*
G01*
X-14740943Y-10300000D01*
G01*
X-14692681Y-10058690D01*
G37*
D21*
G36*
X-05900000Y-12562221D02*
G01*
X-05920365Y-12524121D01*
G01*
X-05946257Y-12438766D01*
G01*
X-05955000Y-12350000D01*
G01*
X-05946257Y-12261234D01*
G01*
X-05920365Y-12175879D01*
G01*
X-05900000Y-12137779D01*
G01*
X-05900000Y-08700000D01*
G01*
X-07500000Y-08700000D01*
G01*
X-07500000Y-09326564D01*
G01*
X-07433466Y-09381166D01*
G01*
X-07376881Y-09450116D01*
G01*
X-07334835Y-09528779D01*
G01*
X-07308943Y-09614134D01*
G01*
X-07300200Y-09702900D01*
G01*
X-07308943Y-09791666D01*
G01*
X-07334835Y-09877021D01*
G01*
X-07376881Y-09955684D01*
G01*
X-07433466Y-10024634D01*
G01*
X-07500000Y-10079236D01*
G01*
X-07500000Y-10900000D01*
G01*
X-07505764Y-10958527D01*
G01*
X-07522836Y-11014805D01*
G01*
X-07550559Y-11066671D01*
G01*
X-07587868Y-11112132D01*
G01*
X-07633329Y-11149441D01*
G01*
X-07685195Y-11177164D01*
G01*
X-07741473Y-11194236D01*
G01*
X-07800000Y-11200000D01*
G01*
X-11200000Y-11200000D01*
G01*
X-11258527Y-11194236D01*
G01*
X-11314805Y-11177164D01*
G01*
X-11366671Y-11149441D01*
G01*
X-11412132Y-11112132D01*
G01*
X-11449441Y-11066671D01*
G01*
X-11477164Y-11014805D01*
G01*
X-11494236Y-10958527D01*
G01*
X-11500000Y-10900000D01*
G01*
X-11500000Y-08939570D01*
G01*
X-11547216Y-08978319D01*
G01*
X-11625879Y-09020365D01*
G01*
X-11711234Y-09046257D01*
G01*
X-11800000Y-09055000D01*
G01*
X-11888766Y-09046257D01*
G01*
X-11974121Y-09020365D01*
G01*
X-12052784Y-08978319D01*
G01*
X-12121734Y-08921734D01*
G01*
X-12178319Y-08852784D01*
G01*
X-12220365Y-08774121D01*
G01*
X-12242849Y-08700000D01*
G01*
X-13100000Y-08700000D01*
G01*
X-13100000Y-09500000D01*
G01*
X-13100000Y-09927601D01*
G01*
X-13093091Y-09944330D01*
G01*
X-13093297Y-10141310D01*
G01*
X-13093448Y-10141310D01*
G01*
X-13093448Y-10271953D01*
G01*
X-13100000Y-10304713D01*
G01*
X-13100000Y-12800000D01*
G01*
X-05900000Y-12800000D01*
G01*
X-05900000Y-12562221D01*
G37*
D21*
G36*
X000544304Y-14083180D02*
G01*
X000586793Y-14083180D01*
G01*
X000586793Y-13949909D01*
G01*
X000623016Y-13949909D01*
G01*
X000776450Y-12760795D01*
G01*
X000776450Y-12711787D01*
G01*
X000708795Y-12711787D01*
G01*
X000708795Y-12641205D01*
G01*
X000661749Y-12641205D01*
G01*
X000661749Y-12755871D01*
G01*
X000613207Y-12755871D01*
G01*
X000613207Y-12900091D01*
G01*
X000576984Y-12900091D01*
G01*
X000554520Y-13074189D01*
G01*
X000568738Y-13100790D01*
G01*
X000588371Y-13165510D01*
G01*
X000595000Y-13232816D01*
G01*
X000588371Y-13300122D01*
G01*
X000568738Y-13364842D01*
G01*
X000536857Y-13424488D01*
G01*
X000504182Y-13464302D01*
G01*
X000480000Y-13651713D01*
G01*
X000480000Y-14192886D01*
G01*
X000544304Y-14192886D01*
G01*
X000544304Y-14083180D01*
G37*
D21*
G36*
X-04394191Y-08028063D02*
G01*
X-04410617Y-08028063D01*
G01*
X-04410617Y-07880723D01*
G01*
X-04448652Y-07880723D01*
G01*
X-04448652Y-07759153D01*
G01*
X-04490847Y-07759153D01*
G01*
X-04490847Y-07790177D01*
G01*
X-04568138Y-07790177D01*
G01*
X-04568138Y-07921257D01*
G01*
X-04580495Y-07921257D01*
G01*
X-04463101Y-10005006D01*
G01*
X-04282815Y-10005006D01*
G01*
X-04394191Y-08028063D01*
G37*
D21*
G36*
X-13551173Y006096407D02*
G01*
X-13551173Y006325587D01*
G01*
X-13436583Y006325587D01*
G01*
X-13410000Y006378753D01*
G01*
X-13410000Y006607933D01*
G01*
X-13410000Y009587513D01*
G01*
X-13590000Y009565783D01*
G01*
X-13590000Y006492067D01*
G01*
X-13595764Y006433540D01*
G01*
X-13612836Y006377262D01*
G01*
X-13622865Y006358499D01*
G01*
X-13621672Y006357903D01*
G01*
X-13720748Y006159751D01*
G01*
X-13559751Y006079252D01*
G01*
X-13551173Y006096407D01*
G37*
D21*
G36*
X-13410000Y010171726D02*
G01*
X-13410000Y010590000D01*
G01*
X-13940000Y010590000D01*
G01*
X-13940000Y010410000D01*
G01*
X-13890000Y010410000D01*
G01*
X-13831473Y010404236D01*
G01*
X-13775195Y010387164D01*
G01*
X-13723329Y010359441D01*
G01*
X-13677868Y010322132D01*
G01*
X-13640559Y010276671D01*
G01*
X-13612836Y010224805D01*
G01*
X-13595764Y010168527D01*
G01*
X-13593893Y010149525D01*
G01*
X-13410000Y010171726D01*
G37*
D21*
G36*
X-14254575Y-04066735D02*
G01*
X-14219721Y-04038132D01*
G01*
X-14179957Y-04016878D01*
G01*
X-14146238Y-04006649D01*
G01*
X-14142257Y-03966234D01*
G01*
X-14132252Y-03933251D01*
G01*
X-15944164Y-03027295D01*
G01*
X-15943568Y-03026102D01*
G01*
X-15976671Y-03008408D01*
G01*
X-16022132Y-02971099D01*
G01*
X-16059441Y-02925638D01*
G01*
X-16087164Y-02873772D01*
G01*
X-16104236Y-02817494D01*
G01*
X-16110000Y-02758967D01*
G01*
X-16110000Y-01963722D01*
G01*
X-16144879Y-01982365D01*
G01*
X-16230234Y-02008257D01*
G01*
X-16290000Y-02014144D01*
G01*
X-16290000Y-03055623D01*
G01*
X-14258416Y-04071415D01*
G01*
X-14254575Y-04066735D01*
G37*
D21*
G36*
X-16110000Y006290000D02*
G01*
X-16290000Y006290000D01*
G01*
X-16290000Y006200000D01*
G01*
X-16290000Y-01109856D01*
G01*
X-16230234Y-01115743D01*
G01*
X-16144879Y-01141635D01*
G01*
X-16110000Y-01160278D01*
G01*
X-16110000Y006290000D01*
G37*
D21*
G36*
X-16244471Y-02394627D02*
G01*
X-16205373Y-02394627D01*
G01*
X-16205373Y-02351173D01*
G01*
X-16325587Y-02351173D01*
G01*
X-16325587Y-02236583D01*
G01*
X-16796407Y-02001173D01*
G01*
X-16855529Y-02001173D01*
G01*
X-16855529Y-02055373D01*
G01*
X-16894627Y-02055373D01*
G01*
X-16894627Y-02098827D01*
G01*
X-16774413Y-02098827D01*
G01*
X-16774413Y-02213417D01*
G01*
X-16303593Y-02448827D01*
G01*
X-16244471Y-02448827D01*
G01*
X-16244471Y-02394627D01*
G37*
D21*
G36*
X000860313Y-14749247D02*
G01*
X000890000Y-14749247D01*
G01*
X000890000Y-14600000D01*
G01*
X000890000Y-12653825D01*
G01*
X000861570Y-12653825D01*
G01*
X000861570Y-12528961D01*
G01*
X000780424Y-12528961D01*
G01*
X000780424Y-12443613D01*
G01*
X000658394Y-12443613D01*
G01*
X000658394Y-12338575D01*
G01*
X-00005270Y-12043613D01*
G01*
X-00241606Y-12043613D01*
G01*
X-00241606Y-12013920D01*
G01*
X-00344846Y-12013920D01*
G01*
X-00344846Y-11974109D01*
G01*
X-01344842Y-11831252D01*
G01*
X-01344842Y-11837894D01*
G01*
X-01351747Y-11837894D01*
G01*
X-01437145Y-12002282D01*
G01*
X-01409690Y-12004986D01*
G01*
X-01409526Y-12003839D01*
G01*
X-00166413Y-12181426D01*
G01*
X-00166577Y-12182573D01*
G01*
X-00150312Y-12184175D01*
G01*
X-00094034Y-12201247D01*
G01*
X-00087263Y-12204866D01*
G01*
X-00086997Y-12204268D01*
G01*
X000531842Y-12479308D01*
G01*
X000531576Y-12479906D01*
G01*
X000576671Y-12504010D01*
G01*
X000622132Y-12541319D01*
G01*
X000659441Y-12586780D01*
G01*
X000687164Y-12638646D01*
G01*
X000704236Y-12694924D01*
G01*
X000710000Y-12753451D01*
G01*
X000710000Y-14749247D01*
G01*
X000739687Y-14749247D01*
G01*
X000739687Y-14875772D01*
G01*
X000775772Y-14875772D01*
G01*
X000860313Y-14875772D01*
G01*
X000860313Y-14749247D01*
G37*
D21*
G36*
X-04394191Y-08028063D02*
G01*
X-04410617Y-08028063D01*
G01*
X-04410617Y-07880723D01*
G01*
X-04448652Y-07880723D01*
G01*
X-04448652Y-07759153D01*
G01*
X-04490847Y-07759153D01*
G01*
X-04490847Y-07790177D01*
G01*
X-04568138Y-07790177D01*
G01*
X-04568138Y-07921257D01*
G01*
X-04580495Y-07921257D01*
G01*
X-04463101Y-10005006D01*
G01*
X-04282815Y-10005006D01*
G01*
X-04394191Y-08028063D01*
G37*
D21*
G36*
X002638227Y-09788122D02*
G01*
X002676085Y-09788122D01*
G01*
X002676085Y-09782506D01*
G01*
X002713211Y-09782506D01*
G01*
X002713211Y-09773207D01*
G01*
X002749247Y-09773207D01*
G01*
X002749247Y-09760313D01*
G01*
X002783845Y-09760313D01*
G01*
X002783845Y-09743949D01*
G01*
X002816672Y-09743949D01*
G01*
X002816672Y-09724273D01*
G01*
X002847413Y-09724273D01*
G01*
X002847413Y-09701474D01*
G01*
X002875772Y-09701474D01*
G01*
X002875772Y-09675772D01*
G01*
X002901474Y-09675772D01*
G01*
X002901474Y-09647413D01*
G01*
X002924273Y-09647413D01*
G01*
X002924273Y-09616672D01*
G01*
X002943949Y-09616672D01*
G01*
X002943949Y-09583845D01*
G01*
X002960313Y-09583845D01*
G01*
X002960313Y-09549247D01*
G01*
X002973207Y-09549247D01*
G01*
X002973207Y-09513211D01*
G01*
X002982506Y-09513211D01*
G01*
X002982506Y-09476085D01*
G01*
X002988122Y-09476085D01*
G01*
X002988122Y-09438227D01*
G01*
X002990000Y-09438227D01*
G01*
X002990000Y-09400000D01*
G01*
X002990000Y-08511773D01*
G01*
X002988122Y-08511773D01*
G01*
X002988122Y-08473915D01*
G01*
X002982506Y-08473915D01*
G01*
X002982506Y-08436789D01*
G01*
X002973207Y-08436789D01*
G01*
X002973207Y-08400753D01*
G01*
X002960313Y-08400753D01*
G01*
X002960313Y-08366155D01*
G01*
X002943949Y-08366155D01*
G01*
X002943949Y-08333328D01*
G01*
X002924273Y-08333328D01*
G01*
X002924273Y-08302587D01*
G01*
X002901474Y-08302587D01*
G01*
X002901474Y-08274228D01*
G01*
X002875772Y-08274228D01*
G01*
X002875772Y-08248526D01*
G01*
X002847413Y-08248526D01*
G01*
X002847413Y-08225727D01*
G01*
X002816672Y-08225727D01*
G01*
X002816672Y-08206051D01*
G01*
X002783845Y-08206051D01*
G01*
X002783845Y-08189687D01*
G01*
X002749247Y-08189687D01*
G01*
X002749247Y-08176793D01*
G01*
X002713211Y-08176793D01*
G01*
X002713211Y-08167494D01*
G01*
X002676085Y-08167494D01*
G01*
X002676085Y-08161878D01*
G01*
X002638227Y-08161878D01*
G01*
X002638227Y-08160000D01*
G01*
X002000000Y-08160000D01*
G01*
X001961773Y-08160000D01*
G01*
X001961773Y-08161878D01*
G01*
X001923915Y-08161878D01*
G01*
X001923915Y-08167494D01*
G01*
X001886789Y-08167494D01*
G01*
X001886789Y-08176793D01*
G01*
X001850753Y-08176793D01*
G01*
X001850753Y-08189687D01*
G01*
X001816155Y-08189687D01*
G01*
X001816155Y-08206051D01*
G01*
X001783328Y-08206051D01*
G01*
X001783328Y-08225727D01*
G01*
X001752587Y-08225727D01*
G01*
X001752587Y-08248526D01*
G01*
X001724228Y-08248526D01*
G01*
X001724228Y-08251474D01*
G01*
X001752587Y-08251474D01*
G01*
X001752587Y-08274273D01*
G01*
X001783328Y-08274273D01*
G01*
X001783328Y-08293949D01*
G01*
X001816155Y-08293949D01*
G01*
X001816155Y-08310313D01*
G01*
X001850753Y-08310313D01*
G01*
X001850753Y-08323207D01*
G01*
X001886789Y-08323207D01*
G01*
X001886789Y-08332506D01*
G01*
X001923915Y-08332506D01*
G01*
X001923915Y-08338122D01*
G01*
X001961773Y-08338122D01*
G01*
X001961773Y-08340000D01*
G01*
X002510000Y-08340000D01*
G01*
X002568527Y-08345764D01*
G01*
X002624805Y-08362836D01*
G01*
X002676671Y-08390559D01*
G01*
X002722132Y-08427868D01*
G01*
X002759441Y-08473329D01*
G01*
X002787164Y-08525195D01*
G01*
X002804236Y-08581473D01*
G01*
X002810000Y-08640000D01*
G01*
X002810000Y-09310000D01*
G01*
X002804236Y-09368527D01*
G01*
X002787164Y-09424805D01*
G01*
X002759441Y-09476671D01*
G01*
X002722132Y-09522132D01*
G01*
X002676671Y-09559441D01*
G01*
X002624805Y-09587164D01*
G01*
X002568527Y-09604236D01*
G01*
X002510000Y-09610000D01*
G01*
X-00391831Y-09610000D01*
G01*
X-00178831Y-09790000D01*
G01*
X002600000Y-09790000D01*
G01*
X002638227Y-09790000D01*
G01*
X002638227Y-09788122D01*
G37*
D21*
G36*
X-01627149Y-09610000D02*
G01*
X-04110000Y-09610000D01*
G01*
X-04168527Y-09604236D01*
G01*
X-04224805Y-09587164D01*
G01*
X-04276671Y-09559441D01*
G01*
X-04322132Y-09522132D01*
G01*
X-04359441Y-09476671D01*
G01*
X-04387164Y-09424805D01*
G01*
X-04404236Y-09368527D01*
G01*
X-04410000Y-09310000D01*
G01*
X-04410000Y-08011773D01*
G01*
X-04411878Y-08011773D01*
G01*
X-04411878Y-07973915D01*
G01*
X-04417494Y-07973915D01*
G01*
X-04417494Y-07936789D01*
G01*
X-04426793Y-07936789D01*
G01*
X-04426793Y-07900753D01*
G01*
X-04439687Y-07900753D01*
G01*
X-04439687Y-07866155D01*
G01*
X-04456051Y-07866155D01*
G01*
X-04456051Y-07833328D01*
G01*
X-04475727Y-07833328D01*
G01*
X-04475727Y-07802587D01*
G01*
X-04498526Y-07802587D01*
G01*
X-04498526Y-07774228D01*
G01*
X-04501474Y-07774228D01*
G01*
X-04501474Y-07802587D01*
G01*
X-04524273Y-07802587D01*
G01*
X-04524273Y-07833328D01*
G01*
X-04543949Y-07833328D01*
G01*
X-04543949Y-07866155D01*
G01*
X-04560313Y-07866155D01*
G01*
X-04560313Y-07900753D01*
G01*
X-04573207Y-07900753D01*
G01*
X-04573207Y-07936789D01*
G01*
X-04582506Y-07936789D01*
G01*
X-04582506Y-07973915D01*
G01*
X-04588122Y-07973915D01*
G01*
X-04588122Y-08011773D01*
G01*
X-04590000Y-08011773D01*
G01*
X-04590000Y-08050000D01*
G01*
X-04590000Y-09438227D01*
G01*
X-04588122Y-09438227D01*
G01*
X-04588122Y-09476085D01*
G01*
X-04582506Y-09476085D01*
G01*
X-04582506Y-09513211D01*
G01*
X-04573207Y-09513211D01*
G01*
X-04573207Y-09549247D01*
G01*
X-04560313Y-09549247D01*
G01*
X-04560313Y-09583845D01*
G01*
X-04543949Y-09583845D01*
G01*
X-04543949Y-09616672D01*
G01*
X-04524273Y-09616672D01*
G01*
X-04524273Y-09647413D01*
G01*
X-04501474Y-09647413D01*
G01*
X-04501474Y-09675772D01*
G01*
X-04475772Y-09675772D01*
G01*
X-04475772Y-09701474D01*
G01*
X-04447413Y-09701474D01*
G01*
X-04447413Y-09724273D01*
G01*
X-04416672Y-09724273D01*
G01*
X-04416672Y-09743949D01*
G01*
X-04383845Y-09743949D01*
G01*
X-04383845Y-09760313D01*
G01*
X-04349247Y-09760313D01*
G01*
X-04349247Y-09773207D01*
G01*
X-04313211Y-09773207D01*
G01*
X-04313211Y-09782506D01*
G01*
X-04276085Y-09782506D01*
G01*
X-04276085Y-09788122D01*
G01*
X-04238227Y-09788122D01*
G01*
X-04238227Y-09790000D01*
G01*
X-01427149Y-09790000D01*
G01*
X-01627149Y-09610000D01*
G37*
D21*
G36*
X-13973035Y-12289767D02*
G01*
X-13973035Y-12190448D01*
G01*
X-13797115Y-12190448D01*
G01*
X-13710656Y-12104170D01*
G01*
X-13710656Y-11928618D01*
G01*
X-13610883Y-11928618D01*
G01*
X-13568448Y-11826472D01*
G01*
X-13568448Y-11586310D01*
G01*
X-13514389Y-11586310D01*
G01*
X-13248448Y-10256605D01*
G01*
X-13248448Y-09986310D01*
G01*
X-13248135Y-09986310D01*
G01*
X-13248123Y-09974999D01*
G01*
X-13290233Y-09873035D01*
G01*
X-13389552Y-09873035D01*
G01*
X-13389552Y-09697115D01*
G01*
X-13475830Y-09610656D01*
G01*
X-13651382Y-09610656D01*
G01*
X-13651382Y-09510883D01*
G01*
X-13753528Y-09468448D01*
G01*
X-13993690Y-09468448D01*
G01*
X-13993690Y-09468135D01*
G01*
X-14005001Y-09468123D01*
G01*
X-14106965Y-09510233D01*
G01*
X-14106965Y-09609552D01*
G01*
X-14282885Y-09609552D01*
G01*
X-14369344Y-09695830D01*
G01*
X-14369344Y-09871382D01*
G01*
X-14469117Y-09871382D01*
G01*
X-14511552Y-09973528D01*
G01*
X-14511552Y-10213690D01*
G01*
X-14565611Y-10213690D01*
G01*
X-14831552Y-11543395D01*
G01*
X-14831552Y-11813690D01*
G01*
X-14831865Y-11813690D01*
G01*
X-14831877Y-11825001D01*
G01*
X-14789767Y-11926965D01*
G01*
X-14690448Y-11926965D01*
G01*
X-14690448Y-12102885D01*
G01*
X-14604170Y-12189344D01*
G01*
X-14428618Y-12189344D01*
G01*
X-14428618Y-12289117D01*
G01*
X-14326472Y-12331552D01*
G01*
X-14086310Y-12331552D01*
G01*
X-14086310Y-12331865D01*
G01*
X-14074999Y-12331877D01*
G01*
X-13973035Y-12289767D01*
G37*
D13*
X003100000Y-07000000D03*
D13*
X002000000Y010100000D03*
D13*
X007000000Y007700000D03*
D13*
X000000000Y-11400000D03*
D13*
X-07200000Y-14500000D03*
D13*
X-12250000Y015000000D03*
D13*
X-09500000Y007000000D03*
D13*
X-04000000Y-05000000D03*
D13*
X-01000000Y-01000000D03*
D13*
X001880799Y002295008D03*
D13*
X-15500000Y-02000000D03*
D13*
X-12300000Y-03200000D03*
D13*
X-12350000Y-02000000D03*
D13*
X-13800000Y004900000D03*
D13*
X-03200000Y-03600000D03*
D13*
X-15000000Y000800000D03*
D13*
X-15500000Y005000000D03*
D13*
X-14500000Y007000000D03*
D13*
X005000000Y013200000D03*
D13*
X-03000000Y-14500000D03*
D13*
X001600000Y-13500000D03*
D13*
X-12300000Y-09500000D03*
D13*
X-04500000Y-07750000D03*
D13*
X003100000Y-15000000D03*
D13*
X-07000000Y-15400000D03*
D13*
X-01100000Y-15400000D03*
D13*
X001900000Y-15400000D03*
D13*
X-11900000Y-04000000D03*
D13*
X-05500000Y-12350000D03*
D13*
X-10200000Y-00100000D03*
D13*
X-10200000Y000700000D03*
D13*
X-10200000Y001500000D03*
D13*
X-11500000Y011000000D03*
D13*
X-04700000Y-00950000D03*
D13*
X-07550000Y-04100000D03*
D13*
X-06700000Y-09500000D03*
D13*
X-13850000Y010500000D03*
D13*
X-10750000Y013500000D03*
D13*
X-07000000Y010900000D03*
D13*
X-16200000Y006200000D03*
D13*
X-13600000Y006200000D03*
D13*
X-16900000Y-02050000D03*
D13*
X000800000Y-14900000D03*
D13*
X001700000Y-08250000D03*
D13*
X005550000Y003000000D03*
D13*
X005300000Y-08850000D03*
D13*
X005700000Y-13050000D03*
D13*
X-14200000Y-11700000D03*
D13*
X-13880000Y-10100000D03*
D13*
X013999928Y001569659D03*
D13*
X004875000Y-13225000D03*
D13*
X-02000000Y-06100000D03*
D13*
X001625000Y009450000D03*
D13*
X009575000Y013725000D03*
D13*
X009200000Y014375000D03*
D13*
X002900000Y010100000D03*
D13*
X-02125000Y004175000D03*
D13*
X-02700000Y002125000D03*
D13*
X-07275000Y007125000D03*
D13*
X012600000Y010225000D03*
D13*
X-01925000Y013050000D03*
D14*
X-04800000Y004580000D03*
D14*
X008749936Y-03375000D03*
D14*
X009829884Y011500000D03*
D14*
X010749932Y005800000D03*
D14*
X-05649986Y-04300000D03*
D14*
X-05700000Y000000000D03*
D14*
X011567184Y-12000000D03*
D14*
X010600000Y-04100000D03*
D14*
X012037742Y004650000D03*
D14*
X009999998Y002250000D03*
D14*
X008100000Y008050000D03*
D14*
X009000000Y000100001D03*
D14*
X-11670000Y-13500000D03*
D14*
X-09000000Y-09950000D03*
D14*
X-01800000Y-07750000D03*
D14*
X005450000Y001250000D03*
D14*
X-02432816Y-13420000D03*
D14*
X-05550000Y001800000D03*
D14*
X010450000Y-01850000D03*
D14*
X-06432816Y-05000000D03*
D14*
X007160000Y-11560000D03*
D14*
X006375000Y001375000D03*
D14*
X005100000Y005375000D03*
D14*
X006580550Y003881380D03*
D14*
X014500000Y000750000D03*
D14*
X-00500000Y007350000D03*
D14*
X007475000Y011125000D03*
D14*
X-02750000Y004375000D03*
D14*
X000000000Y001175000D03*
D14*
X000525000Y005300000D03*
D14*
X001850000Y008100000D03*
D14*
X-03000000Y006925000D03*
D14*
X-00025000Y-04200000D03*
D14*
X-04750000Y-01925000D03*
D14*
X-07325116Y008189998D03*
D14*
X-01450000Y-04650000D03*
D14*
X-01175000Y-01675000D03*
D10*
X005550000Y-01150000D02*
X005100000Y-00850000D01*
D10*
X005100000Y-00850000D02*
X004800000Y-00500000D01*
D10*
X004800000Y-00500000D02*
X-00200000Y-00500000D01*
D10*
X-00200000Y-00500000D02*
X-00200000Y-02350000D01*
D10*
X-00200000Y-02350000D02*
X-05800000Y-02350000D01*
D10*
X-05800000Y-02350000D02*
X-05800000Y-01450000D01*
D10*
X-05800000Y-01450000D02*
X-07000000Y-01450000D01*
D10*
X-07000000Y-01450000D02*
X-07000000Y002400000D01*
D10*
X-07000000Y002400000D02*
X-08950000Y002400000D01*
D10*
X-08950000Y002400000D02*
X-08950000Y005499000D01*
D10*
X-08950000Y005499000D02*
X-06250014Y005499000D01*
D10*
X005550000Y-01150000D02*
X005100000Y-00850000D01*
D10*
X005100000Y-00850000D02*
X004800000Y-00500000D01*
D10*
X004800000Y-00500000D02*
X-00200000Y-00500000D01*
D10*
X-00200000Y-00500000D02*
X-00200000Y-02350000D01*
D10*
X-00200000Y-02350000D02*
X-05800000Y-02350000D01*
D10*
X-05800000Y-02350000D02*
X-05800000Y-01450000D01*
D10*
X-05800000Y-01450000D02*
X-07000000Y-01450000D01*
D10*
X-07000000Y-01450000D02*
X-07000000Y002400000D01*
D10*
X-07000000Y002400000D02*
X-05700000Y002400000D01*
D10*
X-05700000Y002400000D02*
X-05600000Y002850000D01*
D10*
X-05600000Y002850000D02*
X-02800000Y002850000D01*
D10*
X-02800000Y002850000D02*
X-01900000Y003200000D01*
D10*
X-01900000Y003200000D02*
X-00635000Y003050000D01*
D10*
X-07749986Y006499999D02*
X-04650000Y006500000D01*
D10*
X-04650000Y006500000D02*
X-04650000Y006750000D01*
D10*
X011400000Y001650000D02*
X008600000Y001600000D01*
D10*
X008600000Y001600000D02*
X008000000Y001900000D01*
D10*
X011500000Y002499749D02*
X010850000Y003050000D01*
D10*
X010850000Y003050000D02*
X009400000Y003050000D01*
D10*
X009400000Y003050000D02*
X008450000Y002250000D01*
D10*
X008450000Y002250000D02*
X008400000Y002700000D01*
D10*
X008400000Y002700000D02*
X007500000Y002700000D01*
D10*
X007500000Y002700000D02*
X007500000Y002000000D01*
D10*
X007500000Y002000000D02*
X006432816Y002000000D01*
D10*
X008749936Y005150000D02*
X007950000Y005125000D01*
D10*
X007950000Y005125000D02*
X005125000Y005800000D01*
D10*
X005125000Y005800000D02*
X000450000Y005725000D01*
D10*
X000450000Y005725000D02*
X-00567184Y006160000D01*
D10*
X003680000Y-03360000D02*
X005000000Y-03360000D01*
D10*
X005000000Y-03360000D02*
X008500000Y-05500000D01*
D10*
X008500000Y-05500000D02*
X010500000Y-04800000D01*
D10*
X010500000Y-04800000D02*
X015114128Y-01403536D01*
D10*
X015114128Y-01403536D02*
X015114128Y004444360D01*
D10*
X015114128Y004444360D02*
X010589777Y008968711D01*
D10*
X010589777Y008968711D02*
X010383759Y008968711D01*
D10*
X010383759Y008968711D02*
X009117359Y010235110D01*
D10*
X009117359Y010235110D02*
X009117359Y010460482D01*
D10*
X009117359Y010460482D02*
X006000000Y013760000D01*
D10*
X006000000Y013760000D02*
X-07533029Y013760000D01*
D10*
X-07533029Y013760000D02*
X-08500000Y013760000D01*
D10*
X-08500000Y013760000D02*
X-10500000Y013000000D01*
D10*
X-10500000Y013000000D02*
X-11000128Y012407414D01*
D10*
X-01249934Y-10235006D02*
X-05200000Y-10235006D01*
D10*
X-05200000Y-10235006D02*
X-05200000Y-06150000D01*
D10*
X-05200000Y-06150000D02*
X-04800000Y-04450000D01*
D10*
X014012900Y-01474000D02*
X013357900Y-00819000D01*
D10*
X013357900Y-00819000D02*
X009329700Y-00819000D01*
D10*
X009329700Y-00819000D02*
X008471600Y000039100D01*
D10*
X008471600Y000039100D02*
X-00705700Y000039100D01*
D10*
X-00705700Y000039100D02*
X-02224200Y-01479400D01*
D10*
X-02224200Y-01479400D02*
X-04969400Y-01479400D01*
D10*
X-04969400Y-01479400D02*
X-06142400Y-00306400D01*
D10*
X-06142400Y-00306400D02*
X-06142400Y000481400D01*
D10*
X-06142400Y000481400D02*
X-04401800Y002222000D01*
D10*
X003662200Y-08776200D02*
X005076800Y-07361600D01*
D10*
X005076800Y-07361600D02*
X009280800Y-07361600D01*
D10*
X009280800Y-07361600D02*
X012909500Y-10990300D01*
D10*
X012909500Y-10990300D02*
X012909500Y-11231400D01*
D10*
X006700000Y-09920000D02*
X010530000Y-13750000D01*
D10*
X010530000Y-13750000D02*
X012182820Y-13750000D01*
D10*
X001091800Y011552600D02*
X-07401000Y011552600D01*
D10*
X-07401000Y011552600D02*
X-07507500Y011659100D01*
D10*
X-02300000Y007900000D02*
X-02500000Y007774400D01*
D10*
X-02500000Y007774400D02*
X-07813200Y007774400D01*
D10*
X-07813200Y007774400D02*
X-09812900Y005774700D01*
D10*
X-09812900Y005774700D02*
X-11153000Y005774700D01*
D10*
X-07550000Y-05170000D02*
X-07199400Y-05170000D01*
D10*
X-07199400Y-05170000D02*
X-05500000Y-07200000D01*
D10*
X-05500000Y-07200000D02*
X-05500000Y-10950000D01*
D10*
X-05500000Y-10950000D02*
X-02000000Y-14450000D01*
D10*
X-02000000Y-14450000D02*
X000250000Y-14450000D01*
D10*
X000250000Y-14450000D02*
X000250000Y-13232816D01*
D10*
X003857800Y-12776400D02*
X003857800Y-12143600D01*
D10*
X003857800Y-12143600D02*
X007233900Y-08767500D01*
D10*
X007233900Y-08767500D02*
X009146400Y-08767500D01*
D10*
X-07396000Y004154700D02*
X-03501600Y004154700D01*
D10*
X-03501600Y004154700D02*
X-03432600Y004223700D01*
D10*
X014559400Y-00277900D02*
X013649600Y-00277900D01*
D10*
X013649600Y-00277900D02*
X012719100Y000652600D01*
D10*
X012719100Y000652600D02*
X-05097500Y000652600D01*
D10*
X-05097500Y000652600D02*
X-05161600Y000716700D01*
D10*
X014028200Y003549900D02*
X014028200Y002555500D01*
D10*
X014028200Y002555500D02*
X012652000Y001179300D01*
D10*
X012652000Y001179300D02*
X007306700Y001179300D01*
D10*
X-01432800Y006959700D02*
X-00647200Y006959700D01*
D10*
X-00647200Y006959700D02*
X-00249900Y006562400D01*
D10*
X-00249900Y006562400D02*
X000291100Y006562400D01*
D10*
X000291100Y006562400D02*
X001139100Y007410400D01*
D10*
X001139100Y007410400D02*
X001661700Y007410400D01*
D10*
X-04049000Y-03888500D02*
X-03706100Y-04231400D01*
D10*
X-03706100Y-04231400D02*
X-00682800Y-04231400D01*
D10*
X007105900Y003139500D02*
X007105900Y003766900D01*
D10*
X007105900Y003766900D02*
X007628500Y004289500D01*
D10*
X007628500Y004289500D02*
X008479700Y004289500D01*
D10*
X008479700Y004289500D02*
X009182100Y004991900D01*
D10*
X009182100Y004991900D02*
X009182100Y006512600D01*
D10*
X009182100Y006512600D02*
X008550500Y007144200D01*
D10*
X008550500Y007144200D02*
X003940400Y007144200D01*
D10*
X003940400Y007144200D02*
X002796800Y008287800D01*
D10*
X008250064Y005550000D02*
X008250064Y006500000D01*
D10*
X008250064Y006500000D02*
X001682816Y006500000D01*
D10*
X001682816Y006500000D02*
X001682816Y006160000D01*
D10*
X-14000000Y012000000D02*
X-14266800Y012000000D01*
D10*
X-14266800Y012000000D02*
X-15071300Y011195500D01*
D10*
X-15071300Y011195500D02*
X-15071300Y005428600D01*
D10*
X-15071300Y005428600D02*
X-14404500Y004761800D01*
D10*
X-14404500Y004761800D02*
X-14404500Y003275600D01*
D10*
X-14404500Y003275600D02*
X-08353800Y-02775000D01*
D10*
X-08353800Y-02775000D02*
X002343000Y-02775000D01*
D10*
X002343000Y-02775000D02*
X003709000Y-04140000D01*
D10*
X013400000Y005281400D02*
X010203000Y008477600D01*
D10*
X010203000Y008477600D02*
X008972000Y008477600D01*
D10*
X008972000Y008477600D02*
X004950000Y012500000D01*
D10*
X004950000Y012500000D02*
X-07750000Y012500000D01*
D10*
X010616000Y007187600D02*
X009934000Y007869900D01*
D10*
X009934000Y007869900D02*
X008928000Y007869900D01*
D10*
X008928000Y007869900D02*
X005886000Y010911900D01*
D10*
X005886000Y010911900D02*
X-02879800Y010911900D01*
D10*
X-02879800Y010911900D02*
X-04041700Y009750000D01*
D10*
X-04041700Y009750000D02*
X-08800000Y009750000D01*
D10*
X003550000Y-02550000D02*
X002200000Y-02370000D01*
D10*
X002200000Y-02370000D02*
X001249000Y-01419000D01*
D11*
X-14519300Y009745700D02*
X-09549300Y010345700D01*
D11*
X-09549300Y010345700D02*
X-05008600Y010287300D01*
D10*
X-12817200Y-04559800D02*
X-08780700Y-04559800D01*
D10*
X-08780700Y-04559800D02*
X-07549900Y-03329000D01*
D11*
X-12843800Y004869900D02*
X-11603781Y006169919D01*
D11*
X-11603781Y006169919D02*
X-09933781Y007439919D01*
D11*
X-09933781Y007439919D02*
X-07513781Y008639919D01*
D11*
X-07513781Y008639919D02*
X-07353781Y008669919D01*
D11*
X-07353781Y008669919D02*
X-04423781Y008459919D01*
D11*
X-04423781Y008459919D02*
X000982600Y010367500D01*
D11*
X-10480800Y004157000D02*
X-09209866Y005767934D01*
D11*
X-09209866Y005767934D02*
X-09049866Y005857934D01*
D11*
X-09049866Y005857934D02*
X-04619866Y006137934D01*
D11*
X-04619866Y006137934D02*
X-02909866Y006447934D01*
D11*
X-02909866Y006447934D02*
X-02729866Y006517934D01*
D11*
X-02729866Y006517934D02*
X-01949866Y007287934D01*
D11*
X-01949866Y007287934D02*
X-01095000Y008696500D01*
D11*
X-10000000Y009700000D02*
X-09138897Y009255100D01*
D11*
X-09138897Y009255100D02*
X-08918897Y009165100D01*
D11*
X-08918897Y009165100D02*
X-04447900Y009075100D01*
D10*
X013677000Y-06100000D02*
X012940100Y-06836900D01*
D10*
X012940100Y-06836900D02*
X011350000Y-06836900D01*
D10*
X011350000Y-06836900D02*
X011350000Y-05150000D01*
D10*
X011350000Y-05150000D02*
X010800000Y-05150000D01*
D10*
X010800000Y-05150000D02*
X010100000Y-05400000D01*
D10*
X010100000Y-05400000D02*
X009300000Y-05680000D01*
D10*
X009300000Y-05680000D02*
X008700000Y-05950000D01*
D10*
X008700000Y-05950000D02*
X008700000Y-06850000D01*
D10*
X008700000Y-06850000D02*
X003750000Y-06850000D01*
D10*
X003750000Y-06850000D02*
X002000000Y-05100000D01*
D10*
X002000000Y-05100000D02*
X002000000Y-03075000D01*
D10*
X002000000Y-03075000D02*
X-05454060Y-03075000D01*
D10*
X-05454060Y-03075000D02*
X-07073260Y-04645000D01*
D10*
X-07073260Y-04645000D02*
X-08218870Y-04645000D01*
D10*
X-08218870Y-04645000D02*
X-08789980Y-05266600D01*
D10*
X-08789980Y-05266600D02*
X-13054710Y-05266600D01*
D10*
X-13054710Y-05266600D02*
X-14091940Y-04229370D01*
D10*
X-14091940Y-04229370D02*
X-13870370Y-04229370D01*
D10*
X-13870370Y-04229370D02*
X-13696000Y-04055000D01*
D10*
X-02000000Y-06100000D02*
X-02200000Y-07550000D01*
D10*
X-02200000Y-07550000D02*
X-02225000Y-07825000D01*
D10*
X-02225000Y-07825000D02*
X-01825000Y-08700000D01*
D10*
X-01825000Y-08700000D02*
X003500000Y-13200000D01*
D10*
X003500000Y-13200000D02*
X003800000Y-13325000D01*
D10*
X003800000Y-13325000D02*
X004875000Y-13225000D01*
D10*
X-02000000Y-06100000D02*
X-02200000Y-07550000D01*
D10*
X-02200000Y-07550000D02*
X-02225000Y-07825000D01*
D10*
X-02225000Y-07825000D02*
X-01825000Y-08700000D01*
D10*
X-01825000Y-08700000D02*
X003500000Y-13200000D01*
D10*
X003500000Y-13200000D02*
X003800000Y-13325000D01*
D10*
X003800000Y-13325000D02*
X004875000Y-13225000D01*
D10*
X004875000Y-13225000D02*
X003800000Y-13325000D01*
D10*
X003800000Y-13325000D02*
X003500000Y-13200000D01*
D10*
X003500000Y-13200000D02*
X-01825000Y-08700000D01*
D10*
X-01825000Y-08700000D02*
X-02225000Y-07825000D01*
D10*
X-02225000Y-07825000D02*
X-02200000Y-07550000D01*
D10*
X-02200000Y-07550000D02*
X-02000000Y-06100000D01*
D10*
X004875000Y-13225000D02*
X003800000Y-13325000D01*
D10*
X003800000Y-13325000D02*
X003500000Y-13200000D01*
D10*
X003500000Y-13200000D02*
X-01825000Y-08700000D01*
D10*
X-01825000Y-08700000D02*
X-02225000Y-07825000D01*
D10*
X-02225000Y-07825000D02*
X-02200000Y-07550000D01*
D10*
X-02200000Y-07550000D02*
X-02000000Y-06100000D01*
D10*
X006580550Y003881380D02*
X003150000Y003825000D01*
D10*
X003150000Y003825000D02*
X001050000Y004725000D01*
D10*
X001050000Y004725000D02*
X-02300000Y004700000D01*
D10*
X-02300000Y004700000D02*
X-02750000Y004375000D01*
D10*
X-02000000Y-06100000D02*
X-02200000Y-07550000D01*
D10*
X-02200000Y-07550000D02*
X-02225000Y-07825000D01*
D10*
X-02225000Y-07825000D02*
X-01825000Y-08700000D01*
D10*
X-01825000Y-08700000D02*
X003500000Y-13200000D01*
D10*
X003500000Y-13200000D02*
X003800000Y-13325000D01*
D10*
X003800000Y-13325000D02*
X004875000Y-13225000D01*
D10*
X009999998Y002250000D02*
X011550000Y002075000D01*
D10*
X011550000Y002075000D02*
X011775000Y002150000D01*
D10*
X011775000Y002150000D02*
X011925000Y002400000D01*
D10*
X011925000Y002400000D02*
X011900000Y002700000D01*
D10*
X011900000Y002700000D02*
X009475000Y006650000D01*
D10*
X009475000Y006650000D02*
X008100000Y008050000D01*
D10*
X-02432816Y-13420000D02*
X-00825000Y-10325000D01*
D10*
X-00825000Y-10325000D02*
X-00850000Y-10000000D01*
D10*
X-00850000Y-10000000D02*
X-02100000Y-08875000D01*
D10*
X-02100000Y-08875000D02*
X-02550000Y-07850000D01*
D10*
X-02550000Y-07850000D02*
X-02525000Y-05725000D01*
D10*
X-02525000Y-05725000D02*
X-01450000Y-04650000D01*
D10*
X-02432816Y-13420000D02*
X-00825000Y-10325000D01*
D10*
X-00825000Y-10325000D02*
X-00850000Y-10000000D01*
D10*
X-00850000Y-10000000D02*
X-02100000Y-08875000D01*
D10*
X-02100000Y-08875000D02*
X-02550000Y-07850000D01*
D10*
X-02550000Y-07850000D02*
X-02525000Y-05725000D01*
D10*
X-02525000Y-05725000D02*
X-01450000Y-04650000D01*
D10*
X-02432816Y-13420000D02*
X-00825000Y-10325000D01*
D10*
X-00825000Y-10325000D02*
X-00850000Y-10000000D01*
D10*
X-00850000Y-10000000D02*
X-02100000Y-08875000D01*
D10*
X-02100000Y-08875000D02*
X-02550000Y-07850000D01*
D10*
X-02550000Y-07850000D02*
X-02525000Y-05725000D01*
D10*
X-02525000Y-05725000D02*
X-01450000Y-04650000D01*
D10*
X-02432816Y-13420000D02*
X-00825000Y-10325000D01*
D10*
X-00825000Y-10325000D02*
X-00850000Y-10000000D01*
D10*
X-00850000Y-10000000D02*
X-02100000Y-08875000D01*
D10*
X-02100000Y-08875000D02*
X-02550000Y-07850000D01*
D10*
X-02550000Y-07850000D02*
X-02525000Y-05725000D01*
D10*
X-02525000Y-05725000D02*
X-01450000Y-04650000D01*
D10*
X-01450000Y-04650000D02*
X-02525000Y-05725000D01*
D10*
X-02525000Y-05725000D02*
X-02550000Y-07850000D01*
D10*
X-02550000Y-07850000D02*
X-02100000Y-08875000D01*
D10*
X-02100000Y-08875000D02*
X-00850000Y-10000000D01*
D10*
X-00850000Y-10000000D02*
X-00825000Y-10325000D01*
D10*
X-00825000Y-10325000D02*
X-02432816Y-13420000D01*
D10*
X000000000Y001175000D02*
X000250000Y001600000D01*
D10*
X000250000Y001600000D02*
X000475000Y001750000D01*
D10*
X000475000Y001750000D02*
X004150000Y001775000D01*
D10*
X004150000Y001775000D02*
X005450000Y001250000D01*
D10*
X005100000Y005375000D02*
X004850000Y004875000D01*
D10*
X004850000Y004875000D02*
X003875000Y004175000D01*
D10*
X003875000Y004175000D02*
X003200000Y004150000D01*
D10*
X003200000Y004150000D02*
X000525000Y005300000D01*
D10*
X005100000Y005375000D02*
X004850000Y004875000D01*
D10*
X004850000Y004875000D02*
X003875000Y004175000D01*
D10*
X003875000Y004175000D02*
X003200000Y004150000D01*
D10*
X003200000Y004150000D02*
X000525000Y005300000D01*
D10*
X000525000Y005300000D02*
X003200000Y004150000D01*
D10*
X003200000Y004150000D02*
X003875000Y004175000D01*
D10*
X003875000Y004175000D02*
X004850000Y004875000D01*
D10*
X004850000Y004875000D02*
X005100000Y005375000D01*
D10*
X001625000Y009450000D02*
X001850000Y008100000D01*
D10*
X001625000Y009450000D02*
X001850000Y008100000D01*
D10*
X001625000Y009450000D02*
X001850000Y008100000D01*
D10*
X001625000Y009450000D02*
X001850000Y008100000D01*
D10*
X001625000Y009450000D02*
X001850000Y008100000D01*
D10*
X006375000Y001375000D02*
X006175000Y001475000D01*
D10*
X006175000Y001475000D02*
X005300000Y001725000D01*
D10*
X005300000Y001725000D02*
X-02125000Y004175000D01*
D13*
X-12550000Y-13550000D03*
D13*
X-07755200Y-09702900D03*
D13*
X-06322600Y003066800D03*
D13*
X000438500Y-01223900D03*
D13*
X009275000Y-06319800D03*
D14*
X005817184Y-00400000D03*
D13*
X009916600Y010380000D03*
D13*
X010300000Y004300000D03*
D13*
X005550000Y-01150000D03*
D14*
X-06250014Y005499000D03*
D13*
X-00635000Y003050000D03*
D13*
X001350000Y-04100000D03*
D14*
X011250058Y-02949928D03*
D14*
X-04650000Y006750000D03*
D14*
X-07749986Y006499999D03*
D14*
X005350000Y002150000D03*
D14*
X013390000Y002549934D03*
D14*
X011400000Y001650000D03*
D14*
X008000000Y001900000D03*
D14*
X006682816Y-00400000D03*
D14*
X011500000Y002499749D03*
D14*
X008450000Y002250000D03*
D14*
X006432816Y002000000D03*
D14*
X008749936Y005150000D03*
D14*
X-00567184Y006160000D03*
D14*
X010749932Y-03400000D03*
D14*
X005250000Y-02900000D03*
D13*
X005180000Y-05750000D03*
D13*
X008190000Y-08100000D03*
D14*
X001750060Y-10235006D03*
D13*
X003680000Y-03360000D03*
D14*
X-11000128Y012407414D03*
D14*
X-01249934Y-10235006D03*
D13*
X-04800000Y-04450000D03*
D14*
X-12000126Y012407414D03*
D13*
X-01039000Y014312000D03*
D13*
X-02800000Y003500000D03*
D13*
X014012900Y-01474000D03*
D13*
X-04401800Y002222000D03*
D13*
X003662200Y-08776200D03*
D13*
X012909500Y-11231400D03*
D14*
X006700000Y-09920000D03*
D14*
X012182820Y-13750000D03*
D13*
X-07507500Y011659100D03*
D13*
X-15279000Y-10715200D03*
D13*
X001091800Y011552600D03*
D13*
X-02300000Y007900000D03*
D13*
X-11153000Y005774700D03*
D14*
X000250000Y-13232816D03*
D14*
X-00032816Y-15700000D03*
D13*
X-07550000Y-05170000D03*
D13*
X-06379400Y-02040500D03*
D13*
X-00775700Y-12594900D03*
D13*
X003857800Y-12776400D03*
D13*
X009146400Y-08767500D03*
D13*
X-07396000Y004154700D03*
D13*
X-03432600Y004223700D03*
D13*
X014009500Y000249300D03*
D13*
X014559400Y-00277900D03*
D13*
X-05161600Y000716700D03*
D13*
X007839700Y003750900D03*
D13*
X011070000Y-01686200D03*
D13*
X007000000Y-12850000D03*
D13*
X007438500Y-07940400D03*
D13*
X010735900Y-05796500D03*
D13*
X011651800Y-12973200D03*
D13*
X014028200Y003549900D03*
D13*
X007306700Y001179300D03*
D13*
X-01432800Y006959700D03*
D13*
X001661700Y007410400D03*
D13*
X000103000Y007119200D03*
D13*
X-04049000Y-03888500D03*
D13*
X-00682800Y-04231400D03*
D14*
X-00050000Y-05600000D03*
D14*
X-03100000Y-15400000D03*
D13*
X007105900Y003139500D03*
D13*
X002796800Y008287800D03*
D13*
X007935400Y010679700D03*
D13*
X011475200Y009700300D03*
D13*
X009097900Y003833100D03*
D14*
X008250064Y005550000D03*
D14*
X001682816Y006160000D03*
D13*
X004417100Y-08786700D03*
D13*
X003684000Y004693600D03*
D13*
X-14000000Y012000000D03*
D13*
X003709000Y-04140000D03*
D13*
X013400000Y005281400D03*
D13*
X-07750000Y012500000D03*
D13*
X010616000Y007187600D03*
D13*
X-08800000Y009750000D03*
D13*
X001249000Y-01419000D03*
D13*
X003550000Y-02550000D03*
D13*
X004450000Y005250000D03*
D13*
X003896000Y008360500D03*
D13*
X010570600Y-09398900D03*
D13*
X007796800Y-11953900D03*
D13*
X010532800Y-07869100D03*
D13*
X006196200Y-12315400D03*
D13*
X-14300000Y011200000D03*
D13*
X-11800000Y-08600000D03*
D13*
X-16319000Y-01562000D03*
D13*
X-15611000Y009745700D03*
D13*
X-14519300Y009745700D03*
D13*
X-05008600Y010287300D03*
D13*
X-01883300Y-00170000D03*
D13*
X-05302600Y007123500D03*
D13*
X-12817200Y-04559800D03*
D13*
X-07549900Y-03329000D03*
D13*
X000643900Y001225200D03*
D13*
X-12843800Y004869900D03*
D13*
X000982600Y010367500D03*
D13*
X-10480800Y004157000D03*
D13*
X-01095000Y008696500D03*
D13*
X-11809700Y-02618400D03*
D13*
X-10000000Y009700000D03*
D13*
X-04447900Y009075100D03*
D13*
X010021600Y-07019500D03*
D13*
X006828800Y-08395500D03*
D13*
X-08415600Y004322500D03*
D13*
X-00150000Y-07900000D03*
D13*
X-01150000Y-08200000D03*
D13*
X-00450000Y-08750000D03*
D13*
X002150000Y-08900000D03*
D13*
X013677000Y-06100000D03*
D13*
X-13696000Y-04055000D03*
D13*
X010600000Y-11500000D03*
%LPC*%
D15*
X-15250000Y-15250000D03*
%LPD*%
%LPC*%
D15*
X-15250000Y015250000D03*
%LPD*%
%LPC*%
D15*
X015250000Y-15250000D03*
%LPD*%
%LPC*%
D15*
X015250000Y015250000D03*
%LPD*%
%LPC*%
D20*
X002890012Y-11310010D03*
%LPD*%
%LPC*%
D20*
X-02890012Y-11310010D03*
%LPD*%
M02*