v -3.625 1.525 2.44
v -3.375 1.525 2.44
v -3.375 1.525 2.119557
newmtl 1
Ka 0.8431372549019608 0.8156862745098039 0.7529411764705882
Kd 0.8431372549019608 0.8156862745098039 0.7529411764705882
Ks 0.25098039215686274 0.24313725490196078 0.22745098039215686
d 0.0
endmtl
v -2.625 1.525 2.44
v -2.375 1.525 2.44
v -2.375 1.525 2.119557
v -1.625 1.525 2.44
v -1.375 1.525 2.44
v -1.375 1.525 2.119557
v 0.375 1.525 2.44
v 0.625 1.525 2.44
v 0.625 1.525 2.119557
v 2.375 1.525 2.44
v 2.625 1.525 2.44
v 2.625 1.525 2.119557
v 3.375 1.525 2.44
v 3.625 1.525 2.44
v 3.625 1.525 2.119557
v -4.4 1.525 2.099114
v -4.6 1.525 2.099114
v -4.65 1.525 2.119557
v -5.175 1.525 2.14
v -5.4 1.525 2.14
v -5.175 1.525 2.44
v -5.4 1.525 2.15
v -5.75 1.525 2.44
v -5.61 1.525 2.15
v -5.75 1.525 2.119557
v -4.65 1.525 0.3
v -4.6 1.525 0.3
v -4.4 1.525 0.3
v -4.375 1.525 0.15
v -4.65 1.525 2.14
v -4.375 1.525 2.44
v -4.375 1.525 2.119557
v -5.175 1.525 0.3
v -5.175 1.525 0.15
v -5.4 1.525 0.3
v -5.4 1.525 0.15
v 3.65 1.525 0.3
v 3.625 1.525 0.15
v 4.35 1.525 0.3
v 5.4 1.525 0.15
v 4.65 1.525 0.3
v 5.4 1.525 0.3
v 4.65 1.525 2.119557
v 4.6 1.525 0.3
v 4.4 1.525 0.3
v 4.4 1.525 2.099114
v 4.35 1.525 2.119557
v 4.6 1.525 2.099114
v 5.75 1.525 2.44
v 4.35 1.525 2.14
v 3.65 1.525 2.14
v 3.65 1.525 2.119557
v 5.4 1.525 2.15
v 5.4 1.525 2.14
v 4.65 1.525 2.14
v 5.61 1.525 2.15
v 5.61 1.525 2.119557
v 5.75 1.525 2.119557
v 5.75 1.525 0.15
v 5.61 1.525 0.15
v -5.61 1.525 2.119557
v -5.61 1.525 0.15
v -5.75 1.525 0.15
v 3.375 1.525 2.119557
v 3.35 1.525 2.119557
v 3.35 1.525 2.14
v 3.35 1.525 0.3
v 3.375 1.525 0.15
v 2.65 1.525 0.3
v 2.625 1.525 0.15
v 2.375 1.525 2.119557
v 2.35 1.525 2.119557
v 2.35 1.525 2.14
v 1.375 1.525 0.15
v 1.65 1.525 0.3
v 2.375 1.525 0.15
v 2.35 1.525 0.3
v 1.6 1.525 2.099114
v 1.4 1.525 2.099114
v 1.375 1.525 2.119557
v 1.4 1.525 0.3
v 1.6 1.525 0.3
v 1.65 1.525 2.119557
v 1.375 1.525 2.44
v 1.35 1.525 2.14
v 1.35 1.525 2.119557
v 0.65 1.525 2.14
v 0.65 1.525 2.119557
v 0.65 1.525 0.3
v 1.35 1.525 0.3
v 0.625 1.525 0.15
v 0.375 1.525 2.119557
v 0.35 1.525 2.119557
v 0.35 1.525 2.14
v 0.35 1.525 0.3
v 0.375 1.525 0.15
v -0.35 1.525 0.3
v -0.375 1.525 0.15
v -0.375 1.525 2.119557
v -0.65 1.525 2.119557
v -0.375 1.525 2.44
v -0.65 1.525 2.14
v -1.35 1.525 2.14
v -1.35 1.525 2.119557
v -1.35 1.525 0.3
v -0.65 1.525 0.3
v -1.375 1.525 0.15
v -0.4 1.525 2.099114
v -0.4 1.525 0.3
v -0.6 1.525 0.3
v -0.6 1.525 2.099114
v -2.625 1.525 2.119557
v -2.65 1.525 2.119557
v -2.65 1.525 2.14
v -2.65 1.525 0.3
v -2.625 1.525 0.15
v -3.35 1.525 0.3
v -3.375 1.525 0.15
v -1.625 1.525 2.119557
v -1.65 1.525 2.119557
v -1.65 1.525 2.14
v -1.65 1.525 0.3
v -1.625 1.525 0.15
v -2.35 1.525 0.3
v -2.375 1.525 0.15
v -3.625 1.525 2.119557
v -3.65 1.525 2.119557
v -3.65 1.525 2.14
v -3.65 1.525 0.3
v -3.625 1.525 0.15
v -4.35 1.525 0.3
v 2.65 1.525 2.14
v 2.65 1.525 2.119557
v 3.4 1.525 2.099114
v 3.4 1.525 0.3
v 3.6 1.525 2.099114
v 3.6 1.525 0.3
v 1.65 1.525 2.14
v 2.4 1.525 2.099114
v 2.4 1.525 0.3
v 2.6 1.525 2.099114
v 2.6 1.525 0.3
v -0.35 1.525 2.14
v -0.35 1.525 2.119557
v 0.4 1.525 2.099114
v 0.4 1.525 0.3
v 0.6 1.525 2.099114
v 0.6 1.525 0.3
v -2.35 1.525 2.14
v -2.35 1.525 2.119557
v -1.6 1.525 2.099114
v -1.6 1.525 0.3
v -1.4 1.525 2.099114
v -1.4 1.525 0.3
v -3.35 1.525 2.14
v -3.35 1.525 2.119557
v -2.6 1.525 2.099114
v -2.6 1.525 0.3
v -2.4 1.525 2.099114
v -2.4 1.525 0.3
v -4.35 1.525 2.14
v -4.35 1.525 2.119557
v -3.6 1.525 2.099114
v -3.6 1.525 0.3
v -3.4 1.525 2.099114
v -3.4 1.525 0.3
v 5.4 1.525 0.0
v 3.625 1.525 0.0
v 3.375 1.525 0.0
v 2.625 1.525 0.0
v 2.375 1.525 0.0
v 1.375 1.525 0.0
v 0.625 1.525 0.0
v 0.375 1.525 0.0
v -0.375 1.525 0.0
v -1.375 1.525 0.0
v -1.625 1.525 0.0
v -2.375 1.525 0.0
v -2.625 1.525 0.0
v -3.375 1.525 0.0
v -3.625 1.525 0.0
v -4.375 1.525 0.0
v -5.175 1.525 0.0
v -5.4 1.525 0.0
v -5.4 2.001777 2.130194
v -5.4 1.97745 2.14
v -5.4 2.125 2.14
v -5.4 2.109986 1.994504
v -5.4 2.095194 2.036777
v -5.4 2.071366 2.074698
v -5.4 2.039698 2.106366
v -5.4 2.115 1.95
v -5.4 2.125 0.3
v -5.4 2.115 0.3
v -5.4 -2.110959 0.15
v -5.4 -2.125 0.15
v -5.61 -2.110959 0.15
v -5.75 -2.125 0.15
v -0.436983 0.875 1.109534
v -0.449788 0.875 0.695901
v -0.436983 0.875 0.661145
v -0.449788 0.875 0.662974
v -0.601723 0.875 0.661145
v -0.563203 0.875 0.695901
v -0.563203 0.875 0.962974
v -0.601723 0.875 0.962974
v -0.601723 0.875 1.109534
v -0.603447 0.875 0.962974
v -1.001723 0.875 1.109534
v -0.603447 0.875 0.662974
v -0.601723 0.875 0.662974
v -1.001723 0.875 0.661145
v 0.567285 0.875 0.662974
v 0.53693 0.875 0.747121
v 0.412998 0.875 0.747121
v 1.005594 0.875 1.109534
v 0.370228 0.875 1.109534
v 0.494114 0.875 0.962974
v 0.45387 0.875 0.962974
v 0.384358 0.875 0.662974
v 0.370228 0.875 0.661145
v 0.611187 0.875 0.662974
v 1.005594 0.875 0.661145
v 0.370228 0.875 0.741727
v 0.32948 0.875 1.109534
v 0.340456 0.875 0.662974
v -0.17174 0.875 1.109534
v -0.4 0.875 1.252436
v -0.436983 0.875 1.252436
v -0.6 0.875 1.252436
v -0.6 0.875 1.627564
v -5.025 0.875 1.109534
v -5.45 0.875 1.109534
v -5.25 0.875 1.04
v -5.45 0.875 1.04
v -5.45 0.875 1.64
v -5.25 0.875 1.64
v -5.25 0.875 2.14
v -5.025 0.875 2.14
v 4.6 0.875 1.627564
v 4.6 0.875 1.252436
v 5.45 0.875 1.109534
v 5.45 0.875 1.64
v 5.25 0.875 1.64
v 4.4 0.875 1.627564
v 5.25 0.875 2.14
v 4.0 0.875 2.14
v 4.4 0.875 1.252436
v 4.0 0.875 1.109534
v 5.25 0.875 0.661145
v 5.25 0.875 1.04
v 5.45 0.875 1.04
v 5.25 0.875 0.3
v 4.0 0.875 0.661145
v -0.2633 0.875 0.661145
v -0.17174 0.875 0.661145
v -0.232986 0.875 0.665393
v -0.201008 0.875 0.678523
v -0.235693 0.875 0.964155
v -0.201008 0.875 0.954743
v -0.201008 0.875 0.914499
v -0.201008 0.875 0.71145
v -0.2348 0.875 0.928969
v -0.206384 0.875 0.708472
v -0.271263 0.875 0.933706
v -0.300804 0.875 0.930389
v -0.373733 0.875 0.688568
v -0.396267 0.875 0.712291
v -0.412249 0.875 0.740817
v -0.408346 0.875 0.883959
v -0.390762 0.875 0.912007
v -0.363677 0.875 0.938055
v -0.301196 0.875 0.661145
v -0.320524 0.875 0.663149
v -0.349601 0.875 0.673158
v -0.323258 0.875 0.922285
v -0.344023 0.875 0.908394
v -0.362139 0.875 0.888394
v -0.383935 0.875 0.809773
v -0.380897 0.875 0.777297
v -0.372747 0.875 0.751492
v -0.30599 0.875 0.695382
v -0.278009 0.875 0.692243
v -0.327849 0.875 0.703429
v -0.346261 0.875 0.715838
v -0.360339 0.875 0.73069
v -0.238186 0.875 0.696663
v -0.374507 0.875 0.865231
v -0.382504 0.875 0.833115
v -0.421278 0.875 0.772571
v -0.424179 0.875 0.807315
v -0.419863 0.875 0.849966
v -0.335182 0.875 0.954457
v -0.301738 0.875 0.964173
v -0.271606 0.875 0.966633
v -0.275351 0.875 0.659457
v -0.283554 0.875 0.659316
v -0.17174 0.875 0.3
v -0.436983 0.875 0.3
v -4.4 0.875 1.627564
v -4.0 0.875 2.14
v -4.6 0.875 1.627564
v -4.6 0.875 1.252436
v -4.4 0.875 1.252436
v -4.0 0.875 1.109534
v -3.4 0.875 1.627564
v -3.0 0.875 2.14
v -3.6 0.875 1.627564
v -3.6 0.875 1.252436
v -3.4 0.875 1.252436
v -3.0 0.875 1.109534
v -2.4 0.875 1.627564
v -2.0 0.875 2.14
v -2.6 0.875 1.627564
v -2.6 0.875 1.252436
v -2.4 0.875 1.252436
v -2.0 0.875 1.109534
v -1.4 0.875 1.252436
v -1.6 0.875 1.252436
v -1.6 0.875 1.627564
v -1.001723 0.875 2.14
v -1.4 0.875 1.627564
v -2.0 0.875 0.661145
v -3.0 0.875 0.661145
v -4.0 0.875 0.661145
v -5.025 0.875 0.661145
v -5.25 0.875 0.661145
v -0.4 0.875 1.627564
v -0.17174 0.875 2.14
v -0.436983 0.875 1.627564
v -0.436983 0.875 2.14
v -0.601723 0.875 2.14
v -0.601723 0.875 0.3
v -1.001723 0.875 0.3
v -2.0 0.875 0.3
v -3.0 0.875 0.3
v -4.0 0.875 0.3
v -5.025 0.875 0.3
v -5.25 0.875 0.3
v 0.011187 0.875 0.962974
v 0.047773 0.875 1.109534
v -0.142471 0.875 0.962974
v 0.011187 0.875 0.930048
v 0.018504 0.875 0.695901
v 0.047773 0.875 0.661145
v 0.018504 0.875 0.662974
v -0.142471 0.875 0.662974
v -0.102227 0.875 0.79834
v -0.102227 0.875 0.695901
v 0.00387 0.875 0.79834
v 0.00387 0.875 0.831267
v -0.102227 0.875 0.831267
v -0.102227 0.875 0.930048
v 0.205044 0.875 0.958342
v 0.161702 0.875 0.962974
v 0.077041 0.875 0.962974
v 0.28632 0.875 0.718365
v 0.261627 0.875 0.694722
v 0.32948 0.875 0.661145
v 0.230303 0.875 0.676518
v 0.240144 0.875 0.946016
v 0.272796 0.875 0.924134
v 0.27311 0.875 0.923858
v 0.318504 0.875 0.816747
v 0.314295 0.875 0.776599
v 0.303524 0.875 0.745198
v 0.195735 0.875 0.666215
v 0.158615 0.875 0.662974
v 0.077041 0.875 0.662974
v 0.294325 0.875 0.900334
v 0.308267 0.875 0.874534
v 0.316324 0.875 0.844976
v 0.370228 0.875 0.662974
v 0.4 0.875 1.252436
v 0.4 0.875 1.627564
v 0.6 0.875 1.252436
v 0.6 0.875 1.627564
v 1.005594 0.875 2.14
v 0.370228 0.875 2.14
v 0.32948 0.875 2.14
v 0.047773 0.875 2.14
v 1.6 0.875 1.627564
v 2.0 0.875 2.14
v 1.4 0.875 1.627564
v 1.4 0.875 1.252436
v 1.6 0.875 1.252436
v 2.0 0.875 1.109534
v 2.6 0.875 1.627564
v 3.0 0.875 2.14
v 2.4 0.875 1.627564
v 2.4 0.875 1.252436
v 2.6 0.875 1.252436
v 3.0 0.875 1.109534
v 3.6 0.875 1.627564
v 3.4 0.875 1.627564
v 3.4 0.875 1.252436
v 3.6 0.875 1.252436
v 3.0 0.875 0.661145
v 2.0 0.875 0.661145
v 4.0 0.875 0.3
v 3.0 0.875 0.3
v 2.0 0.875 0.3
v 1.005594 0.875 0.3
v 0.370228 0.875 0.3
v 0.32948 0.875 0.3
v 0.047773 0.875 0.3
v 5.6 -2.125 0.89
v 5.4 -2.125 0.89
v 5.4 -2.125 0.15
v -5.6 -2.125 1.79
v -5.4 -2.125 1.79
v -5.4 -2.125 2.29
v -5.4 -2.125 0.89
v -5.6 -2.125 0.89
v -5.75 -2.125 2.44
v 5.75 -2.125 2.44
v 5.4 -2.125 2.29
v 5.4 -2.125 1.79
v 5.6 -2.125 1.79
v 5.75 -2.125 0.15
v -4.65 1.975 2.14
v -4.8 2.125 2.14
v -2.8 2.125 2.14
v -3.2 2.125 2.14
v -2.65 1.975 2.14
v -3.35 1.975 2.14
v -3.8 2.125 2.14
v -4.2 2.125 2.14
v -3.65 1.975 2.14
v -4.35 1.975 2.14
v -1.8 2.125 2.14
v -2.2 2.125 2.14
v -1.65 1.975 2.14
v -2.35 1.975 2.14
v -1.35 1.975 2.14
v -1.2 2.125 2.14
v -0.8 2.125 2.14
v -0.65 1.975 2.14
v 0.2 2.125 2.14
v -0.2 2.125 2.14
v 0.35 1.975 2.14
v -0.35 1.975 2.14
v 1.2 2.125 2.14
v 0.8 2.125 2.14
v 1.35 1.975 2.14
v 0.65 1.975 2.14
v 1.65 1.975 2.14
v 1.8 2.125 2.14
v 2.2 2.125 2.14
v 2.35 1.975 2.14
v 2.65 1.975 2.14
v 2.8 2.125 2.14
v 3.2 2.125 2.14
v 3.35 1.975 2.14
v 3.8 2.125 2.14
v 3.65 1.975 2.14
v 4.2 2.125 2.14
v 4.35 1.975 2.14
v -4.8 2.125 0.3
v -4.65 1.975 0.3
v -3.35 1.975 0.3
v -3.2 2.125 0.3
v -2.8 2.125 0.3
v -2.65 1.975 0.3
v -4.2 2.125 0.3
v -3.8 2.125 0.3
v -4.35 1.975 0.3
v -3.65 1.975 0.3
v -2.35 1.975 0.3
v -2.2 2.125 0.3
v -1.8 2.125 0.3
v -1.65 1.975 0.3
v -1.35 1.975 0.3
v -1.2 2.125 0.3
v -0.8 2.125 0.3
v -0.65 1.975 0.3
v -0.35 1.975 0.3
v -0.2 2.125 0.3
v 0.2 2.125 0.3
v 0.35 1.975 0.3
v 0.65 1.975 0.3
v 0.8 2.125 0.3
v 1.2 2.125 0.3
v 1.35 1.975 0.3
v 1.65 1.975 0.3
v 1.8 2.125 0.3
v 2.2 2.125 0.3
v 2.35 1.975 0.3
v 3.35 1.975 0.3
v 3.2 2.125 0.3
v 2.8 2.125 0.3
v 2.65 1.975 0.3
v 4.35 1.975 0.3
v 4.2 2.125 0.3
v 3.8 2.125 0.3
v 3.65 1.975 0.3
v 4.5 1.525 2.44
v 3.5 1.525 2.44
v 2.5 1.525 2.44
v 1.5 1.525 2.44
v 0.5 1.525 2.44
v -0.5 1.525 2.44
v -2.5 1.525 2.44
v -3.5 1.525 2.44
v -4.5 1.525 2.44
v -5.575 1.525 2.44
v 5.4 -2.125 0.0
v -5.4 -2.125 0.0
v 5.4 -1.97745 0.0
v -5.4 -1.97745 0.0
v -5.25 -1.712878 0.3
v -5.25 -1.712878 1.04
v -5.45 -1.712878 1.04
v -5.45 -1.712878 1.64
v -5.25 -1.712878 1.64
v -5.25 -1.712878 2.14
v 5.25 -1.712878 2.14
v 5.25 -1.712878 1.64
v 5.45 -1.712878 1.64
v 5.45 -1.712878 1.04
v 5.25 -1.712878 1.04
v 5.25 -1.712878 0.3
v 5.4 2.125 2.14
v 5.4 1.97745 2.14
v 5.4 2.001777 2.130194
v 5.4 2.039698 2.106366
v 5.4 2.071366 2.074698
v 5.4 2.095194 2.036777
v 5.4 2.115 0.3
v 5.4 2.125 0.3
v 5.4 2.115 1.95
v 5.4 2.109986 1.994504
v 4.8 2.125 2.14
v 4.65 1.975 2.14
v 4.8 2.125 0.3
v 4.65 1.975 0.3
v 4.4 1.736847 2.099114
v 4.6 1.736847 2.099114
v 4.6 1.788611 2.092299
newmtl 2
Ka 0.8509803921568627 0.8509803921568627 0.8509803921568627
Kd 0.8509803921568627 0.8509803921568627 0.8509803921568627
Ks 0.4235294117647059 0.4235294117647059 0.4235294117647059
d 0.0
endmtl
v 4.4 1.788611 2.092299
v 4.6 1.836847 2.072319
v 4.4 1.836847 2.072319
v 4.6 1.878269 2.040535
v 4.4 1.878269 2.040535
v 4.6 1.910052 1.999114
v 4.4 1.910052 1.999114
v 4.6 1.930032 1.950878
v 4.4 1.930032 1.950878
v 4.6 1.936847 1.899114
v 4.4 1.936847 1.899114
v 4.6 1.936847 1.647879
v 4.4 1.936847 1.647879
v 4.6 2.00506 1.649184
v 4.4 2.00506 1.649184
v 4.6 2.00506 1.24
v 4.4 2.00506 1.24
v 4.6 1.936847 1.24
v 4.4 1.936847 1.24
v 4.6 1.936847 0.467653
v 4.4 1.936847 0.467653
v 4.6 2.185439 0.37399
v 4.4 2.185439 0.37399
v 4.6 2.583045 0.14
v 4.4 2.583045 0.14
v 4.6 2.875 0.14
v 4.4 2.875 0.14
v 4.6 2.875 -0.01
v 4.4 2.875 -0.01
v 4.6 2.051767 -0.01
v 4.4 2.051767 -0.01
v 4.6 -0.9413 1.592815
v 4.4 -0.9413 1.592815
v 4.4 -0.9413 1.287185
v 4.6 -0.9413 1.287185
v 4.4 -0.979558 1.292906
v 4.4 -1.015081 1.308221
v 4.4 -1.088431 1.437158
v 4.4 -1.088431 1.442842
v 4.4 -1.083442 1.481203
v 4.4 -1.06881 1.517012
v 4.4 -0.979558 1.587094
v 4.4 -1.045506 1.547889
v 4.4 -1.015081 1.571779
v 4.4 -1.045506 1.332111
v 4.4 -1.06881 1.362988
v 4.4 -1.083442 1.398797
v 4.6 -1.088431 1.442842
v 4.6 -1.088431 1.437158
v 4.6 -0.979558 1.587094
v 4.6 -1.015081 1.571779
v 4.6 -1.045506 1.547889
v 4.6 -1.06881 1.517012
v 4.6 -1.083442 1.481203
v 4.6 -1.083442 1.398797
v 4.6 -1.06881 1.362988
v 4.6 -1.045506 1.332111
v 4.6 -1.015081 1.308221
v 4.6 -0.979558 1.292906
v 3.4 1.736847 2.099114
v 3.6 1.736847 2.099114
v 3.6 1.788611 2.092299
v 3.4 1.788611 2.092299
v 3.6 1.836847 2.072319
v 3.4 1.836847 2.072319
v 3.6 1.878269 2.040535
v 3.4 1.878269 2.040535
v 3.6 1.910052 1.999114
v 3.4 1.910052 1.999114
v 3.6 1.930032 1.950878
v 3.4 1.930032 1.950878
v 3.6 1.936847 1.899114
v 3.4 1.936847 1.899114
v 3.6 1.936847 1.647879
v 3.4 1.936847 1.647879
v 3.6 2.00506 1.649184
v 3.4 2.00506 1.649184
v 3.6 2.00506 1.24
v 3.4 2.00506 1.24
v 3.6 1.936847 1.24
v 3.4 1.936847 1.24
v 3.6 1.936847 0.467653
v 3.4 1.936847 0.467653
v 3.6 2.185439 0.37399
v 3.4 2.185439 0.37399
v 3.6 2.583045 0.14
v 3.4 2.583045 0.14
v 3.6 2.875 0.14
v 3.4 2.875 0.14
v 3.6 2.875 -0.01
v 3.4 2.875 -0.01
v 3.6 2.051767 -0.01
v 3.4 2.051767 -0.01
v 3.6 -0.9413 1.592815
v 3.4 -0.9413 1.592815
v 3.4 -0.9413 1.287185
v 3.6 -0.9413 1.287185
v 3.4 -0.979558 1.292906
v 3.4 -1.015081 1.308221
v 3.4 -1.088431 1.437158
v 3.4 -1.088431 1.442842
v 3.4 -1.083442 1.481203
v 3.4 -1.06881 1.517012
v 3.4 -0.979558 1.587094
v 3.4 -1.045506 1.547889
v 3.4 -1.015081 1.571779
v 3.4 -1.045506 1.332111
v 3.4 -1.06881 1.362988
v 3.4 -1.083442 1.398797
v 3.6 -1.088431 1.442842
v 3.6 -1.088431 1.437158
v 3.6 -0.979558 1.587094
v 3.6 -1.015081 1.571779
v 3.6 -1.045506 1.547889
v 3.6 -1.06881 1.517012
v 3.6 -1.083442 1.481203
v 3.6 -1.083442 1.398797
v 3.6 -1.06881 1.362988
v 3.6 -1.045506 1.332111
v 3.6 -1.015081 1.308221
v 3.6 -0.979558 1.292906
v 2.4 1.736847 2.099114
v 2.6 1.736847 2.099114
v 2.6 1.788611 2.092299
v 2.4 1.788611 2.092299
v 2.6 1.836847 2.072319
v 2.4 1.836847 2.072319
v 2.6 1.878269 2.040535
v 2.4 1.878269 2.040535
v 2.6 1.910052 1.999114
v 2.4 1.910052 1.999114
v 2.6 1.930032 1.950878
v 2.4 1.930032 1.950878
v 2.6 1.936847 1.899114
v 2.4 1.936847 1.899114
v 2.6 1.936847 1.647879
v 2.4 1.936847 1.647879
v 2.6 2.00506 1.649184
v 2.4 2.00506 1.649184
v 2.6 2.00506 1.24
v 2.4 2.00506 1.24
v 2.6 1.936847 1.24
v 2.4 1.936847 1.24
v 2.6 1.936847 0.467653
v 2.4 1.936847 0.467653
v 2.6 2.185439 0.37399
v 2.4 2.185439 0.37399
v 2.6 2.583045 0.14
v 2.4 2.583045 0.14
v 2.6 2.875 0.14
v 2.4 2.875 0.14
v 2.6 2.875 -0.01
v 2.4 2.875 -0.01
v 2.6 2.051767 -0.01
v 2.4 2.051767 -0.01
v 2.6 -0.9413 1.592815
v 2.4 -0.9413 1.592815
v 2.4 -0.9413 1.287185
v 2.6 -0.9413 1.287185
v 2.4 -0.979558 1.292906
v 2.4 -1.015081 1.308221
v 2.4 -1.088431 1.437158
v 2.4 -1.088431 1.442842
v 2.4 -1.083442 1.481203
v 2.4 -1.06881 1.517012
v 2.4 -0.979558 1.587094
v 2.4 -1.045506 1.547889
v 2.4 -1.015081 1.571779
v 2.4 -1.045506 1.332111
v 2.4 -1.06881 1.362988
v 2.4 -1.083442 1.398797
v 2.6 -1.088431 1.442842
v 2.6 -1.088431 1.437158
v 2.6 -0.979558 1.587094
v 2.6 -1.015081 1.571779
v 2.6 -1.045506 1.547889
v 2.6 -1.06881 1.517012
v 2.6 -1.083442 1.481203
v 2.6 -1.083442 1.398797
v 2.6 -1.06881 1.362988
v 2.6 -1.045506 1.332111
v 2.6 -1.015081 1.308221
v 2.6 -0.979558 1.292906
v 1.4 1.736847 2.099114
v 1.6 1.736847 2.099114
v 1.6 1.788611 2.092299
v 1.4 1.788611 2.092299
v 1.6 1.836847 2.072319
v 1.4 1.836847 2.072319
v 1.6 1.878269 2.040535
v 1.4 1.878269 2.040535
v 1.6 1.910052 1.999114
v 1.4 1.910052 1.999114
v 1.6 1.930032 1.950878
v 1.4 1.930032 1.950878
v 1.6 1.936847 1.899114
v 1.4 1.936847 1.899114
v 1.6 1.936847 1.647879
v 1.4 1.936847 1.647879
v 1.6 2.00506 1.649184
v 1.4 2.00506 1.649184
v 1.6 2.00506 1.24
v 1.4 2.00506 1.24
v 1.6 1.936847 1.24
v 1.4 1.936847 1.24
v 1.6 1.936847 0.467653
v 1.4 1.936847 0.467653
v 1.6 2.185439 0.37399
v 1.4 2.185439 0.37399
v 1.6 2.583045 0.14
v 1.4 2.583045 0.14
v 1.6 2.875 0.14
v 1.4 2.875 0.14
v 1.6 2.875 -0.01
v 1.4 2.875 -0.01
v 1.6 2.051767 -0.01
v 1.4 2.051767 -0.01
v 1.6 -0.9413 1.592815
v 1.4 -0.9413 1.592815
v 1.4 -0.9413 1.287185
v 1.6 -0.9413 1.287185
v 1.4 -0.979558 1.292906
v 1.4 -1.015081 1.308221
v 1.4 -1.088431 1.437158
v 1.4 -1.088431 1.442842
v 1.4 -1.083442 1.481203
v 1.4 -1.06881 1.517012
v 1.4 -0.979558 1.587094
v 1.4 -1.045506 1.547889
v 1.4 -1.015081 1.571779
v 1.4 -1.045506 1.332111
v 1.4 -1.06881 1.362988
v 1.4 -1.083442 1.398797
v 1.6 -1.088431 1.442842
v 1.6 -1.088431 1.437158
v 1.6 -0.979558 1.587094
v 1.6 -1.015081 1.571779
v 1.6 -1.045506 1.547889
v 1.6 -1.06881 1.517012
v 1.6 -1.083442 1.481203
v 1.6 -1.083442 1.398797
v 1.6 -1.06881 1.362988
v 1.6 -1.045506 1.332111
v 1.6 -1.015081 1.308221
v 1.6 -0.979558 1.292906
v 0.4 1.736847 2.099114
v 0.6 1.736847 2.099114
v 0.6 1.788611 2.092299
v 0.4 1.788611 2.092299
v 0.6 1.836847 2.072319
v 0.4 1.836847 2.072319
v 0.6 1.878269 2.040535
v 0.4 1.878269 2.040535
v 0.6 1.910052 1.999114
v 0.4 1.910052 1.999114
v 0.6 1.930032 1.950878
v 0.4 1.930032 1.950878
v 0.6 1.936847 1.899114
v 0.4 1.936847 1.899114
v 0.6 1.936847 1.647879
v 0.4 1.936847 1.647879
v 0.6 2.00506 1.649184
v 0.4 2.00506 1.649184
v 0.6 2.00506 1.24
v 0.4 2.00506 1.24
v 0.6 1.936847 1.24
v 0.4 1.936847 1.24
v 0.6 1.936847 0.467653
v 0.4 1.936847 0.467653
v 0.6 2.185439 0.37399
v 0.4 2.185439 0.37399
v 0.6 2.583045 0.14
v 0.4 2.583045 0.14
v 0.6 2.875 0.14
v 0.4 2.875 0.14
v 0.6 2.875 -0.01
v 0.4 2.875 -0.01
v 0.6 2.051767 -0.01
v 0.4 2.051767 -0.01
v 0.6 -0.9413 1.592815
v 0.4 -0.9413 1.592815
v 0.4 -0.9413 1.287185
v 0.6 -0.9413 1.287185
v 0.4 -0.979558 1.292906
v 0.4 -1.015081 1.308221
v 0.4 -1.088431 1.437158
v 0.4 -1.088431 1.442842
v 0.4 -1.083442 1.481203
v 0.4 -1.06881 1.517012
v 0.4 -0.979558 1.587094
v 0.4 -1.045506 1.547889
v 0.4 -1.015081 1.571779
v 0.4 -1.045506 1.332111
v 0.4 -1.06881 1.362988
v 0.4 -1.083442 1.398797
v 0.6 -1.088431 1.442842
v 0.6 -1.088431 1.437158
v 0.6 -0.979558 1.587094
v 0.6 -1.015081 1.571779
v 0.6 -1.045506 1.547889
v 0.6 -1.06881 1.517012
v 0.6 -1.083442 1.481203
v 0.6 -1.083442 1.398797
v 0.6 -1.06881 1.362988
v 0.6 -1.045506 1.332111
v 0.6 -1.015081 1.308221
v 0.6 -0.979558 1.292906
v -0.6 1.736847 2.099114
v -0.4 1.736847 2.099114
v -0.4 1.788611 2.092299
v -0.6 1.788611 2.092299
v -0.4 1.836847 2.072319
v -0.6 1.836847 2.072319
v -0.4 1.878269 2.040535
v -0.6 1.878269 2.040535
v -0.4 1.910052 1.999114
v -0.6 1.910052 1.999114
v -0.4 1.930032 1.950878
v -0.6 1.930032 1.950878
v -0.4 1.936847 1.899114
v -0.6 1.936847 1.899114
v -0.4 1.936847 1.647879
v -0.6 1.936847 1.647879
v -0.4 2.00506 1.649184
v -0.6 2.00506 1.649184
v -0.4 2.00506 1.24
v -0.6 2.00506 1.24
v -0.4 1.936847 1.24
v -0.6 1.936847 1.24
v -0.4 1.936847 0.467653
v -0.6 1.936847 0.467653
v -0.4 2.185439 0.37399
v -0.6 2.185439 0.37399
v -0.4 2.583045 0.14
v -0.6 2.583045 0.14
v -0.4 2.875 0.14
v -0.6 2.875 0.14
v -0.4 2.875 -0.01
v -0.6 2.875 -0.01
v -0.4 2.051767 -0.01
v -0.6 2.051767 -0.01
v -0.6 -0.9413 1.592815
v -0.4 -0.9413 1.592815
v -0.4 -0.9413 1.287185
v -0.6 -0.9413 1.287185
v -0.6 -0.979558 1.292906
v -0.6 -1.015081 1.308221
v -0.6 -1.088431 1.437158
v -0.6 -1.088431 1.442842
v -0.6 -1.083442 1.481203
v -0.6 -1.06881 1.517012
v -0.6 -0.979558 1.587094
v -0.6 -1.045506 1.547889
v -0.6 -1.015081 1.571779
v -0.6 -1.045506 1.332111
v -0.6 -1.06881 1.362988
v -0.6 -1.083442 1.398797
v -0.4 -1.088431 1.442842
v -0.4 -1.088431 1.437158
v -0.4 -0.979558 1.587094
v -0.4 -1.015081 1.571779
v -0.4 -1.045506 1.547889
v -0.4 -1.06881 1.517012
v -0.4 -1.083442 1.481203
v -0.4 -1.083442 1.398797
v -0.4 -1.06881 1.362988
v -0.4 -1.045506 1.332111
v -0.4 -1.015081 1.308221
v -0.4 -0.979558 1.292906
v -1.6 1.736847 2.099114
v -1.4 1.736847 2.099114
v -1.4 1.788611 2.092299
v -1.6 1.788611 2.092299
v -1.4 1.836847 2.072319
v -1.6 1.836847 2.072319
v -1.4 1.878269 2.040535
v -1.6 1.878269 2.040535
v -1.4 1.910052 1.999114
v -1.6 1.910052 1.999114
v -1.4 1.930032 1.950878
v -1.6 1.930032 1.950878
v -1.4 1.936847 1.899114
v -1.6 1.936847 1.899114
v -1.4 1.936847 1.647879
v -1.6 1.936847 1.647879
v -1.4 2.00506 1.649184
v -1.6 2.00506 1.649184
v -1.4 2.00506 1.24
v -1.6 2.00506 1.24
v -1.4 1.936847 1.24
v -1.6 1.936847 1.24
v -1.4 1.936847 0.467653
v -1.6 1.936847 0.467653
v -1.4 2.185439 0.37399
v -1.6 2.185439 0.37399
v -1.4 2.583045 0.14
v -1.6 2.583045 0.14
v -1.4 2.875 0.14
v -1.6 2.875 0.14
v -1.4 2.875 -0.01
v -1.6 2.875 -0.01
v -1.4 2.051767 -0.01
v -1.6 2.051767 -0.01
v -1.4 -0.9413 1.592815
v -1.6 -0.9413 1.592815
v -1.6 -0.9413 1.287185
v -1.4 -0.9413 1.287185
v -1.6 -0.979558 1.292906
v -1.6 -1.015081 1.308221
v -1.6 -1.088431 1.437158
v -1.6 -1.088431 1.442842
v -1.6 -1.083442 1.481203
v -1.6 -1.06881 1.517012
v -1.6 -0.979558 1.587094
v -1.6 -1.045506 1.547889
v -1.6 -1.015081 1.571779
v -1.6 -1.045506 1.332111
v -1.6 -1.06881 1.362988
v -1.6 -1.083442 1.398797
v -1.4 -1.088431 1.442842
v -1.4 -1.088431 1.437158
v -1.4 -0.979558 1.587094
v -1.4 -1.015081 1.571779
v -1.4 -1.045506 1.547889
v -1.4 -1.06881 1.517012
v -1.4 -1.083442 1.481203
v -1.4 -1.083442 1.398797
v -1.4 -1.06881 1.362988
v -1.4 -1.045506 1.332111
v -1.4 -1.015081 1.308221
v -1.4 -0.979558 1.292906
v -2.6 1.736847 2.099114
v -2.4 1.736847 2.099114
v -2.4 1.788611 2.092299
v -2.6 1.788611 2.092299
v -2.4 1.836847 2.072319
v -2.6 1.836847 2.072319
v -2.4 1.878269 2.040535
v -2.6 1.878269 2.040535
v -2.4 1.910052 1.999114
v -2.6 1.910052 1.999114
v -2.4 1.930032 1.950878
v -2.6 1.930032 1.950878
v -2.4 1.936847 1.899114
v -2.6 1.936847 1.899114
v -2.4 1.936847 1.647879
v -2.6 1.936847 1.647879
v -2.4 2.00506 1.649184
v -2.6 2.00506 1.649184
v -2.4 2.00506 1.24
v -2.6 2.00506 1.24
v -2.4 1.936847 1.24
v -2.6 1.936847 1.24
v -2.4 1.936847 0.467653
v -2.6 1.936847 0.467653
v -2.4 2.185439 0.37399
v -2.6 2.185439 0.37399
v -2.4 2.583045 0.14
v -2.6 2.583045 0.14
v -2.4 2.875 0.14
v -2.6 2.875 0.14
v -2.4 2.875 -0.01
v -2.6 2.875 -0.01
v -2.4 2.051767 -0.01
v -2.6 2.051767 -0.01
v -2.4 -0.9413 1.592815
v -2.6 -0.9413 1.592815
v -2.6 -0.9413 1.287185
v -2.4 -0.9413 1.287185
v -2.6 -0.979558 1.292906
v -2.6 -1.015081 1.308221
v -2.6 -1.088431 1.437158
v -2.6 -1.088431 1.442842
v -2.6 -1.083442 1.481203
v -2.6 -1.06881 1.517012
v -2.6 -0.979558 1.587094
v -2.6 -1.045506 1.547889
v -2.6 -1.015081 1.571779
v -2.6 -1.045506 1.332111
v -2.6 -1.06881 1.362988
v -2.6 -1.083442 1.398797
v -2.4 -1.088431 1.442842
v -2.4 -1.088431 1.437158
v -2.4 -0.979558 1.587094
v -2.4 -1.015081 1.571779
v -2.4 -1.045506 1.547889
v -2.4 -1.06881 1.517012
v -2.4 -1.083442 1.481203
v -2.4 -1.083442 1.398797
v -2.4 -1.06881 1.362988
v -2.4 -1.045506 1.332111
v -2.4 -1.015081 1.308221
v -2.4 -0.979558 1.292906
v -3.6 1.736847 2.099114
v -3.4 1.736847 2.099114
v -3.4 1.788611 2.092299
v -3.6 1.788611 2.092299
v -3.4 1.836847 2.072319
v -3.6 1.836847 2.072319
v -3.4 1.878269 2.040535
v -3.6 1.878269 2.040535
v -3.4 1.910052 1.999114
v -3.6 1.910052 1.999114
v -3.4 1.930032 1.950878
v -3.6 1.930032 1.950878
v -3.4 1.936847 1.899114
v -3.6 1.936847 1.899114
v -3.4 1.936847 1.647879
v -3.6 1.936847 1.647879
v -3.4 2.00506 1.649184
v -3.6 2.00506 1.649184
v -3.4 2.00506 1.24
v -3.6 2.00506 1.24
v -3.4 1.936847 1.24
v -3.6 1.936847 1.24
v -3.4 1.936847 0.467653
v -3.6 1.936847 0.467653
v -3.4 2.185439 0.37399
v -3.6 2.185439 0.37399
v -3.4 2.583045 0.14
v -3.6 2.583045 0.14
v -3.4 2.875 0.14
v -3.6 2.875 0.14
v -3.4 2.875 -0.01
v -3.6 2.875 -0.01
v -3.4 2.051767 -0.01
v -3.6 2.051767 -0.01
v -3.4 -0.9413 1.592815
v -3.6 -0.9413 1.592815
v -3.6 -0.9413 1.287185
v -3.4 -0.9413 1.287185
v -3.6 -0.979558 1.292906
v -3.6 -1.015081 1.308221
v -3.6 -1.088431 1.437158
v -3.6 -1.088431 1.442842
v -3.6 -1.083442 1.481203
v -3.6 -1.06881 1.517012
v -3.6 -0.979558 1.587094
v -3.6 -1.045506 1.547889
v -3.6 -1.015081 1.571779
v -3.6 -1.045506 1.332111
v -3.6 -1.06881 1.362988
v -3.6 -1.083442 1.398797
v -3.4 -1.088431 1.442842
v -3.4 -1.088431 1.437158
v -3.4 -0.979558 1.587094
v -3.4 -1.015081 1.571779
v -3.4 -1.045506 1.547889
v -3.4 -1.06881 1.517012
v -3.4 -1.083442 1.481203
v -3.4 -1.083442 1.398797
v -3.4 -1.06881 1.362988
v -3.4 -1.045506 1.332111
v -3.4 -1.015081 1.308221
v -3.4 -0.979558 1.292906
v -4.6 1.736847 2.099114
v -4.4 1.736847 2.099114
v -4.4 1.788611 2.092299
v -4.6 1.788611 2.092299
v -4.4 1.836847 2.072319
v -4.6 1.836847 2.072319
v -4.4 1.878269 2.040535
v -4.6 1.878269 2.040535
v -4.4 1.910052 1.999114
v -4.6 1.910052 1.999114
v -4.4 1.930032 1.950878
v -4.6 1.930032 1.950878
v -4.4 1.936847 1.899114
v -4.6 1.936847 1.899114
v -4.4 1.936847 1.647879
v -4.6 1.936847 1.647879
v -4.4 2.00506 1.649184
v -4.6 2.00506 1.649184
v -4.4 2.00506 1.24
v -4.6 2.00506 1.24
v -4.4 1.936847 1.24
v -4.6 1.936847 1.24
v -4.4 1.936847 0.467653
v -4.6 1.936847 0.467653
v -4.4 2.185439 0.37399
v -4.6 2.185439 0.37399
v -4.4 2.583045 0.14
v -4.6 2.583045 0.14
v -4.4 2.875 0.14
v -4.6 2.875 0.14
v -4.4 2.875 -0.01
v -4.6 2.875 -0.01
v -4.4 2.051767 -0.01
v -4.6 2.051767 -0.01
v -4.4 -0.9413 1.592815
v -4.6 -0.9413 1.592815
v -4.6 -0.9413 1.287185
v -4.4 -0.9413 1.287185
v -4.6 -0.979558 1.292906
v -4.6 -1.015081 1.308221
v -4.6 -1.088431 1.437158
v -4.6 -1.088431 1.442842
v -4.6 -1.083442 1.481203
v -4.6 -1.06881 1.517012
v -4.6 -0.979558 1.587094
v -4.6 -1.045506 1.547889
v -4.6 -1.015081 1.571779
v -4.6 -1.045506 1.332111
v -4.6 -1.06881 1.362988
v -4.6 -1.083442 1.398797
v -4.4 -1.088431 1.442842
v -4.4 -1.088431 1.437158
v -4.4 -0.979558 1.587094
v -4.4 -1.015081 1.571779
v -4.4 -1.045506 1.547889
v -4.4 -1.06881 1.517012
v -4.4 -1.083442 1.481203
v -4.4 -1.083442 1.398797
v -4.4 -1.06881 1.362988
v -4.4 -1.045506 1.332111
v -4.4 -1.015081 1.308221
v -4.4 -0.979558 1.292906
v -5.4 -2.096827 0.106699
v -5.4 -2.073263 0.067719
v -5.4 -2.041491 0.035081
v -5.4 -2.003158 0.010478
v 5.4 -2.110959 0.15
v 5.61 -2.110959 0.15
v 5.4 -2.041491 0.035081
v 5.4 -2.003158 0.010478
v 5.4 -2.096827 0.106699
v 5.4 -2.073263 0.067719
v 5.4 1.959504 2.144986
v 5.4 1.915 2.15
v 5.61 -2.096827 0.106699
v 5.61 -2.073263 0.067719
v 5.61 -2.041491 0.035081
v 5.61 -2.003158 0.010478
v 5.61 -1.960253 -0.004813
v 5.4 -1.960253 -0.004813
v 5.4 -1.915 -0.01
v 5.61 -1.915 -0.01
v 5.61 1.915 -0.01
v 5.4 1.915 -0.01
v 5.4 1.959504 -0.004986
v 5.61 1.959504 -0.004986
v 5.4 2.001777 0.009806
v 5.61 2.001777 0.009806
v 5.4 2.039698 0.033634
v 5.61 2.039698 0.033634
v 5.4 2.071366 0.065302
v 5.61 2.071366 0.065302
v 5.4 2.095194 0.103223
v 5.61 2.095194 0.103223
v 5.4 2.109986 0.145496
v 5.61 2.109986 0.145496
v 5.4 2.115 0.19
v 5.61 2.115 0.19
v 5.61 2.115 1.95
v 5.61 2.109986 1.994504
v 5.61 2.095194 2.036777
v 5.61 2.071366 2.074698
v 5.61 2.039698 2.106366
v 5.61 2.001777 2.130194
v 5.61 1.959504 2.144986
v 5.61 1.915 2.15
v 0.494114 0.885 0.962974
v 0.611187 0.885 0.662974
newmtl 3
Ka 0.4392156862745098 0.4392156862745098 0.4392156862745098
Kd 0.4392156862745098 0.4392156862745098 0.4392156862745098
Ks 0.2196078431372549 0.2196078431372549 0.2196078431372549
d 0.0
endmtl
v 0.567285 0.885 0.662974
v 0.53693 0.885 0.747121
v 0.412998 0.885 0.747121
v 0.384358 0.885 0.662974
v 0.340456 0.885 0.662974
v 0.45387 0.885 0.962974
v 0.423116 0.885 0.780048
v 0.467876 0.885 0.905353
v 0.470763 0.885 0.915757
v 0.472677 0.885 0.926389
v 0.473649 0.885 0.926389
v 0.475607 0.885 0.915789
v 0.52344 0.885 0.780048
v 0.47828 0.885 0.905353
v 0.423116 0.875 0.780048
v 0.52344 0.875 0.780048
v 0.467876 0.875 0.905353
v 0.470763 0.875 0.915757
v 0.472677 0.875 0.926389
v 0.473649 0.875 0.926389
v 0.475607 0.875 0.915789
v 0.47828 0.875 0.905353
v 0.158615 0.885 0.662974
v 0.077041 0.885 0.662974
v 0.077041 0.885 0.962974
v 0.161702 0.885 0.962974
v 0.318504 0.885 0.816747
v 0.316324 0.885 0.844976
v 0.308267 0.885 0.874534
v 0.294325 0.885 0.900334
v 0.27311 0.885 0.923858
v 0.272796 0.885 0.924134
v 0.240144 0.885 0.946016
v 0.205044 0.885 0.958342
v 0.195735 0.885 0.666215
v 0.230303 0.885 0.676518
v 0.261627 0.885 0.694722
v 0.28632 0.885 0.718365
v 0.303524 0.885 0.745198
v 0.314295 0.885 0.776599
v 0.258287 0.885 0.887979
v 0.243715 0.885 0.903451
v 0.221801 0.885 0.917607
v 0.197038 0.885 0.926273
v 0.16153 0.885 0.930048
v 0.117285 0.885 0.930048
v 0.117285 0.885 0.695901
v 0.159873 0.885 0.695901
v 0.191523 0.885 0.698847
v 0.216768 0.885 0.706727
v 0.237228 0.885 0.718877
v 0.254054 0.885 0.735496
v 0.266707 0.885 0.75618
v 0.275506 0.885 0.78438
v 0.27826 0.885 0.81589
v 0.275712 0.885 0.845747
v 0.268709 0.885 0.869475
v 0.16153 0.875 0.930048
v 0.117285 0.875 0.930048
v 0.197038 0.875 0.926273
v 0.221801 0.875 0.917607
v 0.243715 0.875 0.903451
v 0.258287 0.875 0.887979
v 0.268709 0.875 0.869475
v 0.275712 0.875 0.845747
v 0.27826 0.875 0.81589
v 0.275506 0.875 0.78438
v 0.266707 0.875 0.75618
v 0.254054 0.875 0.735496
v 0.237228 0.875 0.718877
v 0.216768 0.875 0.706727
v 0.191523 0.875 0.698847
v 0.159873 0.875 0.695901
v 0.117285 0.875 0.695901
v 0.018504 0.885 0.695901
v 0.018504 0.885 0.662974
v -0.142471 0.885 0.662974
v -0.142471 0.885 0.962974
v 0.011187 0.885 0.962974
v 0.011187 0.885 0.930048
v -0.102227 0.885 0.930048
v -0.102227 0.885 0.831267
v 0.00387 0.885 0.831267
v 0.00387 0.885 0.79834
v -0.102227 0.885 0.79834
v -0.102227 0.885 0.695901
v -0.201008 0.885 0.71145
v -0.201008 0.885 0.678523
v -0.232986 0.885 0.665393
v -0.283554 0.885 0.659316
v -0.275351 0.885 0.659457
v -0.424179 0.885 0.807315
v -0.421278 0.885 0.772571
v -0.412249 0.885 0.740817
v -0.396267 0.885 0.712291
v -0.373733 0.885 0.688568
v -0.349601 0.885 0.673158
v -0.320524 0.885 0.663149
v -0.271606 0.885 0.966633
v -0.301738 0.885 0.964173
v -0.335182 0.885 0.954457
v -0.363677 0.885 0.938055
v -0.390762 0.885 0.912007
v -0.408346 0.885 0.883959
v -0.419863 0.885 0.849966
v -0.201008 0.885 0.954743
v -0.235693 0.885 0.964155
v -0.201008 0.885 0.914499
v -0.271263 0.885 0.933706
v -0.2348 0.885 0.928969
v -0.383935 0.885 0.809773
v -0.382504 0.885 0.833115
v -0.374507 0.885 0.865231
v -0.362139 0.885 0.888394
v -0.344023 0.885 0.908394
v -0.323258 0.885 0.922285
v -0.300804 0.885 0.930389
v -0.278009 0.885 0.692243
v -0.30599 0.885 0.695382
v -0.327849 0.885 0.703429
v -0.346261 0.885 0.715838
v -0.360339 0.885 0.73069
v -0.372747 0.885 0.751492
v -0.380897 0.885 0.777297
v -0.206384 0.885 0.708472
v -0.238186 0.885 0.696663
v -0.449788 0.885 0.695901
v -0.449788 0.885 0.662974
v -0.603447 0.885 0.662974
v -0.603447 0.885 0.962974
v -0.563203 0.885 0.962974
v -0.563203 0.885 0.695901
v -5.61 -1.915 -0.01
v -5.4 -1.915 -0.01
v -5.4 -1.960253 -0.004813
v -5.61 -1.960253 -0.004813
v -5.61 -2.003158 0.010478
v -5.61 -2.041491 0.035081
v -5.61 -2.073263 0.067719
v -5.61 -2.096827 0.106699
v -5.4 1.915 2.15
v -5.4 1.959504 2.144986
v -5.61 1.915 2.15
v -5.61 1.959504 2.144986
v -5.61 2.001777 2.130194
v -5.61 2.039698 2.106366
v -5.61 2.071366 2.074698
v -5.61 2.095194 2.036777
v -5.61 2.109986 1.994504
v -5.61 2.115 1.95
v -5.4 2.115 0.19
v -5.61 2.115 0.19
v -5.4 2.109986 0.145496
v -5.61 2.109986 0.145496
v -5.4 2.095194 0.103223
v -5.61 2.095194 0.103223
v -5.4 2.071366 0.065302
v -5.61 2.071366 0.065302
v -5.4 2.039698 0.033634
v -5.61 2.039698 0.033634
v -5.4 2.001777 0.009806
v -5.61 2.001777 0.009806
v -5.4 1.959504 -0.004986
v -5.61 1.959504 -0.004986
v -5.4 1.915 -0.01
v -5.61 1.915 -0.01
newmtl 4
Ka 0.8549019607843137 0.8549019607843137 0.8549019607843137
Kd 0.8549019607843137 0.8549019607843137 0.8549019607843137
Ks 0.42745098039215684 0.42745098039215684 0.42745098039215684
d 0.0
endmtl
usemtl 1
f 1// 2// 3//
f 4// 5// 6//
f 7// 8// 9//
f 10// 11// 12//
f 13// 14// 15//
f 16// 17// 18//
f 19// 20// 21//
f 22// 23// 24//
f 24// 23// 25//
f 24// 25// 26//
f 26// 25// 27//
f 26// 27// 28//
f 21// 20// 29//
f 30// 31// 32//
f 22// 24// 33//
f 33// 24// 34//
f 33// 34// 21//
f 21// 34// 35//
f 21// 35// 19//
f 20// 30// 29//
f 29// 30// 32//
f 29// 32// 36//
f 36// 32// 37//
f 36// 37// 38//
f 38// 37// 39//
f 18// 40// 41//
f 41// 40// 42//
f 41// 42// 43//
f 44// 45// 43//
f 46// 44// 47//
f 47// 44// 43//
f 47// 43// 48//
f 48// 43// 42//
f 48// 42// 49//
f 49// 42// 50//
f 49// 50// 51//
f 52// 53// 17//
f 17// 53// 54//
f 17// 54// 18//
f 18// 54// 55//
f 18// 55// 40//
f 56// 57// 58//
f 47// 51// 46//
f 46// 51// 50//
f 46// 50// 58//
f 58// 50// 53//
f 58// 53// 56//
f 56// 53// 52//
f 56// 52// 59//
f 59// 52// 60//
f 52// 61// 60//
f 60// 61// 62//
f 60// 62// 63//
f 27// 64// 28//
f 28// 64// 65//
f 28// 65// 66//
f 67// 68// 69//
f 70// 71// 72//
f 72// 71// 73//
f 72// 73// 15//
f 74// 75// 76//
f 77// 78// 79//
f 79// 78// 80//
f 81// 82// 83//
f 83// 82// 84//
f 83// 84// 77//
f 77// 84// 85//
f 77// 85// 78//
f 78// 85// 86//
f 87// 83// 88//
f 88// 83// 89//
f 87// 88// 11//
f 11// 88// 90//
f 11// 90// 12//
f 12// 90// 91//
f 12// 91// 92//
f 89// 83// 93//
f 93// 83// 77//
f 93// 77// 92//
f 92// 77// 94//
f 92// 94// 12//
f 95// 96// 97//
f 98// 99// 100//
f 100// 99// 101//
f 100// 101// 102//
f 102// 103// 104//
f 104// 103// 105//
f 104// 105// 8//
f 8// 105// 106//
f 8// 106// 9//
f 9// 106// 107//
f 9// 107// 108//
f 109// 101// 108//
f 108// 101// 110//
f 108// 110// 9//
f 111// 102// 112//
f 112// 102// 101//
f 112// 101// 113//
f 113// 101// 109//
f 113// 109// 114//
f 114// 109// 103//
f 114// 103// 111//
f 111// 103// 102//
f 115// 116// 117//
f 118// 119// 120//
f 120// 119// 121//
f 120// 121// 3//
f 122// 123// 124//
f 125// 126// 127//
f 127// 126// 128//
f 127// 128// 6//
f 129// 130// 131//
f 132// 133// 134//
f 134// 133// 32//
f 134// 32// 35//
f 35// 32// 31//
f 35// 31// 19//
f 18// 67// 16//
f 16// 67// 69//
f 16// 69// 14//
f 14// 69// 135//
f 14// 135// 15//
f 15// 135// 136//
f 15// 136// 72//
f 67// 137// 138//
f 137// 67// 139//
f 139// 67// 18//
f 139// 18// 140//
f 140// 18// 41//
f 140// 41// 138//
f 138// 41// 71//
f 138// 71// 67//
f 67// 71// 70//
f 67// 70// 68//
f 85// 81// 86//
f 86// 81// 83//
f 86// 83// 141//
f 141// 83// 87//
f 141// 87// 76//
f 76// 87// 13//
f 76// 13// 74//
f 74// 13// 15//
f 74// 142// 143//
f 142// 74// 144//
f 144// 74// 15//
f 144// 15// 145//
f 145// 15// 73//
f 145// 73// 143//
f 143// 73// 79//
f 143// 79// 74//
f 74// 79// 80//
f 74// 80// 75//
f 12// 95// 10//
f 10// 95// 97//
f 10// 97// 104//
f 104// 97// 146//
f 104// 146// 102//
f 102// 146// 147//
f 102// 147// 100//
f 95// 148// 149//
f 148// 95// 150//
f 150// 95// 12//
f 150// 12// 151//
f 151// 12// 94//
f 151// 94// 149//
f 149// 94// 99//
f 149// 99// 95//
f 95// 99// 98//
f 95// 98// 96//
f 9// 122// 7//
f 7// 122// 124//
f 7// 124// 5//
f 5// 124// 152//
f 5// 152// 6//
f 6// 152// 153//
f 6// 153// 127//
f 122// 154// 155//
f 154// 122// 156//
f 156// 122// 9//
f 156// 9// 157//
f 157// 9// 110//
f 157// 110// 155//
f 155// 110// 126//
f 155// 126// 122//
f 122// 126// 125//
f 122// 125// 123//
f 6// 115// 4//
f 4// 115// 117//
f 4// 117// 2//
f 2// 117// 158//
f 2// 158// 3//
f 3// 158// 159//
f 3// 159// 120//
f 115// 160// 161//
f 160// 115// 162//
f 162// 115// 6//
f 162// 6// 163//
f 163// 6// 128//
f 163// 128// 161//
f 161// 128// 119//
f 161// 119// 115//
f 115// 119// 118//
f 115// 118// 116//
f 3// 129// 1//
f 1// 129// 131//
f 1// 131// 34//
f 34// 131// 164//
f 34// 164// 35//
f 35// 164// 165//
f 35// 165// 134//
f 129// 166// 167//
f 166// 129// 168//
f 168// 129// 3//
f 168// 3// 169//
f 169// 3// 121//
f 169// 121// 167//
f 167// 121// 133//
f 167// 133// 129//
f 129// 133// 132//
f 129// 132// 130//
f 43// 170// 41//
f 41// 170// 171//
f 41// 171// 71//
f 71// 171// 172//
f 71// 172// 73//
f 73// 172// 173//
f 73// 173// 79//
f 79// 173// 174//
f 79// 174// 77//
f 77// 174// 175//
f 77// 175// 94//
f 94// 175// 176//
f 94// 176// 99//
f 99// 176// 177//
f 99// 177// 101//
f 101// 177// 178//
f 101// 178// 110//
f 110// 178// 179//
f 110// 179// 126//
f 126// 179// 180//
f 126// 180// 128//
f 128// 180// 181//
f 128// 181// 119//
f 119// 181// 182//
f 119// 182// 121//
f 121// 182// 183//
f 121// 183// 133//
f 133// 183// 184//
f 133// 184// 32//
f 32// 184// 185//
f 32// 185// 37//
f 37// 185// 186//
f 37// 186// 39//
f 39// 186// 187//
f 188// 189// 190//
f 191// 192// 190//
f 192// 193// 190//
f 190// 193// 194//
f 190// 194// 188//
f 191// 190// 195//
f 195// 190// 196//
f 195// 196// 197//
f 198// 199// 200//
f 200// 199// 201//
f 200// 201// 65//
f 65// 201// 66//
f 202// 203// 204//
f 204// 203// 205//
f 204// 205// 206//
f 207// 203// 208//
f 208// 203// 202//
f 208// 202// 209//
f 209// 202// 210//
f 209// 210// 211//
f 211// 210// 212//
f 211// 212// 213//
f 205// 214// 206//
f 206// 214// 213//
f 206// 213// 215//
f 216// 217// 218//
f 219// 220// 221//
f 221// 220// 222//
f 218// 223// 216//
f 216// 223// 224//
f 216// 224// 225//
f 225// 224// 226//
f 222// 220// 227//
f 227// 220// 228//
f 227// 228// 229//
f 230// 231// 202//
f 202// 231// 232//
f 202// 232// 210//
f 210// 232// 233//
f 210// 233// 234//
f 235// 236// 237//
f 237// 236// 238//
f 239// 236// 240//
f 240// 236// 235//
f 240// 235// 241//
f 241// 235// 242//
f 243// 244// 245//
f 245// 246// 243//
f 243// 246// 247//
f 243// 247// 248//
f 247// 249// 248//
f 248// 249// 250//
f 248// 250// 251//
f 251// 250// 252//
f 251// 252// 244//
f 253// 254// 252//
f 244// 252// 245//
f 245// 252// 254//
f 245// 254// 255//
f 256// 253// 257//
f 258// 259// 260//
f 260// 259// 261//
f 262// 263// 230//
f 230// 263// 264//
f 230// 264// 265//
f 265// 264// 266//
f 265// 266// 267//
f 267// 266// 268//
f 267// 268// 269//
f 270// 271// 204//
f 204// 271// 272//
f 273// 274// 202//
f 202// 274// 275//
f 276// 277// 204//
f 204// 277// 278//
f 204// 278// 270//
f 269// 279// 267//
f 267// 279// 280//
f 267// 280// 281//
f 282// 283// 267//
f 267// 283// 284//
f 285// 286// 287//
f 287// 286// 288//
f 284// 289// 267//
f 267// 289// 288//
f 267// 288// 290//
f 290// 288// 286//
f 281// 291// 267//
f 267// 291// 292//
f 267// 292// 282//
f 272// 293// 204//
f 204// 293// 294//
f 204// 294// 202//
f 202// 294// 295//
f 202// 295// 273//
f 275// 296// 202//
f 202// 296// 297//
f 202// 297// 230//
f 230// 297// 298//
f 230// 298// 262//
f 299// 300// 301//
f 301// 300// 276//
f 301// 276// 302//
f 303// 304// 305//
f 305// 304// 242//
f 305// 242// 306//
f 306// 242// 235//
f 306// 235// 307//
f 307// 235// 308//
f 307// 308// 303//
f 303// 308// 304//
f 309// 310// 311//
f 311// 310// 304//
f 311// 304// 312//
f 312// 304// 308//
f 312// 308// 313//
f 313// 308// 314//
f 313// 314// 309//
f 309// 314// 310//
f 315// 316// 317//
f 317// 316// 310//
f 317// 310// 318//
f 318// 310// 314//
f 318// 314// 319//
f 319// 314// 320//
f 319// 320// 315//
f 315// 320// 316//
f 212// 321// 320//
f 320// 321// 322//
f 320// 322// 316//
f 316// 322// 323//
f 316// 323// 324//
f 324// 323// 325//
f 213// 212// 215//
f 215// 212// 320//
f 215// 320// 326//
f 326// 320// 314//
f 326// 314// 327//
f 327// 314// 308//
f 327// 308// 328//
f 328// 308// 235//
f 328// 235// 329//
f 329// 235// 237//
f 329// 237// 330//
f 331// 332// 333//
f 333// 332// 334//
f 333// 334// 234//
f 234// 334// 335//
f 234// 335// 210//
f 210// 335// 324//
f 210// 324// 212//
f 212// 324// 325//
f 212// 325// 321//
f 276// 204// 302//
f 302// 204// 206//
f 302// 206// 336//
f 336// 206// 215//
f 336// 215// 337//
f 337// 215// 326//
f 337// 326// 338//
f 338// 326// 327//
f 338// 327// 339//
f 339// 327// 328//
f 339// 328// 340//
f 340// 328// 329//
f 340// 329// 341//
f 341// 329// 330//
f 341// 330// 342//
f 343// 344// 345//
f 345// 344// 230//
f 345// 230// 259//
f 259// 230// 265//
f 259// 265// 261//
f 343// 346// 344//
f 344// 346// 347//
f 344// 347// 348//
f 348// 347// 349//
f 348// 349// 259//
f 259// 349// 350//
f 259// 350// 345//
f 351// 352// 353//
f 353// 352// 347//
f 353// 347// 354//
f 354// 347// 346//
f 354// 346// 355//
f 355// 346// 356//
f 357// 228// 358//
f 358// 228// 344//
f 358// 344// 359//
f 359// 344// 348//
f 360// 361// 362//
f 362// 361// 363//
f 357// 364// 228//
f 228// 364// 365//
f 228// 365// 366//
f 367// 368// 362//
f 362// 368// 369//
f 362// 369// 360//
f 363// 370// 362//
f 362// 370// 371//
f 362// 371// 348//
f 348// 371// 372//
f 348// 372// 359//
f 366// 373// 228//
f 228// 373// 374//
f 228// 374// 375//
f 223// 376// 224//
f 224// 376// 229//
f 224// 229// 362//
f 362// 229// 228//
f 362// 228// 367//
f 367// 228// 375//
f 220// 377// 378//
f 377// 220// 379//
f 379// 220// 219//
f 379// 219// 380//
f 380// 219// 381//
f 380// 381// 378//
f 378// 381// 382//
f 378// 382// 220//
f 220// 382// 383//
f 220// 383// 228//
f 228// 383// 384//
f 228// 384// 344//
f 344// 384// 332//
f 344// 332// 230//
f 230// 332// 331//
f 230// 331// 231//
f 385// 386// 387//
f 387// 386// 381//
f 387// 381// 388//
f 388// 381// 219//
f 388// 219// 389//
f 389// 219// 390//
f 389// 390// 385//
f 385// 390// 386//
f 391// 392// 393//
f 393// 392// 386//
f 393// 386// 394//
f 394// 386// 390//
f 394// 390// 395//
f 395// 390// 396//
f 395// 396// 391//
f 391// 396// 392//
f 397// 250// 398//
f 398// 250// 392//
f 398// 392// 399//
f 399// 392// 396//
f 399// 396// 400//
f 400// 396// 252//
f 400// 252// 397//
f 397// 252// 250//
f 253// 252// 257//
f 257// 252// 396//
f 257// 396// 401//
f 401// 396// 390//
f 401// 390// 402//
f 402// 390// 219//
f 402// 219// 226//
f 226// 219// 221//
f 226// 221// 225//
f 256// 257// 403//
f 403// 257// 401//
f 403// 401// 404//
f 404// 401// 402//
f 404// 402// 405//
f 405// 402// 226//
f 405// 226// 406//
f 406// 226// 224//
f 406// 224// 407//
f 407// 224// 362//
f 407// 362// 408//
f 408// 362// 348//
f 408// 348// 409//
f 409// 348// 259//
f 409// 259// 301//
f 301// 259// 258//
f 301// 258// 299//
f 410// 411// 412//
f 413// 414// 415//
f 199// 416// 201//
f 201// 416// 417//
f 201// 417// 418//
f 417// 413// 418//
f 418// 413// 415//
f 418// 415// 419//
f 419// 415// 420//
f 419// 420// 421//
f 421// 422// 419//
f 419// 422// 410//
f 419// 410// 423//
f 423// 410// 412//
f 22// 33// 424//
f 23// 22// 189//
f 189// 22// 424//
f 189// 424// 190//
f 190// 424// 425//
f 426// 427// 428//
f 428// 427// 429//
f 428// 429// 117//
f 117// 429// 158//
f 430// 431// 432//
f 432// 431// 433//
f 432// 433// 131//
f 131// 433// 164//
f 434// 435// 436//
f 436// 435// 437//
f 436// 437// 124//
f 124// 437// 152//
f 438// 106// 105//
f 439// 438// 440//
f 440// 438// 105//
f 440// 105// 441//
f 442// 443// 444//
f 444// 443// 445//
f 444// 445// 97//
f 97// 445// 146//
f 446// 447// 448//
f 448// 447// 449//
f 448// 449// 88//
f 88// 449// 90//
f 450// 141// 76//
f 451// 450// 452//
f 452// 450// 76//
f 452// 76// 453//
f 454// 135// 69//
f 455// 454// 456//
f 456// 454// 69//
f 456// 69// 457//
f 458// 459// 460//
f 460// 459// 54//
f 460// 54// 461//
f 461// 54// 53//
f 196// 36// 197//
f 197// 36// 38//
f 196// 462// 36//
f 36// 462// 463//
f 36// 463// 29//
f 118// 120// 464//
f 465// 466// 464//
f 464// 466// 467//
f 464// 467// 118//
f 468// 469// 470//
f 470// 469// 471//
f 470// 471// 134//
f 134// 471// 132//
f 125// 127// 472//
f 473// 474// 472//
f 472// 474// 475//
f 472// 475// 125//
f 109// 108// 476//
f 476// 477// 109//
f 109// 477// 478//
f 109// 478// 479//
f 98// 100// 480//
f 480// 481// 98//
f 98// 481// 482//
f 98// 482// 483//
f 93// 92// 484//
f 484// 485// 93//
f 93// 485// 486//
f 93// 486// 487//
f 80// 78// 488//
f 488// 489// 80//
f 80// 489// 490//
f 80// 490// 491//
f 492// 70// 493//
f 493// 70// 72//
f 493// 72// 494//
f 494// 72// 495//
f 496// 42// 497//
f 497// 42// 40//
f 497// 40// 498//
f 498// 40// 499//
f 462// 196// 425//
f 425// 196// 190//
f 466// 465// 426//
f 426// 465// 427//
f 431// 430// 468//
f 468// 430// 469//
f 474// 473// 434//
f 434// 473// 435//
f 478// 477// 440//
f 440// 477// 439//
f 443// 442// 481//
f 481// 442// 482//
f 486// 485// 446//
f 446// 485// 447//
f 490// 489// 452//
f 452// 489// 451//
f 493// 494// 456//
f 456// 494// 455//
f 497// 498// 460//
f 460// 498// 458//
f 52// 419// 61//
f 61// 419// 423//
f 61// 423// 62//
f 66// 201// 28//
f 28// 201// 418//
f 28// 418// 26//
f 52// 500// 419//
f 419// 500// 501//
f 419// 501// 502//
f 502// 503// 419//
f 419// 503// 504//
f 419// 504// 418//
f 504// 505// 418//
f 418// 505// 506//
f 418// 506// 507//
f 507// 508// 418//
f 418// 508// 509//
f 418// 509// 26//
f 510// 511// 512//
f 512// 511// 513//
f 513// 187// 186//
f 186// 185// 513//
f 513// 185// 184//
f 513// 184// 183//
f 183// 182// 513//
f 513// 182// 181//
f 513// 181// 180//
f 180// 179// 513//
f 513// 179// 178//
f 513// 178// 512//
f 512// 178// 177//
f 512// 177// 176//
f 176// 175// 512//
f 512// 175// 174//
f 512// 174// 173//
f 173// 172// 512//
f 512// 172// 171//
f 512// 171// 170//
f 412// 199// 510//
f 510// 199// 511//
f 514// 342// 515//
f 515// 342// 237//
f 515// 237// 516//
f 516// 237// 238//
f 516// 238// 517//
f 517// 238// 239//
f 517// 239// 518//
f 518// 239// 240//
f 518// 240// 519//
f 519// 240// 241//
f 519// 241// 520//
f 520// 241// 249//
f 520// 249// 521//
f 521// 249// 247//
f 521// 247// 522//
f 522// 247// 246//
f 522// 246// 523//
f 523// 246// 255//
f 523// 255// 524//
f 524// 255// 254//
f 524// 254// 525//
f 525// 254// 256//
f 525// 256// 514//
f 514// 256// 342//
f 420// 520// 421//
f 421// 520// 521//
f 415// 519// 420//
f 420// 519// 520//
f 522// 422// 521//
f 521// 422// 421//
f 414// 518// 415//
f 415// 518// 519//
f 523// 410// 522//
f 522// 410// 422//
f 413// 517// 414//
f 414// 517// 518//
f 524// 411// 523//
f 523// 411// 410//
f 417// 516// 413//
f 413// 516// 517//
f 525// 412// 524//
f 524// 412// 411//
f 416// 515// 417//
f 417// 515// 516//
f 514// 199// 525//
f 525// 199// 412//
f 199// 514// 416//
f 416// 514// 515//
f 526// 527// 528//
f 528// 529// 526//
f 526// 529// 530//
f 526// 530// 531//
f 532// 533// 534//
f 534// 533// 526//
f 534// 526// 535//
f 535// 526// 531//
f 526// 536// 527//
f 527// 536// 537//
f 527// 537// 57//
f 57// 537// 58//
f 538// 533// 532//
f 538// 532// 539//
f 539// 532// 45//
f 539// 45// 44//
f 536// 526// 538//
f 538// 526// 533//
f 42// 496// 50//
f 50// 496// 461//
f 50// 461// 53//
f 58// 537// 46//
f 46// 537// 539//
f 46// 539// 44//
f 70// 492// 68//
f 68// 492// 457//
f 68// 457// 69//
f 54// 459// 55//
f 55// 459// 499//
f 55// 499// 40//
f 80// 491// 75//
f 75// 491// 453//
f 75// 453// 76//
f 135// 454// 136//
f 136// 454// 495//
f 136// 495// 72//
f 93// 487// 89//
f 89// 487// 448//
f 89// 448// 88//
f 141// 450// 86//
f 86// 450// 488//
f 86// 488// 78//
f 98// 483// 96//
f 96// 483// 444//
f 96// 444// 97//
f 90// 449// 91//
f 91// 449// 484//
f 91// 484// 92//
f 109// 479// 103//
f 103// 479// 441//
f 103// 441// 105//
f 146// 445// 147//
f 147// 445// 480//
f 147// 480// 100//
f 125// 475// 123//
f 123// 475// 436//
f 123// 436// 124//
f 106// 438// 107//
f 107// 438// 476//
f 107// 476// 108//
f 132// 471// 130//
f 130// 471// 432//
f 130// 432// 131//
f 158// 429// 159//
f 159// 429// 464//
f 159// 464// 120//
f 118// 467// 116//
f 116// 467// 428//
f 116// 428// 117//
f 152// 437// 153//
f 153// 437// 472//
f 153// 472// 127//
f 29// 463// 21//
f 21// 463// 424//
f 21// 424// 33//
f 164// 433// 165//
f 165// 433// 470//
f 165// 470// 134//
f 481// 480// 443//
f 443// 480// 445//
f 440// 441// 478//
f 478// 441// 479//
f 460// 461// 497//
f 497// 461// 496//
f 538// 539// 536//
f 536// 539// 537//
f 498// 499// 458//
f 458// 499// 459//
f 456// 457// 493//
f 493// 457// 492//
f 494// 495// 455//
f 455// 495// 454//
f 452// 453// 490//
f 490// 453// 491//
f 489// 488// 451//
f 451// 488// 450//
f 446// 448// 486//
f 486// 448// 487//
f 485// 484// 447//
f 447// 484// 449//
f 442// 444// 482//
f 482// 444// 483//
f 477// 476// 439//
f 439// 476// 438//
f 434// 436// 474//
f 474// 436// 475//
f 473// 472// 435//
f 435// 472// 437//
f 426// 428// 466//
f 466// 428// 467//
f 425// 424// 462//
f 462// 424// 463//
f 468// 470// 431//
f 431// 470// 433//
f 430// 432// 469//
f 469// 432// 471//
f 465// 464// 427//
f 427// 464// 429//
usemtl 2
f 540// 541// 542//
f 540// 542// 543//
f 543// 542// 544//
f 543// 544// 545//
f 545// 544// 546//
f 545// 546// 547//
f 547// 546// 548//
f 547// 548// 549//
f 549// 548// 550//
f 549// 550// 551//
f 551// 550// 552//
f 551// 552// 553//
f 554// 555// 552//
f 552// 555// 553//
f 556// 557// 554//
f 554// 557// 555//
f 558// 559// 556//
f 556// 559// 557//
f 560// 561// 558//
f 558// 561// 559//
f 562// 563// 560//
f 560// 563// 561//
f 564// 565// 562//
f 562// 565// 563//
f 566// 567// 564//
f 564// 567// 565//
f 568// 569// 566//
f 566// 569// 567//
f 570// 571// 568//
f 568// 571// 569//
f 572// 573// 570//
f 570// 573// 571//
f 551// 553// 540//
f 545// 547// 549//
f 553// 555// 540//
f 540// 555// 48//
f 540// 48// 49//
f 569// 571// 567//
f 567// 571// 573//
f 551// 540// 549//
f 549// 540// 543//
f 549// 543// 545//
f 557// 559// 555//
f 555// 559// 561//
f 555// 561// 48//
f 48// 561// 563//
f 48// 563// 573//
f 573// 563// 565//
f 573// 565// 567//
f 558// 556// 560//
f 560// 556// 554//
f 562// 560// 47//
f 47// 560// 554//
f 47// 554// 51//
f 51// 554// 552//
f 51// 552// 541//
f 548// 546// 544//
f 562// 47// 564//
f 564// 47// 572//
f 564// 572// 566//
f 566// 572// 570//
f 566// 570// 568//
f 552// 550// 541//
f 541// 550// 548//
f 541// 548// 542//
f 542// 548// 544//
f 47// 48// 572//
f 572// 48// 573//
f 541// 540// 51//
f 51// 540// 49//
f 574// 243// 575//
f 575// 243// 248//
f 576// 251// 577//
f 577// 251// 244//
f 575// 248// 251//
f 578// 579// 580//
f 581// 582// 583//
f 584// 575// 581//
f 581// 575// 251//
f 581// 251// 580//
f 580// 251// 576//
f 580// 576// 578//
f 583// 585// 581//
f 581// 585// 586//
f 581// 586// 584//
f 579// 587// 580//
f 580// 587// 588//
f 580// 588// 589//
f 243// 590// 244//
f 244// 590// 591//
f 243// 574// 590//
f 590// 574// 592//
f 590// 592// 593//
f 593// 594// 590//
f 590// 594// 595//
f 590// 595// 596//
f 597// 598// 591//
f 591// 598// 599//
f 591// 599// 600//
f 600// 601// 591//
f 591// 601// 577//
f 591// 577// 244//
f 591// 590// 580//
f 580// 590// 581//
f 576// 577// 601//
f 576// 601// 578//
f 578// 601// 600//
f 578// 600// 579//
f 579// 600// 599//
f 579// 599// 587//
f 587// 599// 598//
f 587// 598// 588//
f 588// 598// 597//
f 588// 597// 589//
f 589// 597// 591//
f 589// 591// 580//
f 581// 590// 596//
f 581// 596// 582//
f 582// 596// 595//
f 582// 595// 583//
f 583// 595// 594//
f 583// 594// 585//
f 585// 594// 593//
f 585// 593// 586//
f 586// 593// 592//
f 586// 592// 584//
f 584// 592// 574//
f 584// 574// 575//
f 602// 603// 604//
f 602// 604// 605//
f 605// 604// 606//
f 605// 606// 607//
f 607// 606// 608//
f 607// 608// 609//
f 609// 608// 610//
f 609// 610// 611//
f 611// 610// 612//
f 611// 612// 613//
f 613// 612// 614//
f 613// 614// 615//
f 616// 617// 614//
f 614// 617// 615//
f 618// 619// 616//
f 616// 619// 617//
f 620// 621// 618//
f 618// 621// 619//
f 622// 623// 620//
f 620// 623// 621//
f 624// 625// 622//
f 622// 625// 623//
f 626// 627// 624//
f 624// 627// 625//
f 628// 629// 626//
f 626// 629// 627//
f 630// 631// 628//
f 628// 631// 629//
f 632// 633// 630//
f 630// 633// 631//
f 634// 635// 632//
f 632// 635// 633//
f 613// 615// 602//
f 607// 609// 611//
f 615// 617// 602//
f 602// 617// 138//
f 602// 138// 137//
f 631// 633// 629//
f 629// 633// 635//
f 613// 602// 611//
f 611// 602// 605//
f 611// 605// 607//
f 619// 621// 617//
f 617// 621// 623//
f 617// 623// 138//
f 138// 623// 625//
f 138// 625// 635//
f 635// 625// 627//
f 635// 627// 629//
f 620// 618// 622//
f 622// 618// 616//
f 624// 622// 140//
f 140// 622// 616//
f 140// 616// 139//
f 139// 616// 614//
f 139// 614// 603//
f 610// 608// 606//
f 624// 140// 626//
f 626// 140// 634//
f 626// 634// 628//
f 628// 634// 632//
f 628// 632// 630//
f 614// 612// 603//
f 603// 612// 610//
f 603// 610// 604//
f 604// 610// 606//
f 140// 138// 634//
f 634// 138// 635//
f 603// 602// 139//
f 139// 602// 137//
f 636// 397// 637//
f 637// 397// 398//
f 638// 399// 639//
f 639// 399// 400//
f 637// 398// 399//
f 640// 641// 642//
f 643// 644// 645//
f 646// 637// 643//
f 643// 637// 399//
f 643// 399// 642//
f 642// 399// 638//
f 642// 638// 640//
f 645// 647// 643//
f 643// 647// 648//
f 643// 648// 646//
f 641// 649// 642//
f 642// 649// 650//
f 642// 650// 651//
f 397// 652// 400//
f 400// 652// 653//
f 397// 636// 652//
f 652// 636// 654//
f 652// 654// 655//
f 655// 656// 652//
f 652// 656// 657//
f 652// 657// 658//
f 659// 660// 653//
f 653// 660// 661//
f 653// 661// 662//
f 662// 663// 653//
f 653// 663// 639//
f 653// 639// 400//
f 653// 652// 642//
f 642// 652// 643//
f 664// 665// 666//
f 664// 666// 667//
f 667// 666// 668//
f 667// 668// 669//
f 669// 668// 670//
f 669// 670// 671//
f 671// 670// 672//
f 671// 672// 673//
f 673// 672// 674//
f 673// 674// 675//
f 675// 674// 676//
f 675// 676// 677//
f 678// 679// 676//
f 676// 679// 677//
f 680// 681// 678//
f 678// 681// 679//
f 682// 683// 680//
f 680// 683// 681//
f 684// 685// 682//
f 682// 685// 683//
f 686// 687// 684//
f 684// 687// 685//
f 688// 689// 686//
f 686// 689// 687//
f 690// 691// 688//
f 688// 691// 689//
f 692// 693// 690//
f 690// 693// 691//
f 694// 695// 692//
f 692// 695// 693//
f 696// 697// 694//
f 694// 697// 695//
f 675// 677// 664//
f 669// 671// 673//
f 677// 679// 664//
f 664// 679// 143//
f 664// 143// 142//
f 693// 695// 691//
f 691// 695// 697//
f 675// 664// 673//
f 673// 664// 667//
f 673// 667// 669//
f 681// 683// 679//
f 679// 683// 685//
f 679// 685// 143//
f 143// 685// 687//
f 143// 687// 697//
f 697// 687// 689//
f 697// 689// 691//
f 682// 680// 684//
f 684// 680// 678//
f 686// 684// 145//
f 145// 684// 678//
f 145// 678// 144//
f 144// 678// 676//
f 144// 676// 665//
f 672// 670// 668//
f 686// 145// 688//
f 688// 145// 696//
f 688// 696// 690//
f 690// 696// 694//
f 690// 694// 692//
f 676// 674// 665//
f 665// 674// 672//
f 665// 672// 666//
f 666// 672// 668//
f 145// 143// 696//
f 696// 143// 697//
f 665// 664// 144//
f 144// 664// 142//
f 698// 391// 699//
f 699// 391// 393//
f 700// 394// 701//
f 701// 394// 395//
f 699// 393// 394//
f 702// 703// 704//
f 705// 706// 707//
f 708// 699// 705//
f 705// 699// 394//
f 705// 394// 704//
f 704// 394// 700//
f 704// 700// 702//
f 707// 709// 705//
f 705// 709// 710//
f 705// 710// 708//
f 703// 711// 704//
f 704// 711// 712//
f 704// 712// 713//
f 391// 714// 395//
f 395// 714// 715//
f 391// 698// 714//
f 714// 698// 716//
f 714// 716// 717//
f 717// 718// 714//
f 714// 718// 719//
f 714// 719// 720//
f 721// 722// 715//
f 715// 722// 723//
f 715// 723// 724//
f 724// 725// 715//
f 715// 725// 701//
f 715// 701// 395//
f 715// 714// 704//
f 704// 714// 705//
f 726// 727// 728//
f 726// 728// 729//
f 729// 728// 730//
f 729// 730// 731//
f 731// 730// 732//
f 731// 732// 733//
f 733// 732// 734//
f 733// 734// 735//
f 735// 734// 736//
f 735// 736// 737//
f 737// 736// 738//
f 737// 738// 739//
f 740// 741// 738//
f 738// 741// 739//
f 742// 743// 740//
f 740// 743// 741//
f 744// 745// 742//
f 742// 745// 743//
f 746// 747// 744//
f 744// 747// 745//
f 748// 749// 746//
f 746// 749// 747//
f 750// 751// 748//
f 748// 751// 749//
f 752// 753// 750//
f 750// 753// 751//
f 754// 755// 752//
f 752// 755// 753//
f 756// 757// 754//
f 754// 757// 755//
f 758// 759// 756//
f 756// 759// 757//
f 737// 739// 726//
f 731// 733// 735//
f 739// 741// 726//
f 726// 741// 84//
f 726// 84// 82//
f 755// 757// 753//
f 753// 757// 759//
f 737// 726// 735//
f 735// 726// 729//
f 735// 729// 731//
f 743// 745// 741//
f 741// 745// 747//
f 741// 747// 84//
f 84// 747// 749//
f 84// 749// 759//
f 759// 749// 751//
f 759// 751// 753//
f 744// 742// 746//
f 746// 742// 740//
f 748// 746// 85//
f 85// 746// 740//
f 85// 740// 81//
f 81// 740// 738//
f 81// 738// 727//
f 734// 732// 730//
f 748// 85// 750//
f 750// 85// 758//
f 750// 758// 752//
f 752// 758// 756//
f 752// 756// 754//
f 738// 736// 727//
f 727// 736// 734//
f 727// 734// 728//
f 728// 734// 730//
f 85// 84// 758//
f 758// 84// 759//
f 727// 726// 81//
f 81// 726// 82//
f 760// 385// 761//
f 761// 385// 387//
f 762// 388// 763//
f 763// 388// 389//
f 761// 387// 388//
f 764// 765// 766//
f 767// 768// 769//
f 770// 761// 767//
f 767// 761// 388//
f 767// 388// 766//
f 766// 388// 762//
f 766// 762// 764//
f 769// 771// 767//
f 767// 771// 772//
f 767// 772// 770//
f 765// 773// 766//
f 766// 773// 774//
f 766// 774// 775//
f 385// 776// 389//
f 389// 776// 777//
f 385// 760// 776//
f 776// 760// 778//
f 776// 778// 779//
f 779// 780// 776//
f 776// 780// 781//
f 776// 781// 782//
f 783// 784// 777//
f 777// 784// 785//
f 777// 785// 786//
f 786// 787// 777//
f 777// 787// 763//
f 777// 763// 389//
f 777// 776// 766//
f 766// 776// 767//
f 788// 789// 790//
f 788// 790// 791//
f 791// 790// 792//
f 791// 792// 793//
f 793// 792// 794//
f 793// 794// 795//
f 795// 794// 796//
f 795// 796// 797//
f 797// 796// 798//
f 797// 798// 799//
f 799// 798// 800//
f 799// 800// 801//
f 802// 803// 800//
f 800// 803// 801//
f 804// 805// 802//
f 802// 805// 803//
f 806// 807// 804//
f 804// 807// 805//
f 808// 809// 806//
f 806// 809// 807//
f 810// 811// 808//
f 808// 811// 809//
f 812// 813// 810//
f 810// 813// 811//
f 814// 815// 812//
f 812// 815// 813//
f 816// 817// 814//
f 814// 817// 815//
f 818// 819// 816//
f 816// 819// 817//
f 820// 821// 818//
f 818// 821// 819//
f 799// 801// 788//
f 793// 795// 797//
f 801// 803// 788//
f 788// 803// 149//
f 788// 149// 148//
f 817// 819// 815//
f 815// 819// 821//
f 799// 788// 797//
f 797// 788// 791//
f 797// 791// 793//
f 805// 807// 803//
f 803// 807// 809//
f 803// 809// 149//
f 149// 809// 811//
f 149// 811// 821//
f 821// 811// 813//
f 821// 813// 815//
f 806// 804// 808//
f 808// 804// 802//
f 810// 808// 151//
f 151// 808// 802//
f 151// 802// 150//
f 150// 802// 800//
f 150// 800// 789//
f 796// 794// 792//
f 810// 151// 812//
f 812// 151// 820//
f 812// 820// 814//
f 814// 820// 818//
f 814// 818// 816//
f 800// 798// 789//
f 789// 798// 796//
f 789// 796// 790//
f 790// 796// 792//
f 151// 149// 820//
f 820// 149// 821//
f 789// 788// 150//
f 150// 788// 148//
f 822// 380// 823//
f 823// 380// 378//
f 824// 377// 825//
f 825// 377// 379//
f 823// 378// 377//
f 826// 827// 828//
f 829// 830// 831//
f 832// 823// 829//
f 829// 823// 377//
f 829// 377// 828//
f 828// 377// 824//
f 828// 824// 826//
f 831// 833// 829//
f 829// 833// 834//
f 829// 834// 832//
f 827// 835// 828//
f 828// 835// 836//
f 828// 836// 837//
f 380// 838// 379//
f 379// 838// 839//
f 380// 822// 838//
f 838// 822// 840//
f 838// 840// 841//
f 841// 842// 838//
f 838// 842// 843//
f 838// 843// 844//
f 845// 846// 839//
f 839// 846// 847//
f 839// 847// 848//
f 848// 849// 839//
f 839// 849// 825//
f 839// 825// 379//
f 839// 838// 828//
f 828// 838// 829//
f 850// 851// 852//
f 850// 852// 853//
f 853// 852// 854//
f 853// 854// 855//
f 855// 854// 856//
f 855// 856// 857//
f 857// 856// 858//
f 857// 858// 859//
f 859// 858// 860//
f 859// 860// 861//
f 861// 860// 862//
f 861// 862// 863//
f 864// 865// 862//
f 862// 865// 863//
f 866// 867// 864//
f 864// 867// 865//
f 868// 869// 866//
f 866// 869// 867//
f 870// 871// 868//
f 868// 871// 869//
f 872// 873// 870//
f 870// 873// 871//
f 874// 875// 872//
f 872// 875// 873//
f 876// 877// 874//
f 874// 877// 875//
f 878// 879// 876//
f 876// 879// 877//
f 880// 881// 878//
f 878// 881// 879//
f 882// 883// 880//
f 880// 883// 881//
f 861// 863// 850//
f 855// 857// 859//
f 863// 865// 850//
f 850// 865// 113//
f 850// 113// 114//
f 879// 881// 877//
f 877// 881// 883//
f 861// 850// 859//
f 859// 850// 853//
f 859// 853// 855//
f 867// 869// 865//
f 865// 869// 871//
f 865// 871// 113//
f 113// 871// 873//
f 113// 873// 883//
f 883// 873// 875//
f 883// 875// 877//
f 868// 866// 870//
f 870// 866// 864//
f 872// 870// 112//
f 112// 870// 864//
f 112// 864// 111//
f 111// 864// 862//
f 111// 862// 851//
f 858// 856// 854//
f 872// 112// 874//
f 874// 112// 882//
f 874// 882// 876//
f 876// 882// 880//
f 876// 880// 878//
f 862// 860// 851//
f 851// 860// 858//
f 851// 858// 852//
f 852// 858// 854//
f 112// 113// 882//
f 882// 113// 883//
f 851// 850// 111//
f 111// 850// 114//
f 234// 884// 333//
f 333// 884// 885//
f 333// 885// 331//
f 231// 886// 232//
f 232// 886// 887//
f 232// 887// 233//
f 884// 234// 233//
f 888// 889// 890//
f 891// 892// 893//
f 894// 884// 891//
f 891// 884// 233//
f 891// 233// 890//
f 890// 233// 887//
f 890// 887// 888//
f 893// 895// 891//
f 891// 895// 896//
f 891// 896// 894//
f 889// 897// 890//
f 890// 897// 898//
f 890// 898// 899//
f 331// 900// 231//
f 231// 900// 901//
f 331// 885// 900//
f 900// 885// 902//
f 900// 902// 903//
f 903// 904// 900//
f 900// 904// 905//
f 900// 905// 906//
f 907// 908// 901//
f 901// 908// 909//
f 901// 909// 910//
f 910// 911// 901//
f 901// 911// 886//
f 901// 886// 231//
f 901// 900// 890//
f 890// 900// 891//
f 912// 913// 914//
f 912// 914// 915//
f 915// 914// 916//
f 915// 916// 917//
f 917// 916// 918//
f 917// 918// 919//
f 919// 918// 920//
f 919// 920// 921//
f 921// 920// 922//
f 921// 922// 923//
f 923// 922// 924//
f 923// 924// 925//
f 926// 927// 924//
f 924// 927// 925//
f 928// 929// 926//
f 926// 929// 927//
f 930// 931// 928//
f 928// 931// 929//
f 932// 933// 930//
f 930// 933// 931//
f 934// 935// 932//
f 932// 935// 933//
f 936// 937// 934//
f 934// 937// 935//
f 938// 939// 936//
f 936// 939// 937//
f 940// 941// 938//
f 938// 941// 939//
f 942// 943// 940//
f 940// 943// 941//
f 944// 945// 942//
f 942// 945// 943//
f 923// 925// 912//
f 917// 919// 921//
f 925// 927// 912//
f 912// 927// 155//
f 912// 155// 154//
f 941// 943// 939//
f 939// 943// 945//
f 923// 912// 921//
f 921// 912// 915//
f 921// 915// 917//
f 929// 931// 927//
f 927// 931// 933//
f 927// 933// 155//
f 155// 933// 935//
f 155// 935// 945//
f 945// 935// 937//
f 945// 937// 939//
f 930// 928// 932//
f 932// 928// 926//
f 934// 932// 157//
f 157// 932// 926//
f 157// 926// 156//
f 156// 926// 924//
f 156// 924// 913//
f 920// 918// 916//
f 934// 157// 936//
f 936// 157// 944//
f 936// 944// 938//
f 938// 944// 942//
f 938// 942// 940//
f 924// 922// 913//
f 913// 922// 920//
f 913// 920// 914//
f 914// 920// 916//
f 157// 155// 944//
f 944// 155// 945//
f 913// 912// 156//
f 156// 912// 154//
f 946// 325// 947//
f 947// 325// 323//
f 948// 322// 949//
f 949// 322// 321//
f 947// 323// 322//
f 950// 951// 952//
f 953// 954// 955//
f 956// 947// 953//
f 953// 947// 322//
f 953// 322// 952//
f 952// 322// 948//
f 952// 948// 950//
f 955// 957// 953//
f 953// 957// 958//
f 953// 958// 956//
f 951// 959// 952//
f 952// 959// 960//
f 952// 960// 961//
f 325// 962// 321//
f 321// 962// 963//
f 325// 946// 962//
f 962// 946// 964//
f 962// 964// 965//
f 965// 966// 962//
f 962// 966// 967//
f 962// 967// 968//
f 969// 970// 963//
f 963// 970// 971//
f 963// 971// 972//
f 972// 973// 963//
f 963// 973// 949//
f 963// 949// 321//
f 963// 962// 952//
f 952// 962// 953//
f 974// 975// 976//
f 974// 976// 977//
f 977// 976// 978//
f 977// 978// 979//
f 979// 978// 980//
f 979// 980// 981//
f 981// 980// 982//
f 981// 982// 983//
f 983// 982// 984//
f 983// 984// 985//
f 985// 984// 986//
f 985// 986// 987//
f 988// 989// 986//
f 986// 989// 987//
f 990// 991// 988//
f 988// 991// 989//
f 992// 993// 990//
f 990// 993// 991//
f 994// 995// 992//
f 992// 995// 993//
f 996// 997// 994//
f 994// 997// 995//
f 998// 999// 996//
f 996// 999// 997//
f 1000// 1001// 998//
f 998// 1001// 999//
f 1002// 1003// 1000//
f 1000// 1003// 1001//
f 1004// 1005// 1002//
f 1002// 1005// 1003//
f 1006// 1007// 1004//
f 1004// 1007// 1005//
f 985// 987// 974//
f 979// 981// 983//
f 987// 989// 974//
f 974// 989// 161//
f 974// 161// 160//
f 1003// 1005// 1001//
f 1001// 1005// 1007//
f 985// 974// 983//
f 983// 974// 977//
f 983// 977// 979//
f 991// 993// 989//
f 989// 993// 995//
f 989// 995// 161//
f 161// 995// 997//
f 161// 997// 1007//
f 1007// 997// 999//
f 1007// 999// 1001//
f 992// 990// 994//
f 994// 990// 988//
f 996// 994// 163//
f 163// 994// 988//
f 163// 988// 162//
f 162// 988// 986//
f 162// 986// 975//
f 982// 980// 978//
f 996// 163// 998//
f 998// 163// 1006//
f 998// 1006// 1000//
f 1000// 1006// 1004//
f 1000// 1004// 1002//
f 986// 984// 975//
f 975// 984// 982//
f 975// 982// 976//
f 976// 982// 978//
f 163// 161// 1006//
f 1006// 161// 1007//
f 975// 974// 162//
f 162// 974// 160//
f 1008// 315// 1009//
f 1009// 315// 317//
f 1010// 318// 1011//
f 1011// 318// 319//
f 1009// 317// 318//
f 1012// 1013// 1014//
f 1015// 1016// 1017//
f 1018// 1009// 1015//
f 1015// 1009// 318//
f 1015// 318// 1014//
f 1014// 318// 1010//
f 1014// 1010// 1012//
f 1017// 1019// 1015//
f 1015// 1019// 1020//
f 1015// 1020// 1018//
f 1013// 1021// 1014//
f 1014// 1021// 1022//
f 1014// 1022// 1023//
f 315// 1024// 319//
f 319// 1024// 1025//
f 315// 1008// 1024//
f 1024// 1008// 1026//
f 1024// 1026// 1027//
f 1027// 1028// 1024//
f 1024// 1028// 1029//
f 1024// 1029// 1030//
f 1031// 1032// 1025//
f 1025// 1032// 1033//
f 1025// 1033// 1034//
f 1034// 1035// 1025//
f 1025// 1035// 1011//
f 1025// 1011// 319//
f 1025// 1024// 1014//
f 1014// 1024// 1015//
f 1036// 1037// 1038//
f 1036// 1038// 1039//
f 1039// 1038// 1040//
f 1039// 1040// 1041//
f 1041// 1040// 1042//
f 1041// 1042// 1043//
f 1043// 1042// 1044//
f 1043// 1044// 1045//
f 1045// 1044// 1046//
f 1045// 1046// 1047//
f 1047// 1046// 1048//
f 1047// 1048// 1049//
f 1050// 1051// 1048//
f 1048// 1051// 1049//
f 1052// 1053// 1050//
f 1050// 1053// 1051//
f 1054// 1055// 1052//
f 1052// 1055// 1053//
f 1056// 1057// 1054//
f 1054// 1057// 1055//
f 1058// 1059// 1056//
f 1056// 1059// 1057//
f 1060// 1061// 1058//
f 1058// 1061// 1059//
f 1062// 1063// 1060//
f 1060// 1063// 1061//
f 1064// 1065// 1062//
f 1062// 1065// 1063//
f 1066// 1067// 1064//
f 1064// 1067// 1065//
f 1068// 1069// 1066//
f 1066// 1069// 1067//
f 1047// 1049// 1036//
f 1041// 1043// 1045//
f 1049// 1051// 1036//
f 1036// 1051// 167//
f 1036// 167// 166//
f 1065// 1067// 1063//
f 1063// 1067// 1069//
f 1047// 1036// 1045//
f 1045// 1036// 1039//
f 1045// 1039// 1041//
f 1053// 1055// 1051//
f 1051// 1055// 1057//
f 1051// 1057// 167//
f 167// 1057// 1059//
f 167// 1059// 1069//
f 1069// 1059// 1061//
f 1069// 1061// 1063//
f 1054// 1052// 1056//
f 1056// 1052// 1050//
f 1058// 1056// 169//
f 169// 1056// 1050//
f 169// 1050// 168//
f 168// 1050// 1048//
f 168// 1048// 1037//
f 1044// 1042// 1040//
f 1058// 169// 1060//
f 1060// 169// 1068//
f 1060// 1068// 1062//
f 1062// 1068// 1066//
f 1062// 1066// 1064//
f 1048// 1046// 1037//
f 1037// 1046// 1044//
f 1037// 1044// 1038//
f 1038// 1044// 1040//
f 169// 167// 1068//
f 1068// 167// 1069//
f 1037// 1036// 168//
f 168// 1036// 166//
f 1070// 309// 1071//
f 1071// 309// 311//
f 1072// 312// 1073//
f 1073// 312// 313//
f 1071// 311// 312//
f 1074// 1075// 1076//
f 1077// 1078// 1079//
f 1080// 1071// 1077//
f 1077// 1071// 312//
f 1077// 312// 1076//
f 1076// 312// 1072//
f 1076// 1072// 1074//
f 1079// 1081// 1077//
f 1077// 1081// 1082//
f 1077// 1082// 1080//
f 1075// 1083// 1076//
f 1076// 1083// 1084//
f 1076// 1084// 1085//
f 309// 1086// 313//
f 313// 1086// 1087//
f 309// 1070// 1086//
f 1086// 1070// 1088//
f 1086// 1088// 1089//
f 1089// 1090// 1086//
f 1086// 1090// 1091//
f 1086// 1091// 1092//
f 1093// 1094// 1087//
f 1087// 1094// 1095//
f 1087// 1095// 1096//
f 1096// 1097// 1087//
f 1087// 1097// 1073//
f 1087// 1073// 313//
f 1087// 1086// 1076//
f 1076// 1086// 1077//
f 1098// 1099// 1100//
f 1098// 1100// 1101//
f 1101// 1100// 1102//
f 1101// 1102// 1103//
f 1103// 1102// 1104//
f 1103// 1104// 1105//
f 1105// 1104// 1106//
f 1105// 1106// 1107//
f 1107// 1106// 1108//
f 1107// 1108// 1109//
f 1109// 1108// 1110//
f 1109// 1110// 1111//
f 1112// 1113// 1110//
f 1110// 1113// 1111//
f 1114// 1115// 1112//
f 1112// 1115// 1113//
f 1116// 1117// 1114//
f 1114// 1117// 1115//
f 1118// 1119// 1116//
f 1116// 1119// 1117//
f 1120// 1121// 1118//
f 1118// 1121// 1119//
f 1122// 1123// 1120//
f 1120// 1123// 1121//
f 1124// 1125// 1122//
f 1122// 1125// 1123//
f 1126// 1127// 1124//
f 1124// 1127// 1125//
f 1128// 1129// 1126//
f 1126// 1129// 1127//
f 1130// 1131// 1128//
f 1128// 1131// 1129//
f 1109// 1111// 1098//
f 1103// 1105// 1107//
f 1111// 1113// 1098//
f 1098// 1113// 30//
f 1098// 30// 20//
f 1127// 1129// 1125//
f 1125// 1129// 1131//
f 1109// 1098// 1107//
f 1107// 1098// 1101//
f 1107// 1101// 1103//
f 1115// 1117// 1113//
f 1113// 1117// 1119//
f 1113// 1119// 30//
f 30// 1119// 1121//
f 30// 1121// 1131//
f 1131// 1121// 1123//
f 1131// 1123// 1125//
f 1116// 1114// 1118//
f 1118// 1114// 1112//
f 1120// 1118// 31//
f 31// 1118// 1112//
f 31// 1112// 19//
f 19// 1112// 1110//
f 19// 1110// 1099//
f 1106// 1104// 1102//
f 1120// 31// 1122//
f 1122// 31// 1130//
f 1122// 1130// 1124//
f 1124// 1130// 1128//
f 1124// 1128// 1126//
f 1110// 1108// 1099//
f 1099// 1108// 1106//
f 1099// 1106// 1100//
f 1100// 1106// 1102//
f 31// 30// 1130//
f 1130// 30// 1131//
f 1099// 1098// 19//
f 19// 1098// 20//
f 1132// 303// 1133//
f 1133// 303// 305//
f 1134// 306// 1135//
f 1135// 306// 307//
f 1133// 305// 306//
f 1136// 1137// 1138//
f 1139// 1140// 1141//
f 1142// 1133// 1139//
f 1139// 1133// 306//
f 1139// 306// 1138//
f 1138// 306// 1134//
f 1138// 1134// 1136//
f 1141// 1143// 1139//
f 1139// 1143// 1144//
f 1139// 1144// 1142//
f 1137// 1145// 1138//
f 1138// 1145// 1146//
f 1138// 1146// 1147//
f 303// 1148// 307//
f 307// 1148// 1149//
f 303// 1132// 1148//
f 1148// 1132// 1150//
f 1148// 1150// 1151//
f 1151// 1152// 1148//
f 1148// 1152// 1153//
f 1148// 1153// 1154//
f 1155// 1156// 1149//
f 1149// 1156// 1157//
f 1149// 1157// 1158//
f 1158// 1159// 1149//
f 1149// 1159// 1135//
f 1149// 1135// 307//
f 1149// 1148// 1138//
f 1138// 1148// 1139//
f 638// 639// 663//
f 638// 663// 640//
f 640// 663// 662//
f 640// 662// 641//
f 641// 662// 661//
f 641// 661// 649//
f 649// 661// 660//
f 649// 660// 650//
f 650// 660// 659//
f 650// 659// 651//
f 651// 659// 653//
f 651// 653// 642//
f 643// 652// 658//
f 643// 658// 644//
f 644// 658// 657//
f 644// 657// 645//
f 645// 657// 656//
f 645// 656// 647//
f 647// 656// 655//
f 647// 655// 648//
f 648// 655// 654//
f 648// 654// 646//
f 646// 654// 636//
f 646// 636// 637//
f 700// 701// 725//
f 700// 725// 702//
f 702// 725// 724//
f 702// 724// 703//
f 703// 724// 723//
f 703// 723// 711//
f 711// 723// 722//
f 711// 722// 712//
f 712// 722// 721//
f 712// 721// 713//
f 713// 721// 715//
f 713// 715// 704//
f 705// 714// 720//
f 705// 720// 706//
f 706// 720// 719//
f 706// 719// 707//
f 707// 719// 718//
f 707// 718// 709//
f 709// 718// 717//
f 709// 717// 710//
f 710// 717// 716//
f 710// 716// 708//
f 708// 716// 698//
f 708// 698// 699//
f 762// 763// 787//
f 762// 787// 764//
f 764// 787// 786//
f 764// 786// 765//
f 765// 786// 785//
f 765// 785// 773//
f 773// 785// 784//
f 773// 784// 774//
f 774// 784// 783//
f 774// 783// 775//
f 775// 783// 777//
f 775// 777// 766//
f 767// 776// 782//
f 767// 782// 768//
f 768// 782// 781//
f 768// 781// 769//
f 769// 781// 780//
f 769// 780// 771//
f 771// 780// 779//
f 771// 779// 772//
f 772// 779// 778//
f 772// 778// 770//
f 770// 778// 760//
f 770// 760// 761//
f 824// 825// 849//
f 824// 849// 826//
f 826// 849// 848//
f 826// 848// 827//
f 827// 848// 847//
f 827// 847// 835//
f 835// 847// 846//
f 835// 846// 836//
f 836// 846// 845//
f 836// 845// 837//
f 837// 845// 839//
f 837// 839// 828//
f 829// 838// 844//
f 829// 844// 830//
f 830// 844// 843//
f 830// 843// 831//
f 831// 843// 842//
f 831// 842// 833//
f 833// 842// 841//
f 833// 841// 834//
f 834// 841// 840//
f 834// 840// 832//
f 832// 840// 822//
f 832// 822// 823//
f 887// 886// 911//
f 887// 911// 888//
f 888// 911// 910//
f 888// 910// 889//
f 889// 910// 909//
f 889// 909// 897//
f 897// 909// 908//
f 897// 908// 898//
f 898// 908// 907//
f 898// 907// 899//
f 899// 907// 901//
f 899// 901// 890//
f 891// 900// 906//
f 891// 906// 892//
f 892// 906// 905//
f 892// 905// 893//
f 893// 905// 904//
f 893// 904// 895//
f 895// 904// 903//
f 895// 903// 896//
f 896// 903// 902//
f 896// 902// 894//
f 894// 902// 885//
f 894// 885// 884//
f 948// 949// 973//
f 948// 973// 950//
f 950// 973// 972//
f 950// 972// 951//
f 951// 972// 971//
f 951// 971// 959//
f 959// 971// 970//
f 959// 970// 960//
f 960// 970// 969//
f 960// 969// 961//
f 961// 969// 963//
f 961// 963// 952//
f 953// 962// 968//
f 953// 968// 954//
f 954// 968// 967//
f 954// 967// 955//
f 955// 967// 966//
f 955// 966// 957//
f 957// 966// 965//
f 957// 965// 958//
f 958// 965// 964//
f 958// 964// 956//
f 956// 964// 946//
f 956// 946// 947//
f 1010// 1011// 1035//
f 1010// 1035// 1012//
f 1012// 1035// 1034//
f 1012// 1034// 1013//
f 1013// 1034// 1033//
f 1013// 1033// 1021//
f 1021// 1033// 1032//
f 1021// 1032// 1022//
f 1022// 1032// 1031//
f 1022// 1031// 1023//
f 1023// 1031// 1025//
f 1023// 1025// 1014//
f 1015// 1024// 1030//
f 1015// 1030// 1016//
f 1016// 1030// 1029//
f 1016// 1029// 1017//
f 1017// 1029// 1028//
f 1017// 1028// 1019//
f 1019// 1028// 1027//
f 1019// 1027// 1020//
f 1020// 1027// 1026//
f 1020// 1026// 1018//
f 1018// 1026// 1008//
f 1018// 1008// 1009//
f 1072// 1073// 1097//
f 1072// 1097// 1074//
f 1074// 1097// 1096//
f 1074// 1096// 1075//
f 1075// 1096// 1095//
f 1075// 1095// 1083//
f 1083// 1095// 1094//
f 1083// 1094// 1084//
f 1084// 1094// 1093//
f 1084// 1093// 1085//
f 1085// 1093// 1087//
f 1085// 1087// 1076//
f 1077// 1086// 1092//
f 1077// 1092// 1078//
f 1078// 1092// 1091//
f 1078// 1091// 1079//
f 1079// 1091// 1090//
f 1079// 1090// 1081//
f 1081// 1090// 1089//
f 1081// 1089// 1082//
f 1082// 1089// 1088//
f 1082// 1088// 1080//
f 1080// 1088// 1070//
f 1080// 1070// 1071//
f 1134// 1135// 1159//
f 1134// 1159// 1136//
f 1136// 1159// 1158//
f 1136// 1158// 1137//
f 1137// 1158// 1157//
f 1137// 1157// 1145//
f 1145// 1157// 1156//
f 1145// 1156// 1146//
f 1146// 1156// 1155//
f 1146// 1155// 1147//
f 1147// 1155// 1149//
f 1147// 1149// 1138//
f 1139// 1148// 1154//
f 1139// 1154// 1140//
f 1140// 1154// 1153//
f 1140// 1153// 1141//
f 1141// 1153// 1152//
f 1141// 1152// 1143//
f 1143// 1152// 1151//
f 1143// 1151// 1144//
f 1144// 1151// 1150//
f 1144// 1150// 1142//
f 1142// 1150// 1132//
f 1142// 1132// 1133//
usemtl 1
f 199// 198// 511//
f 511// 198// 1160//
f 511// 1160// 1161//
f 1161// 1162// 511//
f 511// 1162// 1163//
f 511// 1163// 513//
f 412// 1164// 1165//
f 63// 62// 1165//
f 1165// 62// 423//
f 1165// 423// 412//
f 1166// 510// 1167//
f 1167// 510// 512//
f 1164// 412// 1168//
f 1168// 412// 510//
f 1168// 510// 1169//
f 1169// 510// 1166//
usemtl 2
f 1170// 527// 1171//
f 1171// 527// 57//
f 1171// 57// 56//
f 1165// 1164// 1168//
f 1165// 1168// 1172//
f 1172// 1168// 1169//
f 1172// 1169// 1173//
f 1173// 1169// 1166//
f 1173// 1166// 1174//
f 1174// 1166// 1167//
f 1174// 1167// 1175//
f 1175// 1167// 512//
f 1175// 512// 1176//
f 512// 1177// 1176//
f 1176// 1177// 1178//
f 1176// 1178// 1179//
f 1180// 1179// 1181//
f 1181// 1179// 1178//
f 1180// 1181// 1182//
f 1180// 1182// 1183//
f 1183// 1182// 1184//
f 1183// 1184// 1185//
f 1185// 1184// 1186//
f 1185// 1186// 1187//
f 1187// 1186// 1188//
f 1187// 1188// 1189//
f 1189// 1188// 1190//
f 1189// 1190// 1191//
f 1191// 1190// 1192//
f 1191// 1192// 1193//
f 1193// 1192// 1194//
f 1193// 1194// 1195//
f 534// 1196// 532//
f 532// 1196// 1195//
f 532// 1195// 1194//
f 1196// 534// 535//
f 1196// 535// 1197//
f 1197// 535// 531//
f 1197// 531// 1198//
f 1198// 531// 530//
f 1198// 530// 1199//
f 1199// 530// 529//
f 1199// 529// 1200//
f 1200// 529// 528//
f 1200// 528// 1201//
f 1201// 528// 527//
f 1201// 527// 1202//
f 527// 1170// 1202//
f 1202// 1170// 1171//
f 1202// 1171// 1203//
f 59// 1203// 56//
f 56// 1203// 1171//
f 1179// 1180// 63//
f 1193// 1195// 63//
f 59// 60// 1203//
f 1203// 60// 1201//
f 1203// 1201// 1202//
f 1197// 1198// 60//
f 63// 1165// 1179//
f 1179// 1165// 1172//
f 1179// 1172// 1173//
f 1173// 1174// 1179//
f 1179// 1174// 1175//
f 1179// 1175// 1176//
f 1180// 1183// 63//
f 63// 1183// 1185//
f 63// 1185// 1187//
f 63// 1195// 60//
f 60// 1195// 1196//
f 60// 1196// 1197//
f 1187// 1189// 63//
f 63// 1189// 1191//
f 63// 1191// 1193//
f 1198// 1199// 60//
f 60// 1199// 1200//
f 60// 1200// 1201//
f 1177// 512// 1178//
f 1178// 512// 170//
f 1178// 170// 1181//
f 1181// 170// 43//
f 1184// 1190// 1186//
f 1186// 1190// 1188//
f 1184// 1182// 1190//
f 1190// 1182// 1181//
f 1190// 1181// 1192//
f 1192// 1181// 43//
f 1192// 43// 1194//
f 1194// 43// 45//
f 1194// 45// 532//
usemtl 3
f 1204// 1205// 221//
f 221// 1205// 225//
f 1205// 1206// 225//
f 225// 1206// 216//
f 1206// 1207// 216//
f 216// 1207// 217//
f 1207// 1208// 217//
f 217// 1208// 218//
f 1208// 1209// 218//
f 218// 1209// 223//
f 1210// 229// 1209//
f 1209// 229// 376//
f 1209// 376// 223//
f 229// 1210// 227//
f 227// 1210// 1211//
f 227// 1211// 222//
f 1211// 1204// 222//
f 222// 1204// 221//
f 1212// 1213// 1211//
f 1210// 1209// 1208//
f 1213// 1214// 1211//
f 1211// 1214// 1215//
f 1211// 1215// 1204//
f 1204// 1215// 1216//
f 1204// 1216// 1217//
f 1211// 1210// 1212//
f 1212// 1210// 1208//
f 1212// 1208// 1218//
f 1218// 1208// 1207//
f 1217// 1219// 1204//
f 1204// 1219// 1218//
f 1204// 1218// 1205//
f 1205// 1218// 1207//
f 1205// 1207// 1206//
f 1212// 1218// 1220//
f 1220// 1218// 1221//
f 1213// 1212// 1222//
f 1222// 1212// 1220//
f 1213// 1222// 1223//
f 1213// 1223// 1214//
f 1214// 1223// 1224//
f 1214// 1224// 1215//
f 1216// 1215// 1225//
f 1225// 1215// 1224//
f 1216// 1225// 1226//
f 1216// 1226// 1217//
f 1217// 1226// 1227//
f 1217// 1227// 1219//
f 1218// 1219// 1221//
f 1221// 1219// 1227//
f 1228// 1229// 371//
f 371// 1229// 372//
f 1229// 1230// 372//
f 372// 1230// 359//
f 1230// 1231// 359//
f 359// 1231// 358//
f 1232// 367// 375//
f 1232// 375// 1233//
f 1233// 375// 374//
f 1233// 374// 1234//
f 1234// 374// 373//
f 1234// 373// 1235//
f 1235// 373// 366//
f 1235// 366// 1236//
f 1236// 366// 365//
f 1236// 365// 1237//
f 1237// 365// 364//
f 1237// 364// 1238//
f 1238// 364// 357//
f 1238// 357// 1239//
f 1239// 357// 358//
f 1239// 358// 1231//
f 1228// 371// 370//
f 1228// 370// 1240//
f 1240// 370// 363//
f 1240// 363// 1241//
f 1241// 363// 361//
f 1241// 361// 1242//
f 1242// 361// 360//
f 1242// 360// 1243//
f 1243// 360// 369//
f 1243// 369// 1244//
f 1244// 369// 368//
f 1244// 368// 1245//
f 1245// 368// 367//
f 1245// 367// 1232//
f 1234// 1235// 1246//
f 1246// 1235// 1236//
f 1246// 1236// 1247//
f 1247// 1236// 1237//
f 1247// 1237// 1248//
f 1248// 1237// 1238//
f 1248// 1238// 1249//
f 1249// 1238// 1239//
f 1249// 1239// 1250//
f 1250// 1239// 1231//
f 1250// 1231// 1251//
f 1251// 1231// 1230//
f 1251// 1230// 1252//
f 1252// 1230// 1229//
f 1252// 1229// 1253//
f 1253// 1229// 1228//
f 1253// 1228// 1254//
f 1254// 1228// 1240//
f 1254// 1240// 1255//
f 1255// 1240// 1241//
f 1255// 1241// 1256//
f 1256// 1241// 1242//
f 1256// 1242// 1257//
f 1257// 1242// 1243//
f 1257// 1243// 1258//
f 1258// 1243// 1244//
f 1258// 1244// 1259//
f 1259// 1244// 1245//
f 1259// 1245// 1260//
f 1260// 1245// 1232//
f 1260// 1232// 1261//
f 1261// 1232// 1233//
f 1261// 1233// 1262//
f 1262// 1233// 1234//
f 1262// 1234// 1246//
f 1250// 1251// 1263//
f 1263// 1251// 1264//
f 1250// 1263// 1265//
f 1250// 1265// 1249//
f 1249// 1265// 1266//
f 1249// 1266// 1248//
f 1248// 1266// 1267//
f 1248// 1267// 1247//
f 1247// 1267// 1268//
f 1247// 1268// 1246//
f 1246// 1268// 1269//
f 1246// 1269// 1262//
f 1262// 1269// 1270//
f 1262// 1270// 1261//
f 1261// 1270// 1271//
f 1261// 1271// 1260//
f 1260// 1271// 1272//
f 1260// 1272// 1259//
f 1259// 1272// 1273//
f 1259// 1273// 1258//
f 1258// 1273// 1274//
f 1258// 1274// 1257//
f 1257// 1274// 1275//
f 1257// 1275// 1256//
f 1256// 1275// 1276//
f 1256// 1276// 1255//
f 1255// 1276// 1277//
f 1255// 1277// 1254//
f 1254// 1277// 1278//
f 1254// 1278// 1253//
f 1252// 1253// 1279//
f 1279// 1253// 1278//
f 1251// 1252// 1264//
f 1264// 1252// 1279//
f 1280// 1281// 347//
f 347// 1281// 349//
f 1281// 1282// 349//
f 349// 1282// 350//
f 1282// 1283// 350//
f 350// 1283// 345//
f 1283// 1284// 345//
f 345// 1284// 343//
f 1284// 1285// 343//
f 343// 1285// 346//
f 1285// 1286// 346//
f 346// 1286// 356//
f 1286// 1287// 356//
f 356// 1287// 355//
f 1287// 1288// 355//
f 355// 1288// 354//
f 1288// 1289// 354//
f 354// 1289// 353//
f 1289// 1290// 353//
f 353// 1290// 351//
f 1290// 1291// 351//
f 351// 1291// 352//
f 1291// 1280// 352//
f 352// 1280// 347//
f 1282// 1281// 1280//
f 1280// 1291// 1282//
f 1282// 1291// 1290//
f 1282// 1290// 1283//
f 1285// 1284// 1286//
f 1286// 1284// 1283//
f 1286// 1283// 1287//
f 1287// 1283// 1290//
f 1287// 1290// 1288//
f 1288// 1290// 1289//
f 1292// 1293// 265//
f 265// 1293// 261//
f 261// 1293// 1294//
f 1295// 300// 299//
f 1295// 299// 1296//
f 1296// 299// 258//
f 1296// 258// 1294//
f 1294// 258// 260//
f 1294// 260// 261//
f 1297// 294// 293//
f 1297// 293// 1298//
f 1298// 293// 272//
f 1298// 272// 1299//
f 1299// 272// 271//
f 1299// 271// 1300//
f 1300// 271// 270//
f 1300// 270// 1301//
f 1301// 270// 278//
f 1301// 278// 1302//
f 1302// 278// 277//
f 1302// 277// 1303//
f 1303// 277// 1295//
f 1295// 277// 276//
f 1295// 276// 300//
f 1304// 298// 297//
f 1304// 297// 1305//
f 1305// 297// 296//
f 1305// 296// 1306//
f 1306// 296// 275//
f 1306// 275// 1307//
f 1307// 275// 274//
f 1307// 274// 1308//
f 1308// 274// 273//
f 1308// 273// 1309//
f 1309// 273// 295//
f 1309// 295// 1310//
f 1310// 295// 294//
f 1310// 294// 1297//
f 1311// 263// 262//
f 1311// 262// 1312//
f 1312// 262// 298//
f 1312// 298// 1304//
f 1311// 1313// 263//
f 263// 1313// 264//
f 1314// 268// 266//
f 1314// 266// 1315//
f 1315// 266// 264//
f 1315// 264// 1313//
f 1316// 282// 292//
f 1316// 292// 1317//
f 1317// 292// 291//
f 1317// 291// 1318//
f 1318// 291// 281//
f 1318// 281// 1319//
f 1319// 281// 280//
f 1319// 280// 1320//
f 1320// 280// 279//
f 1320// 279// 1321//
f 1321// 279// 269//
f 1321// 269// 1322//
f 1322// 269// 268//
f 1322// 268// 1314//
f 1323// 286// 285//
f 1323// 285// 1324//
f 1324// 285// 287//
f 1324// 287// 1325//
f 1325// 287// 288//
f 1325// 288// 1326//
f 1326// 288// 289//
f 1326// 289// 1327//
f 1327// 289// 284//
f 1327// 284// 1328//
f 1328// 284// 283//
f 1328// 283// 1329//
f 1329// 283// 282//
f 1329// 282// 1316//
f 1292// 265// 267//
f 1292// 267// 1330//
f 1330// 267// 290//
f 1330// 290// 1331//
f 1331// 290// 286//
f 1331// 286// 1323//
f 1324// 1295// 1323//
f 1323// 1295// 1296//
f 1323// 1296// 1331//
f 1331// 1296// 1294//
f 1331// 1294// 1330//
f 1330// 1294// 1293//
f 1330// 1293// 1292//
f 1313// 1311// 1315//
f 1315// 1311// 1312//
f 1315// 1312// 1314//
f 1314// 1312// 1304//
f 1314// 1304// 1322//
f 1322// 1304// 1305//
f 1322// 1305// 1321//
f 1321// 1305// 1306//
f 1321// 1306// 1320//
f 1320// 1306// 1307//
f 1320// 1307// 1319//
f 1319// 1307// 1308//
f 1319// 1308// 1318//
f 1318// 1308// 1309//
f 1318// 1309// 1317//
f 1317// 1309// 1310//
f 1317// 1310// 1316//
f 1316// 1310// 1297//
f 1316// 1297// 1329//
f 1329// 1297// 1298//
f 1329// 1298// 1328//
f 1328// 1298// 1299//
f 1328// 1299// 1327//
f 1327// 1299// 1300//
f 1327// 1300// 1326//
f 1326// 1300// 1301//
f 1326// 1301// 1325//
f 1325// 1301// 1302//
f 1325// 1302// 1324//
f 1324// 1302// 1303//
f 1324// 1303// 1295//
f 1332// 1333// 203//
f 203// 1333// 205//
f 205// 1333// 214//
f 214// 1333// 1334//
f 214// 1334// 213//
f 1334// 1335// 213//
f 213// 1335// 211//
f 211// 1335// 209//
f 209// 1335// 1336//
f 209// 1336// 208//
f 1336// 1337// 208//
f 208// 1337// 207//
f 1337// 1332// 207//
f 207// 1332// 203//
f 1336// 1335// 1337//
f 1337// 1335// 1334//
f 1337// 1334// 1332//
f 1332// 1334// 1333//
usemtl 1
f 1220// 1221// 1222//
f 1222// 1221// 1227//
f 1222// 1227// 1223//
f 1223// 1227// 1226//
f 1223// 1226// 1224//
f 1224// 1226// 1225//
f 1264// 1279// 1263//
f 1263// 1279// 1278//
f 1263// 1278// 1277//
f 1271// 1270// 1263//
f 1263// 1270// 1269//
f 1263// 1269// 1265//
f 1277// 1276// 1263//
f 1263// 1276// 1275//
f 1263// 1275// 1274//
f 1274// 1273// 1263//
f 1263// 1273// 1272//
f 1263// 1272// 1271//
f 1268// 1267// 1269//
f 1269// 1267// 1266//
f 1269// 1266// 1265//
usemtl 2
f 1338// 1339// 1340//
f 1338// 1340// 1341//
f 1341// 1340// 513//
f 1341// 513// 1342//
f 513// 1163// 1342//
f 1342// 1163// 1162//
f 1342// 1162// 1343//
f 1343// 1162// 1161//
f 1343// 1161// 1344//
f 1344// 1161// 1160//
f 1344// 1160// 1345//
f 1345// 1160// 198//
f 1345// 198// 200//
f 25// 23// 1346//
f 1346// 23// 189//
f 1346// 189// 1347//
f 1348// 27// 1346//
f 1346// 27// 25//
f 1348// 1346// 1347//
f 1348// 1347// 1349//
f 1349// 1347// 189//
f 1349// 189// 1350//
f 189// 188// 1350//
f 1350// 188// 194//
f 1350// 194// 1351//
f 1351// 194// 193//
f 1351// 193// 1352//
f 1352// 193// 192//
f 1352// 192// 1353//
f 1353// 192// 191//
f 1353// 191// 1354//
f 1354// 191// 195//
f 1354// 195// 1355//
f 1356// 1357// 197//
f 197// 1357// 1355//
f 197// 1355// 195//
f 1357// 1356// 1358//
f 1357// 1358// 1359//
f 1359// 1358// 1360//
f 1359// 1360// 1361//
f 1361// 1360// 1362//
f 1361// 1362// 1363//
f 1363// 1362// 1364//
f 1363// 1364// 1365//
f 1365// 1364// 1366//
f 1365// 1366// 1367//
f 1367// 1366// 1368//
f 1367// 1368// 1369//
f 1369// 1368// 1370//
f 1369// 1370// 1371//
usemtl 4
f 1338// 1371// 1339//
f 1339// 1371// 1370//
usemtl 2
f 1348// 1349// 1350//
f 1352// 1353// 64//
f 64// 27// 1348//
f 1344// 1345// 1343//
f 1343// 1345// 200//
f 1343// 200// 1342//
f 1342// 200// 1341//
f 1359// 1361// 65//
f 1348// 1350// 64//
f 64// 1350// 1351//
f 64// 1351// 1352//
f 1353// 1354// 64//
f 64// 1354// 1355//
f 64// 1355// 65//
f 65// 1355// 1357//
f 65// 1357// 1359//
f 1361// 1363// 65//
f 65// 1363// 1365//
f 65// 1365// 1367//
f 1367// 1369// 65//
f 65// 1369// 1371//
f 65// 1371// 200//
f 200// 1371// 1338//
f 200// 1338// 1341//
f 1360// 1358// 1370//
f 187// 513// 1339//
f 1339// 513// 1340//
f 1339// 1370// 187//
f 187// 1370// 1358//
f 187// 1358// 39//
f 39// 1358// 1356//
f 39// 1356// 38//
f 38// 1356// 197//
f 1368// 1366// 1364//
f 1368// 1364// 1370//
f 1370// 1364// 1362//
f 1370// 1362// 1360//
