v -1.056209 -1.0 0.189942
v -1.056209 -1.0 0.163087
v -0.990957 -1.0 0.163087
newmtl 1
Ka 0.25098039215686274 0.25098039215686274 0.25098039215686274
Kd 0.25098039215686274 0.25098039215686274 0.25098039215686274
Ks 0.12549019607843137 0.12549019607843137 0.12549019607843137
d 0.0
endmtl
v -1.056209 -1.0 0.297487
v -1.056209 -1.0 0.277611
v -0.990957 -1.0 0.277611
v -0.965055 -1.0 0.365799
v -0.959926 -1.0 0.366423
v -0.986893 -1.0 0.366423
v -0.916848 -1.0 0.358053
v -0.916848 -1.0 0.336357
v -0.898539 -1.0 0.336357
v -0.912663 -1.0 0.190276
v -0.915485 -1.0 0.189942
v -0.898539 -1.0 0.189942
v -0.927471 -1.0 0.190113
v -0.929524 -1.0 0.190834
v -0.929524 -1.0 0.189942
v -0.831952 -1.0 0.250508
v -0.831952 -1.0 0.228811
v -0.819258 -1.0 0.228811
v -1.114954 -1.0 0.31297
v -1.101886 -1.0 0.301908
v -1.056209 -1.0 0.366423
v -1.16879 -1.0 0.366423
v -1.157714 -1.0 0.358977
v -1.155713 -1.0 0.357095
v -1.140394 -1.0 0.33843
v -1.131687 -1.0 0.320899
v -1.129295 -1.0 0.320095
v -1.266258 -1.0 0.374099
v -1.243819 -1.0 0.381871
v -1.445741 -1.0 0.45
v -1.223266 -1.0 0.384041
v -1.056209 -1.0 0.45
v -1.203403 -1.0 0.381954
v -1.179215 -1.0 0.373432
v -1.445741 -1.0 0.366423
v -1.331702 -1.0 0.342822
v -1.313399 -1.0 0.344999
v -1.445741 -1.0 0.297487
v -1.384649 -1.0 0.297487
v -1.380112 -1.0 0.307512
v -1.368829 -1.0 0.321863
v -1.279127 -1.0 0.366423
v -1.281105 -1.0 0.365243
v -1.292432 -1.0 0.355543
v -1.307856 -1.0 0.344698
v -1.302313 -1.0 0.344035
v -1.365029 -1.0 0.325427
v -1.349603 -1.0 0.336061
v -1.332679 -1.0 0.191242
v -1.339681 -1.0 0.193382
v -1.445741 -1.0 0.189942
v -1.356986 -1.0 0.202076
v -1.371238 -1.0 0.214378
v -1.382577 -1.0 0.230723
v -1.389314 -1.0 0.248705
v -1.445741 -1.0 0.277611
v -1.391482 -1.0 0.266916
v -1.391308 -1.0 0.27214
v -1.390287 -1.0 0.277611
v -1.38793 -1.0 0.290237
v -1.311258 -1.0 0.164954
v -1.320685 -1.0 0.172063
v -1.445741 -1.0 0.163087
v -1.327851 -1.0 0.18091
v -1.332071 -1.0 0.189942
v -1.286889 -1.0 0.158467
v -1.445741 -1.0 0.0
v -1.275233 -1.0 0.159901
v -1.056209 -1.0 0.0
v -1.266932 -1.0 0.163087
v -1.288759 -1.0 0.158502
v -1.300139 -1.0 0.160279
v -1.306819 -1.0 0.163087
v -1.241721 -1.0 0.189942
v -1.241757 -1.0 0.189788
v -1.247452 -1.0 0.17904
v -1.254881 -1.0 0.170706
v -1.264482 -1.0 0.164028
v -1.086168 -1.0 0.27347
v -1.083969 -1.0 0.257758
v -1.180181 -1.0 0.218376
v -1.176873 -1.0 0.219683
v -1.17121 -1.0 0.247154
v -1.101803 -1.0 0.211968
v -1.114926 -1.0 0.200861
v -1.25074 -1.0 0.23896
v -1.186152 -1.0 0.2727
v -1.259155 -1.0 0.246624
v -1.269381 -1.0 0.252108
v -1.183145 -1.0 0.216276
v -1.092244 -1.0 0.22528
v -1.114085 -1.0 0.261469
v -1.116342 -1.0 0.270728
v -1.120044 -1.0 0.277611
v -1.359919 -1.0 0.277611
v -1.086186 -1.0 0.240537
v -1.173138 -1.0 0.220162
v -1.172669 -1.0 0.220128
v -1.171223 -1.0 0.219808
v -1.357099 -1.0 0.248689
v -1.351335 -1.0 0.238874
v -1.326861 -1.0 0.233911
v -1.342691 -1.0 0.229998
v -1.332197 -1.0 0.223536
v -1.309032 -1.0 0.249864
v -1.318889 -1.0 0.24302
v -1.361117 -1.0 0.26788
v -1.360546 -1.0 0.26049
v -1.298384 -1.0 0.253933
v -1.286889 -1.0 0.255348
v -1.281015 -1.0 0.254999
v -1.18808 -1.0 0.20522
v -1.187958 -1.0 0.207123
v -1.23869 -1.0 0.211486
v -1.18699 -1.0 0.210791
v -1.185136 -1.0 0.214079
v -1.123631 -1.0 0.231788
v -1.118329 -1.0 0.239307
v -1.115008 -1.0 0.247898
v -1.113853 -1.0 0.257276
v -1.176818 -1.0 0.190716
v -1.180006 -1.0 0.191971
v -1.183132 -1.0 0.194193
v -1.184252 -1.0 0.195334
v -1.186353 -1.0 0.198362
v -1.187623 -1.0 0.20163
v -1.238947 -1.0 0.201689
v -1.23869 -1.0 0.206666
v -1.129634 -1.0 0.193667
v -1.145664 -1.0 0.190278
v -1.174102 -1.0 0.190278
v -1.170246 -1.0 0.21968
v -1.148556 -1.0 0.21968
v -1.139929 -1.0 0.22133
v -1.131422 -1.0 0.225264
v -1.124291 -1.0 0.23108
v -1.155304 -1.0 0.294871
v -1.355556 -1.0 0.290287
v -1.359682 -1.0 0.279536
v -1.151448 -1.0 0.294871
v -1.120818 -1.0 0.279049
v -1.126401 -1.0 0.285286
v -1.133877 -1.0 0.290505
v -1.14229 -1.0 0.293743
v -1.16567 -1.0 0.32379
v -1.176534 -1.0 0.336785
v -1.287371 -1.0 0.308849
v -1.177794 -1.0 0.337933
v -1.191338 -1.0 0.347327
v -1.280015 -1.0 0.324085
v -1.350547 -1.0 0.297487
v -1.290857 -1.0 0.310753
v -1.155879 -1.0 0.297487
v -1.158242 -1.0 0.308255
v -1.301666 -1.0 0.314692
v -1.312917 -1.0 0.316079
v -1.317894 -1.0 0.315822
v -1.269207 -1.0 0.337002
v -1.206453 -1.0 0.353115
v -1.256263 -1.0 0.34646
v -1.222784 -1.0 0.355121
v -1.240515 -1.0 0.352839
v -1.329795 -1.0 0.313012
v -1.340543 -1.0 0.307317
v -1.348877 -1.0 0.299888
v -1.098717 -1.0 0.297487
v -1.092054 -1.0 0.288192
v -1.087823 -1.0 0.277611
v -0.804242 -1.0 0.198242
v -0.804242 -1.0 0.190514
v -0.797839 -1.0 0.189942
v -0.819258 -1.0 0.189942
v -0.797839 -1.0 0.277611
v -0.805784 -1.0 0.250508
v -0.805784 -1.0 0.258306
v -0.831952 -1.0 0.198242
v -0.819258 -1.0 0.198242
v -0.831952 -1.0 0.221048
v -0.819258 -1.0 0.221048
v -0.807708 -1.0 0.221048
v -0.807708 -1.0 0.228811
v -0.819258 -1.0 0.250508
v -0.819258 -1.0 0.190514
v -0.840703 -1.0 0.190514
v -0.845278 -1.0 0.189942
v -0.840703 -1.0 0.258306
v -0.980695 -1.0 0.213289
v -0.979129 -1.0 0.227286
v -0.982446 -1.0 0.21053
v -0.983473 -1.0 0.207418
v -0.960372 -1.0 0.232841
v -0.963256 -1.0 0.233144
v -0.967796 -1.0 0.21928
v -0.933449 -1.0 0.20098
v -0.944956 -1.0 0.221672
v -0.933449 -1.0 0.192212
v -0.944956 -1.0 0.190514
v -0.958123 -1.0 0.192734
v -0.960517 -1.0 0.191184
v -0.953447 -1.0 0.190514
v -0.963824 -1.0 0.189942
v -0.978211 -1.0 0.215584
v -0.974795 -1.0 0.217466
v -0.973276 -1.0 0.230966
v -0.967958 -1.0 0.232691
v -0.986893 -1.0 0.163087
v -0.973431 -1.0 0.189942
v -0.986893 -1.0 0.189942
v -0.973586 -1.0 0.18996
v -0.976842 -1.0 0.191187
v -0.971075 -1.0 0.238994
v -0.986893 -1.0 0.277611
v -0.977387 -1.0 0.236545
v -0.979129 -1.0 0.235535
v -0.979701 -1.0 0.193182
v -0.980629 -1.0 0.19412
v -0.982398 -1.0 0.19672
v -0.929772 -1.0 0.198745
v -0.929524 -1.0 0.198657
v -0.929524 -1.0 0.216703
v -0.953447 -1.0 0.198
v -0.953673 -1.0 0.198
v -0.955389 -1.0 0.195475
v -0.983432 -1.0 0.199584
v -0.98386 -1.0 0.203476
v -0.933031 -1.0 0.222561
v -0.94578 -1.0 0.228786
v -0.933397 -1.0 0.225865
v -0.953447 -1.0 0.22129
v -0.953741 -1.0 0.225035
v -0.954618 -1.0 0.228063
v -0.955615 -1.0 0.229813
v -0.962459 -1.0 0.240041
v -0.956641 -1.0 0.239427
v -0.95323 -1.0 0.238251
v -0.933065 -1.0 0.228892
v -0.932056 -1.0 0.231626
v -0.947175 -1.0 0.232432
v -0.930481 -1.0 0.233922
v -0.948969 -1.0 0.235058
v -0.950523 -1.0 0.236554
v -0.929599 -1.0 0.216753
v -0.930989 -1.0 0.218206
v -0.932093 -1.0 0.219969
v -0.956898 -1.0 0.231179
v -0.958404 -1.0 0.232152
v -0.925822 -1.0 0.189942
v -0.929524 -1.0 0.163087
v -0.920314 -1.0 0.18937
v -0.903071 -1.0 0.237892
v -0.903071 -1.0 0.229643
v -0.929524 -1.0 0.234782
v -0.929524 -1.0 0.277611
v -0.927956 -1.0 0.236194
v -0.925857 -1.0 0.237482
v -0.901152 -1.0 0.200274
v -0.902194 -1.0 0.197583
v -0.903777 -1.0 0.195343
v -0.921304 -1.0 0.239234
v -0.914543 -1.0 0.240041
v -0.898539 -1.0 0.277611
v -0.908586 -1.0 0.239512
v -0.903591 -1.0 0.21169
v -0.902007 -1.0 0.209353
v -0.901101 -1.0 0.20685
v -0.900749 -1.0 0.203684
v -0.906208 -1.0 0.193217
v -0.908192 -1.0 0.191997
v -0.915375 -1.0 0.233144
v -0.917888 -1.0 0.232955
v -0.924646 -1.0 0.226628
v -0.92016 -1.0 0.232354
v -0.922064 -1.0 0.231341
v -0.924569 -1.0 0.225498
v -0.924232 -1.0 0.224179
v -0.92362 -1.0 0.223034
v -0.922792 -1.0 0.222122
v -0.919798 -1.0 0.220251
v -0.910226 -1.0 0.232607
v -0.914543 -1.0 0.217963
v -0.905396 -1.0 0.230945
v -0.911255 -1.0 0.216633
v -0.905616 -1.0 0.213496
v -0.923345 -1.0 0.230209
v -0.924073 -1.0 0.229128
v -0.924492 -1.0 0.227982
v -0.92443 -1.0 0.196837
v -0.920539 -1.0 0.211794
v -0.9256 -1.0 0.214114
v -0.919482 -1.0 0.196302
v -0.919107 -1.0 0.196304
v -0.914963 -1.0 0.209459
v -0.914754 -1.0 0.196792
v -0.909466 -1.0 0.202852
v -0.909549 -1.0 0.203908
v -0.912563 -1.0 0.197594
v -0.911789 -1.0 0.198063
v -0.910814 -1.0 0.198928
v -0.910073 -1.0 0.200025
v -0.909642 -1.0 0.201232
v -0.909935 -1.0 0.205234
v -0.910591 -1.0 0.20636
v -0.911649 -1.0 0.207462
v -0.772963 -1.0 0.316602
v -0.797839 -1.0 0.316602
v -0.766048 -1.0 0.298059
v -0.797839 -1.0 0.297487
v -0.756379 -1.0 0.298059
v 1.5 -1.0 0.297487
v 1.5 -1.0 0.366423
v -0.782199 -1.0 0.365851
v -0.797839 -1.0 0.366423
v -0.801192 -1.0 0.316602
v -0.807708 -1.0 0.298059
v -0.819258 -1.0 0.297487
v -0.817378 -1.0 0.298059
v -0.819258 -1.0 0.366423
v -0.797839 -1.0 0.349358
v -0.791557 -1.0 0.365851
v -0.845278 -1.0 0.297487
v -0.846144 -1.0 0.299468
v -0.857686 -1.0 0.298059
v -0.856992 -1.0 0.365851
v -0.845278 -1.0 0.366423
v -0.882735 -1.0 0.366423
v -0.882735 -1.0 0.297487
v -0.876332 -1.0 0.298059
v -0.876332 -1.0 0.365851
v -0.822983 -1.0 0.32057
v -0.826321 -1.0 0.313558
v -0.828986 -1.0 0.354552
v -0.824786 -1.0 0.348646
v -0.831362 -1.0 0.307556
v -0.838421 -1.0 0.302491
v -0.845278 -1.0 0.299807
v -0.831362 -1.0 0.356875
v -0.846642 -1.0 0.364708
v -0.845278 -1.0 0.36421
v -0.83846 -1.0 0.36172
v -0.822273 -1.0 0.342185
v -0.821138 -1.0 0.332822
v -0.821341 -1.0 0.328508
v -0.898539 -1.0 0.366423
v -0.890681 -1.0 0.365851
v -0.898539 -1.0 0.365851
v -0.916848 -1.0 0.305788
v -0.898539 -1.0 0.305788
v -0.916848 -1.0 0.328593
v -0.898539 -1.0 0.328593
v -0.892604 -1.0 0.328593
v -0.889138 -1.0 0.305788
v -0.892604 -1.0 0.336357
v -0.890681 -1.0 0.358053
v -0.898539 -1.0 0.358053
v -0.925599 -1.0 0.298059
v -0.929524 -1.0 0.297487
v -0.898539 -1.0 0.297487
v -0.889138 -1.0 0.298059
v -0.898539 -1.0 0.298059
v -0.925599 -1.0 0.365851
v -0.929524 -1.0 0.366423
v -0.947967 -1.0 0.366423
v -0.946342 -1.0 0.366295
v -0.939168 -1.0 0.364222
v -0.939168 -1.0 0.355073
v -0.939168 -1.0 0.309254
v -0.939168 -1.0 0.300866
v -0.940325 -1.0 0.30029
v -0.947603 -1.0 0.297903
v -0.951954 -1.0 0.297487
v -0.946799 -1.0 0.358097
v -0.955146 -1.0 0.359093
v -0.939923 -1.0 0.35548
v -0.958677 -1.0 0.3589
v -0.964452 -1.0 0.357589
v -0.969694 -1.0 0.354929
v -0.973619 -1.0 0.351572
v -0.974056 -1.0 0.351093
v -0.977339 -1.0 0.346388
v -0.979615 -1.0 0.340541
v -0.980741 -1.0 0.331193
v -0.980597 -1.0 0.327727
v -0.979365 -1.0 0.321162
v -0.9535 -1.0 0.304832
v -0.945834 -1.0 0.30626
v -0.968304 -1.0 0.307392
v -0.963469 -1.0 0.30553
v -0.956671 -1.0 0.304714
v -0.97704 -1.0 0.315824
v -0.974087 -1.0 0.311853
v -0.972737 -1.0 0.31052
v -0.929524 -1.0 0.45
v -0.955232 -1.0 0.366995
v -0.985049 -1.0 0.350593
v -0.980134 -1.0 0.357013
v -0.978479 -1.0 0.358595
v -0.972136 -1.0 0.363045
v -0.986893 -1.0 0.315293
v -0.988579 -1.0 0.319601
v -0.990957 -1.0 0.297487
v -0.989926 -1.0 0.330673
v -0.989806 -1.0 0.334212
v -0.990957 -1.0 0.366423
v -0.988269 -1.0 0.343062
v -0.986893 -1.0 0.346281
v -0.975776 -1.0 0.30164
v -0.981226 -1.0 0.306169
v -0.986893 -1.0 0.297487
v -0.981762 -1.0 0.306753
v -0.985813 -1.0 0.312535
v -0.957936 -1.0 0.296915
v -0.962032 -1.0 0.297109
v -0.963868 -1.0 0.297487
v -0.969378 -1.0 0.298622
v -0.963926 -1.0 0.189903
v -0.968507 -1.0 0.18937
v -0.858656 -1.0 0.238932
v -0.849853 -1.0 0.238932
v -0.845278 -1.0 0.277611
v -0.819258 -1.0 0.258306
v -0.819258 -1.0 0.277611
v -0.869169 -1.0 0.189942
v -0.874183 -1.0 0.20254
v -0.873143 -1.0 0.198554
v -0.872918 -1.0 0.198554
v -0.882735 -1.0 0.277611
v -0.882735 -1.0 0.227142
v -0.871878 -1.0 0.202471
v -0.872528 -1.0 0.200214
v -0.882735 -1.0 0.189942
v -0.882735 -1.0 0.204349
v -0.89633 -1.0 0.238932
v -0.886834 -1.0 0.238932
v -0.877337 -1.0 0.190618
v -0.877623 -1.0 0.189942
v -0.881063 -1.0 0.181814
v -0.898539 -1.0 0.163087
v -0.89458 -1.0 0.168401
v -0.89458 -1.0 0.175957
v -0.884352 -1.0 0.176953
v -0.88277 -1.0 0.178702
v -0.882735 -1.0 0.178766
v -0.892843 -1.0 0.175388
v -0.889762 -1.0 0.174986
v -0.882735 -1.0 0.169222
v -0.885673 -1.0 0.168103
v -0.882735 -1.0 0.163087
v -0.889104 -1.0 0.167708
v -0.890978 -1.0 0.167775
v -0.887549 -1.0 0.175258
v -0.885708 -1.0 0.175997
v -0.871826 -1.0 0.183201
v -0.875672 -1.0 0.175712
v -0.845278 -1.0 0.163087
v -0.878779 -1.0 0.171981
v -0.879356 -1.0 0.171452
v -0.882322 -1.0 0.169379
v -1.5 -1.0 0.0
v -1.5 -1.0 0.163087
v -1.5 -1.0 0.189942
v -1.5 -1.0 0.277611
v -1.5 -1.0 0.297487
v -1.5 -1.0 0.366423
v -1.5 -1.0 0.45
v -0.992698 -1.0 0.305788
v -0.992698 -1.0 0.298059
v -1.028449 -1.0 0.298059
v -1.019697 -1.0 0.365851
v -1.019697 -1.0 0.305788
v -1.028449 -1.0 0.365851
v -0.99353 -1.0 0.250508
v -0.990957 -1.0 0.189942
v -0.991988 -1.0 0.198242
v -0.991988 -1.0 0.190514
v -1.028449 -1.0 0.190514
v -1.019697 -1.0 0.221048
v -1.019697 -1.0 0.198242
v -0.995454 -1.0 0.221048
v -0.995454 -1.0 0.228811
v -1.019697 -1.0 0.228811
v -1.019697 -1.0 0.250508
v -1.028449 -1.0 0.258306
v -0.99353 -1.0 0.258306
v -0.986893 -1.0 0.45
v -0.990957 -1.0 0.45
v -0.898539 -1.0 0.45
v -0.882735 -1.0 0.45
v -0.845278 -1.0 0.45
v -0.819258 -1.0 0.45
v -0.797839 -1.0 0.45
v 1.5 -1.0 0.45
v -0.791436 -1.0 0.190514
v -0.791436 -1.0 0.258306
v -0.722812 -1.0 0.190514
v -0.732481 -1.0 0.190514
v -0.772789 -1.0 0.190514
v 1.5 -1.0 0.277611
v -0.697303 -1.0 0.258306
v 1.5 -1.0 0.189942
v -0.671482 -1.0 0.190514
v -0.681152 -1.0 0.190514
v -0.688066 -1.0 0.209056
v -0.716296 -1.0 0.209056
v -0.706661 -1.0 0.258306
v -0.741424 -1.0 0.206012
v -0.746466 -1.0 0.20001
v -0.753525 -1.0 0.194945
v -0.761247 -1.0 0.191923
v -0.746466 -1.0 0.249329
v -0.74409 -1.0 0.247006
v -0.73989 -1.0 0.2411
v -0.737377 -1.0 0.234639
v -0.772096 -1.0 0.258306
v -0.761746 -1.0 0.257163
v -0.753564 -1.0 0.254174
v -0.736242 -1.0 0.225276
v -0.736445 -1.0 0.220962
v -0.738087 -1.0 0.213024
v -0.819258 -1.0 0.163087
v -0.797839 -1.0 0.163087
v 1.5 -1.0 0.163087
v -0.990957 -1.0 0.0
v -0.986893 -1.0 0.0
v -0.929524 -1.0 0.0
v -0.898539 -1.0 0.0
v -0.882735 -1.0 0.0
v -0.845278 -1.0 0.0
v -0.819258 -1.0 0.0
v -0.797839 -1.0 0.0
v 1.5 -1.0 0.0
v -1.45 -1.0 0.0
v -1.5 -0.8375 0.0
v -1.05 -0.875 0.0
v -1.05 -0.8375 0.0
v -0.575 -0.8375 0.0
v 0.575 0.8375 0.0
v 0.575 0.5 0.0
v 0.1 0.5 0.0
v 0.575 -0.0 0.0
v 0.1 -0.0 0.0
v 0.575 -0.5 0.0
v 0.1 -0.5 0.0
v 0.1 -0.7 0.0
v 0.575 -0.8375 0.0
v 0.0 -0.8 0.0
v -0.1 -0.8 0.0
v -0.1 0.8 0.0
v -0.1 0.5 0.0
v -0.575 0.5 0.0
v -0.1 -0.0 0.0
v -0.575 -0.0 0.0
v -0.1 -0.5 0.0
v -1.05 -0.625 0.0
v -1.4 -0.625 0.0
v -1.45 -0.5 0.0
v -0.575 -0.5 0.0
v -1.45 -0.8375 0.0
v -1.4 -0.8375 0.0
v 1.05 0.625 0.0
v 1.05 0.8375 0.0
v 1.05 0.875 0.0
v 1.5 0.5 0.0
v 1.4 0.625 0.0
v 1.5 0.8375 0.0
v 1.4 0.8375 0.0
v 1.5 1.0 0.0
v -1.05 0.8375 0.0
v -1.05 0.875 0.0
v -0.575 1.0 0.0
v -1.45 1.0 0.0
v -1.4 0.875 0.0
v -1.45 0.8375 0.0
v -1.4 0.8375 0.0
v -1.45 0.5 0.0
v -1.4 0.625 0.0
v -1.05 0.625 0.0
v -0.575 0.8375 0.0
v 0.1 0.8 0.0
v 1.05 -0.8375 0.0
v 1.05 -0.875 0.0
v 0.575 -1.0 0.0
v 1.4 -0.875 0.0
v 1.5 -0.8375 0.0
v 1.4 -0.8375 0.0
v 1.5 -0.5 0.0
v 1.4 -0.625 0.0
v 1.05 -0.625 0.0
v -1.4 -0.875 0.0
v -0.575 -1.0 0.0
v 1.5 -0.0 0.0
v 1.4 -0.125 0.0
v 1.05 -0.125 0.0
v 1.4 -0.375 0.0
v 1.05 -0.375 0.0
v -1.45 -0.0 0.0
v -1.4 -0.125 0.0
v -1.4 -0.375 0.0
v -1.05 -0.375 0.0
v -1.05 -0.125 0.0
v 1.4 0.375 0.0
v 1.05 0.375 0.0
v 1.4 0.125 0.0
v 1.05 0.125 0.0
v -1.4 0.125 0.0
v -1.05 0.125 0.0
v -1.4 0.375 0.0
v -1.05 0.375 0.0
v 0.575 1.0 0.0
v 1.4 0.875 0.0
v -1.5 -0.5 0.0
v -1.5 -0.0 0.0
v -1.5 0.5 0.0
v -1.5 0.8375 0.0
v -1.5 1.0 0.0
v 1.5 1.0 0.45
v -1.5 1.0 0.45
v -1.178923 0.795107 0.45
v -1.1826 0.767175 0.45
v -1.193382 0.741146 0.45
v -1.363158 0.718794 0.45
v -1.380309 0.741146 0.45
v -1.391091 0.767175 0.45
v -1.394768 0.795107 0.45
v -1.391091 0.823039 0.45
v -1.380309 0.849068 0.45
v -1.210533 0.718794 0.45
v -1.232884 0.701643 0.45
v -1.258913 0.690862 0.45
v -1.286846 0.687185 0.45
v -1.363158 0.871419 0.45
v -1.340807 0.88857 0.45
v -1.314778 0.899352 0.45
v -1.286846 0.903029 0.45
v -1.258913 0.899352 0.45
v -1.232884 0.88857 0.45
v -1.210533 0.871419 0.45
v -1.193382 0.849068 0.45
v -1.1826 0.823039 0.45
v -1.314778 0.690862 0.45
v -1.340807 0.701643 0.45
v -1.178923 0.795107 0.44
v -1.1826 0.823039 0.44
newmtl 2
Ka 1.0 1.0 1.0
Kd 1.0 1.0 1.0
Ks 0.5019607843137255 0.5019607843137255 0.5019607843137255
d 0.0
endmtl
v -1.193382 0.849068 0.44
v -1.210533 0.871419 0.44
v -1.232884 0.88857 0.44
v -1.258913 0.899352 0.44
v -1.286846 0.903029 0.44
v -1.314778 0.899352 0.44
v -1.340807 0.88857 0.44
v -1.363158 0.871419 0.44
v -1.380309 0.849068 0.44
v -1.391091 0.823039 0.44
v -1.394768 0.795107 0.44
v -1.391091 0.767175 0.44
v -1.380309 0.741146 0.44
v -1.363158 0.718794 0.44
v -1.340807 0.701643 0.44
v -1.314778 0.690862 0.44
v -1.286846 0.687185 0.44
v -1.258913 0.690862 0.44
v -1.232884 0.701643 0.44
v -1.210533 0.718794 0.44
v -1.193382 0.741146 0.44
v -1.1826 0.767175 0.44
v -1.286846 0.795107 0.44
v 1.05 0.625 -0.02
v 1.05 0.875 -0.02
newmtl 3
Ka 0.7529411764705882 0.7529411764705882 0.7529411764705882
Kd 0.7529411764705882 0.7529411764705882 0.7529411764705882
Ks 0.3764705882352941 0.3764705882352941 0.3764705882352941
d 0.0
endmtl
v 1.4 0.875 -0.02
v 1.4 0.625 -0.02
v -1.05 0.875 -0.02
v -1.4 0.875 -0.02
v -1.05 0.625 -0.02
v -1.4 0.625 -0.02
v -1.4 0.375 -0.02
v -1.4 0.125 -0.02
v -1.05 0.375 -0.02
v -1.05 0.125 -0.02
v 1.05 0.125 -0.02
v 1.4 0.125 -0.02
v 1.05 0.375 -0.02
v 1.4 0.375 -0.02
v 1.05 -0.375 -0.02
v 1.4 -0.375 -0.02
v 1.05 -0.125 -0.02
v 1.4 -0.125 -0.02
v 1.05 -0.875 -0.02
v 1.4 -0.875 -0.02
v 1.05 -0.625 -0.02
v 1.4 -0.625 -0.02
v -1.4 -0.625 -0.02
v -1.4 -0.875 -0.02
v -1.05 -0.625 -0.02
v -1.05 -0.875 -0.02
v -1.4 -0.125 -0.02
v -1.4 -0.375 -0.02
v -1.05 -0.125 -0.02
v -1.05 -0.375 -0.02
v -0.1 -0.8 -0.02
v -0.1 0.8 -0.02
v 0.1 0.8 -0.02
v 0.1 -0.7 -0.02
v 0.0 -0.8 -0.02
v -0.992698 -1.01 0.305788
v -0.992698 -1.01 0.298059
v -1.019697 -1.01 0.305788
v -1.019697 -1.01 0.365851
v -1.028449 -1.01 0.365851
v -1.028449 -1.01 0.298059
v -0.957936 -1.01 0.296915
v -0.947603 -1.01 0.297903
v -0.940325 -1.01 0.30029
v -0.939168 -1.01 0.300866
v -0.939168 -1.01 0.309254
v -0.945834 -1.01 0.30626
v -0.9535 -1.01 0.304832
v -0.956671 -1.01 0.304714
v -0.963469 -1.01 0.30553
v -0.968304 -1.01 0.307392
v -0.972737 -1.01 0.31052
v -0.974087 -1.01 0.311853
v -0.97704 -1.01 0.315824
v -0.979365 -1.01 0.321162
v -0.980597 -1.01 0.327727
v -0.980741 -1.01 0.331193
v -0.979615 -1.01 0.340541
v -0.977339 -1.01 0.346388
v -0.974056 -1.01 0.351093
v -0.973619 -1.01 0.351572
v -0.969694 -1.01 0.354929
v -0.964452 -1.01 0.357589
v -0.958677 -1.01 0.3589
v -0.955146 -1.01 0.359093
v -0.946799 -1.01 0.358097
v -0.939923 -1.01 0.35548
v -0.939168 -1.01 0.355073
v -0.939168 -1.01 0.364222
v -0.955232 -1.01 0.366995
v -0.946342 -1.01 0.366295
v -0.965055 -1.01 0.365799
v -0.972136 -1.01 0.363045
v -0.978479 -1.01 0.358595
v -0.980134 -1.01 0.357013
v -0.985049 -1.01 0.350593
v -0.988269 -1.01 0.343062
v -0.989806 -1.01 0.334212
v -0.989926 -1.01 0.330673
v -0.988579 -1.01 0.319601
v -0.985813 -1.01 0.312535
v -0.981762 -1.01 0.306753
v -0.981226 -1.01 0.306169
v -0.962032 -1.01 0.297109
v -0.975776 -1.01 0.30164
v -0.969378 -1.01 0.298622
v -0.889138 -1.01 0.305788
v -0.889138 -1.01 0.298059
v -0.916848 -1.01 0.305788
v -0.916848 -1.01 0.328593
v -0.892604 -1.01 0.328593
v -0.892604 -1.01 0.336357
v -0.916848 -1.01 0.336357
v -0.916848 -1.01 0.358053
v -0.890681 -1.01 0.358053
v -0.890681 -1.01 0.365851
v -0.925599 -1.01 0.365851
v -0.925599 -1.01 0.298059
v -0.831362 -1.01 0.307556
v -0.838351 -1.01 0.312142
v -0.838421 -1.01 0.302491
v -0.842717 -1.01 0.309098
v -0.846144 -1.01 0.299468
v -0.848306 -1.01 0.30692
v -0.857686 -1.01 0.298059
v -0.857738 -1.01 0.305788
v -0.876332 -1.01 0.298059
v -0.867581 -1.01 0.305788
v -0.876332 -1.01 0.365851
v -0.867581 -1.01 0.358053
v -0.856992 -1.01 0.365851
v -0.857339 -1.01 0.358053
v -0.854756 -1.01 0.357978
v -0.846642 -1.01 0.364708
v -0.847662 -1.01 0.356846
v -0.83846 -1.01 0.36172
v -0.841946 -1.01 0.354559
v -0.831362 -1.01 0.356875
v -0.837774 -1.01 0.351676
v -0.828986 -1.01 0.354552
v -0.835903 -1.01 0.349835
v -0.824786 -1.01 0.348646
v -0.833271 -1.01 0.34604
v -0.822273 -1.01 0.342185
v -0.831355 -1.01 0.3411
v -0.821138 -1.01 0.332822
v -0.83034 -1.01 0.332579
v -0.821341 -1.01 0.328508
v -0.830651 -1.01 0.327563
v -0.822983 -1.01 0.32057
v -0.832073 -1.01 0.321513
v -0.826321 -1.01 0.313558
v -0.834508 -1.01 0.316576
v -0.837584 -1.01 0.312858
v -0.857339 -1.0 0.358053
v -0.867581 -1.0 0.358053
v -0.867581 -1.0 0.305788
v -0.857738 -1.0 0.305788
v -0.837584 -1.0 0.312858
v -0.838351 -1.0 0.312142
v -0.842717 -1.0 0.309098
v -0.848306 -1.0 0.30692
v -0.83034 -1.0 0.332579
v -0.830651 -1.0 0.327563
v -0.832073 -1.0 0.321513
v -0.834508 -1.0 0.316576
v -0.837774 -1.0 0.351676
v -0.835903 -1.0 0.349835
v -0.833271 -1.0 0.34604
v -0.831355 -1.0 0.3411
v -0.854756 -1.0 0.357978
v -0.847662 -1.0 0.356846
v -0.841946 -1.0 0.354559
v -0.798419 -1.01 0.324261
v -0.801192 -1.01 0.316602
v -0.775666 -1.01 0.324261
v -0.772963 -1.01 0.316602
v -0.788282 -1.01 0.352438
v -0.791557 -1.01 0.365851
v -0.817378 -1.01 0.298059
v -0.807708 -1.01 0.298059
v -0.787695 -1.01 0.354462
v -0.787173 -1.01 0.357187
v -0.782199 -1.01 0.365851
v -0.786965 -1.01 0.357187
v -0.786417 -1.01 0.354319
v -0.785908 -1.01 0.352438
v -0.756379 -1.01 0.298059
v -0.766048 -1.01 0.298059
v -0.798419 -1.0 0.324261
v -0.775666 -1.0 0.324261
v -0.785908 -1.0 0.352438
v -0.786965 -1.0 0.357187
v -0.786417 -1.0 0.354319
v -0.787173 -1.0 0.357187
v -0.788282 -1.0 0.352438
v -0.787695 -1.0 0.354462
v -0.991988 -1.01 0.198242
v -0.991988 -1.01 0.190514
v -1.019697 -1.01 0.198242
v -1.019697 -1.01 0.221048
v -0.995454 -1.01 0.221048
v -0.995454 -1.01 0.228811
v -1.019697 -1.01 0.228811
v -1.019697 -1.01 0.250508
v -0.99353 -1.01 0.250508
v -0.99353 -1.01 0.258306
v -1.028449 -1.01 0.258306
v -1.028449 -1.01 0.190514
v -0.972132 -1.01 0.210996
v -0.970286 -1.01 0.211951
v -0.974795 -1.01 0.217466
v -0.953673 -1.01 0.198
v -0.953447 -1.01 0.198
v -0.954002 -1.01 0.205813
v -0.953456 -1.01 0.209601
v -0.944956 -1.01 0.221672
v -0.953447 -1.01 0.210165
v -0.953447 -1.01 0.214809
v -0.953447 -1.01 0.190514
v -0.944956 -1.01 0.190514
v -0.956641 -1.01 0.239427
v -0.958404 -1.01 0.232152
v -0.95323 -1.01 0.238251
v -0.956898 -1.01 0.231179
v -0.967796 -1.01 0.21928
v -0.964781 -1.01 0.213284
v -0.953447 -1.01 0.22129
v -0.955248 -1.01 0.202783
v -0.957087 -1.01 0.200287
v -0.955389 -1.01 0.195475
v -0.958151 -1.01 0.199247
v -0.958123 -1.01 0.192734
v -0.96055 -1.01 0.197628
v -0.960517 -1.01 0.191184
v -0.963126 -1.01 0.196692
v -0.963926 -1.01 0.189903
v -0.966306 -1.01 0.196336
v -0.968507 -1.01 0.18937
v -0.969174 -1.01 0.196659
v -0.973586 -1.01 0.18996
v -0.971095 -1.01 0.197364
v -0.976842 -1.01 0.191187
v -0.972787 -1.01 0.19852
v -0.979701 -1.01 0.193182
v -0.973509 -1.01 0.199245
v -0.953741 -1.01 0.225035
v -0.94578 -1.01 0.228786
v -0.954618 -1.01 0.228063
v -0.947175 -1.01 0.232432
v -0.955615 -1.01 0.229813
v -0.948969 -1.01 0.235058
v -0.950523 -1.01 0.236554
v -0.979129 -1.01 0.235535
v -0.979129 -1.01 0.227286
v -0.977387 -1.01 0.236545
v -0.973276 -1.01 0.230966
v -0.971075 -1.01 0.238994
v -0.967958 -1.01 0.232691
v -0.962459 -1.01 0.240041
v -0.963256 -1.01 0.233144
v -0.960372 -1.01 0.232841
v -0.972995 -1.01 0.210304
v -0.978211 -1.01 0.215584
v -0.974011 -1.01 0.209045
v -0.980695 -1.01 0.213289
v -0.974756 -1.01 0.207461
v -0.982446 -1.01 0.21053
v -0.975176 -1.01 0.205517
v -0.983473 -1.01 0.207418
v -0.975248 -1.01 0.204169
v -0.98386 -1.01 0.203476
v -0.975032 -1.01 0.20222
v -0.983432 -1.01 0.199584
v -0.974474 -1.01 0.200677
v -0.982398 -1.01 0.19672
v -0.980629 -1.01 0.19412
v -0.972995 -1.0 0.210304
v -0.972132 -1.0 0.210996
v -0.970286 -1.0 0.211951
v -0.964781 -1.0 0.213284
v -0.975248 -1.0 0.204169
v -0.975176 -1.0 0.205517
v -0.974756 -1.0 0.207461
v -0.974011 -1.0 0.209045
v -0.972787 -1.0 0.19852
v -0.973509 -1.0 0.199245
v -0.974474 -1.0 0.200677
v -0.975032 -1.0 0.20222
v -0.966306 -1.0 0.196336
v -0.969174 -1.0 0.196659
v -0.971095 -1.0 0.197364
v -0.957087 -1.0 0.200287
v -0.958151 -1.0 0.199247
v -0.96055 -1.0 0.197628
v -0.963126 -1.0 0.196692
v -0.953447 -1.0 0.210165
v -0.953456 -1.0 0.209601
v -0.954002 -1.0 0.205813
v -0.955248 -1.0 0.202783
v -0.953447 -1.0 0.214809
v -0.933449 -1.01 0.20098
v -0.929772 -1.01 0.198745
v -0.919482 -1.01 0.196302
v -0.92443 -1.01 0.196837
v -0.933449 -1.01 0.192212
v -0.927471 -1.01 0.190113
v -0.920314 -1.01 0.18937
v -0.912663 -1.01 0.190276
v -0.908192 -1.01 0.191997
v -0.906208 -1.01 0.193217
v -0.903777 -1.01 0.195343
v -0.902194 -1.01 0.197583
v -0.901152 -1.01 0.200274
v -0.900749 -1.01 0.203684
v -0.901101 -1.01 0.20685
v -0.902007 -1.01 0.209353
v -0.903591 -1.01 0.21169
v -0.905616 -1.01 0.213496
v -0.911255 -1.01 0.216633
v -0.914543 -1.01 0.217963
v -0.919798 -1.01 0.220251
v -0.922792 -1.01 0.222122
v -0.92362 -1.01 0.223034
v -0.924232 -1.01 0.224179
v -0.924569 -1.01 0.225498
v -0.924646 -1.01 0.226628
v -0.924492 -1.01 0.227982
v -0.924073 -1.01 0.229128
v -0.923345 -1.01 0.230209
v -0.922064 -1.01 0.231341
v -0.92016 -1.01 0.232354
v -0.917888 -1.01 0.232955
v -0.915375 -1.01 0.233144
v -0.910226 -1.01 0.232607
v -0.905396 -1.01 0.230945
v -0.903071 -1.01 0.229643
v -0.903071 -1.01 0.237892
v -0.908586 -1.01 0.239512
v -0.914543 -1.01 0.240041
v -0.921304 -1.01 0.239234
v -0.925857 -1.01 0.237482
v -0.927956 -1.01 0.236194
v -0.930481 -1.01 0.233922
v -0.932056 -1.01 0.231626
v -0.933065 -1.01 0.228892
v -0.933397 -1.01 0.225865
v -0.933031 -1.01 0.222561
v -0.932093 -1.01 0.219969
v -0.930989 -1.01 0.218206
v -0.920539 -1.01 0.211794
v -0.9256 -1.01 0.214114
v -0.929599 -1.01 0.216753
v -0.914963 -1.01 0.209459
v -0.911649 -1.01 0.207462
v -0.910591 -1.01 0.20636
v -0.909935 -1.01 0.205234
v -0.909549 -1.01 0.203908
v -0.909466 -1.01 0.202852
v -0.909642 -1.01 0.201232
v -0.910073 -1.01 0.200025
v -0.910814 -1.01 0.198928
v -0.911789 -1.01 0.198063
v -0.912563 -1.01 0.197594
v -0.914754 -1.01 0.196792
v -0.919107 -1.01 0.196304
v -0.858656 -1.01 0.238932
v -0.849853 -1.01 0.238932
v -0.871878 -1.01 0.202471
v -0.872528 -1.01 0.200214
v -0.872918 -1.01 0.198554
v -0.873143 -1.01 0.198554
v -0.874183 -1.01 0.20254
v -0.886834 -1.01 0.238932
v -0.89633 -1.01 0.238932
v -0.877337 -1.01 0.190618
v -0.881063 -1.01 0.181814
v -0.88277 -1.01 0.178702
v -0.884352 -1.01 0.176953
v -0.885708 -1.01 0.175997
v -0.887549 -1.01 0.175258
v -0.889762 -1.01 0.174986
v -0.892843 -1.01 0.175388
v -0.89458 -1.01 0.175957
v -0.89458 -1.01 0.168401
v -0.890978 -1.01 0.167775
v -0.889104 -1.01 0.167708
v -0.885673 -1.01 0.168103
v -0.882322 -1.01 0.169379
v -0.879356 -1.01 0.171452
v -0.878779 -1.01 0.171981
v -0.875672 -1.01 0.175712
v -0.871826 -1.01 0.183201
v -0.804242 -1.01 0.198242
v -0.804242 -1.01 0.190514
v -0.831952 -1.01 0.198242
v -0.831952 -1.01 0.221048
v -0.807708 -1.01 0.221048
v -0.807708 -1.01 0.228811
v -0.831952 -1.01 0.228811
v -0.831952 -1.01 0.250508
v -0.805784 -1.01 0.250508
v -0.805784 -1.01 0.258306
v -0.840703 -1.01 0.258306
v -0.840703 -1.01 0.190514
v -0.746466 -1.01 0.20001
v -0.753455 -1.01 0.204596
v -0.753525 -1.01 0.194945
v -0.757821 -1.01 0.201552
v -0.761247 -1.01 0.191923
v -0.763409 -1.01 0.199375
v -0.772789 -1.01 0.190514
v -0.772841 -1.01 0.198242
v -0.791436 -1.01 0.190514
v -0.782685 -1.01 0.198242
v -0.791436 -1.01 0.258306
v -0.782685 -1.01 0.250508
v -0.772096 -1.01 0.258306
v -0.772443 -1.01 0.250508
v -0.76986 -1.01 0.250432
v -0.761746 -1.01 0.257163
v -0.762766 -1.01 0.2493
v -0.753564 -1.01 0.254174
v -0.75705 -1.01 0.247013
v -0.746466 -1.01 0.249329
v -0.752878 -1.01 0.24413
v -0.74409 -1.01 0.247006
v -0.751007 -1.01 0.242289
v -0.73989 -1.01 0.2411
v -0.748375 -1.01 0.238495
v -0.737377 -1.01 0.234639
v -0.746459 -1.01 0.233554
v -0.736242 -1.01 0.225276
v -0.745444 -1.01 0.225033
v -0.736445 -1.01 0.220962
v -0.745754 -1.01 0.220017
v -0.738087 -1.01 0.213024
v -0.747176 -1.01 0.213967
v -0.741424 -1.01 0.206012
v -0.749612 -1.01 0.209031
v -0.752687 -1.01 0.205313
v -0.772443 -1.0 0.250508
v -0.782685 -1.0 0.250508
v -0.782685 -1.0 0.198242
v -0.772841 -1.0 0.198242
v -0.752687 -1.0 0.205313
v -0.753455 -1.0 0.204596
v -0.757821 -1.0 0.201552
v -0.763409 -1.0 0.199375
v -0.745444 -1.0 0.225033
v -0.745754 -1.0 0.220017
v -0.747176 -1.0 0.213967
v -0.749612 -1.0 0.209031
v -0.752878 -1.0 0.24413
v -0.751007 -1.0 0.242289
v -0.748375 -1.0 0.238495
v -0.746459 -1.0 0.233554
v -0.76986 -1.0 0.250432
v -0.762766 -1.0 0.2493
v -0.75705 -1.0 0.247013
v -0.713523 -1.01 0.216715
v -0.716296 -1.01 0.209056
v -0.69077 -1.01 0.216715
v -0.688066 -1.01 0.209056
v -0.703386 -1.01 0.244893
v -0.706661 -1.01 0.258306
v -0.732481 -1.01 0.190514
v -0.722812 -1.01 0.190514
v -0.702799 -1.01 0.246916
v -0.702277 -1.01 0.249641
v -0.697303 -1.01 0.258306
v -0.702069 -1.01 0.249641
v -0.701521 -1.01 0.246773
v -0.701011 -1.01 0.244893
v -0.671482 -1.01 0.190514
v -0.681152 -1.01 0.190514
v -0.713523 -1.0 0.216715
v -0.69077 -1.0 0.216715
v -0.701011 -1.0 0.244893
v -0.702069 -1.0 0.249641
v -0.701521 -1.0 0.246773
v -0.702277 -1.0 0.249641
v -0.703386 -1.0 0.244893
v -0.702799 -1.0 0.246916
v -1.327851 -1.01 0.18091
v -1.320685 -1.01 0.172063
v -1.332197 -1.01 0.223536
v -1.158242 -1.01 0.308255
v -1.155304 -1.01 0.294871
v -1.131687 -1.01 0.320899
v -1.340543 -1.01 0.307317
v -1.329795 -1.01 0.313012
v -1.331702 -1.01 0.342822
v -1.247452 -1.01 0.17904
v -1.241757 -1.01 0.189788
v -1.238947 -1.01 0.201689
v -1.299915 -1.01 0.192199
v -1.296076 -1.01 0.189536
v -1.311258 -1.01 0.164954
v -1.291623 -1.01 0.187877
v -1.313399 -1.01 0.344999
v -1.17121 -1.01 0.247154
v -1.186152 -1.01 0.2727
v -1.23869 -1.01 0.211486
v -1.25074 -1.01 0.23896
v -1.23869 -1.01 0.206666
v -1.264482 -1.01 0.164028
v -1.254881 -1.01 0.170706
v -1.269996 -1.01 0.213379
v -1.268776 -1.01 0.208965
v -1.26867 -1.01 0.204289
v -1.269755 -1.01 0.199645
v -1.271946 -1.01 0.195463
v -1.342691 -1.01 0.229998
v -1.339681 -1.01 0.193382
v -1.332679 -1.01 0.191242
v -1.151448 -1.01 0.294871
v -1.14229 -1.01 0.293743
v -1.129295 -1.01 0.320095
v -1.133877 -1.01 0.290505
v -1.114954 -1.01 0.31297
v -1.101886 -1.01 0.301908
v -1.256263 -1.01 0.34646
v -1.281105 -1.01 0.365243
v -1.269207 -1.01 0.337002
v -1.292432 -1.01 0.355543
v -1.280015 -1.01 0.324085
v -1.302313 -1.01 0.344035
v -1.287371 -1.01 0.308849
v -1.317894 -1.01 0.315822
v -1.312917 -1.01 0.316079
v -1.307856 -1.01 0.344698
v -1.301666 -1.01 0.314692
v -1.290857 -1.01 0.310753
v -1.300139 -1.01 0.160279
v -1.288759 -1.01 0.158502
v -1.287371 -1.01 0.187386
v -1.286889 -1.01 0.158467
v -1.282998 -1.01 0.187895
v -1.275233 -1.01 0.159901
v -1.278781 -1.01 0.189457
v -1.275062 -1.01 0.191985
v -1.101803 -1.01 0.211968
v -1.124291 -1.01 0.23108
v -1.114926 -1.01 0.200861
v -1.131422 -1.01 0.225264
v -1.129634 -1.01 0.193667
v -1.139929 -1.01 0.22133
v -1.145664 -1.01 0.190278
v -1.148556 -1.01 0.21968
v -1.174102 -1.01 0.190278
v -1.170246 -1.01 0.21968
v -1.176818 -1.01 0.190716
v -1.359682 -1.01 0.279536
v -1.391308 -1.01 0.27214
v -1.361117 -1.01 0.26788
v -1.391482 -1.01 0.266916
v -1.360546 -1.01 0.26049
v -1.389314 -1.01 0.248705
v -1.357099 -1.01 0.248689
v -1.382577 -1.01 0.230723
v -1.351335 -1.01 0.238874
v -1.371238 -1.01 0.214378
v -1.356986 -1.01 0.202076
v -1.302978 -1.01 0.195705
v -1.30502 -1.01 0.199688
v -1.306059 -1.01 0.204134
v -1.126401 -1.01 0.285286
v -1.120818 -1.01 0.279049
v -1.092054 -1.01 0.288192
v -1.116342 -1.01 0.270728
v -1.086168 -1.01 0.27347
v -1.114085 -1.01 0.261469
v -1.083969 -1.01 0.257758
v -1.113853 -1.01 0.257276
v -1.086186 -1.01 0.240537
v -1.115008 -1.01 0.247898
v -1.092244 -1.01 0.22528
v -1.118329 -1.01 0.239307
v -1.123631 -1.01 0.231788
v -1.349603 -1.01 0.336061
v -1.365029 -1.01 0.325427
v -1.348877 -1.01 0.299888
v -1.368829 -1.01 0.321863
v -1.355556 -1.01 0.290287
v -1.380112 -1.01 0.307512
v -1.38793 -1.01 0.290237
v -1.16567 -1.01 0.32379
v -1.140394 -1.01 0.33843
v -1.176534 -1.01 0.336785
v -1.155713 -1.01 0.357095
v -1.177794 -1.01 0.337933
v -1.157714 -1.01 0.358977
v -1.191338 -1.01 0.347327
v -1.179215 -1.01 0.373432
v -1.206453 -1.01 0.353115
v -1.203403 -1.01 0.381954
v -1.222784 -1.01 0.355121
v -1.223266 -1.01 0.384041
v -1.240515 -1.01 0.352839
v -1.243819 -1.01 0.381871
v -1.266258 -1.01 0.374099
v -1.306059 -1.01 0.208235
v -1.30495 -1.01 0.212867
v -1.326861 -1.01 0.233911
v -1.302713 -1.01 0.217045
v -1.318889 -1.01 0.24302
v -1.299759 -1.01 0.220308
v -1.309032 -1.01 0.249864
v -1.295942 -1.01 0.222902
v -1.298384 -1.01 0.253933
v -1.291707 -1.01 0.224472
v -1.286889 -1.01 0.255348
v -1.287371 -1.01 0.224982
v -1.281015 -1.01 0.254999
v -1.283874 -1.01 0.224652
v -1.269381 -1.01 0.252108
v -1.279351 -1.01 0.223174
v -1.259155 -1.01 0.246624
v -1.275394 -1.01 0.220656
v -1.272199 -1.01 0.217279
v -1.172669 -1.01 0.220128
v -1.184252 -1.01 0.195334
v -1.183132 -1.01 0.194193
v -1.171223 -1.01 0.219808
v -1.180006 -1.01 0.191971
v -1.18808 -1.01 0.20522
v -1.187623 -1.01 0.20163
v -1.186353 -1.01 0.198362
v -1.176873 -1.01 0.219683
v -1.180181 -1.01 0.218376
v -1.187958 -1.01 0.207123
v -1.183145 -1.01 0.216276
v -1.185136 -1.01 0.214079
v -1.18699 -1.01 0.210791
v -1.173138 -1.01 0.220162
v -1.287371 -1.0 0.224982
v -1.283874 -1.0 0.224652
v -1.279351 -1.0 0.223174
v -1.275394 -1.0 0.220656
v -1.272199 -1.0 0.217279
v -1.269996 -1.0 0.213379
v -1.268776 -1.0 0.208965
v -1.26867 -1.0 0.204289
v -1.269755 -1.0 0.199645
v -1.271946 -1.0 0.195463
v -1.275062 -1.0 0.191985
v -1.278781 -1.0 0.189457
v -1.282998 -1.0 0.187895
v -1.287371 -1.0 0.187386
v -1.291623 -1.0 0.187877
v -1.296076 -1.0 0.189536
v -1.299915 -1.0 0.192199
v -1.302978 -1.0 0.195705
v -1.30502 -1.0 0.199688
v -1.306059 -1.0 0.204134
v -1.306059 -1.0 0.208235
v -1.30495 -1.0 0.212867
v -1.302713 -1.0 0.217045
v -1.299759 -1.0 0.220308
v -1.295942 -1.0 0.222902
v -1.291707 -1.0 0.224472
usemtl 1
f 1// 2// 3//
f 4// 5// 6//
f 7// 8// 9//
f 10// 11// 12//
f 13// 14// 15//
f 16// 17// 18//
f 19// 20// 21//
f 22// 23// 24//
f 24// 23// 4//
f 25// 26// 24//
f 24// 26// 27//
f 24// 27// 28//
f 28// 29// 24//
f 24// 29// 30//
f 24// 30// 22//
f 31// 32// 33//
f 33// 32// 34//
f 33// 34// 35//
f 35// 34// 36//
f 35// 36// 37//
f 38// 39// 40//
f 41// 42// 38//
f 38// 42// 43//
f 38// 43// 44//
f 31// 33// 45//
f 45// 33// 38//
f 45// 38// 46//
f 46// 38// 40//
f 46// 40// 47//
f 47// 40// 48//
f 47// 48// 49//
f 44// 50// 38//
f 38// 50// 51//
f 38// 51// 39//
f 52// 53// 54//
f 54// 53// 55//
f 54// 55// 56//
f 56// 57// 54//
f 54// 57// 58//
f 54// 58// 59//
f 59// 58// 60//
f 60// 61// 59//
f 59// 61// 62//
f 59// 62// 41//
f 41// 62// 63//
f 41// 63// 42//
f 64// 65// 66//
f 66// 65// 67//
f 66// 67// 54//
f 54// 67// 68//
f 54// 68// 52//
f 69// 70// 71//
f 71// 70// 72//
f 71// 72// 73//
f 69// 74// 70//
f 70// 74// 75//
f 70// 75// 66//
f 66// 75// 76//
f 66// 76// 64//
f 1// 77// 2//
f 2// 77// 78//
f 2// 78// 79//
f 79// 80// 2//
f 2// 80// 81//
f 2// 81// 73//
f 82// 83// 5//
f 84// 85// 86//
f 87// 88// 1//
f 89// 90// 91//
f 91// 90// 92//
f 84// 86// 93//
f 87// 1// 94//
f 95// 96// 90//
f 90// 96// 97//
f 90// 97// 98//
f 5// 83// 1//
f 1// 83// 99//
f 1// 99// 94//
f 85// 100// 86//
f 86// 100// 101//
f 86// 101// 102//
f 103// 104// 105//
f 105// 104// 106//
f 105// 106// 107//
f 108// 98// 109//
f 109// 98// 110//
f 109// 110// 105//
f 105// 110// 111//
f 105// 111// 103//
f 108// 112// 98//
f 98// 112// 113//
f 98// 113// 90//
f 90// 113// 114//
f 90// 114// 92//
f 115// 116// 117//
f 117// 116// 118//
f 117// 118// 86//
f 86// 118// 119//
f 86// 119// 93//
f 120// 121// 86//
f 86// 121// 122//
f 86// 122// 90//
f 90// 122// 123//
f 90// 123// 95//
f 124// 125// 77//
f 77// 125// 126//
f 77// 126// 127//
f 127// 128// 77//
f 77// 128// 129//
f 77// 129// 130//
f 130// 129// 115//
f 130// 115// 131//
f 131// 115// 117//
f 88// 132// 1//
f 1// 132// 133//
f 1// 133// 77//
f 77// 133// 134//
f 77// 134// 124//
f 102// 135// 86//
f 86// 135// 136//
f 86// 136// 137//
f 137// 138// 86//
f 86// 138// 139//
f 86// 139// 120//
f 140// 141// 142//
f 142// 98// 140//
f 140// 98// 97//
f 140// 97// 143//
f 143// 97// 144//
f 144// 145// 143//
f 143// 145// 146//
f 143// 146// 147//
f 148// 149// 150//
f 149// 151// 150//
f 150// 151// 152//
f 150// 152// 153//
f 154// 150// 155//
f 141// 140// 154//
f 154// 140// 156//
f 154// 156// 150//
f 150// 156// 157//
f 150// 157// 148//
f 155// 158// 154//
f 154// 158// 159//
f 154// 159// 160//
f 153// 152// 161//
f 161// 152// 162//
f 161// 162// 163//
f 163// 162// 164//
f 163// 164// 165//
f 166// 167// 160//
f 160// 167// 168//
f 160// 168// 154//
f 23// 169// 4//
f 4// 169// 170//
f 4// 170// 5//
f 5// 170// 171//
f 5// 171// 82//
f 172// 173// 174//
f 174// 173// 175//
f 172// 176// 177//
f 177// 176// 178//
f 179// 180// 181//
f 181// 180// 182//
f 182// 180// 183//
f 183// 180// 172//
f 183// 172// 184//
f 184// 172// 177//
f 184// 177// 21//
f 21// 177// 185//
f 21// 185// 19//
f 173// 186// 175//
f 175// 186// 187//
f 175// 187// 188//
f 188// 187// 189//
f 190// 191// 192//
f 192// 191// 193//
f 194// 195// 196//
f 197// 198// 199//
f 199// 198// 200//
f 199// 200// 17//
f 201// 202// 203//
f 203// 202// 204//
f 203// 204// 200//
f 190// 205// 191//
f 191// 205// 206//
f 191// 206// 207//
f 207// 206// 196//
f 207// 196// 208//
f 208// 196// 195//
f 209// 210// 211//
f 211// 210// 212//
f 211// 212// 213//
f 214// 215// 216//
f 216// 215// 217//
f 213// 218// 211//
f 211// 218// 219//
f 211// 219// 220//
f 221// 222// 223//
f 224// 225// 203//
f 203// 225// 226//
f 203// 226// 201//
f 220// 227// 211//
f 211// 227// 228//
f 211// 228// 215//
f 215// 228// 193//
f 215// 193// 217//
f 217// 193// 191//
f 198// 229// 230//
f 230// 229// 231//
f 232// 233// 196//
f 196// 233// 234//
f 196// 234// 235//
f 221// 223// 197//
f 214// 236// 215//
f 215// 236// 237//
f 215// 237// 238//
f 231// 239// 230//
f 230// 239// 240//
f 230// 240// 241//
f 241// 240// 242//
f 241// 242// 243//
f 243// 242// 244//
f 223// 245// 197//
f 197// 245// 246//
f 197// 246// 198//
f 198// 246// 247//
f 198// 247// 229//
f 235// 248// 196//
f 196// 248// 249//
f 196// 249// 194//
f 16// 18// 250//
f 250// 18// 251//
f 250// 251// 252//
f 253// 254// 15//
f 242// 255// 256//
f 256// 255// 257//
f 256// 257// 258//
f 259// 260// 15//
f 15// 260// 261//
f 258// 262// 256//
f 256// 262// 263//
f 256// 263// 264//
f 264// 263// 265//
f 264// 265// 253//
f 266// 267// 254//
f 254// 267// 268//
f 254// 268// 15//
f 15// 268// 269//
f 15// 269// 259//
f 261// 270// 15//
f 15// 270// 271//
f 15// 271// 13//
f 272// 273// 274//
f 274// 273// 275//
f 274// 275// 276//
f 274// 277// 272//
f 272// 277// 278//
f 272// 278// 279//
f 279// 280// 272//
f 272// 280// 281//
f 272// 281// 282//
f 282// 281// 283//
f 282// 283// 284//
f 284// 283// 285//
f 284// 285// 254//
f 254// 285// 286//
f 254// 286// 266//
f 287// 288// 276//
f 276// 288// 289//
f 276// 289// 274//
f 290// 291// 222//
f 222// 291// 292//
f 222// 292// 223//
f 290// 293// 291//
f 291// 293// 294//
f 291// 294// 295//
f 295// 294// 296//
f 295// 297// 298//
f 296// 299// 295//
f 295// 299// 300//
f 295// 300// 301//
f 301// 302// 295//
f 295// 302// 303//
f 295// 303// 297//
f 298// 304// 295//
f 295// 304// 305//
f 295// 305// 306//
f 307// 308// 309//
f 309// 308// 310//
f 309// 310// 311//
f 312// 313// 314//
f 314// 313// 315//
f 308// 316// 310//
f 310// 316// 317//
f 310// 317// 318//
f 318// 317// 319//
f 318// 319// 320//
f 320// 319// 321//
f 320// 321// 315//
f 315// 321// 322//
f 315// 322// 314//
f 323// 324// 325//
f 326// 327// 328//
f 323// 325// 329//
f 329// 325// 330//
f 329// 330// 328//
f 328// 330// 331//
f 328// 331// 326//
f 332// 333// 318//
f 334// 335// 320//
f 333// 336// 318//
f 318// 336// 337//
f 318// 337// 323//
f 323// 337// 338//
f 323// 338// 324//
f 334// 320// 339//
f 326// 340// 327//
f 327// 340// 341//
f 327// 341// 320//
f 320// 341// 342//
f 320// 342// 339//
f 335// 343// 320//
f 320// 343// 344//
f 320// 344// 318//
f 318// 344// 345//
f 318// 345// 332//
f 328// 346// 347//
f 347// 346// 348//
f 349// 350// 351//
f 351// 350// 352//
f 352// 350// 353//
f 353// 350// 354//
f 353// 354// 355//
f 355// 354// 356//
f 355// 356// 12//
f 12// 356// 357//
f 12// 357// 10//
f 358// 359// 360//
f 347// 356// 328//
f 328// 356// 354//
f 328// 354// 329//
f 329// 354// 361//
f 329// 361// 360//
f 360// 361// 362//
f 360// 362// 358//
f 348// 346// 363//
f 363// 346// 364//
f 363// 364// 358//
f 365// 366// 364//
f 364// 366// 367//
f 364// 367// 368//
f 369// 370// 359//
f 370// 371// 359//
f 359// 371// 372//
f 359// 372// 373//
f 374// 375// 369//
f 358// 364// 359//
f 359// 364// 368//
f 359// 368// 369//
f 369// 368// 376//
f 369// 376// 374//
f 375// 377// 369//
f 369// 377// 378//
f 369// 378// 379//
f 379// 380// 369//
f 369// 380// 381//
f 369// 381// 382//
f 382// 383// 369//
f 369// 383// 384//
f 369// 384// 385//
f 386// 387// 385//
f 385// 387// 388//
f 385// 388// 369//
f 389// 390// 391//
f 386// 392// 387//
f 387// 392// 393//
f 387// 393// 391//
f 391// 393// 394//
f 391// 394// 389//
f 395// 396// 365//
f 9// 397// 398//
f 398// 399// 9//
f 9// 399// 400//
f 9// 400// 7//
f 401// 402// 403//
f 404// 405// 406//
f 406// 405// 407//
f 406// 407// 9//
f 9// 407// 408//
f 9// 408// 397//
f 409// 410// 411//
f 411// 410// 412//
f 411// 412// 413//
f 414// 415// 215//
f 215// 415// 416//
f 215// 416// 411//
f 411// 416// 417//
f 411// 417// 409//
f 373// 414// 256//
f 256// 414// 215//
f 256// 215// 242//
f 242// 215// 238//
f 242// 238// 244//
f 17// 200// 18//
f 18// 200// 204//
f 18// 204// 251//
f 251// 204// 418//
f 251// 418// 209//
f 209// 418// 419//
f 209// 419// 210//
f 420// 421// 422//
f 178// 176// 423//
f 423// 176// 424//
f 423// 424// 189//
f 189// 424// 422//
f 189// 422// 188//
f 188// 422// 421//
f 188// 421// 425//
f 426// 427// 428//
f 422// 429// 420//
f 420// 429// 430//
f 420// 430// 431//
f 431// 430// 426//
f 431// 426// 432//
f 432// 426// 428//
f 433// 434// 15//
f 15// 434// 435//
f 253// 15// 264//
f 264// 15// 435//
f 264// 435// 429//
f 429// 435// 436//
f 429// 436// 430//
f 437// 434// 438//
f 438// 434// 433//
f 438// 433// 439//
f 440// 441// 442//
f 443// 444// 433//
f 433// 444// 445//
f 433// 445// 439//
f 252// 251// 14//
f 14// 251// 440//
f 14// 440// 15//
f 15// 440// 442//
f 15// 442// 433//
f 433// 442// 446//
f 433// 446// 447//
f 448// 449// 450//
f 450// 449// 451//
f 450// 451// 440//
f 440// 451// 452//
f 440// 452// 441//
f 447// 453// 433//
f 433// 453// 454//
f 433// 454// 443//
f 455// 456// 457//
f 455// 457// 425//
f 456// 458// 457//
f 457// 458// 459//
f 457// 459// 450//
f 450// 459// 460//
f 450// 460// 448//
f 461// 70// 462//
f 462// 70// 66//
f 462// 66// 463//
f 463// 66// 54//
f 463// 54// 464//
f 464// 54// 59//
f 464// 59// 465//
f 465// 59// 41//
f 465// 41// 466//
f 466// 41// 38//
f 466// 38// 467//
f 467// 38// 33//
f 468// 469// 403//
f 403// 469// 470//
f 471// 406// 24//
f 402// 404// 403//
f 403// 404// 406//
f 403// 406// 468//
f 468// 406// 471//
f 468// 471// 472//
f 6// 403// 4//
f 4// 403// 470//
f 4// 470// 24//
f 24// 470// 473//
f 24// 473// 471//
f 474// 475// 6//
f 474// 476// 475//
f 475// 476// 477//
f 475// 477// 478//
f 479// 480// 481//
f 481// 480// 476//
f 481// 476// 482//
f 482// 476// 474//
f 482// 474// 483//
f 483// 474// 484//
f 3// 475// 1//
f 1// 475// 478//
f 1// 478// 5//
f 5// 478// 485//
f 5// 485// 6//
f 6// 485// 486//
f 6// 486// 474//
f 396// 395// 8//
f 8// 395// 487//
f 8// 487// 9//
f 9// 487// 488//
f 9// 488// 406//
f 406// 488// 35//
f 406// 35// 24//
f 24// 35// 37//
f 24// 37// 25//
f 3// 209// 475//
f 475// 209// 211//
f 475// 211// 6//
f 6// 211// 215//
f 6// 215// 403//
f 403// 215// 411//
f 403// 411// 401//
f 401// 411// 413//
f 373// 256// 359//
f 359// 256// 264//
f 359// 264// 360//
f 360// 264// 429//
f 360// 429// 329//
f 329// 429// 422//
f 329// 422// 323//
f 323// 422// 424//
f 323// 424// 318//
f 318// 424// 176//
f 318// 176// 310//
f 365// 364// 395//
f 395// 364// 346//
f 395// 346// 489//
f 489// 346// 328//
f 489// 328// 490//
f 490// 328// 327//
f 490// 327// 491//
f 491// 327// 320//
f 491// 320// 492//
f 492// 320// 315//
f 492// 315// 493//
f 493// 315// 313//
f 493// 313// 494//
f 172// 174// 176//
f 176// 174// 495//
f 176// 495// 496//
f 497// 498// 174//
f 174// 498// 499//
f 174// 499// 495//
f 500// 501// 502//
f 502// 501// 503//
f 502// 503// 174//
f 174// 503// 504//
f 174// 504// 497//
f 497// 504// 505//
f 497// 505// 506//
f 314// 311// 312//
f 312// 311// 310//
f 312// 310// 500//
f 500// 310// 176//
f 500// 176// 501//
f 501// 176// 507//
f 498// 508// 509//
f 509// 510// 498//
f 498// 510// 511//
f 498// 511// 499//
f 512// 513// 507//
f 507// 513// 514//
f 507// 514// 515//
f 496// 516// 176//
f 176// 516// 517//
f 176// 517// 507//
f 507// 517// 518//
f 507// 518// 512//
f 515// 519// 507//
f 507// 519// 520//
f 507// 520// 498//
f 498// 520// 521//
f 498// 521// 508//
f 425// 457// 188//
f 188// 457// 522//
f 188// 522// 175//
f 175// 522// 523//
f 175// 523// 174//
f 174// 523// 524//
f 174// 524// 502//
f 73// 72// 2//
f 2// 72// 525//
f 2// 525// 3//
f 3// 525// 526//
f 3// 526// 209//
f 209// 526// 527//
f 209// 527// 251//
f 251// 527// 528//
f 251// 528// 440//
f 440// 528// 529//
f 440// 529// 450//
f 450// 529// 530//
f 450// 530// 457//
f 457// 530// 531//
f 457// 531// 522//
f 522// 531// 532//
f 522// 532// 523//
f 523// 532// 533//
f 523// 533// 524//
f 534// 461// 535//
f 536// 537// 538//
f 539// 540// 541//
f 541// 540// 542//
f 541// 542// 543//
f 543// 542// 544//
f 543// 544// 545//
f 545// 544// 546//
f 547// 538// 548//
f 548// 538// 549//
f 550// 551// 552//
f 552// 551// 553//
f 552// 553// 554//
f 554// 553// 555//
f 556// 557// 558//
f 538// 537// 559//
f 558// 557// 560//
f 560// 557// 561//
f 560// 561// 534//
f 562// 540// 563//
f 563// 540// 539//
f 563// 539// 564//
f 565// 566// 567//
f 567// 566// 568//
f 567// 568// 569//
f 570// 571// 572//
f 572// 571// 573//
f 573// 571// 574//
f 573// 574// 575//
f 575// 574// 576//
f 575// 576// 577//
f 576// 578// 577//
f 577// 578// 579//
f 577// 579// 552//
f 552// 579// 580//
f 552// 580// 550//
f 550// 580// 539//
f 550// 539// 581//
f 581// 539// 541//
f 582// 583// 584//
f 584// 583// 533//
f 533// 583// 585//
f 533// 585// 586//
f 586// 585// 587//
f 586// 587// 588//
f 587// 589// 588//
f 588// 589// 590//
f 588// 590// 544//
f 544// 590// 547//
f 544// 547// 546//
f 546// 547// 548//
f 561// 591// 534//
f 534// 591// 536//
f 534// 536// 592//
f 592// 536// 538//
f 592// 538// 584//
f 584// 538// 547//
f 584// 547// 582//
f 582// 547// 590//
f 593// 594// 595//
f 594// 593// 596//
f 596// 593// 588//
f 596// 588// 597//
f 597// 588// 544//
f 597// 544// 595//
f 595// 544// 542//
f 595// 542// 593//
f 598// 599// 558//
f 558// 599// 600//
f 537// 556// 559//
f 559// 556// 558//
f 559// 558// 601//
f 601// 558// 600//
f 549// 538// 555//
f 555// 538// 559//
f 555// 559// 554//
f 554// 559// 601//
f 554// 601// 602//
f 565// 603// 604//
f 603// 565// 605//
f 605// 565// 593//
f 605// 593// 606//
f 606// 593// 542//
f 606// 542// 604//
f 604// 542// 540//
f 604// 540// 565//
f 565// 540// 562//
f 565// 562// 566//
f 598// 607// 608//
f 607// 598// 609//
f 609// 598// 577//
f 609// 577// 610//
f 610// 577// 552//
f 610// 552// 608//
f 608// 552// 554//
f 608// 554// 598//
f 598// 554// 602//
f 598// 602// 599//
f 579// 570// 580//
f 580// 570// 572//
f 580// 572// 539//
f 539// 572// 611//
f 539// 611// 564//
f 564// 611// 569//
f 564// 569// 612//
f 612// 569// 568//
f 534// 535// 560//
f 560// 535// 613//
f 560// 613// 558//
f 558// 613// 614//
f 558// 614// 598//
f 598// 614// 615//
f 598// 615// 577//
f 577// 615// 616//
f 577// 616// 575//
f 575// 616// 617//
f 575// 617// 573//
f 567// 569// 618//
f 494// 533// 586//
f 586// 588// 494//
f 494// 588// 593//
f 494// 593// 618//
f 618// 593// 565//
f 618// 565// 567//
f 573// 617// 619//
f 618// 569// 611//
f 618// 611// 619//
f 619// 611// 572//
f 619// 572// 573//
f 617// 616// 619//
f 619// 616// 615//
f 619// 615// 467//
f 467// 615// 614//
f 614// 613// 467//
f 467// 613// 535//
f 467// 535// 461//
f 618// 620// 494//
f 494// 620// 621//
f 494// 621// 622//
f 623// 624// 467//
f 467// 624// 625//
f 467// 625// 619//
f 625// 626// 619//
f 619// 626// 627//
f 619// 627// 628//
f 622// 629// 494//
f 494// 629// 630//
f 494// 630// 467//
f 467// 630// 631//
f 467// 631// 632//
f 628// 633// 619//
f 619// 633// 634//
f 619// 634// 635//
f 635// 636// 619//
f 619// 636// 637//
f 619// 637// 618//
f 618// 637// 638//
f 618// 638// 639//
f 639// 640// 618//
f 618// 640// 641//
f 618// 641// 620//
f 632// 642// 467//
f 467// 642// 643//
f 467// 643// 623//
usemtl 2
f 644// 620// 645//
f 645// 620// 641//
f 645// 641// 646//
f 646// 641// 640//
f 646// 640// 647//
f 647// 640// 639//
f 647// 639// 648//
f 648// 639// 638//
f 648// 638// 649//
f 649// 638// 637//
f 649// 637// 650//
f 650// 637// 636//
f 650// 636// 651//
f 651// 636// 635//
f 651// 635// 652//
f 652// 635// 634//
f 652// 634// 653//
f 653// 634// 633//
f 653// 633// 654//
f 654// 633// 628//
f 654// 628// 655//
f 655// 628// 627//
f 655// 627// 656//
f 656// 627// 626//
f 656// 626// 657//
f 657// 626// 625//
f 657// 625// 658//
f 658// 625// 624//
f 658// 624// 659//
f 659// 624// 623//
f 659// 623// 660//
f 660// 623// 643//
f 660// 643// 661//
f 661// 643// 642//
f 661// 642// 662//
f 662// 642// 632//
f 662// 632// 663//
f 663// 632// 631//
f 663// 631// 664//
f 664// 631// 630//
f 664// 630// 665//
f 665// 630// 629//
f 665// 629// 666//
f 666// 629// 622//
f 666// 622// 667//
f 667// 622// 621//
f 667// 621// 644//
f 644// 621// 620//
f 666// 667// 668//
f 668// 667// 644//
f 668// 644// 645//
f 663// 664// 668//
f 668// 664// 665//
f 668// 665// 666//
f 660// 661// 668//
f 668// 661// 662//
f 668// 662// 663//
f 657// 658// 668//
f 668// 658// 659//
f 668// 659// 660//
f 654// 655// 668//
f 668// 655// 656//
f 668// 656// 657//
f 651// 652// 668//
f 668// 652// 653//
f 668// 653// 654//
f 648// 649// 668//
f 668// 649// 650//
f 668// 650// 651//
f 645// 646// 668//
f 668// 646// 647//
f 668// 647// 648//
usemtl 3
f 669// 562// 670//
f 670// 562// 563//
f 670// 563// 564//
f 671// 670// 612//
f 612// 670// 564//
f 566// 672// 568//
f 568// 672// 671//
f 568// 671// 612//
f 669// 672// 562//
f 562// 672// 566//
f 671// 672// 670//
f 670// 672// 669//
f 673// 674// 571//
f 571// 674// 574//
f 579// 675// 570//
f 570// 675// 673//
f 570// 673// 571//
f 676// 675// 578//
f 578// 675// 579//
f 676// 578// 674//
f 674// 578// 576//
f 674// 576// 574//
f 675// 676// 673//
f 673// 676// 674//
f 677// 678// 609//
f 609// 678// 607//
f 679// 677// 610//
f 610// 677// 609//
f 680// 679// 608//
f 608// 679// 610//
f 678// 680// 607//
f 607// 680// 608//
f 679// 680// 677//
f 677// 680// 678//
f 681// 682// 606//
f 606// 682// 605//
f 683// 681// 604//
f 604// 681// 606//
f 684// 683// 603//
f 603// 683// 604//
f 682// 684// 605//
f 605// 684// 603//
f 683// 684// 681//
f 681// 684// 682//
f 685// 686// 597//
f 597// 686// 596//
f 687// 685// 595//
f 595// 685// 597//
f 688// 687// 594//
f 594// 687// 595//
f 686// 688// 596//
f 596// 688// 594//
f 687// 688// 685//
f 685// 688// 686//
f 689// 690// 583//
f 583// 690// 585//
f 590// 691// 582//
f 582// 691// 689//
f 582// 689// 583//
f 692// 691// 589//
f 589// 691// 590//
f 692// 589// 690//
f 690// 589// 587//
f 690// 587// 585//
f 691// 692// 689//
f 689// 692// 690//
f 557// 693// 561//
f 561// 693// 694//
f 561// 694// 591//
f 695// 693// 556//
f 556// 693// 557//
f 695// 556// 696//
f 696// 556// 537//
f 696// 537// 536//
f 694// 696// 591//
f 591// 696// 536//
f 695// 696// 693//
f 693// 696// 694//
f 697// 698// 599//
f 599// 698// 600//
f 699// 697// 602//
f 602// 697// 599//
f 700// 699// 601//
f 601// 699// 602//
f 698// 700// 600//
f 600// 700// 601//
f 699// 700// 697//
f 697// 700// 698//
f 549// 555// 701//
f 701// 555// 553//
f 701// 553// 702//
f 702// 553// 551//
f 702// 551// 550//
f 703// 702// 581//
f 581// 702// 550//
f 581// 541// 703//
f 703// 541// 543//
f 703// 543// 704//
f 704// 543// 545//
f 704// 545// 546//
f 548// 549// 705//
f 705// 549// 701//
f 705// 701// 704//
f 704// 701// 702//
f 704// 702// 703//
f 546// 548// 704//
f 704// 548// 705//
usemtl 2
f 706// 707// 468//
f 468// 707// 469//
f 708// 706// 472//
f 472// 706// 468//
f 709// 708// 471//
f 471// 708// 472//
f 710// 709// 473//
f 473// 709// 471//
f 711// 710// 470//
f 470// 710// 473//
f 707// 711// 469//
f 469// 711// 470//
f 709// 710// 708//
f 708// 710// 711//
f 708// 711// 706//
f 706// 711// 707//
f 414// 373// 712//
f 712// 373// 713//
f 373// 372// 713//
f 713// 372// 371//
f 713// 371// 714//
f 714// 371// 370//
f 714// 370// 715//
f 716// 715// 369//
f 369// 715// 370//
f 716// 369// 388//
f 716// 388// 717//
f 717// 388// 387//
f 717// 387// 718//
f 718// 387// 391//
f 718// 391// 719//
f 719// 391// 390//
f 719// 390// 720//
f 720// 390// 389//
f 720// 389// 721//
f 721// 389// 394//
f 721// 394// 722//
f 722// 394// 393//
f 722// 393// 723//
f 723// 393// 392//
f 723// 392// 724//
f 724// 392// 386//
f 724// 386// 725//
f 725// 386// 385//
f 725// 385// 726//
f 726// 385// 384//
f 726// 384// 727//
f 727// 384// 383//
f 727// 383// 728//
f 728// 383// 382//
f 728// 382// 729//
f 729// 382// 381//
f 729// 381// 730//
f 730// 381// 380//
f 730// 380// 731//
f 731// 380// 379//
f 731// 379// 732//
f 732// 379// 378//
f 732// 378// 733//
f 733// 378// 377//
f 733// 377// 734//
f 734// 377// 375//
f 734// 375// 735//
f 735// 375// 374//
f 735// 374// 736//
f 736// 374// 376//
f 736// 376// 737//
f 737// 376// 368//
f 737// 368// 738//
f 739// 738// 367//
f 367// 738// 368//
f 396// 740// 365//
f 365// 740// 741//
f 365// 741// 366//
f 366// 741// 739//
f 366// 739// 367//
f 740// 396// 8//
f 740// 8// 742//
f 8// 7// 742//
f 742// 7// 400//
f 742// 400// 743//
f 743// 400// 399//
f 743// 399// 744//
f 744// 399// 398//
f 744// 398// 745//
f 745// 398// 397//
f 745// 397// 746//
f 746// 397// 408//
f 746// 408// 747//
f 408// 407// 747//
f 747// 407// 405//
f 747// 405// 748//
f 748// 405// 404//
f 748// 404// 749//
f 749// 404// 402//
f 749// 402// 750//
f 750// 402// 401//
f 750// 401// 751//
f 401// 413// 751//
f 751// 413// 412//
f 751// 412// 752//
f 752// 412// 410//
f 752// 410// 753//
f 414// 712// 754//
f 753// 410// 409//
f 753// 409// 755//
f 755// 409// 417//
f 755// 417// 756//
f 756// 417// 416//
f 756// 416// 754//
f 754// 416// 415//
f 754// 415// 414//
f 732// 733// 742//
f 728// 729// 746//
f 746// 729// 745//
f 742// 733// 740//
f 733// 734// 740//
f 740// 734// 735//
f 740// 735// 741//
f 741// 735// 736//
f 741// 736// 739//
f 739// 736// 737//
f 739// 737// 738//
f 715// 716// 714//
f 714// 716// 717//
f 714// 717// 713//
f 713// 717// 718//
f 713// 718// 712//
f 712// 718// 719//
f 712// 719// 754//
f 754// 719// 720//
f 754// 720// 756//
f 756// 720// 721//
f 756// 721// 755//
f 755// 721// 722//
f 755// 722// 753//
f 753// 722// 723//
f 753// 723// 752//
f 752// 723// 724//
f 752// 724// 751//
f 749// 727// 748//
f 748// 727// 728//
f 748// 728// 747//
f 747// 728// 746//
f 729// 730// 745//
f 745// 730// 731//
f 745// 731// 744//
f 744// 731// 732//
f 744// 732// 743//
f 743// 732// 742//
f 751// 724// 750//
f 750// 724// 725//
f 750// 725// 749//
f 749// 725// 726//
f 749// 726// 727//
f 757// 758// 354//
f 354// 758// 361//
f 349// 759// 350//
f 350// 759// 757//
f 350// 757// 354//
f 760// 759// 351//
f 351// 759// 349//
f 760// 351// 761//
f 761// 351// 352//
f 761// 352// 353//
f 762// 761// 355//
f 355// 761// 353//
f 11// 763// 12//
f 12// 763// 762//
f 12// 762// 355//
f 764// 763// 10//
f 10// 763// 11//
f 764// 10// 765//
f 765// 10// 357//
f 765// 357// 356//
f 766// 765// 347//
f 347// 765// 356//
f 363// 767// 348//
f 348// 767// 766//
f 348// 766// 347//
f 768// 767// 358//
f 358// 767// 363//
f 768// 358// 758//
f 758// 358// 362//
f 758// 362// 361//
f 768// 758// 757//
f 757// 759// 768//
f 768// 759// 760//
f 768// 760// 767//
f 765// 766// 764//
f 764// 766// 767//
f 764// 767// 763//
f 763// 767// 760//
f 763// 760// 762//
f 762// 760// 761//
f 769// 770// 771//
f 771// 770// 772//
f 771// 772// 773//
f 773// 772// 774//
f 773// 774// 775//
f 775// 774// 776//
f 775// 776// 777//
f 777// 776// 778//
f 777// 778// 779//
f 779// 778// 780//
f 779// 780// 781//
f 780// 782// 781//
f 781// 782// 783//
f 781// 783// 784//
f 784// 783// 785//
f 784// 785// 786//
f 786// 785// 787//
f 786// 787// 788//
f 788// 787// 789//
f 788// 789// 790//
f 790// 789// 791//
f 790// 791// 792//
f 792// 791// 793//
f 792// 793// 794//
f 794// 793// 795//
f 794// 795// 796//
f 796// 795// 797//
f 796// 797// 798//
f 798// 797// 799//
f 798// 799// 800//
f 800// 799// 801//
f 800// 801// 802//
f 802// 801// 803//
f 802// 803// 769//
f 769// 803// 804//
f 769// 804// 770//
f 775// 777// 325//
f 325// 777// 330//
f 336// 769// 771//
f 775// 325// 324//
f 775// 324// 773//
f 773// 324// 338//
f 773// 338// 771//
f 771// 338// 337//
f 771// 337// 336//
f 769// 336// 333//
f 769// 333// 802//
f 802// 333// 332//
f 802// 332// 800//
f 800// 332// 345//
f 800// 345// 798//
f 798// 345// 344//
f 798// 344// 796//
f 796// 344// 343//
f 796// 343// 794//
f 794// 343// 335//
f 794// 335// 792//
f 792// 335// 334//
f 792// 334// 790//
f 790// 334// 339//
f 790// 339// 788//
f 326// 781// 784//
f 788// 339// 342//
f 788// 342// 786//
f 786// 342// 341//
f 786// 341// 784//
f 784// 341// 340//
f 784// 340// 326//
f 779// 781// 331//
f 331// 781// 326//
f 777// 779// 330//
f 330// 779// 331//
f 782// 780// 805//
f 805// 780// 806//
f 780// 778// 806//
f 806// 778// 807//
f 778// 776// 807//
f 807// 776// 808//
f 804// 809// 810//
f 804// 810// 770//
f 770// 810// 811//
f 770// 811// 772//
f 772// 811// 812//
f 772// 812// 774//
f 774// 812// 808//
f 774// 808// 776//
f 797// 813// 814//
f 797// 814// 799//
f 799// 814// 815//
f 799// 815// 801//
f 801// 815// 816//
f 801// 816// 803//
f 803// 816// 809//
f 803// 809// 804//
f 789// 817// 818//
f 789// 818// 791//
f 791// 818// 819//
f 791// 819// 793//
f 793// 819// 820//
f 793// 820// 795//
f 795// 820// 813//
f 795// 813// 797//
f 782// 805// 821//
f 782// 821// 783//
f 783// 821// 822//
f 783// 822// 785//
f 785// 822// 823//
f 785// 823// 787//
f 787// 823// 817//
f 787// 817// 789//
usemtl 1
f 805// 806// 807//
f 815// 814// 821//
f 807// 808// 805//
f 805// 808// 812//
f 805// 812// 811//
f 811// 810// 805//
f 805// 810// 809//
f 805// 809// 821//
f 821// 809// 816//
f 821// 816// 815//
f 817// 814// 813//
f 817// 823// 814//
f 814// 823// 822//
f 814// 822// 821//
f 820// 819// 813//
f 813// 819// 818//
f 813// 818// 817//
usemtl 2
f 824// 825// 826//
f 826// 825// 827//
f 828// 829// 824//
f 824// 829// 830//
f 824// 830// 825//
f 825// 830// 831//
f 828// 832// 829//
f 829// 832// 833//
f 829// 833// 834//
f 834// 833// 835//
f 834// 835// 836//
f 836// 837// 834//
f 834// 837// 826//
f 834// 826// 838//
f 838// 826// 827//
f 838// 827// 839//
f 834// 838// 314//
f 314// 838// 311//
f 829// 834// 322//
f 322// 834// 314//
f 319// 830// 321//
f 321// 830// 829//
f 321// 829// 322//
f 831// 830// 317//
f 317// 830// 319//
f 825// 831// 316//
f 316// 831// 317//
f 307// 827// 308//
f 308// 827// 825//
f 308// 825// 316//
f 839// 827// 309//
f 309// 827// 307//
f 838// 839// 311//
f 311// 839// 309//
f 824// 826// 840//
f 840// 826// 841//
f 826// 837// 841//
f 841// 837// 842//
f 835// 843// 844//
f 835// 844// 836//
f 836// 844// 842//
f 836// 842// 837//
f 835// 833// 843//
f 843// 833// 845//
f 828// 846// 847//
f 828// 847// 832//
f 832// 847// 845//
f 832// 845// 833//
f 828// 824// 846//
f 846// 824// 840//
usemtl 1
f 843// 845// 844//
f 844// 845// 847//
f 844// 847// 842//
f 842// 847// 846//
f 842// 846// 841//
f 841// 846// 840//
usemtl 2
f 848// 849// 476//
f 476// 849// 477//
f 850// 848// 480//
f 480// 848// 476//
f 851// 850// 479//
f 479// 850// 480//
f 852// 851// 481//
f 481// 851// 479//
f 853// 852// 482//
f 482// 852// 481//
f 854// 853// 483//
f 483// 853// 482//
f 855// 854// 484//
f 484// 854// 483//
f 856// 855// 474//
f 474// 855// 484//
f 857// 856// 486//
f 486// 856// 474//
f 858// 857// 485//
f 485// 857// 486//
f 859// 858// 478//
f 478// 858// 485//
f 849// 859// 477//
f 477// 859// 478//
f 859// 849// 848//
f 848// 850// 859//
f 859// 850// 851//
f 859// 851// 858//
f 856// 857// 855//
f 855// 857// 858//
f 855// 858// 854//
f 854// 858// 851//
f 854// 851// 853//
f 853// 851// 852//
f 860// 861// 862//
f 863// 864// 865//
f 866// 867// 868//
f 868// 867// 869//
f 870// 871// 864//
f 864// 871// 867//
f 864// 867// 865//
f 865// 867// 866//
f 872// 873// 874//
f 874// 873// 875//
f 862// 861// 876//
f 876// 861// 877//
f 876// 877// 878//
f 865// 879// 863//
f 863// 879// 880//
f 863// 880// 881//
f 881// 880// 882//
f 881// 882// 883//
f 883// 882// 884//
f 883// 884// 885//
f 885// 884// 886//
f 885// 886// 887//
f 887// 886// 888//
f 887// 888// 889//
f 889// 888// 890//
f 889// 890// 891//
f 891// 890// 892//
f 891// 892// 893//
f 893// 892// 894//
f 893// 894// 895//
f 895// 894// 896//
f 877// 869// 878//
f 878// 869// 867//
f 878// 867// 897//
f 897// 867// 898//
f 897// 898// 899//
f 899// 898// 900//
f 899// 900// 901//
f 901// 900// 902//
f 901// 902// 875//
f 875// 902// 903//
f 875// 903// 874//
f 904// 905// 906//
f 906// 905// 907//
f 906// 907// 908//
f 908// 907// 909//
f 908// 909// 910//
f 910// 909// 911//
f 910// 911// 872//
f 872// 911// 912//
f 872// 912// 873//
f 860// 862// 913//
f 913// 862// 914//
f 913// 914// 915//
f 915// 914// 916//
f 915// 916// 917//
f 917// 916// 918//
f 917// 918// 919//
f 919// 918// 920//
f 919// 920// 921//
f 921// 920// 922//
f 921// 922// 923//
f 923// 922// 924//
f 923// 924// 925//
f 925// 924// 926//
f 925// 926// 896//
f 896// 926// 927//
f 896// 927// 895//
f 910// 236// 214//
f 910// 214// 908//
f 908// 214// 216//
f 908// 216// 906//
f 906// 216// 217//
f 906// 217// 904//
f 905// 904// 191//
f 191// 904// 217//
f 905// 191// 207//
f 905// 207// 907//
f 907// 207// 208//
f 907// 208// 909//
f 909// 208// 195//
f 909// 195// 911//
f 911// 195// 194//
f 911// 194// 912//
f 912// 194// 249//
f 912// 249// 873//
f 873// 249// 248//
f 873// 248// 875//
f 875// 248// 235//
f 875// 235// 901//
f 901// 235// 234//
f 901// 234// 899//
f 899// 234// 233//
f 899// 233// 897//
f 897// 233// 232//
f 897// 232// 878//
f 876// 878// 196//
f 196// 878// 232//
f 876// 196// 206//
f 876// 206// 862//
f 862// 206// 205//
f 862// 205// 914//
f 914// 205// 190//
f 914// 190// 916//
f 916// 190// 192//
f 916// 192// 918//
f 918// 192// 193//
f 918// 193// 920//
f 920// 193// 228//
f 920// 228// 922//
f 922// 228// 227//
f 922// 227// 924//
f 924// 227// 220//
f 924// 220// 926//
f 926// 220// 219//
f 926// 219// 927//
f 927// 219// 218//
f 927// 218// 895//
f 419// 889// 210//
f 210// 889// 891//
f 210// 891// 212//
f 212// 891// 893//
f 212// 893// 213//
f 213// 893// 895//
f 213// 895// 218//
f 889// 419// 418//
f 889// 418// 887//
f 887// 418// 204//
f 887// 204// 885//
f 204// 202// 885//
f 885// 202// 201//
f 885// 201// 883//
f 883// 201// 226//
f 883// 226// 881//
f 881// 226// 225//
f 881// 225// 863//
f 864// 863// 224//
f 224// 863// 225//
f 870// 864// 203//
f 203// 864// 224//
f 871// 870// 200//
f 200// 870// 203//
f 867// 871// 198//
f 198// 871// 200//
f 867// 198// 230//
f 867// 230// 898//
f 898// 230// 241//
f 898// 241// 900//
f 900// 241// 243//
f 900// 243// 902//
f 902// 243// 244//
f 902// 244// 903//
f 903// 244// 238//
f 903// 238// 874//
f 874// 238// 237//
f 874// 237// 872//
f 872// 237// 236//
f 872// 236// 910//
f 913// 928// 929//
f 913// 929// 860//
f 860// 929// 930//
f 860// 930// 861//
f 861// 930// 931//
f 861// 931// 877//
f 921// 932// 933//
f 921// 933// 919//
f 919// 933// 934//
f 919// 934// 917//
f 917// 934// 935//
f 917// 935// 915//
f 915// 935// 928//
f 915// 928// 913//
f 894// 936// 937//
f 894// 937// 896//
f 896// 937// 938//
f 896// 938// 925//
f 925// 938// 939//
f 925// 939// 923//
f 923// 939// 932//
f 923// 932// 921//
f 888// 940// 941//
f 888// 941// 890//
f 890// 941// 942//
f 890// 942// 892//
f 892// 942// 936//
f 892// 936// 894//
f 880// 943// 944//
f 880// 944// 882//
f 882// 944// 945//
f 882// 945// 884//
f 884// 945// 946//
f 884// 946// 886//
f 886// 946// 940//
f 886// 940// 888//
f 868// 947// 948//
f 868// 948// 866//
f 866// 948// 949//
f 866// 949// 865//
f 865// 949// 950//
f 865// 950// 879//
f 879// 950// 943//
f 879// 943// 880//
f 868// 869// 947//
f 947// 869// 951//
f 869// 877// 951//
f 951// 877// 931//
usemtl 1
f 948// 947// 928//
f 947// 951// 931//
f 931// 930// 947//
f 947// 930// 929//
f 947// 929// 928//
f 948// 928// 949//
f 949// 928// 935//
f 949// 935// 950//
f 937// 936// 944//
f 937// 944// 938//
f 945// 944// 946//
f 946// 944// 940//
f 935// 934// 950//
f 950// 934// 933//
f 950// 933// 943//
f 943// 933// 932//
f 943// 932// 944//
f 944// 932// 939//
f 944// 939// 938//
f 936// 942// 944//
f 944// 942// 941//
f 944// 941// 940//
usemtl 2
f 197// 952// 953//
f 954// 293// 290//
f 954// 290// 955//
f 955// 290// 222//
f 955// 222// 953//
f 953// 222// 221//
f 953// 221// 197//
f 956// 952// 199//
f 199// 952// 197//
f 199// 17// 956//
f 956// 17// 957//
f 252// 958// 250//
f 250// 958// 957//
f 250// 957// 16//
f 16// 957// 17//
f 252// 14// 958//
f 958// 14// 959//
f 14// 13// 959//
f 959// 13// 271//
f 959// 271// 960//
f 960// 271// 270//
f 960// 270// 961//
f 961// 270// 261//
f 961// 261// 962//
f 962// 261// 260//
f 962// 260// 963//
f 963// 260// 259//
f 963// 259// 964//
f 964// 259// 269//
f 964// 269// 965//
f 965// 269// 268//
f 965// 268// 966//
f 966// 268// 267//
f 966// 267// 967//
f 967// 267// 266//
f 967// 266// 968//
f 968// 266// 286//
f 968// 286// 969//
f 969// 286// 285//
f 969// 285// 970//
f 970// 285// 283//
f 970// 283// 971//
f 971// 283// 281//
f 971// 281// 972//
f 972// 281// 280//
f 972// 280// 973//
f 973// 280// 279//
f 973// 279// 974//
f 974// 279// 278//
f 974// 278// 975//
f 975// 278// 277//
f 975// 277// 976//
f 976// 277// 274//
f 976// 274// 977//
f 977// 274// 289//
f 977// 289// 978//
f 978// 289// 288//
f 978// 288// 979//
f 979// 288// 287//
f 979// 287// 980//
f 980// 287// 276//
f 980// 276// 981//
f 981// 276// 275//
f 981// 275// 982//
f 982// 275// 273//
f 982// 273// 983//
f 983// 273// 272//
f 983// 272// 984//
f 984// 272// 282//
f 984// 282// 985//
f 985// 282// 284//
f 985// 284// 986//
f 986// 284// 254//
f 986// 254// 987//
f 988// 987// 253//
f 253// 987// 254//
f 988// 253// 265//
f 988// 265// 989//
f 989// 265// 263//
f 989// 263// 990//
f 990// 263// 262//
f 990// 262// 991//
f 991// 262// 258//
f 991// 258// 992//
f 992// 258// 257//
f 992// 257// 993//
f 257// 255// 993//
f 993// 255// 994//
f 255// 242// 994//
f 994// 242// 240//
f 994// 240// 995//
f 995// 240// 239//
f 995// 239// 996//
f 996// 239// 231//
f 996// 231// 997//
f 997// 231// 229//
f 997// 229// 998//
f 998// 229// 247//
f 998// 247// 999//
f 999// 247// 246//
f 999// 246// 1000//
f 291// 1001// 1002//
f 1000// 246// 245//
f 1000// 245// 1003//
f 1003// 245// 223//
f 1003// 223// 1002//
f 1002// 223// 292//
f 1002// 292// 291//
f 1001// 291// 295//
f 1001// 295// 1004//
f 1004// 295// 306//
f 1004// 306// 1005//
f 1005// 306// 305//
f 1005// 305// 1006//
f 1006// 305// 304//
f 1006// 304// 1007//
f 1007// 304// 298//
f 1007// 298// 1008//
f 1008// 298// 297//
f 1008// 297// 1009//
f 1009// 297// 303//
f 1009// 303// 1010//
f 1010// 303// 302//
f 1010// 302// 1011//
f 1011// 302// 301//
f 1011// 301// 1012//
f 1012// 301// 300//
f 1012// 300// 1013//
f 1013// 300// 299//
f 1013// 299// 1014//
f 1014// 299// 296//
f 1014// 296// 1015//
f 1015// 296// 294//
f 1015// 294// 1016//
f 1016// 294// 293//
f 1016// 293// 954//
f 980// 981// 992//
f 992// 981// 991//
f 1004// 971// 1001//
f 1001// 971// 972//
f 960// 961// 1012//
f 1012// 961// 962//
f 1012// 962// 1011//
f 1011// 962// 963//
f 1011// 963// 1010//
f 1010// 963// 964//
f 1010// 964// 1009//
f 1009// 964// 965//
f 1009// 965// 1008//
f 1008// 965// 966//
f 1008// 966// 1007//
f 1007// 966// 967//
f 1007// 967// 1006//
f 1006// 967// 968//
f 1006// 968// 1005//
f 1005// 968// 969//
f 1005// 969// 1004//
f 1004// 969// 970//
f 1004// 970// 971//
f 958// 954// 957//
f 957// 954// 955//
f 957// 955// 956//
f 956// 955// 953//
f 956// 953// 952//
f 981// 982// 991//
f 991// 982// 983//
f 991// 983// 990//
f 990// 983// 984//
f 990// 984// 989//
f 989// 984// 985//
f 989// 985// 988//
f 988// 985// 986//
f 988// 986// 987//
f 1012// 1013// 960//
f 960// 1013// 1014//
f 960// 1014// 959//
f 959// 1014// 1015//
f 959// 1015// 958//
f 958// 1015// 1016//
f 958// 1016// 954//
f 992// 993// 980//
f 980// 993// 994//
f 980// 994// 979//
f 979// 994// 995//
f 979// 995// 978//
f 978// 995// 996//
f 978// 996// 977//
f 977// 996// 997//
f 977// 997// 976//
f 976// 997// 998//
f 976// 998// 975//
f 975// 998// 999//
f 975// 999// 974//
f 974// 999// 1000//
f 974// 1000// 973//
f 973// 1000// 1003//
f 973// 1003// 972//
f 972// 1003// 1002//
f 972// 1002// 1001//
f 1017// 1018// 420//
f 420// 1018// 421//
f 1019// 1017// 431//
f 431// 1017// 420//
f 1019// 431// 432//
f 1019// 432// 1020//
f 1020// 432// 428//
f 1020// 428// 1021//
f 1022// 1021// 427//
f 427// 1021// 428//
f 1023// 1022// 426//
f 426// 1022// 427//
f 1023// 426// 1024//
f 1024// 426// 430//
f 1024// 430// 436//
f 1025// 1024// 435//
f 435// 1024// 436//
f 1025// 435// 1026//
f 1026// 435// 434//
f 1026// 434// 437//
f 439// 1027// 438//
f 438// 1027// 1026//
f 438// 1026// 437//
f 439// 445// 1027//
f 1027// 445// 1028//
f 445// 444// 1028//
f 1028// 444// 443//
f 1028// 443// 1029//
f 1029// 443// 454//
f 1029// 454// 1030//
f 1030// 454// 453//
f 1030// 453// 1031//
f 1031// 453// 447//
f 1031// 447// 1032//
f 1032// 447// 446//
f 1032// 446// 1033//
f 1033// 446// 442//
f 1033// 442// 1034//
f 1035// 1034// 441//
f 441// 1034// 442//
f 1035// 441// 452//
f 1035// 452// 1036//
f 1036// 452// 451//
f 1036// 451// 1037//
f 1037// 451// 449//
f 1037// 449// 1038//
f 1038// 449// 448//
f 1038// 448// 1039//
f 448// 460// 1039//
f 1039// 460// 459//
f 1039// 459// 1040//
f 1040// 459// 458//
f 1040// 458// 1041//
f 1041// 458// 456//
f 1041// 456// 1042//
f 1042// 456// 455//
f 1042// 455// 1043//
f 421// 1018// 425//
f 425// 1018// 1043//
f 425// 1043// 455//
f 1020// 1021// 1043//
f 1018// 1017// 1043//
f 1043// 1017// 1019//
f 1043// 1019// 1020//
f 1024// 1025// 1023//
f 1023// 1025// 1026//
f 1023// 1026// 1022//
f 1034// 1035// 1033//
f 1033// 1035// 1036//
f 1033// 1036// 1032//
f 1032// 1036// 1037//
f 1032// 1037// 1031//
f 1031// 1037// 1038//
f 1031// 1038// 1030//
f 1030// 1038// 1039//
f 1030// 1039// 1029//
f 1021// 1022// 1043//
f 1043// 1022// 1026//
f 1043// 1026// 1042//
f 1026// 1027// 1042//
f 1042// 1027// 1028//
f 1042// 1028// 1041//
f 1041// 1028// 1029//
f 1041// 1029// 1040//
f 1040// 1029// 1039//
f 1044// 1045// 172//
f 172// 1045// 173//
f 1044// 172// 1046//
f 1046// 172// 180//
f 1046// 180// 179//
f 1047// 1046// 181//
f 181// 1046// 179//
f 1047// 181// 1048//
f 1048// 181// 182//
f 1048// 182// 183//
f 1049// 1048// 184//
f 184// 1048// 183//
f 20// 1050// 21//
f 21// 1050// 1049//
f 21// 1049// 184//
f 1051// 1050// 19//
f 19// 1050// 20//
f 177// 1052// 185//
f 185// 1052// 1051//
f 185// 1051// 19//
f 1053// 1052// 178//
f 178// 1052// 177//
f 189// 1054// 423//
f 423// 1054// 1053//
f 423// 1053// 178//
f 1055// 1054// 187//
f 187// 1054// 189//
f 1055// 187// 1045//
f 1045// 187// 186//
f 1045// 186// 173//
f 1055// 1045// 1044//
f 1044// 1046// 1055//
f 1055// 1046// 1047//
f 1055// 1047// 1054//
f 1052// 1053// 1051//
f 1051// 1053// 1054//
f 1051// 1054// 1050//
f 1050// 1054// 1047//
f 1050// 1047// 1049//
f 1049// 1047// 1048//
f 1056// 1057// 1058//
f 1058// 1057// 1059//
f 1058// 1059// 1060//
f 1060// 1059// 1061//
f 1060// 1061// 1062//
f 1062// 1061// 1063//
f 1062// 1063// 1064//
f 1064// 1063// 1065//
f 1064// 1065// 1066//
f 1066// 1065// 1067//
f 1066// 1067// 1068//
f 1067// 1069// 1068//
f 1068// 1069// 1070//
f 1068// 1070// 1071//
f 1071// 1070// 1072//
f 1071// 1072// 1073//
f 1073// 1072// 1074//
f 1073// 1074// 1075//
f 1075// 1074// 1076//
f 1075// 1076// 1077//
f 1077// 1076// 1078//
f 1077// 1078// 1079//
f 1079// 1078// 1080//
f 1079// 1080// 1081//
f 1081// 1080// 1082//
f 1081// 1082// 1083//
f 1083// 1082// 1084//
f 1083// 1084// 1085//
f 1085// 1084// 1086//
f 1085// 1086// 1087//
f 1087// 1086// 1088//
f 1087// 1088// 1089//
f 1089// 1088// 1090//
f 1089// 1090// 1056//
f 1056// 1090// 1091//
f 1056// 1091// 1057//
f 1062// 1064// 499//
f 499// 1064// 495//
f 1062// 499// 511//
f 1062// 511// 1060//
f 1060// 511// 510//
f 1060// 510// 1058//
f 1058// 510// 509//
f 1058// 509// 1056//
f 1056// 509// 508//
f 1056// 508// 1089//
f 1089// 508// 521//
f 1089// 521// 1087//
f 1087// 521// 520//
f 1087// 520// 1085//
f 1085// 520// 519//
f 1085// 519// 1083//
f 1083// 519// 515//
f 1083// 515// 1081//
f 1081// 515// 514//
f 1081// 514// 1079//
f 1079// 514// 513//
f 1079// 513// 1077//
f 1077// 513// 512//
f 1077// 512// 1075//
f 1075// 512// 518//
f 1075// 518// 1073//
f 1073// 518// 517//
f 1073// 517// 1071//
f 1071// 517// 516//
f 1071// 516// 1068//
f 1066// 1068// 496//
f 496// 1068// 516//
f 1064// 1066// 495//
f 495// 1066// 496//
f 1069// 1067// 1092//
f 1092// 1067// 1093//
f 1067// 1065// 1093//
f 1093// 1065// 1094//
f 1065// 1063// 1094//
f 1094// 1063// 1095//
f 1091// 1096// 1097//
f 1091// 1097// 1057//
f 1057// 1097// 1098//
f 1057// 1098// 1059//
f 1059// 1098// 1099//
f 1059// 1099// 1061//
f 1061// 1099// 1095//
f 1061// 1095// 1063//
f 1084// 1100// 1101//
f 1084// 1101// 1086//
f 1086// 1101// 1102//
f 1086// 1102// 1088//
f 1088// 1102// 1103//
f 1088// 1103// 1090//
f 1090// 1103// 1096//
f 1090// 1096// 1091//
f 1076// 1104// 1105//
f 1076// 1105// 1078//
f 1078// 1105// 1106//
f 1078// 1106// 1080//
f 1080// 1106// 1107//
f 1080// 1107// 1082//
f 1082// 1107// 1100//
f 1082// 1100// 1084//
f 1069// 1092// 1108//
f 1069// 1108// 1070//
f 1070// 1108// 1109//
f 1070// 1109// 1072//
f 1072// 1109// 1110//
f 1072// 1110// 1074//
f 1074// 1110// 1104//
f 1074// 1104// 1076//
usemtl 1
f 1092// 1093// 1094//
f 1102// 1101// 1108//
f 1094// 1095// 1092//
f 1092// 1095// 1099//
f 1092// 1099// 1098//
f 1098// 1097// 1092//
f 1092// 1097// 1096//
f 1092// 1096// 1108//
f 1108// 1096// 1103//
f 1108// 1103// 1102//
f 1104// 1101// 1100//
f 1104// 1110// 1101//
f 1101// 1110// 1109//
f 1101// 1109// 1108//
f 1107// 1106// 1100//
f 1100// 1106// 1105//
f 1100// 1105// 1104//
usemtl 2
f 1111// 1112// 1113//
f 1113// 1112// 1114//
f 1115// 1116// 1111//
f 1111// 1116// 1117//
f 1111// 1117// 1112//
f 1112// 1117// 1118//
f 1115// 1119// 1116//
f 1116// 1119// 1120//
f 1116// 1120// 1121//
f 1121// 1120// 1122//
f 1121// 1122// 1123//
f 1123// 1124// 1121//
f 1121// 1124// 1113//
f 1121// 1113// 1125//
f 1125// 1113// 1114//
f 1125// 1114// 1126//
f 1121// 1125// 501//
f 501// 1125// 503//
f 1116// 1121// 507//
f 507// 1121// 501//
f 1117// 1116// 498//
f 498// 1116// 507//
f 1118// 1117// 497//
f 497// 1117// 498//
f 1112// 1118// 506//
f 506// 1118// 497//
f 1114// 1112// 505//
f 505// 1112// 506//
f 1126// 1114// 504//
f 504// 1114// 505//
f 1125// 1126// 503//
f 503// 1126// 504//
f 1111// 1113// 1127//
f 1127// 1113// 1128//
f 1113// 1124// 1128//
f 1128// 1124// 1129//
f 1122// 1130// 1131//
f 1122// 1131// 1123//
f 1123// 1131// 1129//
f 1123// 1129// 1124//
f 1122// 1120// 1130//
f 1130// 1120// 1132//
f 1115// 1133// 1134//
f 1115// 1134// 1119//
f 1119// 1134// 1132//
f 1119// 1132// 1120//
f 1115// 1111// 1133//
f 1133// 1111// 1127//
usemtl 1
f 1130// 1132// 1131//
f 1131// 1132// 1134//
f 1131// 1134// 1129//
f 1129// 1134// 1133//
f 1129// 1133// 1128//
f 1128// 1133// 1127//
usemtl 2
f 1135// 1136// 1137//
f 1138// 1139// 1140//
f 1141// 1142// 1143//
f 1144// 1145// 1146//
f 1147// 1136// 1148//
f 1148// 1136// 1149//
f 1148// 1149// 1150//
f 1143// 1142// 1151//
f 1152// 1153// 1154//
f 1154// 1153// 1155//
f 1154// 1155// 1156//
f 1156// 1155// 1157//
f 1156// 1157// 1146//
f 1146// 1157// 1158//
f 1146// 1158// 1144//
f 1159// 1160// 1155//
f 1155// 1160// 1161//
f 1155// 1161// 1157//
f 1157// 1161// 1162//
f 1157// 1162// 1163//
f 1164// 1165// 1137//
f 1137// 1165// 1166//
f 1137// 1166// 1135//
f 1139// 1167// 1140//
f 1140// 1167// 1168//
f 1140// 1168// 1169//
f 1169// 1168// 1170//
f 1169// 1170// 1171//
f 1171// 1170// 1172//
f 1173// 1174// 1175//
f 1175// 1174// 1176//
f 1175// 1176// 1177//
f 1177// 1176// 1178//
f 1177// 1178// 1179//
f 1142// 1180// 1151//
f 1151// 1180// 1181//
f 1151// 1181// 1182//
f 1182// 1181// 1183//
f 1182// 1183// 1178//
f 1178// 1183// 1184//
f 1178// 1184// 1179//
f 1149// 1185// 1150//
f 1150// 1185// 1186//
f 1150// 1186// 1187//
f 1187// 1186// 1188//
f 1187// 1188// 1189//
f 1189// 1188// 1190//
f 1189// 1190// 1191//
f 1191// 1190// 1157//
f 1191// 1157// 1192//
f 1192// 1157// 1163//
f 1193// 1194// 1195//
f 1195// 1194// 1196//
f 1195// 1196// 1197//
f 1197// 1196// 1198//
f 1197// 1198// 1199//
f 1199// 1198// 1200//
f 1199// 1200// 1201//
f 1201// 1200// 1202//
f 1201// 1202// 1203//
f 1204// 1205// 1206//
f 1206// 1205// 1207//
f 1206// 1207// 1208//
f 1208// 1207// 1209//
f 1208// 1209// 1210//
f 1210// 1209// 1211//
f 1210// 1211// 1212//
f 1212// 1211// 1213//
f 1212// 1213// 1164//
f 1164// 1213// 1214//
f 1164// 1214// 1165//
f 1147// 1215// 1136//
f 1136// 1215// 1216//
f 1136// 1216// 1137//
f 1137// 1216// 1217//
f 1170// 1218// 1172//
f 1172// 1218// 1219//
f 1172// 1219// 1220//
f 1220// 1219// 1221//
f 1220// 1221// 1222//
f 1222// 1221// 1223//
f 1222// 1223// 1224//
f 1224// 1223// 1225//
f 1224// 1225// 1226//
f 1226// 1225// 1227//
f 1226// 1227// 1228//
f 1228// 1227// 1229//
f 1228// 1229// 1193//
f 1193// 1229// 1230//
f 1193// 1230// 1194//
f 1143// 1231// 1141//
f 1141// 1231// 1232//
f 1141// 1232// 1233//
f 1233// 1232// 1234//
f 1233// 1234// 1235//
f 1235// 1234// 1236//
f 1235// 1236// 1204//
f 1204// 1236// 1237//
f 1204// 1237// 1205//
f 1138// 1140// 1238//
f 1238// 1140// 1239//
f 1238// 1239// 1240//
f 1240// 1239// 1241//
f 1240// 1241// 1242//
f 1242// 1241// 1243//
f 1242// 1243// 1244//
f 1244// 1243// 1245//
f 1244// 1245// 1246//
f 1246// 1245// 1247//
f 1246// 1247// 1248//
f 1248// 1247// 1249//
f 1248// 1249// 1250//
f 1250// 1249// 1251//
f 1250// 1251// 1173//
f 1173// 1251// 1252//
f 1173// 1252// 1174//
f 1217// 1253// 1137//
f 1137// 1253// 1254//
f 1137// 1254// 1255//
f 1255// 1254// 1256//
f 1255// 1256// 1257//
f 1257// 1256// 1258//
f 1257// 1258// 1259//
f 1259// 1258// 1260//
f 1259// 1260// 1261//
f 1261// 1260// 1262//
f 1261// 1262// 1263//
f 1263// 1262// 1264//
f 1263// 1264// 1265//
f 1265// 1264// 1266//
f 1265// 1266// 1267//
f 1267// 1266// 1268//
f 1267// 1268// 1269//
f 1269// 1268// 1270//
f 1269// 1270// 1155//
f 1155// 1270// 1271//
f 1155// 1271// 1159//
f 1272// 1273// 1274//
f 1202// 1275// 1203//
f 1203// 1275// 1272//
f 1203// 1272// 1276//
f 1276// 1272// 1274//
f 1277// 1278// 1272//
f 1272// 1278// 1279//
f 1272// 1279// 1273//
f 1280// 1281// 1282//
f 1281// 1283// 1282//
f 1282// 1283// 1284//
f 1282// 1284// 1285//
f 1277// 1272// 1282//
f 1282// 1272// 1286//
f 1282// 1286// 1280//
f 1224// 83// 82//
f 1224// 82// 1222//
f 1222// 82// 171//
f 1222// 171// 1220//
f 171// 170// 1220//
f 1220// 170// 169//
f 1220// 169// 1172//
f 169// 23// 1172//
f 1172// 23// 22//
f 1172// 22// 1171//
f 1171// 22// 30//
f 1171// 30// 1169//
f 1169// 30// 29//
f 1169// 29// 1140//
f 1140// 29// 28//
f 1140// 28// 1239//
f 1239// 28// 27//
f 1239// 27// 1241//
f 1241// 27// 26//
f 1241// 26// 1243//
f 1243// 26// 1245//
f 1245// 26// 25//
f 25// 37// 1245//
f 1245// 37// 36//
f 1245// 36// 1247//
f 1247// 36// 34//
f 1247// 34// 1249//
f 46// 1174// 45//
f 45// 1174// 1252//
f 45// 1252// 31//
f 31// 1252// 1251//
f 31// 1251// 32//
f 32// 1251// 1249//
f 32// 1249// 34//
f 1174// 46// 47//
f 1174// 47// 1176//
f 1176// 47// 49//
f 1176// 49// 1178//
f 1178// 49// 48//
f 1178// 48// 1182//
f 1182// 48// 40//
f 1182// 40// 1151//
f 1151// 40// 39//
f 1151// 39// 1143//
f 1143// 39// 51//
f 1143// 51// 1231//
f 1231// 51// 50//
f 1231// 50// 1232//
f 1232// 50// 44//
f 1232// 44// 1234//
f 60// 1207// 1205//
f 1234// 44// 43//
f 42// 1237// 43//
f 43// 1237// 1236//
f 43// 1236// 1234//
f 42// 63// 1237//
f 1237// 63// 62//
f 1237// 62// 1205//
f 1205// 62// 61//
f 1205// 61// 60//
f 1207// 60// 58//
f 1207// 58// 1209//
f 1209// 58// 57//
f 1209// 57// 1211//
f 1211// 57// 56//
f 1211// 56// 1213//
f 1213// 56// 55//
f 1213// 55// 1214//
f 1214// 55// 53//
f 1214// 53// 1165//
f 1165// 53// 52//
f 1165// 52// 1166//
f 1166// 52// 68//
f 1166// 68// 1135//
f 68// 67// 1135//
f 1135// 67// 65//
f 1135// 65// 1136//
f 1136// 65// 64//
f 1136// 64// 1149//
f 1149// 64// 76//
f 1149// 76// 1185//
f 76// 75// 1185//
f 1185// 75// 74//
f 1185// 74// 1186//
f 1186// 74// 69//
f 1186// 69// 1188//
f 131// 1156// 1146//
f 1188// 69// 71//
f 1188// 71// 1190//
f 1190// 71// 73//
f 1190// 73// 1157//
f 73// 81// 1157//
f 1157// 81// 80//
f 1157// 80// 1158//
f 1158// 80// 79//
f 1158// 79// 1144//
f 1144// 79// 78//
f 1144// 78// 1145//
f 1145// 78// 77//
f 1145// 77// 1146//
f 1146// 77// 130//
f 1146// 130// 131//
f 1154// 1156// 117//
f 117// 1156// 131//
f 1152// 1154// 86//
f 86// 1154// 117//
f 1153// 1152// 90//
f 90// 1152// 86//
f 1155// 1153// 89//
f 89// 1153// 90//
f 1155// 89// 91//
f 1155// 91// 1269//
f 1269// 91// 92//
f 1269// 92// 1267//
f 1267// 92// 114//
f 1267// 114// 1265//
f 1265// 114// 113//
f 1265// 113// 1263//
f 1263// 113// 112//
f 1263// 112// 1261//
f 1261// 112// 108//
f 1261// 108// 1259//
f 1259// 108// 109//
f 1259// 109// 1257//
f 1257// 109// 105//
f 1257// 105// 1255//
f 1255// 105// 107//
f 1255// 107// 1137//
f 1137// 107// 106//
f 1137// 106// 1164//
f 1164// 106// 104//
f 1164// 104// 1212//
f 1212// 104// 103//
f 1212// 103// 1210//
f 1210// 103// 111//
f 1210// 111// 1208//
f 1208// 111// 110//
f 1208// 110// 1206//
f 110// 98// 1206//
f 1206// 98// 1204//
f 98// 142// 1204//
f 1204// 142// 141//
f 1204// 141// 1235//
f 1235// 141// 154//
f 1235// 154// 1233//
f 154// 168// 1233//
f 1233// 168// 167//
f 1233// 167// 1141//
f 1141// 167// 166//
f 1141// 166// 1142//
f 1142// 166// 160//
f 1142// 160// 1180//
f 1180// 160// 159//
f 1180// 159// 1181//
f 1181// 159// 158//
f 1181// 158// 1183//
f 1183// 158// 155//
f 1183// 155// 1184//
f 1184// 155// 150//
f 1184// 150// 1179//
f 1179// 150// 153//
f 1179// 153// 1177//
f 1177// 153// 161//
f 1177// 161// 1175//
f 1175// 161// 163//
f 1175// 163// 1173//
f 1173// 163// 165//
f 1173// 165// 1250//
f 1250// 165// 164//
f 1250// 164// 1248//
f 140// 1139// 156//
f 156// 1139// 1138//
f 156// 1138// 157//
f 157// 1138// 1238//
f 157// 1238// 148//
f 148// 1238// 1240//
f 148// 1240// 149//
f 149// 1240// 1242//
f 149// 1242// 151//
f 151// 1242// 1244//
f 151// 1244// 152//
f 152// 1244// 1246//
f 152// 1246// 162//
f 162// 1246// 1248//
f 162// 1248// 164//
f 1167// 1139// 143//
f 143// 1139// 140//
f 1167// 143// 147//
f 1167// 147// 1168//
f 1168// 147// 146//
f 1168// 146// 1170//
f 1170// 146// 145//
f 1170// 145// 1218//
f 1218// 145// 144//
f 1218// 144// 1219//
f 1219// 144// 97//
f 1219// 97// 1221//
f 97// 96// 1221//
f 1221// 96// 95//
f 1221// 95// 1223//
f 1223// 95// 123//
f 1223// 123// 1225//
f 1225// 123// 122//
f 1225// 122// 1227//
f 1227// 122// 121//
f 1227// 121// 1229//
f 1229// 121// 120//
f 1229// 120// 1230//
f 1230// 120// 139//
f 1230// 139// 1194//
f 1194// 139// 138//
f 1194// 138// 1196//
f 1196// 138// 137//
f 1196// 137// 1198//
f 1198// 137// 136//
f 1198// 136// 1200//
f 1202// 1200// 135//
f 135// 1200// 136//
f 1202// 135// 102//
f 1202// 102// 1275//
f 1275// 102// 101//
f 1275// 101// 1272//
f 1272// 101// 100//
f 1272// 100// 1286//
f 1286// 100// 85//
f 1286// 85// 1280//
f 1280// 85// 84//
f 1280// 84// 1281//
f 1281// 84// 93//
f 1281// 93// 1283//
f 1283// 93// 119//
f 1283// 119// 1284//
f 1284// 119// 118//
f 1284// 118// 1285//
f 1285// 118// 116//
f 1285// 116// 1282//
f 1282// 116// 115//
f 1282// 115// 1277//
f 1277// 115// 129//
f 1277// 129// 1278//
f 1278// 129// 128//
f 1278// 128// 1279//
f 1279// 128// 127//
f 1279// 127// 1273//
f 1273// 127// 126//
f 1273// 126// 1274//
f 1274// 126// 125//
f 1274// 125// 1276//
f 1276// 125// 124//
f 1276// 124// 1203//
f 1203// 124// 134//
f 1203// 134// 1201//
f 1199// 1201// 133//
f 133// 1201// 134//
f 1199// 133// 132//
f 1199// 132// 1197//
f 1197// 132// 88//
f 1197// 88// 1195//
f 1195// 88// 87//
f 1195// 87// 1193//
f 1193// 87// 94//
f 1193// 94// 1228//
f 1228// 94// 99//
f 1228// 99// 1226//
f 1226// 99// 83//
f 1226// 83// 1224//
f 1264// 1287// 1288//
f 1264// 1288// 1266//
f 1266// 1288// 1289//
f 1266// 1289// 1268//
f 1268// 1289// 1290//
f 1268// 1290// 1270//
f 1270// 1290// 1291//
f 1270// 1291// 1271//
f 1271// 1291// 1292//
f 1271// 1292// 1159//
f 1159// 1292// 1293//
f 1159// 1293// 1160//
f 1160// 1293// 1294//
f 1160// 1294// 1161//
f 1161// 1294// 1295//
f 1161// 1295// 1162//
f 1162// 1295// 1296//
f 1162// 1296// 1163//
f 1163// 1296// 1297//
f 1163// 1297// 1192//
f 1192// 1297// 1298//
f 1192// 1298// 1191//
f 1191// 1298// 1299//
f 1191// 1299// 1189//
f 1189// 1299// 1300//
f 1189// 1300// 1187//
f 1187// 1300// 1301//
f 1187// 1301// 1150//
f 1150// 1301// 1302//
f 1150// 1302// 1148//
f 1148// 1302// 1303//
f 1148// 1303// 1147//
f 1147// 1303// 1304//
f 1147// 1304// 1215//
f 1215// 1304// 1305//
f 1215// 1305// 1216//
f 1216// 1305// 1306//
f 1216// 1306// 1217//
f 1217// 1306// 1307//
f 1217// 1307// 1253//
f 1253// 1307// 1308//
f 1253// 1308// 1254//
f 1254// 1308// 1309//
f 1254// 1309// 1256//
f 1256// 1309// 1310//
f 1256// 1310// 1258//
f 1258// 1310// 1311//
f 1258// 1311// 1260//
f 1260// 1311// 1312//
f 1260// 1312// 1262//
f 1262// 1312// 1287//
f 1262// 1287// 1264//
usemtl 1
f 1287// 1300// 1288//
f 1288// 1300// 1299//
f 1306// 1287// 1307//
f 1307// 1287// 1312//
f 1307// 1312// 1311//
f 1311// 1310// 1307//
f 1307// 1310// 1309//
f 1307// 1309// 1308//
f 1306// 1305// 1287//
f 1287// 1305// 1304//
f 1287// 1304// 1303//
f 1297// 1291// 1290//
f 1303// 1302// 1287//
f 1287// 1302// 1301//
f 1287// 1301// 1300//
f 1299// 1298// 1288//
f 1288// 1298// 1297//
f 1288// 1297// 1289//
f 1289// 1297// 1290//
f 1295// 1294// 1296//
f 1296// 1294// 1293//
f 1296// 1293// 1297//
f 1297// 1293// 1292//
f 1297// 1292// 1291//
