v -1.45 -0.35 0.0
v -1.45 -0.96 0.0
v -1.590313 -1.100313 0.0
newmtl 1
Ka 0.25098039215686274 0.25098039215686274 0.25098039215686274
Kd 0.25098039215686274 0.25098039215686274 0.25098039215686274
Ks 0.12549019607843137 0.12549019607843137 0.12549019607843137
d 0.0
endmtl
v 0.45 -1.1 0.0
v 1.31 -1.1 0.0
v 1.450313 -1.240313 0.0
v 1.590313 -1.100313 0.0
v 1.45 -0.96 0.0
v 1.6 -1.1 0.0
v 1.45 -0.35 0.0
v 0.046006 -0.054524 0.0
v 0.050022 -0.055087 0.0
v 0.45 -0.55 0.0
v 0.65 -0.35 0.0
v 0.052757 -0.055134 0.0
v 0.058637 -0.054524 0.0
v 1.6 -0.054524 0.0
v 1.45 0.35 0.0
v 1.45 0.96 0.0
v 1.590313 1.100313 0.0
v -0.04549 0.046086 0.0
v -0.04549 0.03511 0.0
v -0.047929 -0.042939 0.0
v 0.025241 -0.048731 0.0
v 0.005729 -0.053914 0.0
v 0.025241 -0.037756 0.0
v 0.005729 0.046086 0.0
v 1.45 -1.25 0.0
v -0.057685 -1.25 0.0
v -0.057685 -0.054524 0.0
v 0.035901 -0.053108 0.0
v -0.057685 1.25 0.0
v -0.047929 -0.053914 0.0
v -0.007685 -0.008792 0.0
v -0.007685 -0.042939 0.0
v -0.043051 -0.008792 0.0
v -0.043051 0.002183 0.0
v -0.007685 0.002183 0.0
v -0.007685 0.03511 0.0
v 0.058507 0.035224 0.0
v 0.065992 0.032523 0.0
v 0.027034 -0.038749 0.0
v 0.072913 0.027892 0.0
v 0.078952 0.021225 0.0
v 0.086217 -0.004981 0.0
v 0.085204 -0.015807 0.0
v 0.082488 -0.024408 0.0
v 0.060236 -0.043112 0.0
v 0.050908 -0.044158 0.0
v 0.067522 -0.04043 0.0
v 0.073659 -0.036293 0.0
v 0.078352 -0.031342 0.0
v 0.037634 -0.042685 0.0
v 0.048774 0.047305 0.0
v 0.036803 0.046479 0.0
v 0.025241 0.043342 0.0
v 0.025241 0.029927 0.0
v 0.036505 0.03475 0.0
v 0.04866 0.03633 0.0
v 0.094354 0.019747 0.0
v 0.088493 0.029096 0.0
v 0.145973 0.046086 0.0
v 0.079465 0.037779 0.0
v 0.069966 0.043247 0.0
v 0.083074 0.013504 0.0
v 0.08574 0.002799 0.0
v 0.074773 -0.05052 0.0
v 0.082816 -0.045383 0.0
v 0.108168 -0.053914 0.0
v 0.090328 -0.037476 0.0
v 0.108168 -0.042939 0.0
v 0.095655 -0.027967 0.0
v 0.145973 -0.042939 0.0
v 1.450313 1.240313 0.0
v 1.31 1.1 0.0
v 1.45 1.25 0.0
v 0.45 1.1 0.0
v 0.45 0.35 0.0
v 0.058818 0.046485 0.0
v 0.159388 -0.053914 0.0
v 0.159388 0.046086 0.0
v 1.6 1.1 0.0
v 0.06508 -0.053856 0.0
v 0.098665 -0.017382 0.0
v 0.099632 -0.005801 0.0
v 0.098193 0.008416 0.0
v -0.169881 -0.053914 0.0
v -0.155246 -0.053914 0.0
v -0.45 0.35 0.0
v -0.206466 0.046086 0.0
v -0.24549 -0.053914 0.0
v -0.142936 -0.026507 0.0
v -0.137201 -0.035451 0.0
v -0.12897 -0.043332 0.0
v -0.118529 -0.0494 0.0
v -1.590313 1.100313 0.0
v -1.45 0.96 0.0
v -1.6 1.1 0.0
v -1.45 0.35 0.0
v -1.6 -0.054524 0.0
v -0.193051 0.046086 0.0
v -0.45 1.1 0.0
v -0.121809 0.040433 0.0
v -1.31 1.1 0.0
v -1.450313 1.240313 0.0
v -1.45 1.25 0.0
v -0.107006 -0.052834 0.0
v -0.094633 -0.053914 0.0
v -0.230856 -0.053914 0.0
v -0.220738 -0.025866 0.0
v -0.179427 -0.025866 0.0
v -0.132693 0.033139 0.0
v -0.132798 0.033047 0.0
v -0.139869 0.025206 0.0
v -0.144517 0.016605 0.0
v -0.147203 0.006753 0.0
v -0.147929 -0.002657 0.0
v -0.146526 -0.01604 0.0
v -0.067442 -0.053914 0.0
v -0.067442 0.046086 0.0
v -0.095662 0.046086 0.0
v -0.110109 0.044541 0.0
v -1.450313 -1.240313 0.0
v -1.31 -1.1 0.0
v -1.45 -1.25 0.0
v -0.45 -1.1 0.0
v -1.6 -1.1 0.0
v -0.45 -0.35 0.0
v 1.450313 -1.240313 0.2
v 1.590313 -1.100313 0.2
v 1.6 -1.1 0.5
v 1.561177 -1.105111 0.2
v 1.561177 -1.105111 0.5
v 1.525 -1.120096 0.2
v 1.525 -1.120096 0.5
v 1.493934 -1.143934 0.2
v 1.493934 -1.143934 0.5
v 1.470096 -1.175 0.2
v 1.470096 -1.175 0.5
v 1.455111 -1.211177 0.2
v 1.455111 -1.211177 0.5
v 1.45 -1.25 0.5
v 1.45 -0.35 -0.01
v 1.45 -0.96 -0.01
newmtl 2
Ka 1.0 1.0 0.0
Kd 1.0 1.0 0.0
Ks 0.5019607843137255 0.5019607843137255 0.0
d 0.0
endmtl
v 0.45 -1.1 -0.01
v 1.31 -1.1 -0.01
v -1.450313 1.240313 0.2
v -1.590313 1.100313 0.2
v -1.6 1.1 0.5
v -1.566622 1.103761 0.2
v -1.566622 1.103761 0.5
v -1.534917 1.114855 0.2
v -1.534917 1.114855 0.5
v -1.506477 1.132725 0.2
v -1.506477 1.132725 0.5
v -1.482725 1.156477 0.2
v -1.482725 1.156477 0.5
v -1.464855 1.184917 0.2
v -1.464855 1.184917 0.5
v -1.453761 1.216622 0.2
v -1.453761 1.216622 0.5
v -1.45 1.25 0.5
v -1.45 0.35 -0.01
v -1.45 0.96 -0.01
v -0.45 1.1 -0.01
v -1.31 1.1 -0.01
v 1.6 1.1 0.5
v 1.45 1.25 0.5
v -1.6 -1.1 0.5
v -1.45 -1.25 0.5
v 1.515738 -1.037829 0.5
v 1.52 -1.0 0.5
v 1.52 1.0 0.5
v 1.561177 1.105111 0.5
v 1.525 1.120096 0.5
v 1.503165 1.07376 0.5
v 1.515738 1.037829 0.5
v -1.525 -1.120096 0.5
v -1.503165 -1.07376 0.5
v -1.561177 -1.105111 0.5
v -1.515738 -1.037829 0.5
v -1.52 -1.0 0.5
v 1.387829 1.165738 0.5
v 1.42376 1.153165 0.5
v 1.493934 1.143934 0.5
v 1.455993 1.132911 0.5
v 1.482911 1.105993 0.5
v 1.35 -1.17 0.5
v -1.387829 1.165738 0.5
v -1.35 1.17 0.5
v 1.503165 -1.07376 0.5
v 1.482911 -1.105993 0.5
v 1.455993 -1.132911 0.5
v 1.42376 -1.153165 0.5
v 1.387829 -1.165738 0.5
v -1.35 -1.17 0.5
v -1.455111 -1.211177 0.5
v -1.387829 -1.165738 0.5
v -1.470096 -1.175 0.5
v -1.42376 -1.153165 0.5
v -1.493934 -1.143934 0.5
v -1.455993 -1.132911 0.5
v -1.482911 -1.105993 0.5
v 1.470096 1.175 0.5
v 1.455111 1.211177 0.5
v 1.35 1.17 0.5
v -1.52 1.0 0.5
v -1.515738 1.037829 0.5
v -1.503165 1.07376 0.5
v -1.482911 1.105993 0.5
v -1.455993 1.132911 0.5
v -1.42376 1.153165 0.5
v -1.35 -1.15 0.63
v -1.35 -1.15 0.52
v 1.35 -1.15 0.63
v 1.35 -1.15 0.52
v 1.5 -1.0 0.63
v 1.5 -1.0 0.52
v 1.5 1.0 0.63
v 1.5 1.0 0.52
v 1.35 1.15 0.63
v 1.35 1.15 0.52
v -1.35 1.15 0.63
v -1.35 1.15 0.52
v -1.5 1.0 0.63
v -1.5 1.0 0.52
v -1.5 -1.0 0.63
v -1.5 -1.0 0.52
v -1.436603 -1.05 0.65
v -1.451638 -1.081054 0.65
v -1.420711 -1.070711 0.65
v -1.431054 -1.101638 0.65
v -1.4 -1.086603 0.65
v -1.406405 -1.117126 0.65
v -1.375882 -1.096593 0.65
v -1.378928 -1.126741 0.65
v -1.35 -1.1 0.65
v -1.35 -1.13 0.65
v 1.35 -1.1 0.65
v 1.35 -1.13 0.65
v 1.372252 -1.097493 0.65
v 1.378928 -1.126741 0.65
v 1.393388 -1.090097 0.65
v 1.406405 -1.117126 0.65
v 1.412349 -1.078183 0.65
v 1.431054 -1.101638 0.65
v 1.428183 -1.062349 0.65
v 1.451638 -1.081054 0.65
v 1.440097 -1.043388 0.65
v 1.467126 -1.056405 0.65
v 1.447493 -1.022252 0.65
v 1.476741 -1.028928 0.65
v 1.45 -1.0 0.65
v 1.48 -1.0 0.65
v 1.45 1.0 0.65
v 1.48 1.0 0.65
v 1.446593 1.025882 0.65
v 1.476741 1.028928 0.65
v 1.436603 1.05 0.65
v 1.467126 1.056405 0.65
v 1.451638 1.081054 0.65
v 1.420711 1.070711 0.65
v 1.431054 1.101638 0.65
v 1.4 1.086603 0.65
v 1.406405 1.117126 0.65
v 1.375882 1.096593 0.65
v 1.378928 1.126741 0.65
v 1.35 1.1 0.65
v 1.35 1.13 0.65
v -1.35 1.1 0.65
v -1.35 1.13 0.65
v -1.372252 1.097493 0.65
v -1.378928 1.126741 0.65
v -1.393388 1.090097 0.65
v -1.406405 1.117126 0.65
v -1.412349 1.078183 0.65
v -1.431054 1.101638 0.65
v -1.428183 1.062349 0.65
v -1.451638 1.081054 0.65
v -1.440097 1.043388 0.65
v -1.467126 1.056405 0.65
v -1.447493 1.022252 0.65
v -1.476741 1.028928 0.65
v -1.45 1.0 0.65
v -1.48 1.0 0.65
v -1.45 -1.0 0.65
v -1.48 -1.0 0.65
v -1.446593 -1.025882 0.65
v -1.476741 -1.028928 0.65
v -1.467126 -1.056405 0.65
v -1.383378 1.146239 0.63
v -1.383378 1.146239 0.52
v -1.38865 1.144395 0.63
v -1.38865 1.144395 0.52
v -1.415083 1.135145 0.63
v -1.415083 1.135145 0.52
v -1.424554 1.129194 0.63
v -1.424554 1.129194 0.52
v -1.443523 1.117275 0.63
v -1.443523 1.117275 0.52
v -1.455399 1.105399 0.63
v -1.455399 1.105399 0.52
v -1.467275 1.093524 0.63
v -1.467275 1.093524 0.52
v -1.479194 1.074554 0.63
v -1.479194 1.074554 0.52
v -1.485145 1.065083 0.63
v -1.485145 1.065083 0.52
v -1.494395 1.03865 0.63
v -1.494395 1.03865 0.52
v -1.496239 1.033378 0.63
v -1.496239 1.033378 0.52
v 1.496239 1.033378 0.63
v 1.496239 1.033378 0.52
v 1.494395 1.03865 0.63
v 1.494395 1.03865 0.52
v 1.485145 1.065083 0.63
v 1.485145 1.065083 0.52
v 1.479194 1.074554 0.63
v 1.479194 1.074554 0.52
v 1.467275 1.093524 0.63
v 1.467275 1.093524 0.52
v 1.455399 1.105399 0.63
v 1.455399 1.105399 0.52
v 1.443523 1.117275 0.63
v 1.443523 1.117275 0.52
v 1.424554 1.129194 0.63
v 1.424554 1.129194 0.52
v 1.415083 1.135145 0.63
v 1.415083 1.135145 0.52
v 1.38865 1.144395 0.63
v 1.38865 1.144395 0.52
v 1.383378 1.146239 0.63
v 1.383378 1.146239 0.52
v 1.383378 -1.146239 0.63
v 1.383378 -1.146239 0.52
v 1.38865 -1.144395 0.63
v 1.38865 -1.144395 0.52
v 1.415083 -1.135145 0.63
v 1.415083 -1.135145 0.52
v 1.424554 -1.129194 0.63
v 1.424554 -1.129194 0.52
v 1.443523 -1.117275 0.63
v 1.443523 -1.117275 0.52
v 1.455399 -1.105399 0.63
v 1.455399 -1.105399 0.52
v 1.467275 -1.093524 0.63
v 1.467275 -1.093524 0.52
v 1.479194 -1.074554 0.63
v 1.479194 -1.074554 0.52
v 1.485145 -1.065083 0.63
v 1.485145 -1.065083 0.52
v 1.494395 -1.03865 0.63
v 1.494395 -1.03865 0.52
v 1.496239 -1.033378 0.63
v 1.496239 -1.033378 0.52
v -1.496239 -1.033378 0.63
v -1.496239 -1.033378 0.52
v -1.494395 -1.03865 0.63
v -1.494395 -1.03865 0.52
v -1.485145 -1.065083 0.63
v -1.485145 -1.065083 0.52
v -1.479194 -1.074554 0.63
v -1.479194 -1.074554 0.52
v -1.467275 -1.093524 0.63
v -1.467275 -1.093524 0.52
v -1.455399 -1.105399 0.63
v -1.455399 -1.105399 0.52
v -1.443523 -1.117275 0.63
v -1.443523 -1.117275 0.52
v -1.424554 -1.129194 0.63
v -1.424554 -1.129194 0.52
v -1.415083 -1.135145 0.63
v -1.415083 -1.135145 0.52
v -1.38865 -1.144395 0.63
v -1.38865 -1.144395 0.52
v -1.383378 -1.146239 0.63
v -1.383378 -1.146239 0.52
v 1.45 1.0 0.68
newmtl 3
Ka 1.0 1.0 1.0
Kd 1.0 1.0 1.0
Ks 0.5019607843137255 0.5019607843137255 0.5019607843137255
d 0.0
endmtl
v 1.446593 1.025882 0.68
v 1.436603 1.05 0.68
v 1.420711 1.070711 0.68
v 1.4 1.086603 0.68
v 1.375882 1.096593 0.68
v 1.35 1.1 0.68
v -1.35 1.1 0.68
v -1.372252 1.097493 0.68
v -1.393388 1.090097 0.68
v -1.412349 1.078183 0.68
v -1.428183 1.062349 0.68
v -1.440097 1.043388 0.68
v -1.447493 1.022252 0.68
v -1.45 1.0 0.68
v -1.45 -1.0 0.68
v -1.446593 -1.025882 0.68
v -1.436603 -1.05 0.68
v -1.420711 -1.070711 0.68
v -1.4 -1.086603 0.68
v -1.375882 -1.096593 0.68
v -1.35 -1.1 0.68
v 1.35 -1.1 0.68
v 1.372252 -1.097493 0.68
v 1.393388 -1.090097 0.68
v 1.412349 -1.078183 0.68
v 1.428183 -1.062349 0.68
v 1.440097 -1.043388 0.68
v 1.447493 -1.022252 0.68
v 1.45 -1.0 0.68
v -1.250598 -0.774297 0.7
v -1.231011 -0.759267 0.7
v -1.43 1.0 0.7
v 1.43 -1.0 0.7
v -1.089144 -0.841174 0.7
v -1.092367 -0.865653 0.7
v -1.101815 -0.888463 0.7
v 1.35 -1.08 0.7
v -1.116845 -0.908051 0.7
v 1.43 1.0 0.7
v -1.101815 -0.793885 0.7
v -1.092367 -0.816695 0.7
v 1.384711 -1.072078 0.7
v 1.399879 -1.062546 0.7
v 1.367802 -1.077994 0.7
v 1.412547 -1.049879 0.7
v 1.422078 -1.034711 0.7
v 1.427994 -1.017802 0.7
v -1.406569 -1.056569 0.7
v -1.250598 -0.908051 0.7
v -1.419282 -1.04 0.7
v -1.427274 -1.020706 0.7
v -1.43 -1.0 0.7
v -1.265628 -0.888463 0.7
v -1.275077 -0.865653 0.7
v -1.136433 -0.923081 0.7
v -1.159243 -0.932529 0.7
v -1.35 -1.08 0.7
v -1.183722 -0.935752 0.7
v -1.2082 -0.932529 0.7
v -1.231011 -0.923081 0.7
v -1.370706 -1.077274 0.7
v -1.39 -1.069282 0.7
v -1.278299 -0.841174 0.7
v -1.275077 -0.816695 0.7
v -1.265628 -0.793885 0.7
v 1.427274 1.020706 0.7
v 1.419282 1.04 0.7
v 1.406569 1.056569 0.7
v 1.39 1.069282 0.7
v 1.370706 1.077274 0.7
v -1.116845 -0.774297 0.7
v 1.35 1.08 0.7
v -1.136433 -0.759267 0.7
v -1.159243 -0.749819 0.7
v -1.35 1.08 0.7
v -1.183722 -0.746596 0.7
v -1.367802 1.077994 0.7
v -1.384711 1.072078 0.7
v -1.399879 1.062546 0.7
v -1.412547 1.049879 0.7
v -1.422078 1.034711 0.7
v -1.427994 1.017802 0.7
v -1.2082 -0.749819 0.7
v -1.449319 1.0 0.685176
v -1.446828 1.0221 0.685176
v -1.44732 1.0 0.69
v -1.44488 1.021656 0.69
v -1.444142 1.0 0.694142
v -1.441782 1.020949 0.694142
v -1.44 1.0 0.697321
v -1.437744 1.020027 0.697321
v -1.435176 1.0 0.699319
v -1.433041 1.018954 0.699319
v -1.426741 1.036957 0.699319
v -1.416594 1.053107 0.699319
v -1.403107 1.066594 0.699319
v -1.386957 1.076741 0.699319
v -1.368953 1.083041 0.699319
v -1.35 1.085176 0.699319
v -1.431087 1.03905 0.697321
v -1.420365 1.056114 0.697321
v -1.406114 1.070365 0.697321
v -1.38905 1.081087 0.697321
v -1.370027 1.087744 0.697321
v -1.35 1.09 0.697321
v -1.434819 1.040847 0.694142
v -1.423603 1.058697 0.694142
v -1.408697 1.073603 0.694142
v -1.390847 1.084819 0.694142
v -1.370949 1.091782 0.694142
v -1.35 1.094142 0.694142
v -1.437683 1.042226 0.69
v -1.426088 1.060678 0.69
v -1.410678 1.076088 0.69
v -1.392226 1.087683 0.69
v -1.371656 1.09488 0.69
v -1.35 1.09732 0.69
v -1.439483 1.043093 0.685176
v -1.42765 1.061924 0.685176
v -1.411924 1.07765 0.685176
v -1.393093 1.089483 0.685176
v -1.3721 1.096828 0.685176
v -1.35 1.099319 0.685176
v -1.435176 -1.0 0.699319
v -1.44 -1.0 0.697321
v -1.444142 -1.0 0.694142
v -1.44732 -1.0 0.69
v -1.449319 -1.0 0.685176
v 1.35 1.085176 0.699319
v 1.35 1.09 0.697321
v 1.35 1.094142 0.694142
v 1.35 1.09732 0.69
v 1.35 1.099319 0.685176
v -1.35 -1.085176 0.699319
v -1.372045 -1.082274 0.699319
v -1.35 -1.09 0.697321
v -1.373294 -1.086933 0.697321
v -1.35 -1.094142 0.694142
v -1.374366 -1.090934 0.694142
v -1.35 -1.09732 0.69
v -1.375188 -1.094004 0.69
v -1.35 -1.099319 0.685176
v -1.375705 -1.095934 0.685176
v -1.392588 -1.073765 0.699319
v -1.395 -1.077942 0.697321
v -1.397071 -1.081529 0.694142
v -1.39866 -1.084282 0.69
v -1.399659 -1.086012 0.685176
v -1.410229 -1.060229 0.699319
v -1.41364 -1.06364 0.697321
v -1.416569 -1.066568 0.694142
v -1.418816 -1.068816 0.69
v -1.420229 -1.070229 0.685176
v -1.423765 -1.042588 0.699319
v -1.427942 -1.045 0.697321
v -1.43153 -1.047071 0.694142
v -1.434282 -1.04866 0.69
v -1.436012 -1.049659 0.685176
v -1.432274 -1.022045 0.699319
v -1.436933 -1.023294 0.697321
v -1.440934 -1.024366 0.694142
v -1.444004 -1.025188 0.69
v -1.445934 -1.025705 0.685176
v 1.372045 1.082274 0.699319
v 1.373294 1.086933 0.697321
v 1.374366 1.090934 0.694142
v 1.375188 1.094004 0.69
v 1.375705 1.095934 0.685176
v 1.392588 1.073765 0.699319
v 1.395 1.077942 0.697321
v 1.397071 1.081529 0.694142
v 1.39866 1.084282 0.69
v 1.399659 1.086012 0.685176
v 1.410229 1.060229 0.699319
v 1.41364 1.06364 0.697321
v 1.416569 1.066568 0.694142
v 1.418816 1.068816 0.69
v 1.420229 1.070229 0.685176
v 1.423765 1.042588 0.699319
v 1.427942 1.045 0.697321
v 1.43153 1.047071 0.694142
v 1.434282 1.04866 0.69
v 1.436012 1.049659 0.685176
v 1.432274 1.022045 0.699319
v 1.436933 1.023294 0.697321
v 1.440934 1.024366 0.694142
v 1.444004 1.025188 0.69
v 1.445934 1.025705 0.685176
v 1.435176 1.0 0.699319
v 1.44 1.0 0.697321
v 1.444142 1.0 0.694142
v 1.44732 1.0 0.69
v 1.449319 1.0 0.685176
v 1.35 -1.085176 0.699319
v 1.35 -1.09 0.697321
v 1.35 -1.094142 0.694142
v 1.35 -1.09732 0.69
v 1.35 -1.099319 0.685176
v 1.435176 -1.0 0.699319
v 1.44 -1.0 0.697321
v 1.444142 -1.0 0.694142
v 1.44732 -1.0 0.69
v 1.449319 -1.0 0.685176
v 1.446828 -1.0221 0.685176
v 1.44488 -1.021656 0.69
v 1.441782 -1.020949 0.694142
v 1.437744 -1.020027 0.697321
v 1.433041 -1.018954 0.699319
v 1.426741 -1.036957 0.699319
v 1.416594 -1.053107 0.699319
v 1.403107 -1.066594 0.699319
v 1.386957 -1.076741 0.699319
v 1.368953 -1.083041 0.699319
v 1.431087 -1.03905 0.697321
v 1.420365 -1.056114 0.697321
v 1.406114 -1.070365 0.697321
v 1.38905 -1.081087 0.697321
v 1.370027 -1.087744 0.697321
v 1.434819 -1.040847 0.694142
v 1.423603 -1.058697 0.694142
v 1.408697 -1.073603 0.694142
v 1.390847 -1.084819 0.694142
v 1.370949 -1.091782 0.694142
v 1.437683 -1.042226 0.69
v 1.426088 -1.060678 0.69
v 1.410678 -1.076088 0.69
v 1.392226 -1.087683 0.69
v 1.371656 -1.09488 0.69
v 1.439483 -1.043093 0.685176
v 1.42765 -1.061924 0.685176
v 1.411924 -1.07765 0.685176
v 1.393093 -1.089483 0.685176
v 1.3721 -1.096828 0.685176
v 1.484531 1.064787 0.635176
v 1.466742 1.093099 0.635176
v 1.38008 1.131787 0.649319
v 1.408651 1.12179 0.649319
v 1.381153 1.13649 0.647321
v 1.410744 1.126136 0.647321
v 1.382075 1.140528 0.644142
v 1.412541 1.129868 0.644142
v 1.382782 1.143627 0.64
v 1.41392 1.132731 0.64
v 1.383227 1.145575 0.635176
v 1.414787 1.134531 0.635176
v 1.35 1.135176 0.649319
v 1.35 1.14 0.647321
v 1.35 1.144142 0.644142
v 1.35 1.147321 0.64
v 1.35 1.149319 0.635176
v 1.443099 1.116742 0.635176
v 1.441853 1.11518 0.64
v 1.439871 1.112695 0.644142
v 1.437289 1.109456 0.647321
v 1.434281 1.105685 0.649319
v 1.455685 1.084281 0.649319
v 1.459456 1.087289 0.647321
v 1.462695 1.089871 0.644142
v 1.46518 1.091853 0.64
v 1.482731 1.06392 0.64
v 1.479868 1.062541 0.644142
v 1.476136 1.060744 0.647321
v 1.47179 1.058651 0.649319
v 1.495575 1.033226 0.635176
v 1.493627 1.032782 0.64
v 1.490528 1.032075 0.644142
v 1.48649 1.031153 0.647321
v 1.481787 1.03008 0.649319
v 1.485176 1.0 0.649319
v 1.49 1.0 0.647321
v 1.494142 1.0 0.644142
v 1.497321 1.0 0.64
v 1.499318 1.0 0.635176
v -1.35 1.135176 0.649319
v -1.35 1.14 0.647321
v -1.35 1.144142 0.644142
v -1.35 1.147321 0.64
v -1.35 1.149319 0.635176
v 1.485176 -1.0 0.649319
v 1.49 -1.0 0.647321
v 1.494142 -1.0 0.644142
v 1.497321 -1.0 0.64
v 1.499318 -1.0 0.635176
v -1.414787 1.134531 0.635176
v -1.443099 1.116742 0.635176
v -1.481787 1.03008 0.649319
v -1.47179 1.058651 0.649319
v -1.48649 1.031153 0.647321
v -1.476136 1.060744 0.647321
v -1.490528 1.032075 0.644142
v -1.479868 1.062541 0.644142
v -1.493627 1.032782 0.64
v -1.482731 1.06392 0.64
v -1.495575 1.033226 0.635176
v -1.484531 1.064787 0.635176
v -1.485176 1.0 0.649319
v -1.49 1.0 0.647321
v -1.494142 1.0 0.644142
v -1.497321 1.0 0.64
v -1.499318 1.0 0.635176
v -1.466742 1.093099 0.635176
v -1.46518 1.091853 0.64
v -1.462695 1.089871 0.644142
v -1.459456 1.087289 0.647321
v -1.455685 1.084281 0.649319
v -1.434281 1.105685 0.649319
v -1.437289 1.109456 0.647321
v -1.439871 1.112695 0.644142
v -1.441853 1.11518 0.64
v -1.41392 1.132731 0.64
v -1.412541 1.129868 0.644142
v -1.410744 1.126136 0.647321
v -1.408651 1.12179 0.649319
v -1.383227 1.145575 0.635176
v -1.382782 1.143627 0.64
v -1.382075 1.140528 0.644142
v -1.381153 1.13649 0.647321
v -1.38008 1.131787 0.649319
v 1.414787 -1.134531 0.635176
v 1.443099 -1.116742 0.635176
v 1.481787 -1.03008 0.649319
v 1.47179 -1.058651 0.649319
v 1.48649 -1.031153 0.647321
v 1.476136 -1.060744 0.647321
v 1.490528 -1.032075 0.644142
v 1.479868 -1.062541 0.644142
v 1.493627 -1.032782 0.64
v 1.482731 -1.06392 0.64
v 1.495575 -1.033226 0.635176
v 1.484531 -1.064787 0.635176
v 1.466742 -1.093099 0.635176
v 1.46518 -1.091853 0.64
v 1.462695 -1.089871 0.644142
v 1.459456 -1.087289 0.647321
v 1.455685 -1.084281 0.649319
v 1.434281 -1.105685 0.649319
v 1.437289 -1.109456 0.647321
v 1.439871 -1.112695 0.644142
v 1.441853 -1.11518 0.64
v 1.41392 -1.132731 0.64
v 1.412541 -1.129868 0.644142
v 1.410744 -1.126136 0.647321
v 1.408651 -1.12179 0.649319
v 1.383227 -1.145575 0.635176
v 1.382782 -1.143627 0.64
v 1.382075 -1.140528 0.644142
v 1.381153 -1.13649 0.647321
v 1.38008 -1.131787 0.649319
v 1.35 -1.135176 0.649319
v 1.35 -1.14 0.647321
v 1.35 -1.144142 0.644142
v 1.35 -1.147321 0.64
v 1.35 -1.149319 0.635176
v -1.485176 -1.0 0.649319
v -1.49 -1.0 0.647321
v -1.494142 -1.0 0.644142
v -1.497321 -1.0 0.64
v -1.499318 -1.0 0.635176
v -1.35 -1.135176 0.649319
v -1.35 -1.14 0.647321
v -1.35 -1.144142 0.644142
v -1.35 -1.147321 0.64
v -1.35 -1.149319 0.635176
v -1.484531 -1.064787 0.635176
v -1.466742 -1.093099 0.635176
v -1.38008 -1.131787 0.649319
v -1.408651 -1.12179 0.649319
v -1.381153 -1.13649 0.647321
v -1.410744 -1.126136 0.647321
v -1.382075 -1.140528 0.644142
v -1.412541 -1.129868 0.644142
v -1.382782 -1.143627 0.64
v -1.41392 -1.132731 0.64
v -1.383227 -1.145575 0.635176
v -1.414787 -1.134531 0.635176
v -1.443099 -1.116742 0.635176
v -1.441853 -1.11518 0.64
v -1.439871 -1.112695 0.644142
v -1.437289 -1.109456 0.647321
v -1.434281 -1.105685 0.649319
v -1.455685 -1.084281 0.649319
v -1.459456 -1.087289 0.647321
v -1.462695 -1.089871 0.644142
v -1.46518 -1.091853 0.64
v -1.482731 -1.06392 0.64
v -1.479868 -1.062541 0.644142
v -1.476136 -1.060744 0.647321
v -1.47179 -1.058651 0.649319
v -1.495575 -1.033226 0.635176
v -1.493627 -1.032782 0.64
v -1.490528 -1.032075 0.644142
v -1.48649 -1.031153 0.647321
v -1.481787 -1.03008 0.649319
v 1.38353 1.146904 0.514824
v 1.35 1.150681 0.514824
v 1.415378 1.135759 0.514824
v 1.443948 1.117808 0.514824
v 1.467808 1.093948 0.514824
v 1.485759 1.065378 0.514824
v 1.496904 1.03353 0.514824
v 1.500682 1.0 0.514824
v 1.50268 1.0 0.51
v 1.498851 1.033974 0.51
v 1.48756 1.066245 0.51
v 1.46937 1.095194 0.51
v 1.445194 1.11937 0.51
v 1.416245 1.137559 0.51
v 1.383974 1.148852 0.51
v 1.35 1.152679 0.51
v 1.505858 1.0 0.505858
v 1.50195 1.034682 0.505858
v 1.490423 1.067624 0.505858
v 1.471855 1.097176 0.505858
v 1.447176 1.121855 0.505858
v 1.417624 1.140423 0.505858
v 1.384682 1.15195 0.505858
v 1.35 1.155858 0.505858
v 1.51 1.0 0.502679
v 1.505988 1.035603 0.502679
v 1.494155 1.069421 0.502679
v 1.475093 1.099758 0.502679
v 1.449758 1.125093 0.502679
v 1.419421 1.144155 0.502679
v 1.385603 1.155988 0.502679
v 1.35 1.16 0.502679
v 1.514824 1.0 0.500681
v 1.510691 1.036677 0.500681
v 1.498501 1.071514 0.500681
v 1.478864 1.102766 0.500681
v 1.452766 1.128864 0.500681
v 1.421514 1.148501 0.500681
v 1.386677 1.160691 0.500681
v 1.35 1.164824 0.500681
v 1.514824 -1.0 0.500681
v 1.51 -1.0 0.502679
v 1.505858 -1.0 0.505858
v 1.50268 -1.0 0.51
v 1.500682 -1.0 0.514824
v -1.35 1.164824 0.500681
v -1.35 1.16 0.502679
v -1.35 1.155858 0.505858
v -1.35 1.152679 0.51
v -1.35 1.150681 0.514824
v 1.496904 -1.03353 0.514824
v 1.485759 -1.065378 0.514824
v 1.467808 -1.093948 0.514824
v 1.443948 -1.117808 0.514824
v 1.415378 -1.135759 0.514824
v 1.38353 -1.146904 0.514824
v 1.35 -1.150681 0.514824
v 1.35 -1.152679 0.51
v 1.383974 -1.148852 0.51
v 1.416245 -1.137559 0.51
v 1.445194 -1.11937 0.51
v 1.46937 -1.095194 0.51
v 1.48756 -1.066245 0.51
v 1.498851 -1.033974 0.51
v 1.35 -1.155858 0.505858
v 1.384682 -1.15195 0.505858
v 1.417624 -1.140423 0.505858
v 1.447176 -1.121855 0.505858
v 1.471855 -1.097176 0.505858
v 1.490423 -1.067624 0.505858
v 1.50195 -1.034682 0.505858
v 1.35 -1.16 0.502679
v 1.385603 -1.155988 0.502679
v 1.419421 -1.144155 0.502679
v 1.449758 -1.125093 0.502679
v 1.475093 -1.099758 0.502679
v 1.494155 -1.069421 0.502679
v 1.505988 -1.035603 0.502679
v 1.35 -1.164824 0.500681
v 1.386677 -1.160691 0.500681
v 1.421514 -1.148501 0.500681
v 1.452766 -1.128864 0.500681
v 1.478864 -1.102766 0.500681
v 1.498501 -1.071514 0.500681
v 1.510691 -1.036677 0.500681
v -1.496904 1.03353 0.514824
v -1.500682 1.0 0.514824
v -1.485759 1.065378 0.514824
v -1.467808 1.093948 0.514824
v -1.443948 1.117808 0.514824
v -1.415378 1.135759 0.514824
v -1.38353 1.146904 0.514824
v -1.383974 1.148852 0.51
v -1.416245 1.137559 0.51
v -1.445194 1.11937 0.51
v -1.46937 1.095194 0.51
v -1.48756 1.066245 0.51
v -1.498851 1.033974 0.51
v -1.50268 1.0 0.51
v -1.384682 1.15195 0.505858
v -1.417624 1.140423 0.505858
v -1.447176 1.121855 0.505858
v -1.471855 1.097176 0.505858
v -1.490423 1.067624 0.505858
v -1.50195 1.034682 0.505858
v -1.505858 1.0 0.505858
v -1.385603 1.155988 0.502679
v -1.419421 1.144155 0.502679
v -1.449758 1.125093 0.502679
v -1.475093 1.099758 0.502679
v -1.494155 1.069421 0.502679
v -1.505988 1.035603 0.502679
v -1.51 1.0 0.502679
v -1.386677 1.160691 0.500681
v -1.421514 1.148501 0.500681
v -1.452766 1.128864 0.500681
v -1.478864 1.102766 0.500681
v -1.498501 1.071514 0.500681
v -1.510691 1.036677 0.500681
v -1.514824 1.0 0.500681
v -1.35 -1.164824 0.500681
v -1.35 -1.16 0.502679
v -1.35 -1.155858 0.505858
v -1.35 -1.152679 0.51
v -1.35 -1.150681 0.514824
v -1.514824 -1.0 0.500681
v -1.51 -1.0 0.502679
v -1.505858 -1.0 0.505858
v -1.50268 -1.0 0.51
v -1.500682 -1.0 0.514824
v -1.38353 -1.146904 0.514824
v -1.415378 -1.135759 0.514824
v -1.443948 -1.117808 0.514824
v -1.467808 -1.093948 0.514824
v -1.485759 -1.065378 0.514824
v -1.496904 -1.03353 0.514824
v -1.498851 -1.033974 0.51
v -1.48756 -1.066245 0.51
v -1.46937 -1.095194 0.51
v -1.445194 -1.11937 0.51
v -1.416245 -1.137559 0.51
v -1.383974 -1.148852 0.51
v -1.50195 -1.034682 0.505858
v -1.490423 -1.067624 0.505858
v -1.471855 -1.097176 0.505858
v -1.447176 -1.121855 0.505858
v -1.417624 -1.140423 0.505858
v -1.384682 -1.15195 0.505858
v -1.505988 -1.035603 0.502679
v -1.494155 -1.069421 0.502679
v -1.475093 -1.099758 0.502679
v -1.449758 -1.125093 0.502679
v -1.419421 -1.144155 0.502679
v -1.385603 -1.155988 0.502679
v -1.510691 -1.036677 0.500681
v -1.498501 -1.071514 0.500681
v -1.478864 -1.102766 0.500681
v -1.452766 -1.128864 0.500681
v -1.421514 -1.148501 0.500681
v -1.386677 -1.160691 0.500681
v -1.590313 -1.100313 0.2
v -1.450313 -1.240313 0.2
v -1.455111 -1.211177 0.2
v -1.470096 -1.175 0.2
v -1.493934 -1.143934 0.2
v -1.525 -1.120096 0.2
v -1.561177 -1.105111 0.2
v 1.590313 1.100313 0.2
v 1.450313 1.240313 0.2
v 1.455111 1.211177 0.2
v 1.470096 1.175 0.2
v 1.493934 1.143934 0.2
v 1.525 1.120096 0.2
v 1.561177 1.105111 0.2
v -1.089144 -0.841174 0.699
v -1.092367 -0.816695 0.699
v -1.101815 -0.793885 0.699
v -1.116845 -0.774297 0.699
v -1.136433 -0.759267 0.699
v -1.159243 -0.749819 0.699
v -1.183722 -0.746596 0.699
v -1.2082 -0.749819 0.699
v -1.231011 -0.759267 0.699
v -1.250598 -0.774297 0.699
v -1.265628 -0.793885 0.699
v -1.275077 -0.816695 0.699
v -1.278299 -0.841174 0.699
v -1.275077 -0.865653 0.699
v -1.265628 -0.888463 0.699
v -1.250598 -0.908051 0.699
v -1.231011 -0.923081 0.699
v -1.2082 -0.932529 0.699
v -1.183722 -0.935752 0.699
v -1.159243 -0.932529 0.699
v -1.136433 -0.923081 0.699
v -1.116845 -0.908051 0.699
v -1.101815 -0.888463 0.699
v -1.092367 -0.865653 0.699
v -1.183722 -0.841174 0.699
v -0.45 -1.1 -0.01
v -0.45 -0.35 -0.01
v -1.31 -1.1 -0.01
v -1.45 -0.96 -0.01
v -1.45 -0.35 -0.01
v -1.6 -1.11 -0.01
v -1.563765 -1.11477 -0.01
v -1.53 -1.128756 -0.01
v -1.46 -1.25 -0.01
v -1.46477 -1.213765 -0.01
v -1.478756 -1.18 -0.01
v -1.501005 -1.151005 -0.01
v 0.45 -0.55 -0.01
v 0.65 -0.35 -0.01
v 1.46477 -1.213765 -0.01
v 1.46 -1.25 -0.01
v 1.6 -1.11 -0.01
v 1.563765 -1.11477 -0.01
v 1.53 -1.128756 -0.01
v 1.501005 -1.151005 -0.01
v 1.478756 -1.18 -0.01
v 1.31 1.1 -0.01
v 0.45 1.1 -0.01
v 1.45 0.96 -0.01
v 1.45 0.35 -0.01
v 0.45 0.35 -0.01
v 1.6 1.11 -0.01
v 1.563765 1.11477 -0.01
v 1.53 1.128756 -0.01
v 1.46 1.25 -0.01
v 1.46477 1.213765 -0.01
v 1.478756 1.18 -0.01
v 1.501005 1.151005 -0.01
v -0.45 0.35 -0.01
v -1.46477 1.213765 -0.01
v -1.46 1.25 -0.01
v -1.6 1.11 -0.01
v -1.563765 1.11477 -0.01
v -1.53 1.128756 -0.01
v -1.501005 1.151005 -0.01
v -1.478756 1.18 -0.01
v -1.46 -1.25 0.2
v -1.46477 -1.213765 0.2
v -1.478756 -1.18 0.2
v -1.501005 -1.151005 0.2
v -1.53 -1.128756 0.2
v -1.563765 -1.11477 0.2
v -1.6 -1.11 0.2
v -1.6 1.11 0.2
v -1.563765 1.11477 0.2
v -1.53 1.128756 0.2
v -1.501005 1.151005 0.2
v -1.46 1.25 0.2
v -1.46477 1.213765 0.2
v -1.478756 1.18 0.2
v 1.46 1.25 0.2
v 1.46477 1.213765 0.2
v 1.478756 1.18 0.2
v 1.501005 1.151005 0.2
v 1.53 1.128756 0.2
v 1.563765 1.11477 0.2
v 1.6 1.11 0.2
v 1.6 -1.11 0.2
v 1.563765 -1.11477 0.2
v 1.53 -1.128756 0.2
v 1.501005 -1.151005 0.2
v 1.478756 -1.18 0.2
v 1.46477 -1.213765 0.2
v 1.46 -1.25 0.2
v -0.206466 0.046086 0.001
v -0.24549 -0.053914 0.001
newmtl 4
Ka 0.0 0.0 0.0
Kd 0.0 0.0 0.0
Ks 0.0 0.0 0.0
d 0.0
endmtl
v -0.230856 -0.053914 0.001
v -0.220738 -0.025866 0.001
v -0.179427 -0.025866 0.001
v -0.169881 -0.053914 0.001
v -0.155246 -0.053914 0.001
v -0.193051 0.046086 0.001
v -0.1828 -0.01489 0.001
v -0.216241 -0.01489 0.001
v -0.19772 0.026878 0.001
v -0.198682 0.030347 0.001
v -0.19932 0.033891 0.001
v -0.199644 0.033891 0.001
v -0.200297 0.030357 0.001
v -0.201188 0.026878 0.001
v -0.1828 -0.01489 0.0
v -0.216241 -0.01489 0.0
v -0.19772 0.026878 0.0
v -0.198682 0.030347 -0.0
v -0.19932 0.033891 0.0
v -0.199644 0.033891 0.0
v -0.200297 0.030357 0.0
v -0.201188 0.026878 0.0
v -0.094633 -0.053914 0.001
v -0.067442 -0.053914 0.001
v -0.067442 0.046086 0.001
v -0.095662 0.046086 0.001
v -0.147929 -0.002657 0.001
v -0.147203 0.006753 0.001
v -0.144517 0.016605 0.001
v -0.139869 0.025206 0.001
v -0.132798 0.033047 0.001
v -0.132693 0.033139 0.001
v -0.121809 0.040433 0.001
v -0.110109 0.044541 0.001
v -0.107006 -0.052834 0.001
v -0.118529 -0.0494 0.001
v -0.12897 -0.043332 0.001
v -0.137201 -0.035451 0.001
v -0.142936 -0.026507 0.001
v -0.146526 -0.01604 0.001
v -0.127857 0.021087 0.001
v -0.122999 0.026244 0.001
v -0.115695 0.030963 0.001
v -0.107441 0.033852 0.001
v -0.095605 0.03511 0.001
v -0.080856 0.03511 0.001
v -0.080856 -0.042939 0.001
v -0.095052 -0.042939 0.001
v -0.105602 -0.041957 0.001
v -0.114017 -0.03933 0.001
v -0.120837 -0.03528 0.001
v -0.126446 -0.02974 0.001
v -0.130664 -0.022846 0.001
v -0.133597 -0.013446 0.001
v -0.134515 -0.002943 0.001
v -0.133665 0.00701 0.001
v -0.131331 0.014919 0.001
v -0.095605 0.03511 0.0
v -0.080856 0.03511 0.0
v -0.107441 0.033852 0.0
v -0.115695 0.030963 0.0
v -0.122999 0.026244 0.0
v -0.127857 0.021087 0.0
v -0.131331 0.014919 0.0
v -0.133665 0.00701 0.0
v -0.134515 -0.002943 0.0
v -0.133597 -0.013446 0.0
v -0.130664 -0.022846 0.0
v -0.126446 -0.02974 0.0
v -0.120837 -0.03528 0.0
v -0.114017 -0.03933 0.0
v -0.105602 -0.041957 0.0
v -0.095052 -0.042939 0.0
v -0.080856 -0.042939 0.0
v -0.047929 -0.042939 0.001
v -0.047929 -0.053914 0.001
v 0.005729 -0.053914 0.001
v 0.005729 0.046086 0.001
v -0.04549 0.046086 0.001
v -0.04549 0.03511 0.001
v -0.007685 0.03511 0.001
v -0.007685 0.002183 0.001
v -0.043051 0.002183 0.001
v -0.043051 -0.008792 0.001
v -0.007685 -0.008792 0.001
v -0.007685 -0.042939 0.001
v 0.025241 -0.037756 0.001
v 0.025241 -0.048731 0.001
v 0.035901 -0.053108 0.001
v 0.052757 -0.055134 0.001
v 0.050022 -0.055087 0.001
v 0.06508 -0.053856 0.001
v 0.074773 -0.05052 0.001
v 0.082816 -0.045383 0.001
v 0.090328 -0.037476 0.001
v 0.095655 -0.027967 0.001
v 0.098665 -0.017382 0.001
v 0.099632 -0.005801 0.001
v 0.048774 0.047305 0.001
v 0.058818 0.046485 0.001
v 0.069966 0.043247 0.001
v 0.079465 0.037779 0.001
v 0.088493 0.029096 0.001
v 0.094354 0.019747 0.001
v 0.098193 0.008416 0.001
v 0.025241 0.043342 0.001
v 0.036803 0.046479 0.001
v 0.025241 0.029927 0.001
v 0.04866 0.03633 0.001
v 0.036505 0.03475 0.001
v 0.086217 -0.004981 0.001
v 0.08574 0.002799 0.001
v 0.083074 0.013504 0.001
v 0.078952 0.021225 0.001
v 0.072913 0.027892 0.001
v 0.065992 0.032523 0.001
v 0.058507 0.035224 0.001
v 0.050908 -0.044158 0.001
v 0.060236 -0.043112 0.001
v 0.067522 -0.04043 0.001
v 0.073659 -0.036293 0.001
v 0.078352 -0.031342 0.001
v 0.082488 -0.024408 0.001
v 0.085204 -0.015807 0.001
v 0.027034 -0.038749 0.001
v 0.037634 -0.042685 0.001
v 0.108168 -0.042939 0.001
v 0.108168 -0.053914 0.001
v 0.159388 -0.053914 0.001
v 0.159388 0.046086 0.001
v 0.145973 0.046086 0.001
v 0.145973 -0.042939 0.001
usemtl 1
f 1// 2// 3//
f 4// 5// 6//
f 7// 8// 9//
f 9// 8// 10//
f 11// 12// 13//
f 13// 12// 14//
f 12// 15// 14//
f 14// 15// 16//
f 14// 16// 10//
f 10// 16// 17//
f 10// 17// 9//
f 18// 19// 20//
f 21// 22// 23//
f 24// 25// 26//
f 26// 25// 27//
f 6// 28// 4//
f 4// 28// 29//
f 4// 29// 13//
f 13// 29// 30//
f 13// 30// 11//
f 11// 30// 25//
f 11// 25// 31//
f 31// 25// 24//
f 27// 21// 32//
f 32// 21// 23//
f 32// 23// 30//
f 30// 23// 33//
f 30// 33// 25//
f 34// 35// 36//
f 36// 35// 23//
f 36// 23// 37//
f 37// 23// 22//
f 37// 22// 38//
f 38// 22// 39//
f 40// 41// 42//
f 42// 41// 43//
f 42// 43// 44//
f 45// 46// 42//
f 42// 46// 47//
f 48// 49// 50//
f 50// 49// 51//
f 47// 52// 42//
f 42// 52// 51//
f 42// 51// 53//
f 53// 51// 49//
f 54// 55// 32//
f 32// 55// 56//
f 32// 56// 27//
f 27// 56// 57//
f 27// 57// 26//
f 26// 57// 58//
f 26// 58// 42//
f 42// 58// 59//
f 42// 59// 40//
f 60// 61// 62//
f 62// 61// 63//
f 62// 63// 64//
f 44// 65// 42//
f 42// 65// 66//
f 42// 66// 45//
f 67// 68// 69//
f 69// 68// 70//
f 69// 70// 71//
f 71// 70// 72//
f 71// 72// 73//
f 74// 75// 76//
f 76// 75// 77//
f 76// 77// 32//
f 32// 77// 78//
f 32// 78// 54//
f 54// 78// 62//
f 54// 62// 79//
f 79// 62// 64//
f 18// 80// 78//
f 78// 80// 81//
f 78// 81// 62//
f 20// 82// 18//
f 18// 82// 17//
f 18// 17// 80//
f 80// 17// 16//
f 80// 16// 69//
f 69// 16// 83//
f 69// 83// 67//
f 72// 84// 73//
f 73// 84// 85//
f 73// 85// 62//
f 62// 85// 86//
f 62// 86// 60//
f 87// 88// 30//
f 89// 90// 91//
f 92// 93// 88//
f 88// 93// 94//
f 88// 94// 95//
f 96// 97// 98//
f 98// 97// 99//
f 98// 99// 100//
f 90// 89// 101//
f 89// 102// 103//
f 104// 105// 102//
f 102// 105// 106//
f 102// 106// 32//
f 95// 107// 88//
f 88// 107// 108//
f 88// 108// 30//
f 99// 89// 100//
f 100// 89// 91//
f 100// 91// 30//
f 30// 91// 109//
f 30// 109// 87//
f 87// 109// 110//
f 87// 110// 111//
f 103// 112// 89//
f 89// 112// 113//
f 89// 113// 101//
f 101// 113// 114//
f 101// 114// 115//
f 115// 116// 101//
f 101// 116// 117//
f 101// 117// 88//
f 88// 117// 118//
f 88// 118// 92//
f 108// 119// 30//
f 30// 119// 120//
f 30// 120// 32//
f 32// 120// 121//
f 32// 121// 102//
f 102// 121// 122//
f 102// 122// 103//
f 123// 124// 125//
f 125// 124// 126//
f 3// 127// 1//
f 1// 127// 100//
f 1// 100// 128//
f 128// 100// 30//
f 128// 30// 126//
f 126// 30// 29//
f 126// 29// 125//
f 28// 6// 129//
f 7// 9// 130//
f 130// 9// 131//
f 130// 131// 132//
f 132// 131// 133//
f 132// 133// 134//
f 134// 133// 135//
f 134// 135// 136//
f 136// 135// 137//
f 136// 137// 138//
f 138// 137// 139//
f 138// 139// 140//
f 140// 139// 141//
f 140// 141// 129//
f 129// 141// 142//
f 129// 142// 28//
usemtl 2
f 143// 10// 144//
f 144// 10// 8//
f 4// 145// 5//
f 5// 145// 146//
usemtl 1
f 106// 105// 147//
f 96// 98// 148//
f 148// 98// 149//
f 148// 149// 150//
f 150// 149// 151//
f 150// 151// 152//
f 152// 151// 153//
f 152// 153// 154//
f 154// 153// 155//
f 154// 155// 156//
f 156// 155// 157//
f 156// 157// 158//
f 158// 157// 159//
f 158// 159// 160//
f 160// 159// 161//
f 160// 161// 147//
f 147// 161// 162//
f 147// 162// 106//
usemtl 2
f 163// 99// 164//
f 164// 99// 97//
f 102// 165// 104//
f 104// 165// 166//
usemtl 1
f 82// 167// 17//
f 17// 167// 131//
f 17// 131// 9//
f 168// 76// 162//
f 162// 76// 32//
f 162// 32// 106//
f 149// 98// 169//
f 169// 98// 100//
f 169// 100// 127//
f 28// 142// 29//
f 29// 142// 170//
f 29// 170// 125//
f 135// 133// 171//
f 171// 133// 172//
f 172// 133// 131//
f 172// 131// 173//
f 174// 175// 176//
f 131// 167// 173//
f 173// 167// 174//
f 173// 174// 177//
f 177// 174// 176//
f 178// 179// 180//
f 180// 179// 181//
f 180// 181// 182//
f 183// 184// 185//
f 185// 184// 186//
f 185// 186// 175//
f 175// 186// 187//
f 175// 187// 176//
f 142// 141// 188//
f 159// 189// 161//
f 161// 189// 190//
f 171// 191// 135//
f 135// 191// 192//
f 135// 192// 137//
f 137// 192// 193//
f 137// 193// 139//
f 139// 193// 194//
f 139// 194// 141//
f 141// 194// 195//
f 141// 195// 188//
f 142// 188// 170//
f 170// 188// 196//
f 170// 196// 197//
f 197// 196// 198//
f 197// 198// 199//
f 199// 198// 200//
f 199// 200// 201//
f 201// 200// 202//
f 201// 202// 178//
f 178// 202// 203//
f 178// 203// 179//
f 185// 204// 183//
f 183// 204// 205//
f 183// 205// 206//
f 206// 205// 168//
f 206// 168// 190//
f 190// 168// 162//
f 190// 162// 161//
f 153// 151// 207//
f 207// 151// 149//
f 207// 149// 182//
f 182// 149// 169//
f 182// 169// 180//
f 207// 208// 153//
f 153// 208// 209//
f 153// 209// 155//
f 155// 209// 210//
f 155// 210// 157//
f 157// 210// 211//
f 157// 211// 159//
f 159// 211// 212//
f 159// 212// 189//
usemtl 2
f 213// 214// 215//
f 215// 214// 216//
f 217// 218// 219//
f 219// 218// 220//
f 221// 222// 223//
f 223// 222// 224//
f 225// 226// 227//
f 227// 226// 228//
f 229// 230// 231//
f 231// 230// 232//
f 231// 232// 233//
f 233// 232// 234//
f 233// 234// 235//
f 235// 234// 236//
f 235// 236// 237//
f 237// 236// 238//
f 237// 238// 239//
f 239// 238// 240//
f 239// 240// 241//
f 241// 240// 242//
f 241// 242// 243//
f 243// 242// 244//
f 243// 244// 245//
f 245// 244// 246//
f 245// 246// 247//
f 247// 246// 248//
f 247// 248// 249//
f 249// 248// 250//
f 249// 250// 251//
f 251// 250// 252//
f 251// 252// 253//
f 253// 252// 254//
f 253// 254// 255//
f 255// 254// 256//
f 255// 256// 257//
f 257// 256// 258//
f 257// 258// 259//
f 258// 260// 259//
f 259// 260// 261//
f 259// 261// 262//
f 262// 261// 263//
f 262// 263// 264//
f 264// 263// 265//
f 264// 265// 266//
f 266// 265// 267//
f 266// 267// 268//
f 268// 267// 269//
f 268// 269// 270//
f 270// 269// 271//
f 270// 271// 272//
f 272// 271// 273//
f 272// 273// 274//
f 274// 273// 275//
f 274// 275// 276//
f 276// 275// 277//
f 276// 277// 278//
f 278// 277// 279//
f 278// 279// 280//
f 280// 279// 281//
f 280// 281// 282//
f 282// 281// 283//
f 282// 283// 284//
f 284// 283// 285//
f 284// 285// 286//
f 286// 285// 287//
f 286// 287// 288//
f 288// 287// 289//
f 288// 289// 229//
f 229// 289// 290//
f 229// 290// 230//
f 223// 224// 291//
f 291// 224// 292//
f 291// 292// 293//
f 293// 292// 294//
f 293// 294// 295//
f 295// 294// 296//
f 295// 296// 297//
f 297// 296// 298//
f 297// 298// 299//
f 299// 298// 300//
f 299// 300// 301//
f 301// 300// 302//
f 301// 302// 303//
f 303// 302// 304//
f 303// 304// 305//
f 305// 304// 306//
f 305// 306// 307//
f 307// 306// 308//
f 307// 308// 309//
f 309// 308// 310//
f 309// 310// 311//
f 311// 310// 312//
f 311// 312// 225//
f 225// 312// 226//
f 219// 220// 313//
f 313// 220// 314//
f 313// 314// 315//
f 315// 314// 316//
f 315// 316// 317//
f 317// 316// 318//
f 317// 318// 319//
f 319// 318// 320//
f 319// 320// 321//
f 321// 320// 322//
f 321// 322// 323//
f 323// 322// 324//
f 323// 324// 325//
f 325// 324// 326//
f 325// 326// 327//
f 327// 326// 328//
f 327// 328// 329//
f 329// 328// 330//
f 329// 330// 331//
f 331// 330// 332//
f 331// 332// 333//
f 333// 332// 334//
f 333// 334// 221//
f 221// 334// 222//
f 215// 216// 335//
f 335// 216// 336//
f 335// 336// 337//
f 337// 336// 338//
f 337// 338// 339//
f 339// 338// 340//
f 339// 340// 341//
f 341// 340// 342//
f 341// 342// 343//
f 343// 342// 344//
f 343// 344// 345//
f 345// 344// 346//
f 345// 346// 347//
f 347// 346// 348//
f 347// 348// 349//
f 349// 348// 350//
f 349// 350// 351//
f 351// 350// 352//
f 351// 352// 353//
f 353// 352// 354//
f 353// 354// 355//
f 355// 354// 356//
f 355// 356// 217//
f 217// 356// 218//
f 227// 228// 357//
f 357// 228// 358//
f 357// 358// 359//
f 359// 358// 360//
f 359// 360// 361//
f 361// 360// 362//
f 361// 362// 363//
f 363// 362// 364//
f 363// 364// 365//
f 365// 364// 366//
f 365// 366// 367//
f 367// 366// 368//
f 367// 368// 369//
f 369// 368// 370//
f 369// 370// 371//
f 371// 370// 372//
f 371// 372// 373//
f 373// 372// 374//
f 373// 374// 375//
f 375// 374// 376//
f 375// 376// 377//
f 377// 376// 378//
f 377// 378// 213//
f 213// 378// 214//
usemtl 3
f 379// 255// 257//
f 379// 257// 380//
f 380// 257// 259//
f 380// 259// 381//
f 381// 259// 262//
f 381// 262// 382//
f 382// 262// 264//
f 382// 264// 383//
f 383// 264// 266//
f 383// 266// 384//
f 384// 266// 268//
f 384// 268// 385//
f 385// 268// 386//
f 386// 268// 270//
f 386// 270// 272//
f 386// 272// 387//
f 387// 272// 274//
f 387// 274// 388//
f 388// 274// 276//
f 388// 276// 389//
f 389// 276// 278//
f 389// 278// 390//
f 390// 278// 280//
f 390// 280// 391//
f 391// 280// 282//
f 391// 282// 392//
f 392// 282// 284//
f 392// 284// 393//
f 393// 284// 394//
f 394// 284// 286//
f 394// 286// 288//
f 394// 288// 395//
f 395// 288// 229//
f 395// 229// 396//
f 396// 229// 231//
f 396// 231// 397//
f 397// 231// 233//
f 397// 233// 398//
f 398// 233// 235//
f 398// 235// 399//
f 399// 235// 237//
f 399// 237// 400//
f 400// 237// 401//
f 401// 237// 239//
f 401// 239// 241//
f 401// 241// 402//
f 402// 241// 243//
f 402// 243// 403//
f 403// 243// 245//
f 403// 245// 404//
f 404// 245// 247//
f 404// 247// 405//
f 405// 247// 249//
f 405// 249// 406//
f 406// 249// 251//
f 406// 251// 407//
f 407// 251// 253//
f 407// 253// 408//
f 408// 253// 379//
f 379// 253// 255//
f 409// 410// 411//
f 412// 413// 414//
f 414// 415// 416//
f 416// 415// 417//
f 418// 419// 412//
f 412// 419// 420//
f 412// 420// 413//
f 421// 422// 412//
f 414// 416// 412//
f 412// 416// 423//
f 412// 423// 421//
f 422// 424// 412//
f 412// 424// 425//
f 412// 425// 426//
f 427// 428// 429//
f 429// 428// 430//
f 430// 428// 431//
f 431// 428// 432//
f 431// 432// 433//
f 417// 434// 416//
f 416// 434// 435//
f 416// 435// 436//
f 436// 435// 437//
f 437// 438// 436//
f 436// 438// 439//
f 436// 439// 440//
f 440// 439// 428//
f 440// 428// 441//
f 441// 428// 427//
f 433// 442// 431//
f 431// 442// 443//
f 431// 443// 411//
f 411// 443// 444//
f 411// 444// 409//
f 418// 445// 419//
f 419// 445// 446//
f 419// 446// 447//
f 447// 448// 419//
f 419// 448// 449//
f 419// 449// 450//
f 450// 449// 451//
f 450// 451// 452//
f 452// 451// 453//
f 453// 451// 454//
f 453// 454// 455//
f 455// 454// 456//
f 455// 456// 457//
f 457// 458// 455//
f 455// 458// 459//
f 455// 459// 460//
f 460// 461// 455//
f 455// 461// 411//
f 455// 411// 462//
f 462// 411// 410//
f 393// 463// 464//
f 463// 465// 466//
f 465// 467// 468//
f 467// 469// 470//
f 469// 471// 472//
f 471// 411// 461//
f 471// 461// 472//
f 472// 461// 460//
f 472// 460// 473//
f 473// 460// 459//
f 473// 459// 474//
f 474// 459// 458//
f 474// 458// 475//
f 475// 458// 457//
f 475// 457// 476//
f 476// 457// 456//
f 476// 456// 477//
f 477// 456// 454//
f 477// 454// 478//
f 469// 472// 470//
f 470// 472// 473//
f 470// 473// 479//
f 479// 473// 474//
f 479// 474// 480//
f 480// 474// 475//
f 480// 475// 481//
f 481// 475// 476//
f 481// 476// 482//
f 482// 476// 477//
f 482// 477// 483//
f 483// 477// 478//
f 483// 478// 484//
f 467// 470// 468//
f 468// 470// 479//
f 468// 479// 485//
f 485// 479// 480//
f 485// 480// 486//
f 486// 480// 481//
f 486// 481// 487//
f 487// 481// 482//
f 487// 482// 488//
f 488// 482// 483//
f 488// 483// 489//
f 489// 483// 484//
f 489// 484// 490//
f 465// 468// 466//
f 466// 468// 485//
f 466// 485// 491//
f 491// 485// 486//
f 491// 486// 492//
f 492// 486// 487//
f 492// 487// 493//
f 493// 487// 488//
f 493// 488// 494//
f 494// 488// 489//
f 494// 489// 495//
f 495// 489// 490//
f 495// 490// 496//
f 463// 466// 464//
f 464// 466// 491//
f 464// 491// 497//
f 497// 491// 492//
f 497// 492// 498//
f 498// 492// 493//
f 498// 493// 499//
f 499// 493// 494//
f 499// 494// 500//
f 500// 494// 495//
f 500// 495// 501//
f 501// 495// 496//
f 501// 496// 502//
f 393// 464// 392//
f 392// 464// 497//
f 392// 497// 391//
f 391// 497// 498//
f 391// 498// 390//
f 390// 498// 499//
f 390// 499// 389//
f 389// 499// 500//
f 389// 500// 388//
f 388// 500// 501//
f 388// 501// 387//
f 387// 501// 502//
f 387// 502// 386//
f 431// 411// 471//
f 431// 471// 503//
f 503// 471// 469//
f 503// 469// 504//
f 504// 469// 467//
f 504// 467// 505//
f 505// 467// 465//
f 505// 465// 506//
f 506// 465// 463//
f 506// 463// 507//
f 507// 463// 393//
f 507// 393// 394//
f 454// 451// 508//
f 454// 508// 478//
f 478// 508// 509//
f 478// 509// 484//
f 484// 509// 510//
f 484// 510// 490//
f 490// 510// 511//
f 490// 511// 496//
f 496// 511// 512//
f 496// 512// 502//
f 502// 512// 385//
f 502// 385// 386//
f 436// 440// 513//
f 513// 440// 514//
f 513// 514// 515//
f 515// 514// 516//
f 515// 516// 517//
f 517// 516// 518//
f 517// 518// 519//
f 519// 518// 520//
f 519// 520// 521//
f 521// 520// 522//
f 521// 522// 400//
f 400// 522// 399//
f 440// 441// 514//
f 514// 441// 523//
f 514// 523// 516//
f 516// 523// 524//
f 516// 524// 518//
f 518// 524// 525//
f 518// 525// 520//
f 520// 525// 526//
f 520// 526// 522//
f 522// 526// 527//
f 522// 527// 399//
f 399// 527// 398//
f 441// 427// 523//
f 523// 427// 528//
f 523// 528// 524//
f 524// 528// 529//
f 524// 529// 525//
f 525// 529// 530//
f 525// 530// 526//
f 526// 530// 531//
f 526// 531// 527//
f 527// 531// 532//
f 527// 532// 398//
f 398// 532// 397//
f 427// 429// 528//
f 528// 429// 533//
f 528// 533// 529//
f 529// 533// 534//
f 529// 534// 530//
f 530// 534// 535//
f 530// 535// 531//
f 531// 535// 536//
f 531// 536// 532//
f 532// 536// 537//
f 532// 537// 397//
f 397// 537// 396//
f 429// 430// 533//
f 533// 430// 538//
f 533// 538// 534//
f 534// 538// 539//
f 534// 539// 535//
f 535// 539// 540//
f 535// 540// 536//
f 536// 540// 541//
f 536// 541// 537//
f 537// 541// 542//
f 537// 542// 396//
f 396// 542// 395//
f 430// 431// 538//
f 538// 431// 503//
f 538// 503// 539//
f 539// 503// 504//
f 539// 504// 540//
f 540// 504// 505//
f 540// 505// 541//
f 541// 505// 506//
f 541// 506// 542//
f 542// 506// 507//
f 542// 507// 395//
f 395// 507// 394//
f 451// 449// 508//
f 508// 449// 543//
f 508// 543// 509//
f 509// 543// 544//
f 509// 544// 510//
f 510// 544// 545//
f 510// 545// 511//
f 511// 545// 546//
f 511// 546// 512//
f 512// 546// 547//
f 512// 547// 385//
f 385// 547// 384//
f 449// 448// 543//
f 543// 448// 548//
f 543// 548// 544//
f 544// 548// 549//
f 544// 549// 545//
f 545// 549// 550//
f 545// 550// 546//
f 546// 550// 551//
f 546// 551// 547//
f 547// 551// 552//
f 547// 552// 384//
f 384// 552// 383//
f 448// 447// 548//
f 548// 447// 553//
f 548// 553// 549//
f 549// 553// 554//
f 549// 554// 550//
f 550// 554// 555//
f 550// 555// 551//
f 551// 555// 556//
f 551// 556// 552//
f 552// 556// 557//
f 552// 557// 383//
f 383// 557// 382//
f 447// 446// 553//
f 553// 446// 558//
f 553// 558// 554//
f 554// 558// 559//
f 554// 559// 555//
f 555// 559// 560//
f 555// 560// 556//
f 556// 560// 561//
f 556// 561// 557//
f 557// 561// 562//
f 557// 562// 382//
f 382// 562// 381//
f 446// 445// 558//
f 558// 445// 563//
f 558// 563// 559//
f 559// 563// 564//
f 559// 564// 560//
f 560// 564// 565//
f 560// 565// 561//
f 561// 565// 566//
f 561// 566// 562//
f 562// 566// 567//
f 562// 567// 381//
f 381// 567// 380//
f 445// 418// 563//
f 563// 418// 568//
f 563// 568// 564//
f 564// 568// 569//
f 564// 569// 565//
f 565// 569// 570//
f 565// 570// 566//
f 566// 570// 571//
f 566// 571// 567//
f 567// 571// 572//
f 567// 572// 380//
f 380// 572// 379//
f 416// 436// 513//
f 416// 513// 573//
f 573// 513// 515//
f 573// 515// 574//
f 574// 515// 517//
f 574// 517// 575//
f 575// 517// 519//
f 575// 519// 576//
f 576// 519// 521//
f 576// 521// 577//
f 577// 521// 400//
f 577// 400// 401//
f 418// 412// 578//
f 418// 578// 568//
f 568// 578// 579//
f 568// 579// 569//
f 569// 579// 580//
f 569// 580// 570//
f 570// 580// 581//
f 570// 581// 571//
f 571// 581// 582//
f 571// 582// 572//
f 572// 582// 408//
f 572// 408// 379//
f 408// 582// 583//
f 582// 581// 584//
f 581// 580// 585//
f 580// 579// 586//
f 579// 578// 587//
f 578// 412// 426//
f 578// 426// 587//
f 587// 426// 425//
f 587// 425// 588//
f 588// 425// 424//
f 588// 424// 589//
f 589// 424// 422//
f 589// 422// 590//
f 590// 422// 421//
f 590// 421// 591//
f 591// 421// 423//
f 591// 423// 592//
f 592// 423// 416//
f 592// 416// 573//
f 579// 587// 586//
f 586// 587// 588//
f 586// 588// 593//
f 593// 588// 589//
f 593// 589// 594//
f 594// 589// 590//
f 594// 590// 595//
f 595// 590// 591//
f 595// 591// 596//
f 596// 591// 592//
f 596// 592// 597//
f 597// 592// 573//
f 597// 573// 574//
f 580// 586// 585//
f 585// 586// 593//
f 585// 593// 598//
f 598// 593// 594//
f 598// 594// 599//
f 599// 594// 595//
f 599// 595// 600//
f 600// 595// 596//
f 600// 596// 601//
f 601// 596// 597//
f 601// 597// 602//
f 602// 597// 574//
f 602// 574// 575//
f 581// 585// 584//
f 584// 585// 598//
f 584// 598// 603//
f 603// 598// 599//
f 603// 599// 604//
f 604// 599// 600//
f 604// 600// 605//
f 605// 600// 601//
f 605// 601// 606//
f 606// 601// 602//
f 606// 602// 607//
f 607// 602// 575//
f 607// 575// 576//
f 582// 584// 583//
f 583// 584// 603//
f 583// 603// 608//
f 608// 603// 604//
f 608// 604// 609//
f 609// 604// 605//
f 609// 605// 610//
f 610// 605// 606//
f 610// 606// 611//
f 611// 606// 607//
f 611// 607// 612//
f 612// 607// 576//
f 612// 576// 577//
f 408// 583// 407//
f 407// 583// 608//
f 407// 608// 406//
f 406// 608// 609//
f 406// 609// 405//
f 405// 609// 610//
f 405// 610// 404//
f 404// 610// 611//
f 404// 611// 403//
f 403// 611// 612//
f 403// 612// 402//
f 402// 612// 577//
f 402// 577// 401//
usemtl 2
f 315// 317// 613//
f 319// 321// 614//
f 267// 265// 615//
f 615// 265// 616//
f 615// 616// 617//
f 617// 616// 618//
f 617// 618// 619//
f 619// 618// 620//
f 619// 620// 621//
f 621// 620// 622//
f 621// 622// 623//
f 623// 622// 624//
f 269// 267// 625//
f 625// 267// 615//
f 625// 615// 626//
f 626// 615// 617//
f 626// 617// 627//
f 627// 617// 619//
f 627// 619// 628//
f 628// 619// 621//
f 628// 621// 629//
f 629// 621// 623//
f 629// 623// 221//
f 221// 623// 333//
f 323// 325// 630//
f 630// 325// 624//
f 630// 624// 631//
f 631// 624// 622//
f 631// 622// 632//
f 632// 622// 620//
f 632// 620// 633//
f 633// 620// 618//
f 633// 618// 634//
f 634// 618// 616//
f 634// 616// 263//
f 263// 616// 265//
f 325// 327// 624//
f 624// 327// 329//
f 624// 329// 623//
f 623// 329// 331//
f 623// 331// 333//
f 263// 261// 634//
f 634// 261// 635//
f 634// 635// 633//
f 633// 635// 636//
f 633// 636// 632//
f 632// 636// 637//
f 632// 637// 631//
f 631// 637// 638//
f 631// 638// 630//
f 630// 638// 614//
f 630// 614// 323//
f 323// 614// 321//
f 317// 319// 613//
f 613// 319// 614//
f 613// 614// 639//
f 639// 614// 638//
f 639// 638// 640//
f 640// 638// 637//
f 640// 637// 641//
f 641// 637// 636//
f 641// 636// 642//
f 642// 636// 635//
f 642// 635// 260//
f 260// 635// 261//
f 313// 315// 643//
f 643// 315// 613//
f 643// 613// 644//
f 644// 613// 639//
f 644// 639// 645//
f 645// 639// 640//
f 645// 640// 646//
f 646// 640// 641//
f 646// 641// 647//
f 647// 641// 642//
f 647// 642// 258//
f 258// 642// 260//
f 258// 256// 647//
f 647// 256// 648//
f 647// 648// 646//
f 646// 648// 649//
f 646// 649// 645//
f 645// 649// 650//
f 645// 650// 644//
f 644// 650// 651//
f 644// 651// 643//
f 643// 651// 652//
f 643// 652// 313//
f 313// 652// 219//
f 271// 269// 625//
f 271// 625// 653//
f 653// 625// 626//
f 653// 626// 654//
f 654// 626// 627//
f 654// 627// 655//
f 655// 627// 628//
f 655// 628// 656//
f 656// 628// 629//
f 656// 629// 657//
f 657// 629// 221//
f 657// 221// 223//
f 256// 254// 658//
f 256// 658// 648//
f 648// 658// 659//
f 648// 659// 649//
f 649// 659// 660//
f 649// 660// 650//
f 650// 660// 661//
f 650// 661// 651//
f 651// 661// 662//
f 651// 662// 652//
f 652// 662// 217//
f 652// 217// 219//
f 293// 295// 663//
f 297// 299// 664//
f 283// 281// 665//
f 665// 281// 666//
f 665// 666// 667//
f 667// 666// 668//
f 667// 668// 669//
f 669// 668// 670//
f 669// 670// 671//
f 671// 670// 672//
f 671// 672// 673//
f 673// 672// 674//
f 285// 283// 675//
f 675// 283// 665//
f 675// 665// 676//
f 676// 665// 667//
f 676// 667// 677//
f 677// 667// 669//
f 677// 669// 678//
f 678// 669// 671//
f 678// 671// 679//
f 679// 671// 673//
f 679// 673// 225//
f 225// 673// 311//
f 301// 303// 680//
f 680// 303// 674//
f 680// 674// 681//
f 681// 674// 672//
f 681// 672// 682//
f 682// 672// 670//
f 682// 670// 683//
f 683// 670// 668//
f 683// 668// 684//
f 684// 668// 666//
f 684// 666// 279//
f 279// 666// 281//
f 303// 305// 674//
f 674// 305// 307//
f 674// 307// 673//
f 673// 307// 309//
f 673// 309// 311//
f 279// 277// 684//
f 684// 277// 685//
f 684// 685// 683//
f 683// 685// 686//
f 683// 686// 682//
f 682// 686// 687//
f 682// 687// 681//
f 681// 687// 688//
f 681// 688// 680//
f 680// 688// 664//
f 680// 664// 301//
f 301// 664// 299//
f 295// 297// 663//
f 663// 297// 664//
f 663// 664// 689//
f 689// 664// 688//
f 689// 688// 690//
f 690// 688// 687//
f 690// 687// 691//
f 691// 687// 686//
f 691// 686// 692//
f 692// 686// 685//
f 692// 685// 275//
f 275// 685// 277//
f 291// 293// 693//
f 693// 293// 663//
f 693// 663// 694//
f 694// 663// 689//
f 694// 689// 695//
f 695// 689// 690//
f 695// 690// 696//
f 696// 690// 691//
f 696// 691// 697//
f 697// 691// 692//
f 697// 692// 273//
f 273// 692// 275//
f 273// 271// 697//
f 697// 271// 653//
f 697// 653// 696//
f 696// 653// 654//
f 696// 654// 695//
f 695// 654// 655//
f 695// 655// 694//
f 694// 655// 656//
f 694// 656// 693//
f 693// 656// 657//
f 693// 657// 291//
f 291// 657// 223//
f 337// 339// 698//
f 341// 343// 699//
f 252// 250// 700//
f 700// 250// 701//
f 700// 701// 702//
f 702// 701// 703//
f 702// 703// 704//
f 704// 703// 705//
f 704// 705// 706//
f 706// 705// 707//
f 706// 707// 708//
f 708// 707// 709//
f 254// 252// 658//
f 658// 252// 700//
f 658// 700// 659//
f 659// 700// 702//
f 659// 702// 660//
f 660// 702// 704//
f 660// 704// 661//
f 661// 704// 706//
f 661// 706// 662//
f 662// 706// 708//
f 662// 708// 217//
f 217// 708// 355//
f 345// 347// 710//
f 710// 347// 709//
f 710// 709// 711//
f 711// 709// 707//
f 711// 707// 712//
f 712// 707// 705//
f 712// 705// 713//
f 713// 705// 703//
f 713// 703// 714//
f 714// 703// 701//
f 714// 701// 248//
f 248// 701// 250//
f 347// 349// 709//
f 709// 349// 351//
f 709// 351// 708//
f 708// 351// 353//
f 708// 353// 355//
f 248// 246// 714//
f 714// 246// 715//
f 714// 715// 713//
f 713// 715// 716//
f 713// 716// 712//
f 712// 716// 717//
f 712// 717// 711//
f 711// 717// 718//
f 711// 718// 710//
f 710// 718// 699//
f 710// 699// 345//
f 345// 699// 343//
f 339// 341// 698//
f 698// 341// 699//
f 698// 699// 719//
f 719// 699// 718//
f 719// 718// 720//
f 720// 718// 717//
f 720// 717// 721//
f 721// 717// 716//
f 721// 716// 722//
f 722// 716// 715//
f 722// 715// 244//
f 244// 715// 246//
f 335// 337// 723//
f 723// 337// 698//
f 723// 698// 724//
f 724// 698// 719//
f 724// 719// 725//
f 725// 719// 720//
f 725// 720// 726//
f 726// 720// 721//
f 726// 721// 727//
f 727// 721// 722//
f 727// 722// 242//
f 242// 722// 244//
f 242// 240// 727//
f 727// 240// 728//
f 727// 728// 726//
f 726// 728// 729//
f 726// 729// 725//
f 725// 729// 730//
f 725// 730// 724//
f 724// 730// 731//
f 724// 731// 723//
f 723// 731// 732//
f 723// 732// 335//
f 335// 732// 215//
f 287// 285// 675//
f 287// 675// 733//
f 733// 675// 676//
f 733// 676// 734//
f 734// 676// 677//
f 734// 677// 735//
f 735// 677// 678//
f 735// 678// 736//
f 736// 678// 679//
f 736// 679// 737//
f 737// 679// 225//
f 737// 225// 227//
f 240// 238// 738//
f 240// 738// 728//
f 728// 738// 739//
f 728// 739// 729//
f 729// 739// 740//
f 729// 740// 730//
f 730// 740// 741//
f 730// 741// 731//
f 731// 741// 742//
f 731// 742// 732//
f 732// 742// 213//
f 732// 213// 215//
f 359// 361// 743//
f 363// 365// 744//
f 236// 234// 745//
f 745// 234// 746//
f 745// 746// 747//
f 747// 746// 748//
f 747// 748// 749//
f 749// 748// 750//
f 749// 750// 751//
f 751// 750// 752//
f 751// 752// 753//
f 753// 752// 754//
f 238// 236// 738//
f 738// 236// 745//
f 738// 745// 739//
f 739// 745// 747//
f 739// 747// 740//
f 740// 747// 749//
f 740// 749// 741//
f 741// 749// 751//
f 741// 751// 742//
f 742// 751// 753//
f 742// 753// 213//
f 213// 753// 377//
f 367// 369// 755//
f 755// 369// 754//
f 755// 754// 756//
f 756// 754// 752//
f 756// 752// 757//
f 757// 752// 750//
f 757// 750// 758//
f 758// 750// 748//
f 758// 748// 759//
f 759// 748// 746//
f 759// 746// 232//
f 232// 746// 234//
f 369// 371// 754//
f 754// 371// 373//
f 754// 373// 753//
f 753// 373// 375//
f 753// 375// 377//
f 232// 230// 759//
f 759// 230// 760//
f 759// 760// 758//
f 758// 760// 761//
f 758// 761// 757//
f 757// 761// 762//
f 757// 762// 756//
f 756// 762// 763//
f 756// 763// 755//
f 755// 763// 744//
f 755// 744// 367//
f 367// 744// 365//
f 361// 363// 743//
f 743// 363// 744//
f 743// 744// 764//
f 764// 744// 763//
f 764// 763// 765//
f 765// 763// 762//
f 765// 762// 766//
f 766// 762// 761//
f 766// 761// 767//
f 767// 761// 760//
f 767// 760// 290//
f 290// 760// 230//
f 357// 359// 768//
f 768// 359// 743//
f 768// 743// 769//
f 769// 743// 764//
f 769// 764// 770//
f 770// 764// 765//
f 770// 765// 771//
f 771// 765// 766//
f 771// 766// 772//
f 772// 766// 767//
f 772// 767// 289//
f 289// 767// 290//
f 289// 287// 772//
f 772// 287// 733//
f 772// 733// 771//
f 771// 733// 734//
f 771// 734// 770//
f 770// 734// 735//
f 770// 735// 769//
f 769// 735// 736//
f 769// 736// 768//
f 768// 736// 737//
f 768// 737// 357//
f 357// 737// 227//
f 773// 774// 222//
f 222// 334// 773//
f 773// 334// 332//
f 773// 332// 775//
f 332// 330// 775//
f 775// 330// 328//
f 775// 328// 776//
f 328// 326// 776//
f 776// 326// 324//
f 776// 324// 777//
f 777// 324// 322//
f 777// 322// 778//
f 322// 320// 778//
f 778// 320// 318//
f 778// 318// 779//
f 220// 780// 314//
f 314// 780// 779//
f 314// 779// 316//
f 316// 779// 318//
f 780// 781// 779//
f 779// 781// 782//
f 779// 782// 778//
f 778// 782// 783//
f 778// 783// 777//
f 777// 783// 784//
f 777// 784// 776//
f 776// 784// 785//
f 776// 785// 775//
f 775// 785// 786//
f 775// 786// 773//
f 773// 786// 787//
f 773// 787// 774//
f 774// 787// 788//
f 781// 789// 782//
f 782// 789// 790//
f 782// 790// 783//
f 783// 790// 791//
f 783// 791// 784//
f 784// 791// 792//
f 784// 792// 785//
f 785// 792// 793//
f 785// 793// 786//
f 786// 793// 794//
f 786// 794// 787//
f 787// 794// 795//
f 787// 795// 788//
f 788// 795// 796//
f 789// 797// 790//
f 790// 797// 798//
f 790// 798// 791//
f 791// 798// 799//
f 791// 799// 792//
f 792// 799// 800//
f 792// 800// 793//
f 793// 800// 801//
f 793// 801// 794//
f 794// 801// 802//
f 794// 802// 795//
f 795// 802// 803//
f 795// 803// 796//
f 796// 803// 804//
f 797// 805// 798//
f 798// 805// 806//
f 798// 806// 799//
f 799// 806// 807//
f 799// 807// 800//
f 800// 807// 808//
f 800// 808// 801//
f 801// 808// 809//
f 801// 809// 802//
f 802// 809// 810//
f 802// 810// 803//
f 803// 810// 811//
f 803// 811// 804//
f 804// 811// 812//
f 805// 173// 806//
f 806// 173// 177//
f 806// 177// 807//
f 807// 177// 176//
f 807// 176// 808//
f 808// 176// 187//
f 808// 187// 809//
f 809// 187// 186//
f 809// 186// 810//
f 810// 186// 184//
f 810// 184// 811//
f 811// 184// 183//
f 811// 183// 812//
f 812// 183// 206//
f 172// 173// 813//
f 813// 173// 805//
f 813// 805// 814//
f 814// 805// 797//
f 814// 797// 815//
f 815// 797// 789//
f 815// 789// 816//
f 816// 789// 781//
f 816// 781// 817//
f 817// 781// 780//
f 817// 780// 218//
f 218// 780// 220//
f 206// 190// 812//
f 812// 190// 818//
f 812// 818// 804//
f 804// 818// 819//
f 804// 819// 796//
f 796// 819// 820//
f 796// 820// 788//
f 788// 820// 821//
f 788// 821// 774//
f 774// 821// 822//
f 774// 822// 222//
f 222// 822// 224//
f 823// 817// 218//
f 218// 356// 823//
f 823// 356// 354//
f 823// 354// 824//
f 354// 352// 824//
f 824// 352// 350//
f 824// 350// 825//
f 350// 348// 825//
f 825// 348// 346//
f 825// 346// 826//
f 826// 346// 344//
f 826// 344// 827//
f 344// 342// 827//
f 827// 342// 340//
f 827// 340// 828//
f 216// 829// 336//
f 336// 829// 828//
f 336// 828// 338//
f 338// 828// 340//
f 829// 830// 828//
f 828// 830// 831//
f 828// 831// 827//
f 827// 831// 832//
f 827// 832// 826//
f 826// 832// 833//
f 826// 833// 825//
f 825// 833// 834//
f 825// 834// 824//
f 824// 834// 835//
f 824// 835// 823//
f 823// 835// 836//
f 823// 836// 817//
f 817// 836// 816//
f 830// 837// 831//
f 831// 837// 838//
f 831// 838// 832//
f 832// 838// 839//
f 832// 839// 833//
f 833// 839// 840//
f 833// 840// 834//
f 834// 840// 841//
f 834// 841// 835//
f 835// 841// 842//
f 835// 842// 836//
f 836// 842// 843//
f 836// 843// 816//
f 816// 843// 815//
f 837// 844// 838//
f 838// 844// 845//
f 838// 845// 839//
f 839// 845// 846//
f 839// 846// 840//
f 840// 846// 847//
f 840// 847// 841//
f 841// 847// 848//
f 841// 848// 842//
f 842// 848// 849//
f 842// 849// 843//
f 843// 849// 850//
f 843// 850// 815//
f 815// 850// 814//
f 844// 851// 845//
f 845// 851// 852//
f 845// 852// 846//
f 846// 852// 853//
f 846// 853// 847//
f 847// 853// 854//
f 847// 854// 848//
f 848// 854// 855//
f 848// 855// 849//
f 849// 855// 856//
f 849// 856// 850//
f 850// 856// 857//
f 850// 857// 814//
f 814// 857// 813//
f 851// 188// 852//
f 852// 188// 195//
f 852// 195// 853//
f 853// 195// 194//
f 853// 194// 854//
f 854// 194// 193//
f 854// 193// 855//
f 855// 193// 192//
f 855// 192// 856//
f 856// 192// 191//
f 856// 191// 857//
f 857// 191// 171//
f 857// 171// 813//
f 813// 171// 172//
f 858// 859// 226//
f 226// 312// 858//
f 858// 312// 310//
f 858// 310// 860//
f 310// 308// 860//
f 860// 308// 306//
f 860// 306// 861//
f 306// 304// 861//
f 861// 304// 302//
f 861// 302// 862//
f 862// 302// 300//
f 862// 300// 863//
f 300// 298// 863//
f 863// 298// 296//
f 863// 296// 864//
f 224// 822// 292//
f 292// 822// 864//
f 292// 864// 294//
f 294// 864// 296//
f 822// 821// 864//
f 864// 821// 865//
f 864// 865// 863//
f 863// 865// 866//
f 863// 866// 862//
f 862// 866// 867//
f 862// 867// 861//
f 861// 867// 868//
f 861// 868// 860//
f 860// 868// 869//
f 860// 869// 858//
f 858// 869// 870//
f 858// 870// 859//
f 859// 870// 871//
f 821// 820// 865//
f 865// 820// 872//
f 865// 872// 866//
f 866// 872// 873//
f 866// 873// 867//
f 867// 873// 874//
f 867// 874// 868//
f 868// 874// 875//
f 868// 875// 869//
f 869// 875// 876//
f 869// 876// 870//
f 870// 876// 877//
f 870// 877// 871//
f 871// 877// 878//
f 820// 819// 872//
f 872// 819// 879//
f 872// 879// 873//
f 873// 879// 880//
f 873// 880// 874//
f 874// 880// 881//
f 874// 881// 875//
f 875// 881// 882//
f 875// 882// 876//
f 876// 882// 883//
f 876// 883// 877//
f 877// 883// 884//
f 877// 884// 878//
f 878// 884// 885//
f 819// 818// 879//
f 879// 818// 886//
f 879// 886// 880//
f 880// 886// 887//
f 880// 887// 881//
f 881// 887// 888//
f 881// 888// 882//
f 882// 888// 889//
f 882// 889// 883//
f 883// 889// 890//
f 883// 890// 884//
f 884// 890// 891//
f 884// 891// 885//
f 885// 891// 892//
f 818// 190// 886//
f 886// 190// 189//
f 886// 189// 887//
f 887// 189// 212//
f 887// 212// 888//
f 888// 212// 211//
f 888// 211// 889//
f 889// 211// 210//
f 889// 210// 890//
f 890// 210// 209//
f 890// 209// 891//
f 891// 209// 208//
f 891// 208// 892//
f 892// 208// 207//
f 196// 188// 893//
f 893// 188// 851//
f 893// 851// 894//
f 894// 851// 844//
f 894// 844// 895//
f 895// 844// 837//
f 895// 837// 896//
f 896// 837// 830//
f 896// 830// 897//
f 897// 830// 829//
f 897// 829// 214//
f 214// 829// 216//
f 207// 182// 892//
f 892// 182// 898//
f 892// 898// 885//
f 885// 898// 899//
f 885// 899// 878//
f 878// 899// 900//
f 878// 900// 871//
f 871// 900// 901//
f 871// 901// 859//
f 859// 901// 902//
f 859// 902// 226//
f 226// 902// 228//
f 903// 897// 214//
f 214// 378// 903//
f 903// 378// 376//
f 903// 376// 904//
f 376// 374// 904//
f 904// 374// 372//
f 904// 372// 905//
f 372// 370// 905//
f 905// 370// 368//
f 905// 368// 906//
f 906// 368// 366//
f 906// 366// 907//
f 366// 364// 907//
f 907// 364// 362//
f 907// 362// 908//
f 228// 902// 358//
f 358// 902// 908//
f 358// 908// 360//
f 360// 908// 362//
f 902// 901// 908//
f 908// 901// 909//
f 908// 909// 907//
f 907// 909// 910//
f 907// 910// 906//
f 906// 910// 911//
f 906// 911// 905//
f 905// 911// 912//
f 905// 912// 904//
f 904// 912// 913//
f 904// 913// 903//
f 903// 913// 914//
f 903// 914// 897//
f 897// 914// 896//
f 901// 900// 909//
f 909// 900// 915//
f 909// 915// 910//
f 910// 915// 916//
f 910// 916// 911//
f 911// 916// 917//
f 911// 917// 912//
f 912// 917// 918//
f 912// 918// 913//
f 913// 918// 919//
f 913// 919// 914//
f 914// 919// 920//
f 914// 920// 896//
f 896// 920// 895//
f 900// 899// 915//
f 915// 899// 921//
f 915// 921// 916//
f 916// 921// 922//
f 916// 922// 917//
f 917// 922// 923//
f 917// 923// 918//
f 918// 923// 924//
f 918// 924// 919//
f 919// 924// 925//
f 919// 925// 920//
f 920// 925// 926//
f 920// 926// 895//
f 895// 926// 894//
f 899// 898// 921//
f 921// 898// 927//
f 921// 927// 922//
f 922// 927// 928//
f 922// 928// 923//
f 923// 928// 929//
f 923// 929// 924//
f 924// 929// 930//
f 924// 930// 925//
f 925// 930// 931//
f 925// 931// 926//
f 926// 931// 932//
f 926// 932// 894//
f 894// 932// 893//
f 898// 182// 927//
f 927// 182// 181//
f 927// 181// 928//
f 928// 181// 179//
f 928// 179// 929//
f 929// 179// 203//
f 929// 203// 930//
f 930// 203// 202//
f 930// 202// 931//
f 931// 202// 200//
f 931// 200// 932//
f 932// 200// 198//
f 932// 198// 893//
f 893// 198// 196//
usemtl 1
f 127// 3// 933//
f 123// 125// 934//
f 934// 125// 170//
f 934// 170// 935//
f 935// 170// 197//
f 935// 197// 936//
f 936// 197// 199//
f 936// 199// 937//
f 937// 199// 201//
f 937// 201// 938//
f 938// 201// 178//
f 938// 178// 939//
f 939// 178// 180//
f 939// 180// 933//
f 933// 180// 169//
f 933// 169// 127//
f 82// 20// 940//
f 74// 76// 941//
f 941// 76// 168//
f 941// 168// 942//
f 942// 168// 205//
f 942// 205// 943//
f 943// 205// 204//
f 943// 204// 944//
f 944// 204// 185//
f 944// 185// 945//
f 945// 185// 175//
f 945// 175// 946//
f 946// 175// 174//
f 946// 174// 940//
f 940// 174// 167//
f 940// 167// 82//
f 947// 413// 948//
f 948// 413// 420//
f 948// 420// 949//
f 949// 420// 419//
f 949// 419// 950//
f 950// 419// 450//
f 950// 450// 951//
f 951// 450// 452//
f 951// 452// 952//
f 952// 452// 453//
f 952// 453// 953//
f 953// 453// 455//
f 953// 455// 954//
f 954// 455// 462//
f 954// 462// 955//
f 955// 462// 410//
f 955// 410// 956//
f 956// 410// 409//
f 956// 409// 957//
f 957// 409// 444//
f 957// 444// 958//
f 958// 444// 443//
f 958// 443// 959//
f 959// 443// 442//
f 959// 442// 960//
f 960// 442// 433//
f 960// 433// 961//
f 961// 433// 432//
f 961// 432// 962//
f 962// 432// 428//
f 962// 428// 963//
f 963// 428// 439//
f 963// 439// 964//
f 964// 439// 438//
f 964// 438// 965//
f 965// 438// 437//
f 965// 437// 966//
f 966// 437// 435//
f 966// 435// 967//
f 967// 435// 434//
f 967// 434// 968//
f 968// 434// 417//
f 968// 417// 969//
f 969// 417// 415//
f 969// 415// 970//
f 970// 415// 414//
f 970// 414// 947//
f 947// 414// 413//
f 969// 970// 971//
f 971// 970// 947//
f 971// 947// 948//
f 966// 967// 971//
f 971// 967// 968//
f 971// 968// 969//
f 963// 964// 971//
f 971// 964// 965//
f 971// 965// 966//
f 960// 961// 971//
f 971// 961// 962//
f 971// 962// 963//
f 957// 958// 971//
f 971// 958// 959//
f 971// 959// 960//
f 954// 955// 971//
f 971// 955// 956//
f 971// 956// 957//
f 951// 952// 971//
f 971// 952// 953//
f 971// 953// 954//
f 948// 949// 971//
f 971// 949// 950//
f 971// 950// 951//
usemtl 2
f 972// 973// 126//
f 126// 973// 128//
f 974// 972// 124//
f 124// 972// 126//
f 2// 1// 975//
f 975// 1// 976//
f 973// 976// 128//
f 128// 976// 1//
f 976// 973// 975//
f 975// 973// 972//
f 975// 972// 974//
f 977// 975// 978//
f 978// 975// 979//
f 980// 981// 974//
f 974// 981// 982//
f 974// 982// 975//
f 975// 982// 983//
f 975// 983// 979//
f 984// 145// 13//
f 13// 145// 4//
f 985// 984// 14//
f 14// 984// 13//
f 143// 985// 10//
f 10// 985// 14//
f 146// 145// 144//
f 986// 987// 146//
f 145// 984// 144//
f 144// 984// 985//
f 144// 985// 143//
f 144// 988// 989//
f 989// 990// 144//
f 144// 990// 991//
f 144// 991// 146//
f 146// 991// 992//
f 146// 992// 986//
f 993// 994// 75//
f 75// 994// 77//
f 19// 18// 995//
f 995// 18// 996//
f 997// 996// 78//
f 78// 996// 18//
f 994// 997// 77//
f 77// 997// 78//
f 996// 997// 995//
f 995// 997// 994//
f 995// 994// 993//
f 998// 995// 999//
f 999// 995// 1000//
f 1001// 1002// 993//
f 993// 1002// 1003//
f 993// 1003// 995//
f 995// 1003// 1004//
f 995// 1004// 1000//
f 1005// 165// 89//
f 89// 165// 102//
f 163// 1005// 99//
f 99// 1005// 89//
f 1005// 163// 165//
f 165// 163// 164//
f 165// 164// 166//
f 1006// 1007// 166//
f 164// 1008// 1009//
f 1009// 1010// 164//
f 164// 1010// 1011//
f 164// 1011// 166//
f 166// 1011// 1012//
f 166// 1012// 1006//
f 1013// 934// 1014//
f 1014// 934// 935//
f 1014// 935// 1015//
f 1015// 935// 936//
f 1015// 936// 1016//
f 1016// 936// 937//
f 1016// 937// 1017//
f 1017// 937// 938//
f 1017// 938// 1018//
f 1018// 938// 939//
f 1018// 939// 1019//
f 1019// 939// 933//
f 934// 1013// 123//
f 123// 1013// 980//
f 123// 980// 124//
f 124// 980// 974//
f 2// 975// 3//
f 3// 975// 977//
f 3// 977// 933//
f 933// 977// 1019//
f 1019// 977// 1018//
f 1018// 977// 978//
f 1018// 978// 1017//
f 1017// 978// 979//
f 1017// 979// 1016//
f 1016// 979// 983//
f 1016// 983// 1015//
f 1015// 983// 982//
f 1015// 982// 1014//
f 1014// 982// 981//
f 1014// 981// 1013//
f 1013// 981// 980//
f 1020// 148// 1021//
f 1021// 148// 150//
f 1021// 150// 1022//
f 1022// 150// 152//
f 1022// 152// 1023//
f 147// 1024// 160//
f 160// 1024// 1025//
f 160// 1025// 158//
f 158// 1025// 1026//
f 158// 1026// 156//
f 156// 1026// 1023//
f 156// 1023// 154//
f 154// 1023// 152//
f 148// 1020// 96//
f 96// 1020// 1008//
f 96// 1008// 97//
f 97// 1008// 164//
f 104// 166// 105//
f 105// 166// 1007//
f 105// 1007// 147//
f 147// 1007// 1024//
f 1024// 1007// 1025//
f 1025// 1007// 1006//
f 1025// 1006// 1026//
f 1026// 1006// 1012//
f 1026// 1012// 1023//
f 1023// 1012// 1011//
f 1023// 1011// 1022//
f 1022// 1011// 1010//
f 1022// 1010// 1021//
f 1021// 1010// 1009//
f 1021// 1009// 1020//
f 1020// 1009// 1008//
f 1027// 941// 1028//
f 1028// 941// 942//
f 1028// 942// 1029//
f 1029// 942// 943//
f 1029// 943// 1030//
f 1030// 943// 944//
f 1030// 944// 1031//
f 1031// 944// 945//
f 1031// 945// 1032//
f 1032// 945// 946//
f 1032// 946// 1033//
f 1033// 946// 940//
f 941// 1027// 74//
f 74// 1027// 1001//
f 74// 1001// 75//
f 75// 1001// 993//
f 19// 995// 20//
f 20// 995// 998//
f 20// 998// 940//
f 940// 998// 1033//
f 1033// 998// 1032//
f 1032// 998// 999//
f 1032// 999// 1031//
f 1031// 999// 1000//
f 1031// 1000// 1030//
f 1030// 1000// 1004//
f 1030// 1004// 1029//
f 1029// 1004// 1003//
f 1029// 1003// 1028//
f 1028// 1003// 1002//
f 1028// 1002// 1027//
f 1027// 1002// 1001//
f 1034// 130// 1035//
f 1035// 130// 132//
f 1035// 132// 1036//
f 1036// 132// 134//
f 1036// 134// 1037//
f 1037// 134// 136//
f 1037// 136// 1038//
f 1038// 136// 138//
f 1038// 138// 1039//
f 1039// 138// 140//
f 1039// 140// 1040//
f 1040// 140// 129//
f 130// 1034// 7//
f 7// 1034// 988//
f 7// 988// 8//
f 8// 988// 144//
f 5// 146// 6//
f 6// 146// 987//
f 6// 987// 129//
f 129// 987// 1040//
f 1040// 987// 1039//
f 1039// 987// 986//
f 1039// 986// 1038//
f 1038// 986// 992//
f 1038// 992// 1037//
f 1037// 992// 991//
f 1037// 991// 1036//
f 1036// 991// 990//
f 1036// 990// 1035//
f 1035// 990// 989//
f 1035// 989// 1034//
f 1034// 989// 988//
usemtl 4
f 1041// 1042// 90//
f 90// 1042// 91//
f 1042// 1043// 91//
f 91// 1043// 109//
f 1043// 1044// 109//
f 109// 1044// 110//
f 1044// 1045// 110//
f 110// 1045// 111//
f 1045// 1046// 111//
f 111// 1046// 87//
f 1046// 1047// 87//
f 87// 1047// 88//
f 1047// 1048// 88//
f 88// 1048// 101//
f 1048// 1041// 101//
f 101// 1041// 90//
f 1049// 1045// 1050//
f 1050// 1045// 1044//
f 1051// 1048// 1049//
f 1049// 1048// 1047//
f 1049// 1047// 1045//
f 1045// 1047// 1046//
f 1051// 1052// 1048//
f 1048// 1052// 1053//
f 1048// 1053// 1041//
f 1041// 1053// 1054//
f 1041// 1054// 1055//
f 1055// 1056// 1041//
f 1041// 1056// 1050//
f 1041// 1050// 1042//
f 1042// 1050// 1044//
f 1042// 1044// 1043//
f 1049// 1050// 1057//
f 1057// 1050// 1058//
f 1051// 1049// 1059//
f 1059// 1049// 1057//
f 1051// 1059// 1060//
f 1051// 1060// 1052//
f 1052// 1060// 1061//
f 1052// 1061// 1053//
f 1054// 1053// 1062//
f 1062// 1053// 1061//
f 1054// 1062// 1063//
f 1054// 1063// 1055//
f 1055// 1063// 1064//
f 1055// 1064// 1056//
f 1050// 1056// 1058//
f 1058// 1056// 1064//
f 1065// 1066// 108//
f 108// 1066// 119//
f 1066// 1067// 119//
f 119// 1067// 120//
f 1067// 1068// 120//
f 120// 1068// 121//
f 1069// 117// 116//
f 1069// 116// 1070//
f 1070// 116// 115//
f 1070// 115// 1071//
f 1071// 115// 114//
f 1071// 114// 1072//
f 1072// 114// 113//
f 1072// 113// 1073//
f 1073// 113// 112//
f 1073// 112// 1074//
f 1074// 112// 103//
f 1074// 103// 1075//
f 1075// 103// 122//
f 1075// 122// 1076//
f 1076// 122// 121//
f 1076// 121// 1068//
f 1065// 108// 107//
f 1065// 107// 1077//
f 1077// 107// 95//
f 1077// 95// 1078//
f 1078// 95// 94//
f 1078// 94// 1079//
f 1079// 94// 93//
f 1079// 93// 1080//
f 1080// 93// 92//
f 1080// 92// 1081//
f 1081// 92// 118//
f 1081// 118// 1082//
f 1082// 118// 117//
f 1082// 117// 1069//
f 1071// 1072// 1083//
f 1083// 1072// 1073//
f 1083// 1073// 1084//
f 1084// 1073// 1074//
f 1084// 1074// 1085//
f 1085// 1074// 1075//
f 1085// 1075// 1086//
f 1086// 1075// 1076//
f 1086// 1076// 1087//
f 1087// 1076// 1068//
f 1087// 1068// 1088//
f 1088// 1068// 1067//
f 1088// 1067// 1089//
f 1089// 1067// 1066//
f 1089// 1066// 1090//
f 1090// 1066// 1065//
f 1090// 1065// 1091//
f 1091// 1065// 1077//
f 1091// 1077// 1092//
f 1092// 1077// 1078//
f 1092// 1078// 1093//
f 1093// 1078// 1079//
f 1093// 1079// 1094//
f 1094// 1079// 1080//
f 1094// 1080// 1095//
f 1095// 1080// 1081//
f 1095// 1081// 1096//
f 1096// 1081// 1082//
f 1096// 1082// 1097//
f 1097// 1082// 1069//
f 1097// 1069// 1098//
f 1098// 1069// 1070//
f 1098// 1070// 1099//
f 1099// 1070// 1071//
f 1099// 1071// 1083//
f 1087// 1088// 1100//
f 1100// 1088// 1101//
f 1087// 1100// 1102//
f 1087// 1102// 1086//
f 1086// 1102// 1103//
f 1086// 1103// 1085//
f 1085// 1103// 1104//
f 1085// 1104// 1084//
f 1084// 1104// 1105//
f 1084// 1105// 1083//
f 1083// 1105// 1106//
f 1083// 1106// 1099//
f 1099// 1106// 1107//
f 1099// 1107// 1098//
f 1098// 1107// 1108//
f 1098// 1108// 1097//
f 1097// 1108// 1109//
f 1097// 1109// 1096//
f 1096// 1109// 1110//
f 1096// 1110// 1095//
f 1095// 1110// 1111//
f 1095// 1111// 1094//
f 1094// 1111// 1112//
f 1094// 1112// 1093//
f 1093// 1112// 1113//
f 1093// 1113// 1092//
f 1092// 1113// 1114//
f 1092// 1114// 1091//
f 1091// 1114// 1115//
f 1091// 1115// 1090//
f 1089// 1090// 1116//
f 1116// 1090// 1115//
f 1088// 1089// 1101//
f 1101// 1089// 1116//
f 1117// 1118// 23//
f 23// 1118// 33//
f 1118// 1119// 33//
f 33// 1119// 25//
f 1119// 1120// 25//
f 25// 1120// 27//
f 1120// 1121// 27//
f 27// 1121// 21//
f 1121// 1122// 21//
f 21// 1122// 22//
f 1122// 1123// 22//
f 22// 1123// 39//
f 1123// 1124// 39//
f 39// 1124// 38//
f 1124// 1125// 38//
f 38// 1125// 37//
f 1125// 1126// 37//
f 37// 1126// 36//
f 1126// 1127// 36//
f 36// 1127// 34//
f 1127// 1128// 34//
f 34// 1128// 35//
f 1128// 1117// 35//
f 35// 1117// 23//
f 1119// 1118// 1117//
f 1117// 1128// 1119//
f 1119// 1128// 1127//
f 1119// 1127// 1120//
f 1122// 1121// 1123//
f 1123// 1121// 1120//
f 1123// 1120// 1124//
f 1124// 1120// 1127//
f 1124// 1127// 1125//
f 1125// 1127// 1126//
f 1129// 1130// 26//
f 26// 1130// 24//
f 24// 1130// 1131//
f 1132// 15// 12//
f 1132// 12// 1133//
f 1133// 12// 11//
f 1133// 11// 1131//
f 1131// 11// 31//
f 1131// 31// 24//
f 15// 1132// 16//
f 16// 1132// 1134//
f 16// 1134// 83//
f 83// 1134// 1135//
f 83// 1135// 67//
f 67// 1135// 1136//
f 67// 1136// 68//
f 68// 1136// 1137//
f 68// 1137// 70//
f 70// 1137// 1138//
f 70// 1138// 72//
f 72// 1138// 1139//
f 72// 1139// 84//
f 84// 1139// 1140//
f 84// 1140// 85//
f 1141// 54// 79//
f 1141// 79// 1142//
f 1142// 79// 64//
f 1142// 64// 1143//
f 1143// 64// 63//
f 1143// 63// 1144//
f 1144// 63// 61//
f 1144// 61// 1145//
f 1145// 61// 60//
f 1145// 60// 1146//
f 1146// 60// 86//
f 1146// 86// 1147//
f 1147// 86// 85//
f 1147// 85// 1140//
f 1148// 56// 55//
f 1148// 55// 1149//
f 1149// 55// 54//
f 1149// 54// 1141//
f 1148// 1150// 56//
f 56// 1150// 57//
f 1151// 59// 58//
f 1151// 58// 1152//
f 1152// 58// 57//
f 1152// 57// 1150//
f 1153// 45// 66//
f 1153// 66// 1154//
f 1154// 66// 65//
f 1154// 65// 1155//
f 1155// 65// 44//
f 1155// 44// 1156//
f 1156// 44// 43//
f 1156// 43// 1157//
f 1157// 43// 41//
f 1157// 41// 1158//
f 1158// 41// 40//
f 1158// 40// 1159//
f 1159// 40// 59//
f 1159// 59// 1151//
f 1160// 49// 48//
f 1160// 48// 1161//
f 1161// 48// 50//
f 1161// 50// 1162//
f 1162// 50// 51//
f 1162// 51// 1163//
f 1163// 51// 52//
f 1163// 52// 1164//
f 1164// 52// 47//
f 1164// 47// 1165//
f 1165// 47// 46//
f 1165// 46// 1166//
f 1166// 46// 45//
f 1166// 45// 1153//
f 1129// 26// 42//
f 1129// 42// 1167//
f 1167// 42// 53//
f 1167// 53// 1168//
f 1168// 53// 49//
f 1168// 49// 1160//
f 1161// 1132// 1160//
f 1160// 1132// 1133//
f 1160// 1133// 1168//
f 1168// 1133// 1131//
f 1168// 1131// 1167//
f 1167// 1131// 1130//
f 1167// 1130// 1129//
f 1150// 1148// 1152//
f 1152// 1148// 1149//
f 1152// 1149// 1151//
f 1151// 1149// 1141//
f 1151// 1141// 1159//
f 1159// 1141// 1142//
f 1159// 1142// 1158//
f 1158// 1142// 1143//
f 1158// 1143// 1157//
f 1157// 1143// 1144//
f 1157// 1144// 1156//
f 1156// 1144// 1145//
f 1156// 1145// 1155//
f 1155// 1145// 1146//
f 1155// 1146// 1154//
f 1154// 1146// 1147//
f 1154// 1147// 1153//
f 1153// 1147// 1140//
f 1153// 1140// 1166//
f 1166// 1140// 1139//
f 1166// 1139// 1165//
f 1165// 1139// 1138//
f 1165// 1138// 1164//
f 1164// 1138// 1137//
f 1164// 1137// 1163//
f 1163// 1137// 1136//
f 1163// 1136// 1162//
f 1162// 1136// 1135//
f 1162// 1135// 1161//
f 1161// 1135// 1134//
f 1161// 1134// 1132//
f 1169// 1170// 71//
f 71// 1170// 69//
f 1170// 1171// 69//
f 69// 1171// 80//
f 1171// 1172// 80//
f 80// 1172// 81//
f 1172// 1173// 81//
f 81// 1173// 62//
f 1173// 1174// 62//
f 62// 1174// 73//
f 1174// 1169// 73//
f 73// 1169// 71//
f 1173// 1172// 1174//
f 1174// 1172// 1171//
f 1174// 1171// 1169//
f 1169// 1171// 1170//
usemtl 1
f 1057// 1058// 1059//
f 1059// 1058// 1064//
f 1059// 1064// 1060//
f 1060// 1064// 1063//
f 1060// 1063// 1061//
f 1061// 1063// 1062//
f 1101// 1116// 1100//
f 1100// 1116// 1115//
f 1100// 1115// 1114//
f 1108// 1107// 1100//
f 1100// 1107// 1106//
f 1100// 1106// 1102//
f 1114// 1113// 1100//
f 1100// 1113// 1112//
f 1100// 1112// 1111//
f 1111// 1110// 1100//
f 1100// 1110// 1109//
f 1100// 1109// 1108//
f 1105// 1104// 1106//
f 1106// 1104// 1103//
f 1106// 1103// 1102//
