v -1.7 -1.0125 0.0
v -2.25 -1.0125 0.0
v -2.25 0.5125 0.0
newmtl 1
Ka 1.0 0.9529411764705882 0.792156862745098
Kd 1.0 0.9529411764705882 0.792156862745098
Ks 0.30196078431372547 0.28627450980392155 0.23921568627450981
d 0.0
endmtl
v 1.283537 -1.381097 0.0
v 1.345089 -1.244058 0.0
v 1.373763 -1.28878 0.0
v 1.414918 -1.328185 0.0
v 1.467125 -1.358524 0.0
v 1.524738 -1.375697 0.0
v 1.771341 0.5125 0.0
v 1.094512 -0.881097 0.0
v 1.027439 -0.881097 0.0
v 0.905488 -1.381097 0.0
v 1.771341 -1.384146 0.0
v 0.832317 -1.381097 0.0
v -1.7 -1.384146 0.0
v 1.586604 -1.381097 0.0
v 1.722561 -1.381097 0.0
v 1.722561 -0.881097 0.0
v 1.58146 -0.881097 0.0
v 1.395779 -0.946292 0.0
v 1.360422 -0.985498 0.0
v 1.337185 -1.028499 0.0
v 1.210366 -1.381097 0.0
v 1.162633 -1.240853 0.0
v 0.956079 -1.240853 0.0
v 1.509223 -0.888819 0.0
v 1.450723 -0.909361 0.0
v 1.396302 -0.945832 0.0
v 1.323756 -1.077762 0.0
v 1.320122 -1.124809 0.0
v 1.327138 -1.191724 0.0
v 2.289797 -1.384146 0.0
v 2.30988 -1.38696 0.0
v 1.771341 -3.0375 0.0
v 2.323552 -1.387195 0.0
v 2.352956 -1.384146 0.0
v 1.820122 -1.326219 0.0
v 1.820122 -1.381097 0.0
v 2.088415 -1.381097 0.0
v 6.0 0.5125 0.0
v 6.0 -1.0125 0.0
v 5.45 -1.0125 0.0
v 2.185976 -1.355183 0.0
v 2.185976 -1.300305 0.0
v 2.088415 -0.881097 0.0
v -1.7 -3.0375 0.0
v 2.239273 -1.377066 0.0
v 2.021341 -0.935975 0.0
v 2.021341 -1.100609 0.0
v 1.832317 -0.935975 0.0
v 1.844512 -1.100609 0.0
v 2.021341 -1.155488 0.0
v 2.021341 -1.326219 0.0
v 1.844512 -1.155488 0.0
v 2.856707 -1.381097 0.0
v 2.60061 -1.381097 0.0
v 2.38517 -1.380806 0.0
v 2.433632 -1.364125 0.0
v 1.832317 -0.881097 0.0
v 2.352302 -0.935407 0.0
v 2.389726 -0.948913 0.0
v 2.194937 -1.305268 0.0
v 2.424334 -0.972065 0.0
v 2.454527 -1.005398 0.0
v 2.490854 -1.136433 0.0
v 2.485791 -1.19056 0.0
v 2.472207 -1.233568 0.0
v 2.360946 -1.327085 0.0
v 2.31431 -1.332317 0.0
v 2.397378 -1.313673 0.0
v 2.428065 -1.292991 0.0
v 2.451528 -1.268238 0.0
v 2.24794 -1.32495 0.0
v 2.531539 -1.01279 0.0
v 2.502233 -0.966043 0.0
v 2.789634 -0.881097 0.0
v 2.475141 -1.044003 0.0
v 2.488469 -1.09753 0.0
v 2.457092 -0.92263 0.0
v 2.856707 -0.881097 0.0
v 5.45 -1.384146 0.0
v 5.45 -3.0375 0.0
v 2.473851 -1.338442 0.0
v 2.511407 -1.298903 0.0
v 2.60061 -1.326219 0.0
v 2.538044 -1.25136 0.0
v 2.789634 -1.326219 0.0
v 2.553092 -1.198436 0.0
v 2.557927 -1.140529 0.0
v 2.550734 -1.069444 0.0
v 2.4096 -0.895293 0.0
v 2.353859 -0.879099 0.0
v 2.303639 -0.875 0.0
v 2.243784 -0.87913 0.0
v 2.185976 -0.894817 0.0
v 2.185976 -0.96189 0.0
v 2.242295 -0.937773 0.0
v 2.303068 -0.929878 0.0
v 0.1 -0.0375 2.075
v 0.1 -0.0375 0.4
v 0.11 -0.0375 0.5
v 0.11 -0.0375 0.35
v 2.6 -0.0375 2.075
v 2.6 -0.0375 0.4
v 2.61 -0.0375 0.5
v 2.61 -0.0375 0.35
v 1.35 -0.0375 2.075
v 1.35 -0.0375 0.4
v 1.36 -0.0375 0.5
v 1.36 -0.0375 0.35
v -0.95 -0.0375 2.725
v -1.4 -0.0375 2.725
v -0.95 -0.0375 2.125
v -1.4 -0.0375 0.5
v -0.26 -0.0375 2.125
v -0.11 -0.0375 1.825
v -0.1 -0.0375 0.4
v -0.1 -0.0375 2.075
v -0.11 -0.0375 0.35
v -0.11 -0.0375 0.5
v -0.26 -0.0375 1.825
v 1.14 -0.0375 0.35
v 1.15 -0.0375 0.4
v 1.14 -0.0375 0.5
v 2.39 -0.0375 0.35
v 2.4 -0.0375 0.4
v 2.39 -0.0375 0.5
v 0.99 -0.0375 1.825
v 1.14 -0.0375 1.825
v 1.15 -0.0375 2.075
v 0.99 -0.0375 2.125
v 0.26 -0.0375 2.125
v 0.26 -0.0375 1.825
v 0.11 -0.0375 1.825
v 0.11 -0.0375 2.125
v -0.11 -0.0375 2.125
v 2.24 -0.0375 1.825
v 2.39 -0.0375 1.825
v 2.4 -0.0375 2.075
v 5.15 -0.0375 0.5
v 5.15 -0.0375 2.725
v 4.7 -0.0375 2.125
v 4.7 -0.0375 2.725
v 2.24 -0.0375 2.125
v 1.51 -0.0375 2.125
v 1.51 -0.0375 1.825
v 1.36 -0.0375 1.825
v 1.36 -0.0375 2.125
v 1.14 -0.0375 2.125
v 3.49 -0.0375 1.825
v 3.64 -0.0375 1.825
v 3.64 -0.0375 0.5
v 3.65 -0.0375 2.075
v 3.86 -0.0375 0.5
v 3.85 -0.0375 2.075
v 3.85 -0.0375 0.4
v 3.65 -0.0375 0.4
v 3.64 -0.0375 0.35
v 3.86 -0.0375 0.35
v 3.49 -0.0375 2.125
v 2.76 -0.0375 2.125
v 2.76 -0.0375 1.825
v 2.61 -0.0375 1.825
v 2.61 -0.0375 2.125
v 2.39 -0.0375 2.125
v 4.01 -0.0375 2.125
v 4.01 -0.0375 1.825
v 3.86 -0.0375 1.825
v 3.86 -0.0375 2.125
v 3.64 -0.0375 2.125
v 3.86 0.5125 1.0625
v 3.85 0.5125 0.5
v 3.85 0.5125 2.075
v 3.64 0.5125 1.0625
v 2.6 0.5125 0.5
v 2.61 0.5125 1.0625
v 2.6 0.5125 2.075
v 2.4 0.5125 0.5
v 2.39 0.5125 1.0625
v 2.4 0.5125 2.075
v 2.39 0.5125 2.125
v 2.61 0.5125 2.125
v -2.25 0.5125 1.0625
v -0.11 0.5125 1.0625
v 1.15 0.5125 0.5
v 1.35 0.5125 0.5
v 0.1 0.5125 2.075
v -0.1 0.5125 2.075
v -0.11 0.5125 2.125
v -0.1 0.5125 0.5
v 0.1 0.5125 0.5
v 0.11 0.5125 2.125
v 0.11 0.5125 1.0625
v 1.14 0.5125 1.0625
v 1.36 0.5125 1.0625
v 1.35 0.5125 2.075
v 1.15 0.5125 2.075
v 1.14 0.5125 2.125
v 1.36 0.5125 2.125
v 6.0 0.5125 1.0625
v 3.65 0.5125 0.5
v 3.65 0.5125 2.075
v 3.64 0.5125 2.125
v 3.86 0.5125 2.125
v 2.39 0.8625 1.0625
v 2.24 1.0125 1.0625
v 1.51 1.0125 1.0625
v 1.36 0.8625 1.0625
v 3.64 0.8625 1.0625
v 3.49 1.0125 1.0625
v 2.76 1.0125 1.0625
v 2.61 0.8625 1.0625
v 6.0 1.0125 1.0625
v 4.01 1.0125 1.0625
v 3.86 0.8625 1.0625
v 3.86 -3.0375 2.125
v 3.64 -3.0375 2.125
v 4.55 -3.0375 2.125
v 4.01 -3.0375 2.125
v 4.7 -2.8875 2.125
v 2.61 -3.0375 2.125
v 2.39 -3.0375 2.125
v 3.49 -3.0375 2.125
v 2.76 -3.0375 2.125
v 1.36 -3.0375 2.125
v 1.14 -3.0375 2.125
v 2.24 -3.0375 2.125
v 1.51 -3.0375 2.125
v 1.36 -2.8875 0.5
v 2.39 -2.8875 0.5
v 2.61 -2.8875 0.5
v 3.64 -2.8875 0.5
v 3.86 -2.8875 0.5
v 5.15 -2.8875 0.5
v 2.39 -3.0375 0.35
v 1.36 -3.0375 0.35
v 3.64 -3.0375 0.35
v 2.61 -3.0375 0.35
v 5.3 -3.0375 0.35
v 3.86 -3.0375 0.35
v 1.14 0.8625 1.0625
v 0.99 1.0125 1.0625
v 0.26 1.0125 1.0625
v 0.11 0.8625 1.0625
v 0.11 -3.0375 2.125
v -0.11 -3.0375 2.125
v 0.99 -3.0375 2.125
v 0.26 -3.0375 2.125
v 1.14 -2.8875 0.5
v 0.11 -2.8875 0.5
v 0.11 -3.0375 0.35
v 1.14 -3.0375 0.35
v -0.65 1.0125 2.425
v 4.4 1.0125 2.425
v 3.49 1.0125 2.275
v 4.01 1.0125 2.275
v 6.0 1.0125 2.125
v 5.45 1.0125 2.125
v 2.24 1.0125 2.275
v 1.51 1.0125 2.275
v 0.99 1.0125 2.275
v 5.096862 1.0125 3.435043
v 5.45 1.0125 4.25
v 5.096862 1.0125 3.935885
v 4.765319 1.0125 3.935885
v 2.76 1.0125 2.275
v -2.25 1.0125 1.0625
v -2.25 1.0125 2.125
v -1.7 1.0125 2.125
v -1.015319 1.0125 3.935885
v -1.346862 1.0125 3.935885
v -1.7 1.0125 4.25
v -1.346862 1.0125 3.435043
v -1.015319 1.0125 3.435043
v 0.26 1.0125 2.275
v -0.26 1.0125 2.275
v -0.65 1.0125 3.95
v 4.4 1.0125 3.95
v 4.765319 1.0125 3.435043
v -0.26 1.0125 1.0625
v 5.58 0.9125 2.125
v 5.58 0.5125 2.125
v 5.45 0.4125 2.125
v 5.87 0.5125 2.125
v 6.0 0.4125 2.125
v 5.87 0.9125 2.125
v 5.45 -1.0125 3.65
v 5.55 -0.9125 3.65
v 5.55 -0.3 3.65
v 5.9 -0.9125 3.65
v 6.0 -1.0125 3.65
v 5.9 -0.3 3.65
v 6.0 0.4125 3.65
v 5.45 0.4125 3.65
v 0.99 -3.0375 1.975
v 1.14 -3.0375 1.975
v 2.61 -3.0375 1.975
v 2.76 -3.0375 1.975
v 3.49 -3.0375 1.975
v 3.64 -3.0375 1.975
v 4.4 -3.0375 2.275
v -0.65 -3.0375 2.275
v 1.36 -3.0375 1.975
v 1.51 -3.0375 1.975
v 2.24 -3.0375 1.975
v 2.39 -3.0375 1.975
v -0.26 -3.0375 1.975
v -0.11 -3.0375 1.975
v -0.26 -3.0375 2.125
v 0.11 -3.0375 1.975
v 0.26 -3.0375 1.975
v -1.95 -3.0375 3.95
v -0.95 -3.0375 3.95
v -0.65 -3.0375 4.1
v -0.95 -3.0375 3.425
v -1.55 -3.0375 2.875
v -0.8 -3.0375 2.875
v -2.25 -3.0375 4.25
v -2.25 -3.0375 2.125
v -1.95 -3.0375 3.425
v -1.7 -3.0375 2.125
v 4.4 -3.0375 4.1
v 6.0 -3.0375 4.25
v 5.45 -3.0375 2.125
v 6.0 -3.0375 2.125
v 5.7 -3.0375 3.425
v 5.7 -3.0375 3.95
v 4.7 -3.0375 3.95
v 4.55 -3.0375 2.875
v 3.86 -3.0375 1.975
v 4.01 -3.0375 1.975
v -0.8 -3.0375 2.125
v 4.7 -3.0375 3.425
v 5.3 -3.0375 2.875
v -1.55 -3.0375 0.35
v -0.11 -3.0375 0.35
v 6.0 -2.4375 2.125
v 6.0 -2.4375 0.6
v 6.0 -1.0125 0.6
v 6.0 -1.0125 4.25
v 5.45 -1.0125 4.25
v -2.25 -1.0125 4.25
v -1.7 -1.0125 4.25
v -0.65 -2.8875 2.425
v 0.35 -2.8875 2.425
v 0.35 -2.0875 2.425
v 3.4 -2.8875 2.425
v 4.4 -2.8875 2.425
v 3.4 -2.0875 2.425
v -2.25 -1.0125 3.65
v -2.25 0.4125 2.125
v -2.25 0.4125 3.65
v -2.25 -2.4375 2.125
v -2.25 -1.0125 0.6
v -2.25 -2.4375 0.6
v 4.4 -2.8875 3.95
v -0.65 -2.8875 3.95
v 4.7 -2.0375 3.425
v 4.7 -2.0375 3.95
v 5.7 -2.0375 3.95
v 5.7 -2.0375 3.425
v -1.95 -2.0375 3.425
v -1.95 -2.0375 3.95
v -0.95 -2.0375 3.95
v -0.95 -2.0375 3.425
v -1.7 -1.0125 0.6
v -1.95 -1.0225 0.6
v -1.95 -2.4375 0.6
v -1.7 -2.4375 0.6
v -1.75 -2.4375 0.6
v -1.75 -1.0225 0.6
v -1.75 -2.4375 2.115
v -1.7 -2.4375 2.125
v -1.95 -2.4375 2.115
v -1.7 -1.0125 3.65
v -2.15 -0.9125 3.65
v -2.15 -0.3 3.65
v -1.8 -0.9125 3.65
v -1.8 -0.3 3.65
v -1.7 0.4125 3.65
v -1.7 0.4125 2.125
v -1.83 0.5125 2.125
v -1.83 0.9125 2.125
v -2.12 0.9125 2.125
v -2.12 0.5125 2.125
v -1.4 -2.8875 0.5
v -1.4 -2.8875 2.725
v -0.95 -2.8875 2.725
v -0.95 -2.8875 2.125
v 4.7 -2.8875 2.725
v 5.15 -2.8875 2.725
v -0.11 -2.8875 0.5
v 0.35 -2.1875 2.925
v 0.35 -2.0875 2.925
v 3.4 -2.1875 2.925
v 3.4 -2.0875 2.925
v -1.95 -1.0225 0.14
v -1.75 -1.0225 0.14
newmtl 2
Ka 0.8509803921568627 0.8509803921568627 0.8509803921568627
Kd 0.8509803921568627 0.8509803921568627 0.8509803921568627
Ks 0.4235294117647059 0.4235294117647059 0.4235294117647059
d 0.0
endmtl
v -1.75 -1.027611 0.101177
v -1.95 -1.027611 0.101177
v -1.75 -1.042596 0.065
v -1.95 -1.042596 0.065
v -1.75 -1.066434 0.033934
v -1.95 -1.066434 0.033934
v -1.75 -1.0975 0.010096
v -1.95 -1.0975 0.010096
v -1.75 -1.133677 -0.004889
v -1.95 -1.133677 -0.004889
v -1.75 -1.1725 -0.01
v -1.95 -1.1725 -0.01
v -1.95 -2.8975 -0.01
v -1.75 -2.8975 -0.01
v -1.75 -2.936323 -0.004889
v -1.95 -2.936323 -0.004889
v -1.75 -2.9725 0.010096
v -1.95 -2.9725 0.010096
v -1.75 -3.003566 0.033934
v -1.95 -3.003566 0.033934
v -1.75 -3.027404 0.065
v -1.95 -3.027404 0.065
v -1.75 -3.042389 0.101177
v -1.95 -3.042389 0.101177
v -1.75 -3.0475 0.14
v -1.95 -3.0475 0.14
v -1.95 -3.0475 1.965
v -1.75 -3.0475 1.965
v -1.75 -3.042389 2.003823
v -1.95 -3.042389 2.003823
v -1.75 -3.027404 2.04
v -1.95 -3.027404 2.04
v -1.75 -3.003566 2.071066
v -1.95 -3.003566 2.071066
v -1.75 -2.9725 2.094904
v -1.95 -2.9725 2.094904
v -1.75 -2.936323 2.109889
v -1.95 -2.936323 2.109889
v -1.75 -2.8975 2.115
v -1.95 -2.8975 2.115
v -2.12 0.9125 1.15
v -2.12 0.5125 1.15
v -1.83 0.9125 1.15
v -1.83 0.5125 1.15
v -2.15 -0.9125 1.15
v -2.15 -0.3 1.15
v -1.8 -0.3 1.15
v -1.8 -0.9125 1.15
v -1.015319 -1.4875 3.435043
v -1.015319 -1.4875 3.935885
v -1.346862 -1.4875 3.935885
v -1.346862 -1.4875 3.435043
v 5.45 -2.4375 2.125
v 5.7 -2.4375 2.115
v 5.7 -2.4375 0.6
v 5.45 -2.4375 0.6
v 5.5 -2.4375 0.6
v 5.5 -2.4375 2.115
v 5.5 -1.0225 0.6
v 5.45 -1.0125 0.6
v 5.7 -1.0225 0.6
v 5.7 -2.8975 2.115
v 5.5 -2.8975 2.115
v 5.5 -2.936323 2.109889
v 5.7 -2.936323 2.109889
v 5.5 -2.9725 2.094904
v 5.7 -2.9725 2.094904
v 5.5 -3.003566 2.071066
v 5.7 -3.003566 2.071066
v 5.5 -3.027404 2.04
v 5.7 -3.027404 2.04
v 5.5 -3.042389 2.003823
v 5.7 -3.042389 2.003823
v 5.5 -3.0475 1.965
v 5.7 -3.0475 1.965
v 5.7 -3.0475 0.14
v 5.5 -3.0475 0.14
v 5.5 -3.042389 0.101177
v 5.7 -3.042389 0.101177
v 5.5 -3.027404 0.065
v 5.7 -3.027404 0.065
v 5.5 -3.003566 0.033934
v 5.7 -3.003566 0.033934
v 5.5 -2.9725 0.010096
v 5.7 -2.9725 0.010096
v 5.5 -2.936323 -0.004889
v 5.7 -2.936323 -0.004889
v 5.5 -2.8975 -0.01
v 5.7 -2.8975 -0.01
v 5.7 -1.1725 -0.01
v 5.5 -1.1725 -0.01
v 5.5 -1.133677 -0.004889
v 5.7 -1.133677 -0.004889
v 5.5 -1.0975 0.010096
v 5.7 -1.0975 0.010096
v 5.5 -1.066434 0.033934
v 5.7 -1.066434 0.033934
v 5.5 -1.042596 0.065
v 5.7 -1.042596 0.065
v 5.5 -1.027611 0.101177
v 5.7 -1.027611 0.101177
v 5.5 -1.0225 0.14
v 5.7 -1.0225 0.14
v 5.9 -0.3 1.15
v 5.9 -0.9125 1.15
v 5.55 -0.9125 1.15
v 5.55 -0.3 1.15
v 5.87 0.5125 1.15
v 5.87 0.9125 1.15
v 5.58 0.5125 1.15
v 5.58 0.9125 1.15
v 4.765319 -1.4875 3.935885
v 4.765319 -1.4875 3.435043
v 5.096862 -1.4875 3.435043
v 5.096862 -1.4875 3.935885
v -0.11 0.8625 1.0625
v -0.26 -2.8875 1.825
v -0.11 -2.8875 1.825
v 0.11 -2.8875 1.825
v 0.26 -2.8875 1.825
v 0.11 0.8625 2.125
v -0.11 0.8625 2.125
v -0.1 0.732615 2.075
v 0.1 0.732615 2.075
v 0.1 0.788884 2.067592
v -0.1 0.788884 2.067592
v 0.1 0.841318 2.045873
v -0.1 0.841318 2.045873
v 0.1 0.886345 2.011323
v -0.1 0.886345 2.011323
v 0.1 0.920895 1.966297
v -0.1 0.920895 1.966297
v 0.1 0.942614 1.913863
v -0.1 0.942614 1.913863
v 0.1 0.950022 1.857594
v -0.1 0.950022 1.857594
v 0.1 0.950022 0.44
v -0.1 0.950022 0.44
v -0.1 0.956836 0.388236
v 0.1 0.956836 0.388236
v -0.1 0.976817 0.34
v 0.1 0.976817 0.34
v -0.1 1.0086 0.298579
v 0.1 1.0086 0.298579
v -0.1 1.050022 0.266795
v 0.1 1.050022 0.266795
v -0.1 1.098258 0.246815
v 0.1 1.098258 0.246815
v -0.1 1.150022 0.24
v 0.1 1.150022 0.24
v -0.1 1.6875 0.24
v 0.1 1.6875 0.24
v 0.1 1.6875 -0.01
v 0.1 0.8125 -0.01
v -0.1 1.6875 -0.01
v -0.1 0.8125 -0.01
v 0.1 0.760736 -0.003185
v -0.1 0.760736 -0.003185
v 0.1 0.7125 0.016795
v -0.1 0.7125 0.016795
v 0.1 0.671079 0.048579
v -0.1 0.671079 0.048579
v 0.1 0.639295 0.09
v -0.1 0.639295 0.09
v 0.1 0.619315 0.138236
v -0.1 0.619315 0.138236
v 0.1 0.6125 0.19
v -0.1 0.6125 0.19
v 0.1 0.6125 0.4
v -0.1 0.6125 0.4
v -0.1 1.719852 -0.005741
v -0.1 1.8125 0.115
v -0.1 0.538382 0.496593
v -0.1 0.609093 0.425882
v -0.1 0.599102 0.45
v -0.1 0.583211 0.470711
v -0.1 0.5625 0.486603
v -0.1 1.795753 0.0525
v -0.1 1.775888 0.026612
v -0.1 1.75 0.006747
v -0.1 1.719852 0.235741
v -0.1 1.75 0.223253
v -0.1 1.775888 0.203388
v -0.1 1.808241 0.082648
v -0.1 1.795753 0.1775
v -0.1 1.808241 0.147352
v 0.1 0.538382 0.496593
v 0.1 0.599102 0.45
v 0.1 0.583211 0.470711
v 0.1 0.5625 0.486603
v 0.1 1.775888 0.203388
v 0.1 1.75 0.223253
v 0.1 1.75 0.006747
v 0.1 1.775888 0.026612
v 0.1 1.795753 0.0525
v 0.1 1.795753 0.1775
v 0.1 1.719852 0.235741
v 0.1 0.609093 0.425882
v 0.1 1.808241 0.082648
v 0.1 1.8125 0.115
v 0.1 1.719852 -0.005741
v 0.1 1.808241 0.147352
v 0.1 -2.5375 0.4
v -0.1 -2.5375 0.4
v -0.1 -2.5375 2.075
v 0.1 -2.5375 2.075
v -0.1 -2.6375 1.975
v -0.1 -2.635579 0.665588
v -0.1 -2.629888 0.684347
v -0.1 -0.320994 1.3625
v -0.1 -0.360723 1.414277
v -0.1 -0.4125 1.454006
v -0.1 -2.620647 0.701636
v -0.1 -2.608211 0.716789
v -0.1 -2.366789 0.958211
v -0.1 -0.472795 0.996019
v -0.1 -0.4125 1.020994
v -0.1 -0.360723 1.060723
v -0.1 -0.320994 1.1125
v -0.1 -2.334347 1.495112
v -0.1 -2.351636 1.504353
v -0.1 -2.366789 1.516789
v -0.1 -2.580888 0.409903
v -0.1 -2.599849 0.421817
v -0.1 -2.615683 0.437651
v -0.1 -2.627597 0.456612
v -0.1 -2.634993 0.477748
v -0.1 -2.6375 0.5
v -0.1 -2.6375 0.646079
v -0.1 -2.296079 0.9875
v -0.1 -0.5375 0.9875
v -0.1 -2.608211 1.758211
v -0.1 -2.620647 1.773364
v -0.1 -2.629888 1.790653
v -0.1 -2.635579 1.809412
v -0.1 -2.6375 1.828921
v -0.1 -2.351636 0.970647
v -0.1 -2.334347 0.979888
v -0.1 -2.315588 0.985579
v -0.1 -0.296019 1.172795
v -0.1 -0.2875 1.2375
v -0.1 -0.296019 1.302205
v -0.1 -2.315588 1.489421
v -0.1 -2.559752 0.402507
v -0.1 -0.472795 1.478981
v -0.1 -0.5375 1.4875
v -0.1 -2.296079 1.4875
v -0.1 -2.634993 1.997252
v -0.1 -2.627597 2.018388
v -0.1 -2.615683 2.037349
v -0.1 -2.599849 2.053183
v -0.1 -2.580888 2.065097
v -0.1 -2.559752 2.072493
v 0.1 -2.6375 0.5
v 0.1 -2.634993 1.997252
v 0.1 -2.6375 1.975
v 0.1 -0.320994 1.1125
v 0.1 -0.360723 1.060723
v 0.1 -0.4125 1.020994
v 0.1 -2.635579 1.809412
v 0.1 -2.629888 1.790653
v 0.1 -2.6375 1.828921
v 0.1 -2.620647 1.773364
v 0.1 -2.608211 1.758211
v 0.1 -2.366789 1.516789
v 0.1 -0.472795 1.478981
v 0.1 -0.4125 1.454006
v 0.1 -0.360723 1.414277
v 0.1 -0.320994 1.3625
v 0.1 -2.351636 1.504353
v 0.1 -2.334347 1.495112
v 0.1 -2.366789 0.958211
v 0.1 -2.608211 0.716789
v 0.1 -2.620647 0.701636
v 0.1 -2.629888 0.684347
v 0.1 -2.635579 0.665588
v 0.1 -2.6375 0.646079
v 0.1 -2.599849 2.053183
v 0.1 -2.580888 2.065097
v 0.1 -2.559752 2.072493
v 0.1 -2.615683 2.037349
v 0.1 -2.627597 2.018388
v 0.1 -2.315588 1.489421
v 0.1 -2.296079 1.4875
v 0.1 -0.5375 1.4875
v 0.1 -0.472795 0.996019
v 0.1 -0.5375 0.9875
v 0.1 -2.296079 0.9875
v 0.1 -2.634993 0.477748
v 0.1 -2.627597 0.456612
v 0.1 -2.615683 0.437651
v 0.1 -0.296019 1.302205
v 0.1 -0.2875 1.2375
v 0.1 -0.296019 1.172795
v 0.1 -2.315588 0.985579
v 0.1 -2.334347 0.979888
v 0.1 -2.351636 0.970647
v 0.1 -2.599849 0.421817
v 0.1 -2.580888 0.409903
v 0.1 -2.559752 0.402507
v 0.99 -2.8875 1.825
v 1.14 -2.8875 1.825
v 1.36 -2.8875 1.825
v 1.51 -2.8875 1.825
v 2.24 -2.8875 1.825
v 2.39 -2.8875 1.825
v 2.61 -2.8875 1.825
v 2.76 -2.8875 1.825
v 3.49 -2.8875 1.825
v 3.64 -2.8875 1.825
v 3.86 -2.8875 1.825
v 4.01 -2.8875 1.825
v 3.86 0.8625 2.125
v 3.64 0.8625 2.125
v 2.61 0.8625 2.125
v 2.39 0.8625 2.125
v 1.36 0.8625 2.125
v 1.14 0.8625 2.125
v 1.15 0.732615 2.075
v 1.35 0.732615 2.075
v 1.35 0.788884 2.067592
v 1.15 0.788884 2.067592
v 1.35 0.841318 2.045873
v 1.15 0.841318 2.045873
v 1.35 0.886345 2.011323
v 1.15 0.886345 2.011323
v 1.35 0.920895 1.966297
v 1.15 0.920895 1.966297
v 1.35 0.942614 1.913863
v 1.15 0.942614 1.913863
v 1.35 0.950022 1.857594
v 1.15 0.950022 1.857594
v 1.35 0.950022 0.44
v 1.15 0.950022 0.44
v 1.15 0.956836 0.388236
v 1.35 0.956836 0.388236
v 1.15 0.976817 0.34
v 1.35 0.976817 0.34
v 1.15 1.0086 0.298579
v 1.35 1.0086 0.298579
v 1.15 1.050022 0.266795
v 1.35 1.050022 0.266795
v 1.15 1.098258 0.246815
v 1.35 1.098258 0.246815
v 1.15 1.150022 0.24
v 1.35 1.150022 0.24
v 1.15 1.6875 0.24
v 1.35 1.6875 0.24
v 1.35 1.6875 -0.01
v 1.35 0.8125 -0.01
v 1.15 1.6875 -0.01
v 1.15 0.8125 -0.01
v 1.35 0.760736 -0.003185
v 1.15 0.760736 -0.003185
v 1.35 0.7125 0.016795
v 1.15 0.7125 0.016795
v 1.35 0.671079 0.048579
v 1.15 0.671079 0.048579
v 1.35 0.639295 0.09
v 1.15 0.639295 0.09
v 1.35 0.619315 0.138236
v 1.15 0.619315 0.138236
v 1.35 0.6125 0.19
v 1.15 0.6125 0.19
v 1.35 0.6125 0.4
v 1.15 0.6125 0.4
v 1.15 0.609093 0.425882
v 1.15 0.599102 0.45
v 1.15 0.538382 0.496593
v 1.15 0.583211 0.470711
v 1.15 0.5625 0.486603
v 1.15 1.75 0.223253
v 1.15 1.775888 0.203388
v 1.15 1.795753 0.1775
v 1.15 1.795753 0.0525
v 1.15 1.775888 0.026612
v 1.15 1.75 0.006747
v 1.15 1.808241 0.147352
v 1.15 1.8125 0.115
v 1.15 1.719852 0.235741
v 1.15 1.808241 0.082648
v 1.15 1.719852 -0.005741
v 1.35 0.599102 0.45
v 1.35 0.583211 0.470711
v 1.35 0.5625 0.486603
v 1.35 1.719852 0.235741
v 1.35 1.8125 0.115
v 1.35 0.538382 0.496593
v 1.35 1.795753 0.1775
v 1.35 1.775888 0.203388
v 1.35 1.75 0.223253
v 1.35 0.609093 0.425882
v 1.35 1.719852 -0.005741
v 1.35 1.75 0.006747
v 1.35 1.775888 0.026612
v 1.35 1.808241 0.147352
v 1.35 1.795753 0.0525
v 1.35 1.808241 0.082648
v 1.35 -2.5375 0.4
v 1.15 -2.5375 0.4
v 1.15 -2.5375 2.075
v 1.35 -2.5375 2.075
v 1.15 -2.6375 1.975
v 1.15 -0.5375 0.9875
v 1.15 -0.472795 0.996019
v 1.15 -2.296079 0.9875
v 1.15 -2.634993 0.477748
v 1.15 -2.6375 0.5
v 1.15 -2.635579 0.665588
v 1.15 -2.629888 0.684347
v 1.15 -0.320994 1.3625
v 1.15 -0.360723 1.414277
v 1.15 -0.4125 1.454006
v 1.15 -2.6375 0.646079
v 1.15 -0.4125 1.020994
v 1.15 -0.360723 1.060723
v 1.15 -0.320994 1.1125
v 1.15 -2.334347 1.495112
v 1.15 -2.351636 1.504353
v 1.15 -2.366789 1.516789
v 1.15 -2.608211 1.758211
v 1.15 -2.620647 1.773364
v 1.15 -2.629888 1.790653
v 1.15 -2.635579 1.809412
v 1.15 -2.6375 1.828921
v 1.15 -2.620647 0.701636
v 1.15 -2.608211 0.716789
v 1.15 -2.366789 0.958211
v 1.15 -2.315588 0.985579
v 1.15 -2.351636 0.970647
v 1.15 -2.334347 0.979888
v 1.15 -0.296019 1.172795
v 1.15 -0.2875 1.2375
v 1.15 -0.296019 1.302205
v 1.15 -2.315588 1.489421
v 1.15 -2.627597 0.456612
v 1.15 -2.559752 0.402507
v 1.15 -2.615683 0.437651
v 1.15 -2.580888 0.409903
v 1.15 -2.599849 0.421817
v 1.15 -0.472795 1.478981
v 1.15 -0.5375 1.4875
v 1.15 -2.296079 1.4875
v 1.15 -2.634993 1.997252
v 1.15 -2.627597 2.018388
v 1.15 -2.615683 2.037349
v 1.15 -2.599849 2.053183
v 1.15 -2.580888 2.065097
v 1.15 -2.559752 2.072493
v 1.35 -2.6375 0.5
v 1.35 -2.634993 1.997252
v 1.35 -2.6375 1.975
v 1.35 -0.320994 1.1125
v 1.35 -0.360723 1.060723
v 1.35 -0.4125 1.020994
v 1.35 -2.635579 1.809412
v 1.35 -2.629888 1.790653
v 1.35 -2.6375 1.828921
v 1.35 -2.620647 1.773364
v 1.35 -2.608211 1.758211
v 1.35 -2.366789 1.516789
v 1.35 -0.472795 1.478981
v 1.35 -0.4125 1.454006
v 1.35 -0.360723 1.414277
v 1.35 -0.320994 1.3625
v 1.35 -2.351636 1.504353
v 1.35 -2.334347 1.495112
v 1.35 -2.629888 0.684347
v 1.35 -2.620647 0.701636
v 1.35 -2.608211 0.716789
v 1.35 -2.635579 0.665588
v 1.35 -2.6375 0.646079
v 1.35 -2.599849 2.053183
v 1.35 -2.580888 2.065097
v 1.35 -2.559752 2.072493
v 1.35 -2.615683 2.037349
v 1.35 -2.627597 2.018388
v 1.35 -2.315588 1.489421
v 1.35 -2.296079 1.4875
v 1.35 -0.5375 1.4875
v 1.35 -0.296019 1.302205
v 1.35 -0.2875 1.2375
v 1.35 -0.296019 1.172795
v 1.35 -0.472795 0.996019
v 1.35 -0.5375 0.9875
v 1.35 -2.296079 0.9875
v 1.35 -2.366789 0.958211
v 1.35 -2.315588 0.985579
v 1.35 -2.351636 0.970647
v 1.35 -2.334347 0.979888
v 1.35 -2.634993 0.477748
v 1.35 -2.627597 0.456612
v 1.35 -2.559752 0.402507
v 1.35 -2.615683 0.437651
v 1.35 -2.580888 0.409903
v 1.35 -2.599849 0.421817
v 2.4 0.732615 2.075
v 2.6 0.732615 2.075
v 2.6 0.788884 2.067592
v 2.4 0.788884 2.067592
v 2.6 0.841318 2.045873
v 2.4 0.841318 2.045873
v 2.6 0.886345 2.011323
v 2.4 0.886345 2.011323
v 2.6 0.920895 1.966297
v 2.4 0.920895 1.966297
v 2.6 0.942614 1.913863
v 2.4 0.942614 1.913863
v 2.6 0.950022 1.857594
v 2.4 0.950022 1.857594
v 2.6 0.950022 0.44
v 2.4 0.950022 0.44
v 2.4 0.956836 0.388236
v 2.6 0.956836 0.388236
v 2.4 0.976817 0.34
v 2.6 0.976817 0.34
v 2.4 1.0086 0.298579
v 2.6 1.0086 0.298579
v 2.4 1.050022 0.266795
v 2.6 1.050022 0.266795
v 2.4 1.098258 0.246815
v 2.6 1.098258 0.246815
v 2.4 1.150022 0.24
v 2.6 1.150022 0.24
v 2.4 1.6875 0.24
v 2.6 1.6875 0.24
v 2.6 1.6875 -0.01
v 2.6 0.8125 -0.01
v 2.4 1.6875 -0.01
v 2.4 0.8125 -0.01
v 2.6 0.760736 -0.003185
v 2.4 0.760736 -0.003185
v 2.6 0.7125 0.016795
v 2.4 0.7125 0.016795
v 2.6 0.671079 0.048579
v 2.4 0.671079 0.048579
v 2.6 0.639295 0.09
v 2.4 0.639295 0.09
v 2.6 0.619315 0.138236
v 2.4 0.619315 0.138236
v 2.6 0.6125 0.19
v 2.4 0.6125 0.19
v 2.6 0.6125 0.4
v 2.4 0.6125 0.4
v 2.4 0.609093 0.425882
v 2.4 0.599102 0.45
v 2.4 0.538382 0.496593
v 2.4 0.583211 0.470711
v 2.4 0.5625 0.486603
v 2.4 1.719852 0.235741
v 2.4 1.8125 0.115
v 2.4 1.808241 0.082648
v 2.4 1.75 0.006747
v 2.4 1.795753 0.0525
v 2.4 1.775888 0.026612
v 2.4 1.75 0.223253
v 2.4 1.775888 0.203388
v 2.4 1.795753 0.1775
v 2.4 1.719852 -0.005741
v 2.4 1.808241 0.147352
v 2.6 0.538382 0.496593
v 2.6 0.599102 0.45
v 2.6 0.583211 0.470711
v 2.6 0.5625 0.486603
v 2.6 1.719852 0.235741
v 2.6 0.609093 0.425882
v 2.6 1.719852 -0.005741
v 2.6 1.75 0.006747
v 2.6 1.8125 0.115
v 2.6 1.775888 0.026612
v 2.6 1.795753 0.0525
v 2.6 1.808241 0.082648
v 2.6 1.808241 0.147352
v 2.6 1.795753 0.1775
v 2.6 1.775888 0.203388
v 2.6 1.75 0.223253
v 2.6 -2.5375 0.4
v 2.4 -2.5375 0.4
v 2.4 -2.5375 2.075
v 2.6 -2.5375 2.075
v 2.4 -2.6375 1.975
v 2.4 -0.360723 1.414277
v 2.4 -0.4125 1.454006
v 2.4 -0.320994 1.3625
v 2.4 -2.635579 0.665588
v 2.4 -2.629888 0.684347
v 2.4 -2.620647 0.701636
v 2.4 -2.608211 0.716789
v 2.4 -2.366789 0.958211
v 2.4 -0.472795 0.996019
v 2.4 -0.4125 1.020994
v 2.4 -0.360723 1.060723
v 2.4 -0.320994 1.1125
v 2.4 -2.580888 0.409903
v 2.4 -2.599849 0.421817
v 2.4 -2.615683 0.437651
v 2.4 -2.627597 0.456612
v 2.4 -2.634993 0.477748
v 2.4 -2.6375 0.5
v 2.4 -2.6375 0.646079
v 2.4 -2.296079 0.9875
v 2.4 -0.5375 0.9875
v 2.4 -2.351636 0.970647
v 2.4 -2.334347 0.979888
v 2.4 -2.315588 0.985579
v 2.4 -0.296019 1.172795
v 2.4 -0.2875 1.2375
v 2.4 -0.296019 1.302205
v 2.4 -2.334347 1.495112
v 2.4 -2.351636 1.504353
v 2.4 -2.366789 1.516789
v 2.4 -2.559752 0.402507
v 2.4 -2.608211 1.758211
v 2.4 -2.620647 1.773364
v 2.4 -2.629888 1.790653
v 2.4 -2.635579 1.809412
v 2.4 -2.6375 1.828921
v 2.4 -2.315588 1.489421
v 2.4 -0.472795 1.478981
v 2.4 -0.5375 1.4875
v 2.4 -2.296079 1.4875
v 2.4 -2.634993 1.997252
v 2.4 -2.627597 2.018388
v 2.4 -2.615683 2.037349
v 2.4 -2.599849 2.053183
v 2.4 -2.580888 2.065097
v 2.4 -2.559752 2.072493
v 2.6 -2.6375 0.5
v 2.6 -0.320994 1.1125
v 2.6 -0.360723 1.060723
v 2.6 -0.4125 1.020994
v 2.6 -2.634993 1.997252
v 2.6 -2.6375 1.975
v 2.6 -0.472795 1.478981
v 2.6 -0.4125 1.454006
v 2.6 -0.360723 1.414277
v 2.6 -0.320994 1.3625
v 2.6 -2.366789 0.958211
v 2.6 -2.608211 0.716789
v 2.6 -2.620647 0.701636
v 2.6 -2.629888 0.684347
v 2.6 -2.635579 0.665588
v 2.6 -2.6375 0.646079
v 2.6 -2.635579 1.809412
v 2.6 -2.629888 1.790653
v 2.6 -0.472795 0.996019
v 2.6 -0.5375 0.9875
v 2.6 -2.296079 0.9875
v 2.6 -2.634993 0.477748
v 2.6 -2.627597 0.456612
v 2.6 -2.615683 0.437651
v 2.6 -2.6375 1.828921
v 2.6 -2.620647 1.773364
v 2.6 -2.608211 1.758211
v 2.6 -2.366789 1.516789
v 2.6 -2.315588 0.985579
v 2.6 -2.334347 0.979888
v 2.6 -2.351636 0.970647
v 2.6 -2.351636 1.504353
v 2.6 -2.334347 1.495112
v 2.6 -0.296019 1.302205
v 2.6 -0.2875 1.2375
v 2.6 -0.296019 1.172795
v 2.6 -2.599849 0.421817
v 2.6 -2.580888 0.409903
v 2.6 -2.559752 0.402507
v 2.6 -2.599849 2.053183
v 2.6 -2.580888 2.065097
v 2.6 -2.559752 2.072493
v 2.6 -2.615683 2.037349
v 2.6 -2.627597 2.018388
v 2.6 -2.315588 1.489421
v 2.6 -2.296079 1.4875
v 2.6 -0.5375 1.4875
v 3.65 0.732615 2.075
v 3.85 0.732615 2.075
v 3.85 0.788884 2.067592
v 3.65 0.788884 2.067592
v 3.85 0.841318 2.045873
v 3.65 0.841318 2.045873
v 3.85 0.886345 2.011323
v 3.65 0.886345 2.011323
v 3.85 0.920895 1.966297
v 3.65 0.920895 1.966297
v 3.85 0.942614 1.913863
v 3.65 0.942614 1.913863
v 3.85 0.950022 1.857594
v 3.65 0.950022 1.857594
v 3.85 0.950022 0.44
v 3.65 0.950022 0.44
v 3.65 0.956836 0.388236
v 3.85 0.956836 0.388236
v 3.65 0.976817 0.34
v 3.85 0.976817 0.34
v 3.65 1.0086 0.298579
v 3.85 1.0086 0.298579
v 3.65 1.050022 0.266795
v 3.85 1.050022 0.266795
v 3.65 1.098258 0.246815
v 3.85 1.098258 0.246815
v 3.65 1.150022 0.24
v 3.85 1.150022 0.24
v 3.65 1.6875 0.24
v 3.85 1.6875 0.24
v 3.85 1.6875 -0.01
v 3.85 0.8125 -0.01
v 3.65 1.6875 -0.01
v 3.65 0.8125 -0.01
v 3.85 0.760736 -0.003185
v 3.65 0.760736 -0.003185
v 3.85 0.7125 0.016795
v 3.65 0.7125 0.016795
v 3.85 0.671079 0.048579
v 3.65 0.671079 0.048579
v 3.85 0.639295 0.09
v 3.65 0.639295 0.09
v 3.85 0.619315 0.138236
v 3.65 0.619315 0.138236
v 3.85 0.6125 0.19
v 3.65 0.6125 0.19
v 3.85 0.6125 0.4
v 3.65 0.6125 0.4
v 3.65 0.609093 0.425882
v 3.65 0.599102 0.45
v 3.65 0.583211 0.470711
v 3.65 0.5625 0.486603
v 3.65 0.538382 0.496593
v 3.65 1.719852 0.235741
v 3.65 1.75 0.223253
v 3.65 1.775888 0.203388
v 3.65 1.795753 0.1775
v 3.65 1.808241 0.147352
v 3.65 1.775888 0.026612
v 3.65 1.75 0.006747
v 3.65 1.795753 0.0525
v 3.65 1.808241 0.082648
v 3.65 1.8125 0.115
v 3.65 1.719852 -0.005741
v 3.85 0.599102 0.45
v 3.85 0.583211 0.470711
v 3.85 0.5625 0.486603
v 3.85 0.538382 0.496593
v 3.85 1.719852 -0.005741
v 3.85 1.75 0.006747
v 3.85 1.775888 0.026612
v 3.85 1.795753 0.0525
v 3.85 1.808241 0.082648
v 3.85 1.775888 0.203388
v 3.85 1.75 0.223253
v 3.85 1.795753 0.1775
v 3.85 1.808241 0.147352
v 3.85 1.8125 0.115
v 3.85 1.719852 0.235741
v 3.85 0.609093 0.425882
v 3.85 -2.5375 0.4
v 3.65 -2.5375 0.4
v 3.65 -2.5375 2.075
v 3.85 -2.5375 2.075
v 3.65 -0.5375 0.9875
v 3.65 -0.472795 0.996019
v 3.65 -2.296079 0.9875
v 3.65 -2.634993 0.477748
v 3.65 -2.6375 0.5
v 3.65 -0.320994 1.3625
v 3.65 -0.360723 1.414277
v 3.65 -2.6375 0.646079
v 3.65 -0.4125 1.454006
v 3.65 -0.472795 1.478981
v 3.65 -0.5375 1.4875
v 3.65 -0.4125 1.020994
v 3.65 -0.360723 1.060723
v 3.65 -0.320994 1.1125
v 3.65 -2.635579 0.665588
v 3.65 -2.629888 0.684347
v 3.65 -2.620647 0.701636
v 3.65 -2.608211 0.716789
v 3.65 -2.366789 0.958211
v 3.65 -2.315588 0.985579
v 3.65 -2.351636 0.970647
v 3.65 -2.334347 0.979888
v 3.65 -0.296019 1.172795
v 3.65 -0.2875 1.2375
v 3.65 -0.296019 1.302205
v 3.65 -2.296079 1.4875
v 3.65 -2.366789 1.516789
v 3.65 -2.627597 0.456612
v 3.65 -2.559752 0.402507
v 3.65 -2.615683 0.437651
v 3.65 -2.580888 0.409903
v 3.65 -2.599849 0.421817
v 3.65 -2.315588 1.489421
v 3.65 -2.334347 1.495112
v 3.65 -2.351636 1.504353
v 3.65 -2.620647 1.773364
v 3.65 -2.629888 1.790653
v 3.65 -2.608211 1.758211
v 3.65 -2.6375 1.975
v 3.65 -2.6375 1.828921
v 3.65 -2.635579 1.809412
v 3.65 -2.634993 1.997252
v 3.65 -2.627597 2.018388
v 3.65 -2.615683 2.037349
v 3.65 -2.599849 2.053183
v 3.65 -2.580888 2.065097
v 3.65 -2.559752 2.072493
v 3.85 -2.629888 0.684347
v 3.85 -2.635579 0.665588
v 3.85 -2.6375 0.646079
v 3.85 -0.320994 1.1125
v 3.85 -0.360723 1.060723
v 3.85 -0.4125 1.020994
v 3.85 -2.6375 0.5
v 3.85 -0.472795 0.996019
v 3.85 -0.5375 0.9875
v 3.85 -2.296079 0.9875
v 3.85 -0.472795 1.478981
v 3.85 -0.4125 1.454006
v 3.85 -0.360723 1.414277
v 3.85 -0.320994 1.3625
v 3.85 -2.366789 1.516789
v 3.85 -2.351636 1.504353
v 3.85 -2.334347 1.495112
v 3.85 -2.334347 0.979888
v 3.85 -2.351636 0.970647
v 3.85 -2.315588 0.985579
v 3.85 -2.366789 0.958211
v 3.85 -2.620647 0.701636
v 3.85 -2.635579 1.809412
v 3.85 -2.629888 1.790653
v 3.85 -2.315588 1.489421
v 3.85 -2.296079 1.4875
v 3.85 -0.5375 1.4875
v 3.85 -2.608211 0.716789
v 3.85 -2.620647 1.773364
v 3.85 -2.608211 1.758211
v 3.85 -0.296019 1.302205
v 3.85 -0.2875 1.2375
v 3.85 -0.296019 1.172795
v 3.85 -2.634993 0.477748
v 3.85 -2.627597 0.456612
v 3.85 -2.559752 0.402507
v 3.85 -2.615683 0.437651
v 3.85 -2.580888 0.409903
v 3.85 -2.599849 0.421817
v 3.85 -2.6375 1.828921
v 3.85 -2.6375 1.975
v 3.85 -2.559752 2.072493
v 3.85 -2.580888 2.065097
v 3.85 -2.599849 2.053183
v 3.85 -2.615683 2.037349
v 3.85 -2.634993 1.997252
v 3.85 -2.627597 2.018388
v 1.027439 -0.881097 0.01
v 0.832317 -1.381097 0.01
newmtl 3
Ka 0.2235294117647059 0.2235294117647059 0.2235294117647059
Kd 0.2235294117647059 0.2235294117647059 0.2235294117647059
Ks 0.11372549019607843 0.11372549019607843 0.11372549019607843
d 0.0
endmtl
v 0.905488 -1.381097 0.01
v 0.956079 -1.240853 0.01
v 1.162633 -1.240853 0.01
v 1.210366 -1.381097 0.01
v 1.283537 -1.381097 0.01
v 1.094512 -0.881097 0.01
v 1.14577 -1.185975 0.01
v 0.978563 -1.185975 0.01
v 1.07117 -0.977134 0.01
v 1.066358 -0.959793 0.01
v 1.063167 -0.942073 0.01
v 1.061547 -0.942073 0.01
v 1.058285 -0.95974 0.01
v 1.05383 -0.977134 0.01
v 1.14577 -1.185975 0.0
v 0.978563 -1.185975 0.0
v 1.07117 -0.977134 0.0
v 1.066358 -0.959793 0.0
v 1.063167 -0.942073 0.0
v 1.061547 -0.942073 0.0
v 1.058285 -0.95974 0.0
v 1.05383 -0.977134 0.0
v 1.586604 -1.381097 0.01
v 1.722561 -1.381097 0.01
v 1.722561 -0.881097 0.01
v 1.58146 -0.881097 0.01
v 1.320122 -1.124809 0.01
v 1.323756 -1.077762 0.01
v 1.337185 -1.028499 0.01
v 1.360422 -0.985498 0.01
v 1.395779 -0.946292 0.01
v 1.396302 -0.945832 0.01
v 1.450723 -0.909361 0.01
v 1.509223 -0.888819 0.01
v 1.524738 -1.375697 0.01
v 1.467125 -1.358524 0.01
v 1.414918 -1.328185 0.01
v 1.373763 -1.28878 0.01
v 1.345089 -1.244058 0.01
v 1.327138 -1.191724 0.01
v 1.420485 -1.00609 0.01
v 1.444772 -0.980303 0.01
v 1.481294 -0.956709 0.01
v 1.522566 -0.942266 0.01
v 1.581746 -0.935975 0.01
v 1.655488 -0.935975 0.01
v 1.655488 -1.326219 0.01
v 1.584508 -1.326219 0.01
v 1.531758 -1.321309 0.01
v 1.489682 -1.308176 0.01
v 1.455583 -1.287927 0.01
v 1.427539 -1.260228 0.01
v 1.406451 -1.225754 0.01
v 1.391786 -1.178754 0.01
v 1.387195 -1.126238 0.01
v 1.391443 -1.076476 0.01
v 1.403115 -1.036929 0.01
v 1.581746 -0.935975 0.0
v 1.655488 -0.935975 0.0
v 1.522566 -0.942266 0.0
v 1.481294 -0.956709 0.0
v 1.444772 -0.980303 0.0
v 1.420485 -1.00609 0.0
v 1.403115 -1.036929 0.0
v 1.391443 -1.076476 0.0
v 1.387195 -1.126238 0.0
v 1.391786 -1.178754 0.0
v 1.406451 -1.225754 0.0
v 1.427539 -1.260228 0.0
v 1.455583 -1.287927 0.0
v 1.489682 -1.308176 0.0
v 1.531758 -1.321309 0.0
v 1.584508 -1.326219 0.0
v 1.655488 -1.326219 0.0
v 1.820122 -1.326219 0.01
v 1.820122 -1.381097 0.01
v 2.088415 -1.381097 0.01
v 2.088415 -0.881097 0.01
v 1.832317 -0.881097 0.01
v 1.832317 -0.935975 0.01
v 2.021341 -0.935975 0.01
v 2.021341 -1.100609 0.01
v 1.844512 -1.100609 0.01
v 1.844512 -1.155488 0.01
v 2.021341 -1.155488 0.01
v 2.021341 -1.326219 0.01
v 2.185976 -1.300305 0.01
v 2.185976 -1.355183 0.01
v 2.239273 -1.377066 0.01
v 2.323552 -1.387195 0.01
v 2.30988 -1.38696 0.01
v 2.557927 -1.140529 0.01
v 2.553092 -1.198436 0.01
v 2.538044 -1.25136 0.01
v 2.511407 -1.298903 0.01
v 2.473851 -1.338442 0.01
v 2.433632 -1.364125 0.01
v 2.38517 -1.380806 0.01
v 2.303639 -0.875 0.01
v 2.353859 -0.879099 0.01
v 2.4096 -0.895293 0.01
v 2.457092 -0.92263 0.01
v 2.502233 -0.966043 0.01
v 2.531539 -1.01279 0.01
v 2.550734 -1.069444 0.01
v 2.185976 -0.894817 0.01
v 2.243784 -0.87913 0.01
v 2.185976 -0.96189 0.01
v 2.303068 -0.929878 0.01
v 2.242295 -0.937773 0.01
v 2.490854 -1.136433 0.01
v 2.488469 -1.09753 0.01
v 2.475141 -1.044003 0.01
v 2.454527 -1.005398 0.01
v 2.424334 -0.972065 0.01
v 2.389726 -0.948913 0.01
v 2.352302 -0.935407 0.01
v 2.31431 -1.332317 0.01
v 2.360946 -1.327085 0.01
v 2.397378 -1.313673 0.01
v 2.428065 -1.292991 0.01
v 2.451528 -1.268238 0.01
v 2.472207 -1.233568 0.01
v 2.485791 -1.19056 0.01
v 2.194937 -1.305268 0.01
v 2.24794 -1.32495 0.01
v 2.60061 -1.326219 0.01
v 2.60061 -1.381097 0.01
v 2.856707 -1.381097 0.01
v 2.856707 -0.881097 0.01
v 2.789634 -0.881097 0.01
v 2.789634 -1.326219 0.01
usemtl 1
f 1// 2// 3//
f 4// 5// 6//
f 6// 7// 4//
f 4// 7// 8//
f 4// 8// 9//
f 10// 11// 12//
f 13// 14// 15//
f 15// 14// 16//
f 15// 16// 12//
f 12// 16// 1//
f 12// 1// 10//
f 10// 1// 3//
f 17// 18// 14//
f 14// 18// 19//
f 14// 19// 10//
f 10// 19// 20//
f 21// 22// 11//
f 11// 22// 23//
f 9// 17// 4//
f 4// 17// 14//
f 4// 14// 24//
f 24// 14// 13//
f 24// 13// 25//
f 25// 13// 26//
f 20// 27// 10//
f 10// 27// 28//
f 10// 28// 11//
f 11// 28// 29//
f 11// 29// 21//
f 23// 30// 11//
f 11// 30// 31//
f 11// 31// 4//
f 4// 31// 32//
f 4// 32// 5//
f 33// 34// 35//
f 35// 34// 36//
f 35// 36// 37//
f 10// 38// 14//
f 14// 38// 39//
f 14// 39// 40//
f 41// 42// 10//
f 10// 42// 43//
f 44// 40// 45//
f 45// 40// 46//
f 47// 16// 35//
f 35// 16// 14//
f 35// 14// 33//
f 33// 14// 40//
f 33// 40// 48//
f 48// 40// 44//
f 49// 50// 51//
f 51// 50// 52//
f 53// 54// 55//
f 55// 54// 38//
f 56// 37// 57//
f 57// 37// 58//
f 57// 58// 59//
f 46// 60// 10//
f 10// 60// 51//
f 10// 51// 38//
f 38// 51// 52//
f 38// 52// 55//
f 61// 62// 63//
f 63// 62// 64//
f 63// 64// 65//
f 66// 67// 63//
f 63// 67// 68//
f 69// 70// 71//
f 71// 70// 72//
f 68// 73// 63//
f 63// 73// 72//
f 63// 72// 74//
f 74// 72// 70//
f 75// 76// 77//
f 65// 78// 63//
f 63// 78// 79//
f 63// 79// 66//
f 76// 80// 77//
f 77// 80// 10//
f 77// 10// 81//
f 81// 10// 43//
f 81// 43// 56//
f 56// 43// 82//
f 56// 82// 37//
f 37// 82// 83//
f 37// 83// 35//
f 59// 84// 57//
f 57// 84// 85//
f 57// 85// 86//
f 86// 85// 87//
f 86// 87// 88//
f 87// 89// 88//
f 88// 89// 90//
f 88// 90// 77//
f 77// 90// 91//
f 77// 91// 75//
f 80// 92// 10//
f 10// 92// 93//
f 10// 93// 94//
f 94// 95// 10//
f 10// 95// 96//
f 10// 96// 46//
f 46// 96// 97//
f 46// 97// 45//
f 45// 97// 98//
f 45// 98// 63//
f 63// 98// 99//
f 63// 99// 61//
f 100// 101// 102//
f 102// 101// 103//
f 104// 105// 106//
f 106// 105// 107//
f 108// 109// 110//
f 110// 109// 111//
f 112// 113// 114//
f 114// 113// 115//
f 114// 115// 116//
f 117// 118// 119//
f 103// 101// 120//
f 120// 101// 118//
f 120// 118// 121//
f 121// 118// 117//
f 121// 117// 115//
f 115// 117// 122//
f 115// 122// 116//
f 111// 109// 123//
f 123// 109// 124//
f 123// 124// 125//
f 107// 105// 126//
f 126// 105// 127//
f 126// 127// 128//
f 129// 102// 130//
f 130// 102// 125//
f 130// 125// 131//
f 131// 125// 124//
f 132// 133// 129//
f 129// 133// 134//
f 129// 134// 102//
f 102// 134// 135//
f 102// 135// 100//
f 100// 135// 136//
f 100// 136// 119//
f 119// 136// 137//
f 119// 137// 117//
f 138// 110// 139//
f 139// 110// 128//
f 139// 128// 140//
f 140// 128// 127//
f 141// 142// 143//
f 143// 142// 144//
f 145// 146// 138//
f 138// 146// 147//
f 138// 147// 110//
f 110// 147// 148//
f 110// 148// 108//
f 108// 148// 149//
f 108// 149// 131//
f 131// 149// 150//
f 131// 150// 130//
f 151// 106// 152//
f 152// 106// 153//
f 152// 153// 154//
f 155// 156// 157//
f 154// 153// 158//
f 158// 153// 159//
f 158// 159// 157//
f 157// 159// 160//
f 157// 160// 155//
f 161// 162// 151//
f 151// 162// 163//
f 151// 163// 106//
f 106// 163// 164//
f 106// 164// 104//
f 104// 164// 165//
f 104// 165// 140//
f 140// 165// 166//
f 140// 166// 139//
f 143// 167// 141//
f 141// 167// 168//
f 141// 168// 155//
f 155// 168// 169//
f 155// 169// 156//
f 156// 169// 170//
f 156// 170// 154//
f 154// 170// 171//
f 154// 171// 152//
f 172// 173// 174//
f 175// 176// 177//
f 177// 176// 178//
f 179// 180// 181//
f 181// 180// 182//
f 181// 182// 178//
f 178// 182// 183//
f 178// 183// 177//
f 3// 184// 185//
f 186// 187// 41//
f 188// 189// 190//
f 190// 189// 185//
f 185// 189// 191//
f 185// 191// 3//
f 3// 191// 192//
f 3// 192// 41//
f 190// 193// 188//
f 188// 193// 194//
f 188// 194// 192//
f 192// 194// 195//
f 196// 187// 197//
f 41// 192// 186//
f 186// 192// 195//
f 186// 195// 198//
f 198// 195// 199//
f 198// 199// 197//
f 197// 199// 200//
f 197// 200// 196//
f 172// 201// 173//
f 173// 201// 41//
f 173// 41// 202//
f 196// 180// 187//
f 187// 180// 179//
f 187// 179// 41//
f 41// 179// 176//
f 41// 176// 202//
f 202// 176// 175//
f 202// 175// 203//
f 203// 175// 204//
f 203// 204// 174//
f 174// 204// 205//
f 174// 205// 172//
f 206// 180// 207//
f 207// 180// 196//
f 207// 196// 208//
f 208// 196// 209//
f 210// 175// 211//
f 211// 175// 177//
f 211// 177// 212//
f 212// 177// 213//
f 214// 201// 215//
f 215// 201// 172//
f 215// 172// 216//
f 217// 218// 170//
f 170// 218// 171//
f 219// 220// 221//
f 221// 220// 167//
f 221// 167// 143//
f 222// 223// 165//
f 165// 223// 166//
f 224// 225// 161//
f 161// 225// 162//
f 226// 227// 149//
f 149// 227// 150//
f 228// 229// 145//
f 145// 229// 146//
f 230// 231// 110//
f 110// 231// 128//
f 232// 233// 106//
f 106// 233// 153//
f 234// 235// 155//
f 155// 235// 141//
f 236// 231// 237//
f 237// 231// 230//
f 238// 233// 239//
f 239// 233// 232//
f 240// 235// 241//
f 241// 235// 234//
f 242// 195// 243//
f 243// 195// 194//
f 243// 194// 244//
f 244// 194// 245//
f 246// 247// 136//
f 136// 247// 137//
f 248// 249// 132//
f 132// 249// 133//
f 125// 102// 250//
f 250// 102// 251//
f 251// 252// 250//
f 250// 252// 253//
f 254// 255// 256//
f 256// 255// 257//
f 258// 214// 259//
f 259// 214// 215//
f 259// 215// 257//
f 260// 207// 208//
f 254// 261// 262//
f 257// 255// 259//
f 259// 255// 263//
f 259// 263// 264//
f 264// 263// 265//
f 264// 265// 266//
f 211// 212// 256//
f 256// 212// 267//
f 256// 267// 254//
f 254// 267// 260//
f 254// 260// 261//
f 261// 260// 208//
f 268// 269// 270//
f 271// 272// 273//
f 273// 272// 274//
f 273// 274// 270//
f 270// 274// 275//
f 243// 244// 262//
f 262// 244// 276//
f 262// 276// 254//
f 254// 276// 277//
f 278// 264// 279//
f 279// 264// 266//
f 279// 266// 255//
f 255// 266// 280//
f 255// 280// 263//
f 281// 268// 277//
f 277// 268// 270//
f 277// 270// 254//
f 254// 270// 275//
f 254// 275// 278//
f 278// 275// 271//
f 278// 271// 264//
f 264// 271// 273//
f 282// 259// 283//
f 283// 259// 284//
f 283// 284// 285//
f 285// 284// 286//
f 285// 286// 287//
f 287// 286// 258//
f 287// 258// 282//
f 282// 258// 259//
f 288// 289// 290//
f 289// 288// 291//
f 291// 288// 292//
f 291// 292// 293//
f 293// 292// 294//
f 293// 294// 290//
f 290// 294// 295//
f 290// 295// 288//
f 248// 296// 297//
f 222// 298// 299//
f 300// 301// 224//
f 224// 301// 218//
f 217// 302// 218//
f 218// 302// 303//
f 218// 303// 224//
f 224// 303// 225//
f 303// 227// 226//
f 304// 305// 226//
f 226// 305// 229//
f 226// 229// 303//
f 303// 229// 228//
f 306// 307// 228//
f 228// 307// 223//
f 228// 223// 303//
f 303// 223// 222//
f 303// 222// 225//
f 225// 222// 299//
f 308// 309// 310//
f 310// 309// 247//
f 310// 247// 303//
f 303// 247// 246//
f 311// 312// 246//
f 246// 312// 249//
f 246// 249// 303//
f 303// 249// 248//
f 303// 248// 227//
f 227// 248// 297//
f 313// 314// 315//
f 316// 317// 318//
f 319// 320// 321//
f 321// 320// 322//
f 323// 324// 315//
f 315// 324// 319//
f 315// 319// 313//
f 313// 319// 321//
f 325// 326// 327//
f 327// 326// 324//
f 327// 324// 328//
f 328// 324// 323//
f 328// 323// 329//
f 330// 323// 302//
f 331// 332// 217//
f 217// 332// 220//
f 217// 220// 302//
f 302// 220// 219//
f 302// 219// 330//
f 314// 316// 315//
f 315// 316// 318//
f 315// 318// 303//
f 303// 318// 333//
f 303// 333// 310//
f 238// 239// 83//
f 329// 323// 334//
f 334// 323// 330//
f 334// 330// 327//
f 327// 330// 335//
f 327// 335// 325//
f 325// 335// 240//
f 325// 240// 83//
f 83// 240// 241//
f 83// 241// 238//
f 239// 236// 83//
f 83// 236// 237//
f 83// 237// 47//
f 47// 237// 253//
f 47// 253// 252//
f 316// 321// 317//
f 317// 321// 322//
f 317// 322// 336//
f 336// 322// 47//
f 336// 47// 337//
f 337// 47// 252//
f 286// 294// 292//
f 214// 258// 201//
f 201// 258// 286//
f 338// 339// 340//
f 324// 326// 338//
f 341// 324// 292//
f 292// 324// 338//
f 292// 338// 286//
f 286// 338// 340//
f 286// 340// 201//
f 201// 340// 42//
f 201// 42// 41//
f 319// 324// 342//
f 342// 324// 341//
f 343// 319// 344//
f 344// 319// 342//
f 344// 342// 273//
f 273// 342// 264//
f 345// 346// 347//
f 348// 349// 350//
f 350// 349// 255//
f 350// 255// 347//
f 347// 255// 254//
f 347// 254// 345//
f 319// 343// 351//
f 269// 268// 352//
f 352// 268// 184//
f 353// 352// 354//
f 353// 354// 351//
f 351// 354// 320//
f 351// 320// 319//
f 3// 2// 184//
f 184// 2// 355//
f 184// 355// 352//
f 352// 355// 356//
f 352// 356// 354//
f 302// 323// 357//
f 279// 255// 357//
f 357// 255// 349//
f 357// 349// 302//
f 254// 278// 345//
f 345// 278// 358//
f 345// 358// 303//
f 303// 358// 315//
f 358// 278// 357//
f 357// 278// 279//
f 359// 360// 334//
f 334// 360// 329//
f 360// 361// 329//
f 329// 361// 328//
f 361// 362// 328//
f 328// 362// 327//
f 362// 359// 327//
f 327// 359// 334//
f 362// 361// 359//
f 359// 361// 360//
f 363// 364// 321//
f 321// 364// 313//
f 364// 365// 313//
f 313// 365// 314//
f 365// 366// 314//
f 314// 366// 316//
f 366// 363// 316//
f 316// 363// 321//
f 366// 365// 363//
f 363// 365// 364//
f 1// 367// 2//
f 2// 367// 355//
f 368// 369// 356//
f 367// 370// 371//
f 371// 372// 367//
f 367// 372// 368//
f 367// 368// 355//
f 355// 368// 356//
f 371// 370// 373//
f 373// 370// 374//
f 373// 374// 375//
f 375// 374// 354//
f 375// 354// 369//
f 369// 354// 356//
f 374// 322// 354//
f 354// 322// 320//
f 367// 1// 370//
f 370// 1// 47//
f 370// 47// 374//
f 374// 47// 322//
f 344// 376// 343//
f 343// 376// 351//
f 351// 377// 378//
f 377// 351// 379//
f 379// 351// 376//
f 379// 376// 380//
f 380// 376// 381//
f 380// 381// 378//
f 378// 381// 353//
f 378// 353// 351//
f 381// 382// 353//
f 353// 382// 352//
f 383// 382// 384//
f 384// 382// 270//
f 384// 270// 385//
f 385// 270// 269//
f 385// 269// 386//
f 386// 269// 352//
f 386// 352// 383//
f 383// 352// 382//
f 376// 344// 381//
f 381// 344// 273//
f 381// 273// 382//
f 382// 273// 270//
f 387// 115// 388//
f 388// 115// 113//
f 388// 113// 389//
f 389// 113// 112//
f 389// 112// 390//
f 390// 112// 114//
f 390// 114// 333//
f 333// 114// 116//
f 333// 116// 310//
f 221// 143// 391//
f 391// 143// 144//
f 391// 144// 392//
f 392// 144// 142//
f 392// 142// 235//
f 235// 142// 141//
f 121// 115// 393//
f 393// 115// 387//
f 394// 395// 346//
f 346// 395// 347//
f 348// 350// 396//
f 396// 350// 397//
f 395// 397// 347//
f 347// 397// 350//
f 396// 397// 394//
f 394// 397// 395//
f 348// 396// 346//
f 346// 396// 394//
usemtl 2
f 398// 368// 399//
f 399// 368// 372//
f 398// 399// 400//
f 398// 400// 401//
f 401// 400// 402//
f 401// 402// 403//
f 403// 402// 404//
f 403// 404// 405//
f 405// 404// 406//
f 405// 406// 407//
f 407// 406// 408//
f 407// 408// 409//
f 409// 408// 410//
f 409// 410// 411//
f 412// 411// 413//
f 413// 411// 410//
f 412// 413// 414//
f 412// 414// 415//
f 415// 414// 416//
f 415// 416// 417//
f 417// 416// 418//
f 417// 418// 419//
f 419// 418// 420//
f 419// 420// 421//
f 421// 420// 422//
f 421// 422// 423//
f 423// 422// 424//
f 423// 424// 425//
f 426// 425// 427//
f 427// 425// 424//
f 426// 427// 428//
f 426// 428// 429//
f 429// 428// 430//
f 429// 430// 431//
f 431// 430// 432//
f 431// 432// 433//
f 433// 432// 434//
f 433// 434// 435//
f 435// 434// 436//
f 435// 436// 437//
f 437// 436// 438//
f 437// 438// 439//
f 375// 439// 373//
f 373// 439// 438//
f 421// 369// 419//
f 419// 369// 368//
f 419// 368// 398//
f 421// 423// 369//
f 369// 423// 425//
f 369// 425// 375//
f 375// 425// 426//
f 375// 426// 439//
f 407// 398// 405//
f 405// 398// 401//
f 405// 401// 403//
f 431// 433// 435//
f 415// 417// 412//
f 412// 417// 419//
f 412// 419// 411//
f 411// 419// 398//
f 411// 398// 409//
f 409// 398// 407//
f 426// 429// 439//
f 439// 429// 431//
f 439// 431// 437//
f 437// 431// 435//
f 399// 372// 371//
f 420// 418// 371//
f 371// 418// 416//
f 402// 400// 399//
f 428// 427// 438//
f 438// 427// 424//
f 438// 424// 373//
f 373// 424// 371//
f 371// 424// 422//
f 371// 422// 420//
f 416// 414// 371//
f 371// 414// 413//
f 371// 413// 399//
f 399// 413// 410//
f 399// 410// 408//
f 408// 406// 399//
f 399// 406// 404//
f 399// 404// 402//
f 438// 436// 428//
f 428// 436// 434//
f 428// 434// 430//
f 430// 434// 432//
usemtl 1
f 440// 385// 441//
f 441// 385// 386//
f 442// 384// 440//
f 440// 384// 385//
f 443// 383// 442//
f 442// 383// 384//
f 441// 386// 443//
f 443// 386// 383//
f 443// 442// 441//
f 441// 442// 440//
f 444// 445// 377//
f 377// 445// 378//
f 445// 446// 378//
f 378// 446// 380//
f 446// 447// 380//
f 380// 447// 379//
f 447// 444// 379//
f 379// 444// 377//
f 447// 446// 444//
f 444// 446// 445//
f 315// 358// 323//
f 323// 358// 357//
f 346// 345// 303//
f 346// 303// 348//
f 348// 303// 302//
f 348// 302// 349//
f 391// 330// 221//
f 221// 330// 219//
f 392// 335// 391//
f 391// 335// 330//
f 235// 240// 392//
f 392// 240// 335//
f 387// 336// 393//
f 393// 336// 337//
f 388// 317// 387//
f 387// 317// 336//
f 389// 318// 388//
f 388// 318// 317//
f 318// 389// 333//
f 333// 389// 390//
f 448// 449// 275//
f 275// 449// 271//
f 449// 450// 271//
f 271// 450// 272//
f 450// 451// 272//
f 272// 451// 274//
f 451// 448// 274//
f 274// 448// 275//
f 451// 450// 448//
f 448// 450// 449//
f 325// 452// 326//
f 326// 452// 338//
f 453// 454// 339//
f 452// 455// 456//
f 456// 457// 452//
f 452// 457// 453//
f 452// 453// 338//
f 338// 453// 339//
f 456// 455// 458//
f 458// 455// 459//
f 458// 459// 460//
f 460// 459// 340//
f 460// 340// 454//
f 454// 340// 339//
f 459// 43// 340//
f 340// 43// 42//
f 452// 325// 455//
f 455// 325// 83//
f 455// 83// 459//
f 459// 83// 43//
f 284// 295// 286//
f 286// 295// 294//
f 288// 342// 292//
f 292// 342// 341//
f 284// 259// 295//
f 295// 259// 264//
f 295// 264// 288//
f 288// 264// 342//
usemtl 2
f 461// 453// 462//
f 462// 453// 457//
f 461// 462// 463//
f 461// 463// 464//
f 464// 463// 465//
f 464// 465// 466//
f 466// 465// 467//
f 466// 467// 468//
f 468// 467// 469//
f 468// 469// 470//
f 470// 469// 471//
f 470// 471// 472//
f 472// 471// 473//
f 472// 473// 474//
f 475// 474// 476//
f 476// 474// 473//
f 475// 476// 477//
f 475// 477// 478//
f 478// 477// 479//
f 478// 479// 480//
f 480// 479// 481//
f 480// 481// 482//
f 482// 481// 483//
f 482// 483// 484//
f 484// 483// 485//
f 484// 485// 486//
f 486// 485// 487//
f 486// 487// 488//
f 489// 488// 490//
f 490// 488// 487//
f 489// 490// 491//
f 489// 491// 492//
f 492// 491// 493//
f 492// 493// 494//
f 494// 493// 495//
f 494// 495// 496//
f 496// 495// 497//
f 496// 497// 498//
f 498// 497// 499//
f 498// 499// 500//
f 500// 499// 501//
f 500// 501// 502//
f 460// 502// 458//
f 458// 502// 501//
f 502// 460// 454//
f 480// 482// 454//
f 454// 482// 484//
f 484// 486// 454//
f 454// 486// 488//
f 454// 488// 502//
f 502// 488// 489//
f 502// 489// 500//
f 472// 474// 461//
f 461// 474// 475//
f 461// 475// 453//
f 453// 475// 454//
f 454// 475// 478//
f 454// 478// 480//
f 492// 494// 496//
f 492// 496// 489//
f 489// 496// 498//
f 489// 498// 500//
f 461// 464// 472//
f 472// 464// 466//
f 472// 466// 470//
f 470// 466// 468//
f 479// 477// 456//
f 456// 477// 476//
f 456// 476// 457//
f 457// 476// 473//
f 457// 473// 462//
f 458// 501// 490//
f 490// 501// 499//
f 485// 483// 456//
f 456// 483// 481//
f 456// 481// 479//
f 458// 490// 456//
f 456// 490// 487//
f 456// 487// 485//
f 469// 467// 465//
f 499// 497// 490//
f 490// 497// 495//
f 490// 495// 491//
f 491// 495// 493//
f 473// 471// 462//
f 462// 471// 469//
f 462// 469// 463//
f 463// 469// 465//
usemtl 1
f 503// 504// 293//
f 293// 504// 291//
f 504// 505// 291//
f 291// 505// 289//
f 505// 506// 289//
f 289// 506// 290//
f 506// 503// 290//
f 290// 503// 293//
f 506// 505// 503//
f 503// 505// 504//
f 507// 285// 508//
f 508// 285// 287//
f 509// 283// 507//
f 507// 283// 285//
f 510// 282// 509//
f 509// 282// 283//
f 508// 287// 510//
f 510// 287// 282//
f 510// 509// 508//
f 508// 509// 507//
f 511// 512// 266//
f 266// 512// 280//
f 512// 513// 280//
f 280// 513// 263//
f 513// 514// 263//
f 263// 514// 265//
f 514// 511// 265//
f 265// 511// 266//
f 514// 513// 511//
f 511// 513// 512//
f 515// 185// 281//
f 281// 185// 184//
f 281// 184// 268//
f 252// 103// 337//
f 337// 103// 120//
f 102// 103// 251//
f 251// 103// 252//
f 120// 121// 337//
f 337// 121// 393//
f 516// 122// 517//
f 517// 122// 117//
f 517// 117// 309//
f 309// 117// 137//
f 309// 137// 247//
f 308// 310// 516//
f 516// 310// 116//
f 516// 116// 122//
f 311// 246// 518//
f 518// 246// 136//
f 518// 136// 135//
f 518// 135// 519//
f 519// 135// 134//
f 519// 134// 312//
f 312// 134// 133//
f 312// 133// 249//
f 517// 309// 516//
f 516// 309// 308//
f 519// 312// 518//
f 518// 312// 311//
f 245// 194// 520//
f 520// 194// 193//
f 520// 193// 521//
f 521// 193// 190//
f 521// 190// 515//
f 515// 190// 185//
f 277// 521// 281//
f 281// 521// 515//
f 276// 520// 277//
f 277// 520// 521//
f 244// 245// 276//
f 276// 245// 520//
usemtl 2
f 522// 523// 524//
f 522// 524// 525//
f 525// 524// 526//
f 525// 526// 527//
f 527// 526// 528//
f 527// 528// 529//
f 529// 528// 530//
f 529// 530// 531//
f 531// 530// 532//
f 531// 532// 533//
f 533// 532// 534//
f 533// 534// 535//
f 536// 537// 534//
f 534// 537// 535//
f 537// 536// 538//
f 538// 536// 539//
f 538// 539// 540//
f 540// 539// 541//
f 540// 541// 542//
f 542// 541// 543//
f 542// 543// 544//
f 544// 543// 545//
f 544// 545// 546//
f 546// 545// 547//
f 546// 547// 548//
f 548// 547// 549//
f 550// 548// 551//
f 551// 548// 549//
f 552// 553// 554//
f 554// 553// 555//
f 555// 553// 556//
f 555// 556// 557//
f 557// 556// 558//
f 557// 558// 559//
f 559// 558// 560//
f 559// 560// 561//
f 561// 560// 562//
f 561// 562// 563//
f 563// 562// 564//
f 563// 564// 565//
f 565// 564// 566//
f 565// 566// 567//
f 568// 569// 566//
f 566// 569// 567//
f 570// 554// 571//
f 572// 191// 189//
f 573// 574// 537//
f 537// 574// 535//
f 544// 546// 555//
f 555// 546// 548//
f 555// 548// 554//
f 554// 548// 550//
f 574// 575// 535//
f 535// 575// 576//
f 535// 576// 533//
f 533// 576// 572//
f 189// 522// 572//
f 572// 522// 525//
f 572// 525// 527//
f 527// 529// 572//
f 572// 529// 531//
f 572// 531// 533//
f 577// 578// 579//
f 559// 561// 542//
f 542// 561// 563//
f 542// 563// 540//
f 540// 563// 565//
f 540// 565// 538//
f 538// 565// 567//
f 538// 567// 537//
f 537// 567// 569//
f 537// 569// 573//
f 544// 555// 542//
f 542// 555// 557//
f 542// 557// 559//
f 550// 580// 554//
f 554// 580// 581//
f 554// 581// 582//
f 570// 571// 579//
f 579// 571// 583//
f 579// 583// 577//
f 582// 584// 554//
f 554// 584// 585//
f 554// 585// 571//
f 528// 526// 586//
f 188// 192// 523//
f 523// 192// 586//
f 523// 586// 524//
f 524// 586// 526//
f 534// 532// 586//
f 586// 532// 530//
f 586// 530// 528//
f 587// 536// 588//
f 588// 536// 534//
f 588// 534// 589//
f 589// 534// 586//
f 590// 591// 552//
f 592// 593// 594//
f 590// 552// 595//
f 549// 553// 551//
f 551// 553// 552//
f 551// 552// 596//
f 596// 552// 591//
f 549// 547// 553//
f 553// 547// 545//
f 553// 545// 556//
f 556// 545// 543//
f 556// 543// 558//
f 558// 543// 560//
f 587// 597// 536//
f 536// 597// 568//
f 536// 568// 539//
f 539// 568// 566//
f 539// 566// 541//
f 541// 566// 564//
f 541// 564// 543//
f 543// 564// 562//
f 543// 562// 560//
f 594// 598// 592//
f 592// 598// 599//
f 592// 599// 600//
f 600// 599// 552//
f 552// 599// 601//
f 552// 601// 595//
f 569// 568// 573//
f 573// 568// 597//
f 573// 597// 574//
f 574// 597// 587//
f 574// 587// 575//
f 575// 587// 588//
f 575// 588// 576//
f 576// 588// 589//
f 576// 589// 572//
f 572// 589// 586//
f 572// 586// 191//
f 191// 586// 192//
f 523// 522// 188//
f 188// 522// 189//
f 602// 603// 101//
f 101// 603// 118//
f 604// 605// 119//
f 119// 605// 100//
f 604// 119// 606//
f 607// 608// 118//
f 609// 610// 119//
f 119// 610// 611//
f 608// 612// 118//
f 118// 612// 613//
f 118// 613// 614//
f 615// 616// 118//
f 118// 616// 617//
f 118// 617// 618//
f 619// 620// 621//
f 622// 623// 624//
f 625// 626// 603//
f 603// 626// 627//
f 603// 627// 118//
f 118// 627// 628//
f 118// 628// 607//
f 614// 629// 118//
f 118// 629// 630//
f 118// 630// 615//
f 621// 631// 119//
f 119// 631// 632//
f 119// 632// 633//
f 633// 634// 119//
f 119// 634// 635//
f 119// 635// 606//
f 636// 637// 614//
f 614// 637// 638//
f 614// 638// 629//
f 618// 639// 118//
f 118// 639// 640//
f 118// 640// 119//
f 119// 640// 641//
f 119// 641// 609//
f 619// 621// 642//
f 625// 603// 624//
f 624// 603// 643//
f 624// 643// 622//
f 611// 644// 119//
f 119// 644// 645//
f 119// 645// 621//
f 621// 645// 646//
f 621// 646// 642//
f 606// 647// 604//
f 604// 647// 648//
f 604// 648// 649//
f 649// 650// 604//
f 604// 650// 651//
f 604// 651// 652//
f 602// 101// 653//
f 654// 655// 605//
f 656// 657// 101//
f 101// 657// 658//
f 659// 660// 100//
f 605// 655// 100//
f 100// 655// 661//
f 100// 661// 659//
f 660// 662// 100//
f 100// 662// 663//
f 100// 663// 664//
f 665// 666// 100//
f 100// 666// 667//
f 100// 667// 668//
f 664// 669// 670//
f 671// 672// 101//
f 101// 672// 673//
f 101// 673// 674//
f 674// 675// 101//
f 101// 675// 676//
f 101// 676// 653//
f 677// 605// 678//
f 678// 605// 679//
f 677// 680// 605//
f 605// 680// 681//
f 605// 681// 654//
f 670// 682// 664//
f 664// 682// 683//
f 664// 683// 100//
f 100// 683// 684//
f 100// 684// 665//
f 658// 685// 101//
f 101// 685// 686//
f 101// 686// 671//
f 671// 686// 687//
f 653// 688// 602//
f 602// 688// 689//
f 602// 689// 690//
f 668// 691// 100//
f 100// 691// 692//
f 100// 692// 101//
f 101// 692// 693//
f 101// 693// 656//
f 687// 694// 671//
f 671// 694// 695//
f 671// 695// 696//
f 697// 698// 690//
f 690// 698// 699//
f 690// 699// 602//
f 630// 686// 615//
f 615// 686// 685//
f 615// 685// 616//
f 616// 685// 658//
f 616// 658// 617//
f 617// 658// 657//
f 617// 657// 618//
f 618// 657// 656//
f 618// 656// 639//
f 639// 656// 693//
f 639// 693// 640//
f 640// 693// 692//
f 640// 692// 641//
f 641// 692// 691//
f 641// 691// 609//
f 609// 691// 668//
f 609// 668// 610//
f 610// 668// 667//
f 610// 667// 611//
f 611// 667// 666//
f 611// 666// 644//
f 644// 666// 665//
f 644// 665// 645//
f 645// 665// 684//
f 683// 646// 684//
f 684// 646// 645//
f 646// 683// 682//
f 646// 682// 642//
f 642// 682// 670//
f 642// 670// 619//
f 619// 670// 669//
f 619// 669// 620//
f 620// 669// 664//
f 620// 664// 621//
f 663// 631// 664//
f 664// 631// 621//
f 631// 663// 662//
f 631// 662// 632//
f 632// 662// 660//
f 632// 660// 633//
f 633// 660// 659//
f 633// 659// 634//
f 634// 659// 661//
f 634// 661// 635//
f 655// 606// 661//
f 661// 606// 635//
f 606// 655// 654//
f 606// 654// 647//
f 647// 654// 681//
f 647// 681// 648//
f 648// 681// 680//
f 648// 680// 649//
f 649// 680// 677//
f 649// 677// 650//
f 650// 677// 678//
f 650// 678// 651//
f 651// 678// 679//
f 651// 679// 652//
f 652// 679// 605//
f 652// 605// 604//
f 603// 602// 699//
f 603// 699// 643//
f 643// 699// 698//
f 643// 698// 622//
f 622// 698// 697//
f 622// 697// 623//
f 623// 697// 690//
f 623// 690// 624//
f 624// 690// 689//
f 624// 689// 625//
f 625// 689// 688//
f 625// 688// 626//
f 626// 688// 653//
f 626// 653// 627//
f 676// 628// 653//
f 653// 628// 627//
f 628// 676// 675//
f 628// 675// 607//
f 607// 675// 674//
f 607// 674// 608//
f 608// 674// 673//
f 608// 673// 612//
f 612// 673// 672//
f 612// 672// 613//
f 671// 614// 672//
f 672// 614// 613//
f 614// 671// 696//
f 614// 696// 636//
f 636// 696// 695//
f 636// 695// 637//
f 637// 695// 694//
f 637// 694// 638//
f 638// 694// 687//
f 638// 687// 629//
f 686// 630// 687//
f 687// 630// 629//
f 550// 551// 596//
f 550// 596// 580//
f 580// 596// 591//
f 580// 591// 581//
f 581// 591// 590//
f 581// 590// 582//
f 582// 590// 595//
f 582// 595// 584//
f 584// 595// 601//
f 584// 601// 585//
f 585// 601// 599//
f 585// 599// 571//
f 571// 599// 598//
f 571// 598// 583//
f 583// 598// 594//
f 583// 594// 577//
f 577// 594// 593//
f 577// 593// 578//
f 578// 593// 592//
f 578// 592// 579//
f 579// 592// 600//
f 579// 600// 570//
f 570// 600// 552//
f 570// 552// 554//
usemtl 1
f 241// 160// 238//
f 238// 160// 159//
f 155// 160// 234//
f 234// 160// 241//
f 159// 153// 238//
f 238// 153// 233//
f 239// 107// 236//
f 236// 107// 126//
f 106// 107// 232//
f 232// 107// 239//
f 126// 128// 236//
f 236// 128// 231//
f 237// 111// 253//
f 253// 111// 123//
f 110// 111// 230//
f 230// 111// 237//
f 123// 125// 253//
f 253// 125// 250//
f 700// 129// 701//
f 701// 129// 130//
f 130// 150// 701//
f 701// 150// 227//
f 701// 227// 297//
f 296// 248// 700//
f 700// 248// 132//
f 700// 132// 129//
f 304// 226// 702//
f 702// 226// 149//
f 702// 149// 148//
f 702// 148// 703//
f 703// 148// 147//
f 147// 146// 703//
f 703// 146// 229//
f 703// 229// 305//
f 704// 138// 705//
f 705// 138// 139//
f 139// 166// 705//
f 705// 166// 223//
f 705// 223// 307//
f 306// 228// 704//
f 704// 228// 145//
f 704// 145// 138//
f 298// 222// 706//
f 706// 222// 165//
f 706// 165// 164//
f 706// 164// 707//
f 707// 164// 163//
f 163// 162// 707//
f 707// 162// 225//
f 707// 225// 299//
f 708// 151// 709//
f 709// 151// 152//
f 152// 171// 709//
f 709// 171// 218//
f 709// 218// 301//
f 300// 224// 708//
f 708// 224// 161//
f 708// 161// 151//
f 331// 217// 710//
f 710// 217// 170//
f 710// 170// 169//
f 710// 169// 711//
f 711// 169// 168//
f 168// 167// 711//
f 711// 167// 220//
f 711// 220// 332//
f 701// 297// 700//
f 700// 297// 296//
f 703// 305// 702//
f 702// 305// 304//
f 705// 307// 704//
f 704// 307// 306//
f 707// 299// 706//
f 706// 299// 298//
f 709// 301// 708//
f 708// 301// 300//
f 711// 332// 710//
f 710// 332// 331//
f 216// 172// 712//
f 712// 172// 205//
f 712// 205// 713//
f 713// 205// 204//
f 713// 204// 210//
f 210// 204// 175//
f 213// 177// 714//
f 714// 177// 183//
f 714// 183// 715//
f 715// 183// 182//
f 715// 182// 206//
f 206// 182// 180//
f 209// 196// 716//
f 716// 196// 200//
f 716// 200// 717//
f 717// 200// 199//
f 717// 199// 242//
f 242// 199// 195//
f 262// 717// 243//
f 243// 717// 242//
f 261// 716// 262//
f 262// 716// 717//
f 208// 209// 261//
f 261// 209// 716//
f 260// 715// 207//
f 207// 715// 206//
f 267// 714// 260//
f 260// 714// 715//
f 212// 213// 267//
f 267// 213// 714//
f 256// 713// 211//
f 211// 713// 210//
f 257// 712// 256//
f 256// 712// 713//
f 215// 216// 257//
f 257// 216// 712//
usemtl 2
f 718// 719// 720//
f 718// 720// 721//
f 721// 720// 722//
f 721// 722// 723//
f 723// 722// 724//
f 723// 724// 725//
f 725// 724// 726//
f 725// 726// 727//
f 727// 726// 728//
f 727// 728// 729//
f 729// 728// 730//
f 729// 730// 731//
f 732// 733// 730//
f 730// 733// 731//
f 733// 732// 734//
f 734// 732// 735//
f 734// 735// 736//
f 736// 735// 737//
f 736// 737// 738//
f 738// 737// 739//
f 738// 739// 740//
f 740// 739// 741//
f 740// 741// 742//
f 742// 741// 743//
f 742// 743// 744//
f 744// 743// 745//
f 746// 744// 747//
f 747// 744// 745//
f 748// 749// 750//
f 750// 749// 751//
f 751// 749// 752//
f 751// 752// 753//
f 753// 752// 754//
f 753// 754// 755//
f 755// 754// 756//
f 755// 756// 757//
f 757// 756// 758//
f 757// 758// 759//
f 759// 758// 760//
f 759// 760// 761//
f 761// 760// 762//
f 761// 762// 763//
f 764// 765// 762//
f 762// 765// 763//
f 766// 767// 733//
f 733// 767// 731//
f 186// 198// 768//
f 768// 198// 718//
f 718// 721// 768//
f 768// 721// 723//
f 768// 723// 725//
f 740// 751// 738//
f 738// 751// 753//
f 738// 753// 755//
f 767// 769// 731//
f 731// 769// 770//
f 731// 770// 729//
f 729// 770// 768//
f 729// 768// 727//
f 727// 768// 725//
f 755// 757// 738//
f 738// 757// 759//
f 738// 759// 736//
f 736// 759// 761//
f 736// 761// 734//
f 734// 761// 763//
f 734// 763// 733//
f 733// 763// 765//
f 733// 765// 766//
f 771// 772// 773//
f 774// 775// 746//
f 746// 775// 776//
f 773// 777// 771//
f 771// 777// 778//
f 771// 778// 779//
f 779// 778// 746//
f 746// 778// 780//
f 746// 780// 774//
f 740// 742// 751//
f 751// 742// 744//
f 751// 744// 750//
f 750// 744// 746//
f 750// 746// 781//
f 781// 746// 776//
f 782// 732// 783//
f 783// 732// 730//
f 783// 730// 784//
f 785// 747// 786//
f 722// 787// 724//
f 724// 787// 726//
f 197// 187// 719//
f 719// 187// 787//
f 719// 787// 720//
f 720// 787// 722//
f 784// 730// 787//
f 787// 730// 728//
f 787// 728// 726//
f 745// 749// 747//
f 747// 749// 748//
f 745// 743// 749//
f 749// 743// 741//
f 749// 741// 752//
f 752// 741// 739//
f 752// 739// 754//
f 754// 739// 756//
f 788// 789// 790//
f 782// 791// 732//
f 732// 791// 764//
f 732// 764// 735//
f 735// 764// 762//
f 735// 762// 737//
f 737// 762// 760//
f 737// 760// 739//
f 739// 760// 758//
f 739// 758// 756//
f 748// 792// 747//
f 747// 792// 793//
f 747// 793// 794//
f 785// 786// 790//
f 790// 786// 795//
f 790// 795// 788//
f 794// 796// 747//
f 747// 796// 797//
f 747// 797// 786//
f 765// 764// 766//
f 766// 764// 791//
f 766// 791// 767//
f 767// 791// 782//
f 767// 782// 769//
f 769// 782// 783//
f 769// 783// 770//
f 770// 783// 784//
f 770// 784// 768//
f 768// 784// 787//
f 768// 787// 186//
f 186// 787// 187//
f 719// 718// 197//
f 197// 718// 198//
f 798// 799// 109//
f 109// 799// 124//
f 800// 801// 131//
f 131// 801// 108//
f 800// 131// 802//
f 803// 804// 124//
f 803// 124// 805//
f 806// 807// 799//
f 808// 809// 124//
f 810// 811// 131//
f 131// 811// 812//
f 799// 807// 124//
f 124// 807// 813//
f 124// 813// 808//
f 804// 814// 124//
f 124// 814// 815//
f 124// 815// 816//
f 817// 818// 819//
f 819// 820// 131//
f 131// 820// 821//
f 131// 821// 822//
f 822// 823// 131//
f 131// 823// 824//
f 131// 824// 802//
f 809// 825// 124//
f 124// 825// 826//
f 124// 826// 805//
f 805// 826// 827//
f 805// 827// 828//
f 828// 827// 829//
f 828// 829// 830//
f 816// 831// 124//
f 124// 831// 832//
f 124// 832// 131//
f 131// 832// 833//
f 131// 833// 810//
f 817// 819// 834//
f 806// 799// 835//
f 835// 799// 836//
f 835// 836// 837//
f 837// 836// 838//
f 837// 838// 839//
f 812// 840// 131//
f 131// 840// 841//
f 131// 841// 819//
f 819// 841// 842//
f 819// 842// 834//
f 802// 843// 800//
f 800// 843// 844//
f 800// 844// 845//
f 845// 846// 800//
f 800// 846// 847//
f 800// 847// 848//
f 798// 109// 849//
f 850// 851// 801//
f 852// 853// 109//
f 109// 853// 854//
f 855// 856// 108//
f 801// 851// 108//
f 108// 851// 857//
f 108// 857// 855//
f 856// 858// 108//
f 108// 858// 859//
f 108// 859// 860//
f 861// 862// 108//
f 108// 862// 863//
f 108// 863// 864//
f 860// 865// 866//
f 867// 109// 868//
f 868// 109// 869//
f 867// 870// 109//
f 109// 870// 871//
f 109// 871// 849//
f 872// 801// 873//
f 873// 801// 874//
f 872// 875// 801//
f 801// 875// 876//
f 801// 876// 850//
f 866// 877// 860//
f 860// 877// 878//
f 860// 878// 108//
f 108// 878// 879//
f 108// 879// 861//
f 864// 880// 108//
f 108// 880// 881//
f 108// 881// 109//
f 109// 881// 882//
f 109// 882// 852//
f 854// 883// 109//
f 109// 883// 884//
f 109// 884// 869//
f 869// 884// 885//
f 869// 885// 886//
f 886// 885// 887//
f 886// 887// 888//
f 888// 887// 889//
f 849// 890// 798//
f 798// 890// 891//
f 798// 891// 892//
f 892// 891// 893//
f 892// 893// 894//
f 894// 893// 895//
f 803// 884// 804//
f 804// 884// 883//
f 804// 883// 814//
f 814// 883// 854//
f 814// 854// 815//
f 815// 854// 853//
f 815// 853// 816//
f 816// 853// 852//
f 816// 852// 831//
f 831// 852// 882//
f 831// 882// 832//
f 832// 882// 881//
f 832// 881// 833//
f 833// 881// 880//
f 833// 880// 810//
f 810// 880// 864//
f 810// 864// 811//
f 811// 864// 863//
f 811// 863// 812//
f 812// 863// 862//
f 812// 862// 840//
f 840// 862// 861//
f 840// 861// 841//
f 841// 861// 879//
f 878// 842// 879//
f 879// 842// 841//
f 842// 878// 877//
f 842// 877// 834//
f 834// 877// 866//
f 834// 866// 817//
f 817// 866// 865//
f 817// 865// 818//
f 818// 865// 860//
f 818// 860// 819//
f 859// 820// 860//
f 860// 820// 819//
f 820// 859// 858//
f 820// 858// 821//
f 821// 858// 856//
f 821// 856// 822//
f 822// 856// 855//
f 822// 855// 823//
f 823// 855// 857//
f 823// 857// 824//
f 851// 802// 857//
f 857// 802// 824//
f 802// 851// 850//
f 802// 850// 843//
f 843// 850// 876//
f 843// 876// 844//
f 844// 876// 875//
f 844// 875// 845//
f 845// 875// 872//
f 845// 872// 846//
f 846// 872// 873//
f 846// 873// 847//
f 847// 873// 874//
f 847// 874// 848//
f 848// 874// 801//
f 848// 801// 800//
f 799// 798// 892//
f 799// 892// 836//
f 836// 892// 894//
f 836// 894// 838//
f 838// 894// 895//
f 838// 895// 839//
f 839// 895// 893//
f 839// 893// 837//
f 837// 893// 891//
f 837// 891// 835//
f 835// 891// 890//
f 835// 890// 806//
f 806// 890// 849//
f 806// 849// 807//
f 871// 813// 849//
f 849// 813// 807//
f 813// 871// 870//
f 813// 870// 808//
f 808// 870// 867//
f 808// 867// 809//
f 809// 867// 868//
f 809// 868// 825//
f 825// 868// 869//
f 825// 869// 826//
f 886// 827// 869//
f 869// 827// 826//
f 827// 886// 888//
f 827// 888// 829//
f 829// 888// 889//
f 829// 889// 830//
f 830// 889// 887//
f 830// 887// 828//
f 828// 887// 885//
f 828// 885// 805//
f 884// 803// 885//
f 885// 803// 805//
f 896// 897// 898//
f 896// 898// 899//
f 899// 898// 900//
f 899// 900// 901//
f 901// 900// 902//
f 901// 902// 903//
f 903// 902// 904//
f 903// 904// 905//
f 905// 904// 906//
f 905// 906// 907//
f 907// 906// 908//
f 907// 908// 909//
f 910// 911// 908//
f 908// 911// 909//
f 911// 910// 912//
f 912// 910// 913//
f 912// 913// 914//
f 914// 913// 915//
f 914// 915// 916//
f 916// 915// 917//
f 916// 917// 918//
f 918// 917// 919//
f 918// 919// 920//
f 920// 919// 921//
f 920// 921// 922//
f 922// 921// 923//
f 924// 922// 925//
f 925// 922// 923//
f 926// 927// 928//
f 928// 927// 929//
f 929// 927// 930//
f 929// 930// 931//
f 931// 930// 932//
f 931// 932// 933//
f 933// 932// 934//
f 933// 934// 935//
f 935// 934// 936//
f 935// 936// 937//
f 937// 936// 938//
f 937// 938// 939//
f 939// 938// 940//
f 939// 940// 941//
f 942// 943// 940//
f 940// 943// 941//
f 944// 945// 911//
f 911// 945// 909//
f 179// 181// 946//
f 946// 181// 896//
f 946// 896// 899//
f 933// 935// 916//
f 916// 935// 937//
f 916// 937// 914//
f 914// 937// 939//
f 914// 939// 912//
f 912// 939// 941//
f 912// 941// 911//
f 911// 941// 943//
f 911// 943// 944//
f 918// 929// 916//
f 916// 929// 931//
f 916// 931// 933//
f 945// 947// 909//
f 909// 947// 948//
f 909// 948// 907//
f 907// 948// 946//
f 907// 946// 905//
f 899// 901// 946//
f 946// 901// 903//
f 946// 903// 905//
f 918// 920// 929//
f 929// 920// 922//
f 929// 922// 928//
f 928// 922// 924//
f 928// 924// 949//
f 950// 951// 952//
f 952// 951// 953//
f 952// 953// 954//
f 949// 955// 928//
f 928// 955// 956//
f 928// 956// 957//
f 952// 958// 950//
f 950// 958// 928//
f 950// 928// 959//
f 959// 928// 957//
f 960// 904// 902//
f 178// 176// 897//
f 897// 176// 960//
f 961// 910// 962//
f 962// 910// 908//
f 962// 908// 963//
f 902// 900// 960//
f 960// 900// 898//
f 960// 898// 897//
f 963// 908// 960//
f 960// 908// 906//
f 960// 906// 904//
f 923// 927// 925//
f 925// 927// 926//
f 925// 926// 964//
f 923// 921// 927//
f 927// 921// 919//
f 927// 919// 930//
f 930// 919// 917//
f 930// 917// 932//
f 932// 917// 934//
f 961// 965// 910//
f 910// 965// 942//
f 910// 942// 913//
f 913// 942// 940//
f 913// 940// 915//
f 915// 940// 938//
f 915// 938// 917//
f 917// 938// 936//
f 917// 936// 934//
f 966// 967// 968//
f 969// 970// 967//
f 967// 970// 971//
f 967// 971// 968//
f 966// 968// 926//
f 926// 968// 972//
f 926// 972// 973//
f 973// 974// 926//
f 926// 974// 975//
f 926// 975// 964//
f 943// 942// 944//
f 944// 942// 965//
f 944// 965// 945//
f 945// 965// 961//
f 945// 961// 947//
f 947// 961// 962//
f 947// 962// 948//
f 948// 962// 963//
f 948// 963// 946//
f 946// 963// 960//
f 946// 960// 179//
f 179// 960// 176//
f 897// 896// 178//
f 178// 896// 181//
f 976// 977// 105//
f 105// 977// 127//
f 978// 979// 140//
f 140// 979// 104//
f 978// 140// 980//
f 981// 982// 140//
f 981// 140// 983//
f 984// 985// 127//
f 985// 986// 127//
f 127// 986// 987//
f 127// 987// 988//
f 989// 990// 127//
f 127// 990// 991//
f 127// 991// 992//
f 993// 994// 995//
f 996// 997// 977//
f 977// 997// 998//
f 977// 998// 127//
f 127// 998// 999//
f 127// 999// 984//
f 988// 1000// 127//
f 127// 1000// 1001//
f 127// 1001// 989//
f 1002// 1003// 988//
f 988// 1003// 1004//
f 988// 1004// 1000//
f 992// 1005// 127//
f 127// 1005// 1006//
f 127// 1006// 140//
f 140// 1006// 1007//
f 140// 1007// 983//
f 1008// 1009// 1010//
f 996// 977// 995//
f 995// 977// 1011//
f 995// 1011// 993//
f 1010// 1012// 140//
f 140// 1012// 1013//
f 140// 1013// 1014//
f 1014// 1015// 140//
f 140// 1015// 1016//
f 140// 1016// 980//
f 1008// 1010// 1017//
f 982// 1018// 140//
f 140// 1018// 1019//
f 140// 1019// 1010//
f 1010// 1019// 1020//
f 1010// 1020// 1017//
f 980// 1021// 978//
f 978// 1021// 1022//
f 978// 1022// 1023//
f 1023// 1024// 978//
f 978// 1024// 1025//
f 978// 1025// 1026//
f 976// 105// 1027//
f 1028// 1029// 105//
f 105// 1029// 1030//
f 1031// 1032// 979//
f 1033// 1034// 104//
f 104// 1034// 1035//
f 104// 1035// 1036//
f 1037// 1038// 105//
f 105// 1038// 1039//
f 105// 1039// 1040//
f 1040// 1041// 105//
f 105// 1041// 1042//
f 105// 1042// 1027//
f 1043// 1044// 104//
f 1030// 1045// 105//
f 105// 1045// 1046//
f 105// 1046// 1037//
f 1037// 1046// 1047//
f 1027// 1048// 976//
f 976// 1048// 1049//
f 976// 1049// 1050//
f 979// 1032// 104//
f 104// 1032// 1051//
f 104// 1051// 1043//
f 1044// 1052// 104//
f 104// 1052// 1053//
f 104// 1053// 1054//
f 1047// 1055// 1037//
f 1037// 1055// 1056//
f 1037// 1056// 1057//
f 1054// 1058// 1059//
f 1036// 1060// 104//
f 104// 1060// 1061//
f 104// 1061// 105//
f 105// 1061// 1062//
f 105// 1062// 1028//
f 1063// 1064// 1050//
f 1050// 1064// 1065//
f 1050// 1065// 976//
f 1066// 979// 1067//
f 1067// 979// 1068//
f 1066// 1069// 979//
f 979// 1069// 1070//
f 979// 1070// 1031//
f 1059// 1071// 1054//
f 1054// 1071// 1072//
f 1054// 1072// 104//
f 104// 1072// 1073//
f 104// 1073// 1033//
f 1001// 1046// 989//
f 989// 1046// 1045//
f 989// 1045// 990//
f 990// 1045// 1030//
f 990// 1030// 991//
f 991// 1030// 1029//
f 991// 1029// 992//
f 992// 1029// 1028//
f 992// 1028// 1005//
f 1005// 1028// 1062//
f 1005// 1062// 1006//
f 1006// 1062// 1061//
f 1006// 1061// 1007//
f 1007// 1061// 1060//
f 1007// 1060// 983//
f 983// 1060// 1036//
f 983// 1036// 981//
f 981// 1036// 1035//
f 981// 1035// 982//
f 982// 1035// 1034//
f 982// 1034// 1018//
f 1018// 1034// 1033//
f 1018// 1033// 1019//
f 1019// 1033// 1073//
f 1072// 1020// 1073//
f 1073// 1020// 1019//
f 1020// 1072// 1071//
f 1020// 1071// 1017//
f 1017// 1071// 1059//
f 1017// 1059// 1008//
f 1008// 1059// 1058//
f 1008// 1058// 1009//
f 1009// 1058// 1054//
f 1009// 1054// 1010//
f 1053// 1012// 1054//
f 1054// 1012// 1010//
f 1012// 1053// 1052//
f 1012// 1052// 1013//
f 1013// 1052// 1044//
f 1013// 1044// 1014//
f 1014// 1044// 1043//
f 1014// 1043// 1015//
f 1015// 1043// 1051//
f 1015// 1051// 1016//
f 1032// 980// 1051//
f 1051// 980// 1016//
f 980// 1032// 1031//
f 980// 1031// 1021//
f 1021// 1031// 1070//
f 1021// 1070// 1022//
f 1022// 1070// 1069//
f 1022// 1069// 1023//
f 1023// 1069// 1066//
f 1023// 1066// 1024//
f 1024// 1066// 1067//
f 1024// 1067// 1025//
f 1025// 1067// 1068//
f 1025// 1068// 1026//
f 1026// 1068// 979//
f 1026// 979// 978//
f 977// 976// 1065//
f 977// 1065// 1011//
f 1011// 1065// 1064//
f 1011// 1064// 993//
f 993// 1064// 1063//
f 993// 1063// 994//
f 994// 1063// 1050//
f 994// 1050// 995//
f 995// 1050// 1049//
f 995// 1049// 996//
f 996// 1049// 1048//
f 996// 1048// 997//
f 997// 1048// 1027//
f 997// 1027// 998//
f 1042// 999// 1027//
f 1027// 999// 998//
f 999// 1042// 1041//
f 999// 1041// 984//
f 984// 1041// 1040//
f 984// 1040// 985//
f 985// 1040// 1039//
f 985// 1039// 986//
f 986// 1039// 1038//
f 986// 1038// 987//
f 1037// 988// 1038//
f 1038// 988// 987//
f 988// 1037// 1057//
f 988// 1057// 1002//
f 1002// 1057// 1056//
f 1002// 1056// 1003//
f 1003// 1056// 1055//
f 1003// 1055// 1004//
f 1004// 1055// 1047//
f 1004// 1047// 1000//
f 1046// 1001// 1047//
f 1047// 1001// 1000//
f 1074// 1075// 1076//
f 1074// 1076// 1077//
f 1077// 1076// 1078//
f 1077// 1078// 1079//
f 1079// 1078// 1080//
f 1079// 1080// 1081//
f 1081// 1080// 1082//
f 1081// 1082// 1083//
f 1083// 1082// 1084//
f 1083// 1084// 1085//
f 1085// 1084// 1086//
f 1085// 1086// 1087//
f 1088// 1089// 1086//
f 1086// 1089// 1087//
f 1089// 1088// 1090//
f 1090// 1088// 1091//
f 1090// 1091// 1092//
f 1092// 1091// 1093//
f 1092// 1093// 1094//
f 1094// 1093// 1095//
f 1094// 1095// 1096//
f 1096// 1095// 1097//
f 1096// 1097// 1098//
f 1098// 1097// 1099//
f 1098// 1099// 1100//
f 1100// 1099// 1101//
f 1102// 1100// 1103//
f 1103// 1100// 1101//
f 1104// 1105// 1106//
f 1106// 1105// 1107//
f 1107// 1105// 1108//
f 1107// 1108// 1109//
f 1109// 1108// 1110//
f 1109// 1110// 1111//
f 1111// 1110// 1112//
f 1111// 1112// 1113//
f 1113// 1112// 1114//
f 1113// 1114// 1115//
f 1115// 1114// 1116//
f 1115// 1116// 1117//
f 1117// 1116// 1118//
f 1117// 1118// 1119//
f 1120// 1121// 1118//
f 1118// 1121// 1119//
f 1122// 1123// 1089//
f 1089// 1123// 1087//
f 1123// 1124// 1087//
f 1087// 1124// 1125//
f 1087// 1125// 1085//
f 1085// 1125// 1126//
f 1085// 1126// 1083//
f 202// 203// 1126//
f 1126// 203// 1074//
f 1126// 1074// 1077//
f 1096// 1107// 1094//
f 1094// 1107// 1109//
f 1094// 1109// 1111//
f 1127// 1128// 1106//
f 1077// 1079// 1126//
f 1126// 1079// 1081//
f 1126// 1081// 1083//
f 1111// 1113// 1094//
f 1094// 1113// 1115//
f 1094// 1115// 1092//
f 1092// 1115// 1117//
f 1092// 1117// 1090//
f 1090// 1117// 1119//
f 1090// 1119// 1089//
f 1089// 1119// 1121//
f 1089// 1121// 1122//
f 1096// 1098// 1107//
f 1107// 1098// 1100//
f 1107// 1100// 1106//
f 1106// 1100// 1102//
f 1106// 1102// 1127//
f 1128// 1129// 1106//
f 1106// 1129// 1130//
f 1106// 1130// 1131//
f 1132// 1133// 1134//
f 1134// 1133// 1135//
f 1131// 1136// 1106//
f 1106// 1136// 1135//
f 1106// 1135// 1137//
f 1137// 1135// 1133//
f 1138// 1088// 1139//
f 1139// 1088// 1086//
f 1139// 1086// 1140//
f 1140// 1086// 1141//
f 1103// 1101// 1105//
f 174// 173// 1075//
f 1075// 173// 1141//
f 1086// 1084// 1141//
f 1141// 1084// 1082//
f 1141// 1082// 1080//
f 1080// 1078// 1141//
f 1141// 1078// 1076//
f 1141// 1076// 1075//
f 1105// 1104// 1103//
f 1103// 1104// 1142//
f 1103// 1142// 1143//
f 1101// 1099// 1105//
f 1105// 1099// 1097//
f 1105// 1097// 1108//
f 1108// 1097// 1095//
f 1108// 1095// 1110//
f 1110// 1095// 1112//
f 1143// 1144// 1103//
f 1103// 1144// 1145//
f 1103// 1145// 1146//
f 1147// 1148// 1149//
f 1149// 1148// 1150//
f 1146// 1151// 1103//
f 1103// 1151// 1150//
f 1103// 1150// 1152//
f 1152// 1150// 1148//
f 1138// 1153// 1088//
f 1088// 1153// 1120//
f 1088// 1120// 1091//
f 1091// 1120// 1118//
f 1091// 1118// 1093//
f 1093// 1118// 1116//
f 1093// 1116// 1095//
f 1095// 1116// 1114//
f 1095// 1114// 1112//
f 1121// 1120// 1122//
f 1122// 1120// 1153//
f 1122// 1153// 1123//
f 1123// 1153// 1138//
f 1123// 1138// 1124//
f 1124// 1138// 1139//
f 1124// 1139// 1125//
f 1125// 1139// 1140//
f 1125// 1140// 1126//
f 1126// 1140// 1141//
f 1126// 1141// 202//
f 202// 1141// 173//
f 1075// 1074// 174//
f 174// 1074// 203//
f 1154// 1155// 157//
f 157// 1155// 158//
f 1156// 1157// 154//
f 154// 1157// 156//
f 1158// 1159// 158//
f 1158// 158// 1160//
f 1161// 1162// 1155//
f 1163// 1164// 154//
f 1155// 1162// 158//
f 158// 1162// 1165//
f 158// 1165// 1160//
f 1164// 1166// 154//
f 154// 1166// 1167//
f 154// 1167// 1168//
f 1159// 1169// 158//
f 158// 1169// 1170//
f 158// 1170// 1171//
f 1165// 1172// 1173//
f 1173// 1174// 1165//
f 1165// 1174// 1175//
f 1165// 1175// 1160//
f 1160// 1175// 1176//
f 1160// 1176// 1177//
f 1177// 1176// 1178//
f 1177// 1178// 1179//
f 1171// 1180// 158//
f 158// 1180// 1181//
f 158// 1181// 154//
f 154// 1181// 1182//
f 154// 1182// 1163//
f 1168// 1183// 1184//
f 1161// 1155// 1185//
f 1185// 1155// 1186//
f 1185// 1186// 1187//
f 1187// 1186// 1188//
f 1187// 1188// 1189//
f 1183// 1190// 1184//
f 1184// 1190// 1191//
f 1184// 1191// 1192//
f 1193// 1194// 154//
f 1168// 1184// 154//
f 154// 1184// 1195//
f 154// 1195// 1193//
f 1196// 1156// 1197//
f 1197// 1156// 154//
f 1197// 154// 1198//
f 1198// 154// 1194//
f 1196// 1199// 1156//
f 1156// 1199// 1200//
f 1156// 1200// 1201//
f 1201// 1202// 1156//
f 1156// 1202// 1203//
f 1156// 1203// 1204//
f 1205// 1206// 1207//
f 1208// 1209// 157//
f 157// 1209// 1210//
f 1154// 157// 1211//
f 1211// 157// 1207//
f 1210// 1212// 157//
f 157// 1212// 1213//
f 157// 1213// 1207//
f 1207// 1213// 1214//
f 1215// 1216// 156//
f 156// 1216// 1217//
f 156// 1217// 1218//
f 1219// 1220// 1221//
f 1222// 1223// 1224//
f 1224// 1223// 1225//
f 1224// 1225// 1214//
f 1205// 1207// 1226//
f 1227// 1228// 156//
f 1221// 1229// 1219//
f 1219// 1229// 1230//
f 1219// 1230// 156//
f 156// 1230// 1231//
f 156// 1231// 1215//
f 1214// 1225// 1207//
f 1207// 1225// 1232//
f 1207// 1232// 1226//
f 1228// 1233// 156//
f 156// 1233// 1234//
f 156// 1234// 1219//
f 1218// 1235// 156//
f 156// 1235// 1236//
f 156// 1236// 157//
f 157// 1236// 1237//
f 157// 1237// 1208//
f 1211// 1238// 1154//
f 1154// 1238// 1239//
f 1154// 1239// 1240//
f 1240// 1239// 1241//
f 1240// 1241// 1242//
f 1242// 1241// 1243//
f 1227// 156// 1244//
f 1244// 156// 1157//
f 1244// 1157// 1245//
f 1245// 1157// 1246//
f 1245// 1246// 1247//
f 1247// 1248// 1245//
f 1245// 1248// 1249//
f 1245// 1249// 1250//
f 1250// 1249// 1251//
f 1158// 1213// 1159//
f 1159// 1213// 1212//
f 1159// 1212// 1169//
f 1169// 1212// 1210//
f 1169// 1210// 1170//
f 1170// 1210// 1209//
f 1170// 1209// 1171//
f 1171// 1209// 1208//
f 1171// 1208// 1180//
f 1180// 1208// 1237//
f 1180// 1237// 1181//
f 1181// 1237// 1236//
f 1181// 1236// 1182//
f 1182// 1236// 1235//
f 1182// 1235// 1163//
f 1163// 1235// 1218//
f 1163// 1218// 1164//
f 1164// 1218// 1217//
f 1164// 1217// 1166//
f 1166// 1217// 1216//
f 1166// 1216// 1167//
f 1167// 1216// 1215//
f 1167// 1215// 1168//
f 1168// 1215// 1231//
f 1230// 1183// 1231//
f 1231// 1183// 1168//
f 1183// 1230// 1229//
f 1183// 1229// 1190//
f 1190// 1229// 1221//
f 1190// 1221// 1191//
f 1191// 1221// 1220//
f 1191// 1220// 1192//
f 1192// 1220// 1219//
f 1192// 1219// 1184//
f 1234// 1195// 1219//
f 1219// 1195// 1184//
f 1195// 1234// 1233//
f 1195// 1233// 1193//
f 1193// 1233// 1228//
f 1193// 1228// 1194//
f 1194// 1228// 1227//
f 1194// 1227// 1198//
f 1198// 1227// 1244//
f 1198// 1244// 1197//
f 1245// 1196// 1244//
f 1244// 1196// 1197//
f 1196// 1245// 1250//
f 1196// 1250// 1199//
f 1199// 1250// 1251//
f 1199// 1251// 1200//
f 1200// 1251// 1249//
f 1200// 1249// 1201//
f 1201// 1249// 1248//
f 1201// 1248// 1202//
f 1202// 1248// 1247//
f 1202// 1247// 1203//
f 1203// 1247// 1246//
f 1203// 1246// 1204//
f 1204// 1246// 1157//
f 1204// 1157// 1156//
f 1155// 1154// 1240//
f 1155// 1240// 1186//
f 1186// 1240// 1242//
f 1186// 1242// 1188//
f 1188// 1242// 1243//
f 1188// 1243// 1189//
f 1189// 1243// 1241//
f 1189// 1241// 1187//
f 1187// 1241// 1239//
f 1187// 1239// 1185//
f 1185// 1239// 1238//
f 1185// 1238// 1161//
f 1161// 1238// 1211//
f 1161// 1211// 1162//
f 1207// 1165// 1211//
f 1211// 1165// 1162//
f 1165// 1207// 1206//
f 1165// 1206// 1172//
f 1172// 1206// 1205//
f 1172// 1205// 1173//
f 1173// 1205// 1226//
f 1173// 1226// 1174//
f 1174// 1226// 1232//
f 1174// 1232// 1175//
f 1225// 1176// 1232//
f 1232// 1176// 1175//
f 1176// 1225// 1223//
f 1176// 1223// 1178//
f 1178// 1223// 1222//
f 1178// 1222// 1179//
f 1179// 1222// 1224//
f 1179// 1224// 1177//
f 1177// 1224// 1214//
f 1177// 1214// 1160//
f 1213// 1158// 1214//
f 1214// 1158// 1160//
f 746// 747// 785//
f 746// 785// 779//
f 779// 785// 790//
f 779// 790// 771//
f 771// 790// 789//
f 771// 789// 772//
f 772// 789// 788//
f 772// 788// 773//
f 773// 788// 795//
f 773// 795// 777//
f 777// 795// 786//
f 777// 786// 778//
f 778// 786// 797//
f 778// 797// 780//
f 780// 797// 796//
f 780// 796// 774//
f 774// 796// 794//
f 774// 794// 775//
f 775// 794// 793//
f 775// 793// 776//
f 776// 793// 792//
f 776// 792// 781//
f 781// 792// 748//
f 781// 748// 750//
f 924// 925// 964//
f 924// 964// 949//
f 949// 964// 975//
f 949// 975// 955//
f 955// 975// 974//
f 955// 974// 956//
f 956// 974// 973//
f 956// 973// 957//
f 957// 973// 972//
f 957// 972// 959//
f 959// 972// 968//
f 959// 968// 950//
f 950// 968// 971//
f 950// 971// 951//
f 951// 971// 970//
f 951// 970// 953//
f 953// 970// 969//
f 953// 969// 954//
f 954// 969// 967//
f 954// 967// 952//
f 952// 967// 966//
f 952// 966// 958//
f 958// 966// 926//
f 958// 926// 928//
f 1102// 1103// 1152//
f 1102// 1152// 1127//
f 1127// 1152// 1148//
f 1127// 1148// 1128//
f 1128// 1148// 1147//
f 1128// 1147// 1129//
f 1129// 1147// 1149//
f 1129// 1149// 1130//
f 1130// 1149// 1150//
f 1130// 1150// 1131//
f 1131// 1150// 1151//
f 1131// 1151// 1136//
f 1136// 1151// 1146//
f 1136// 1146// 1135//
f 1135// 1146// 1145//
f 1135// 1145// 1134//
f 1134// 1145// 1144//
f 1134// 1144// 1132//
f 1132// 1144// 1143//
f 1132// 1143// 1133//
f 1133// 1143// 1142//
f 1133// 1142// 1137//
f 1137// 1142// 1104//
f 1137// 1104// 1106//
usemtl 3
f 1252// 1253// 12//
f 12// 1253// 15//
f 1253// 1254// 15//
f 15// 1254// 13//
f 1254// 1255// 13//
f 13// 1255// 26//
f 1255// 1256// 26//
f 26// 1256// 25//
f 1256// 1257// 25//
f 25// 1257// 24//
f 1257// 1258// 24//
f 24// 1258// 4//
f 1258// 1259// 4//
f 4// 1259// 11//
f 1259// 1252// 11//
f 11// 1252// 12//
f 1260// 1256// 1261//
f 1261// 1256// 1255//
f 1262// 1259// 1260//
f 1260// 1259// 1258//
f 1260// 1258// 1256//
f 1256// 1258// 1257//
f 1262// 1263// 1259//
f 1259// 1263// 1264//
f 1259// 1264// 1252//
f 1252// 1264// 1265//
f 1252// 1265// 1266//
f 1266// 1267// 1252//
f 1252// 1267// 1261//
f 1252// 1261// 1253//
f 1253// 1261// 1255//
f 1253// 1255// 1254//
f 1260// 1261// 1268//
f 1268// 1261// 1269//
f 1262// 1260// 1270//
f 1270// 1260// 1268//
f 1262// 1270// 1271//
f 1262// 1271// 1263//
f 1263// 1271// 1272//
f 1263// 1272// 1264//
f 1265// 1264// 1273//
f 1273// 1264// 1272//
f 1265// 1273// 1274//
f 1265// 1274// 1266//
f 1266// 1274// 1275//
f 1266// 1275// 1267//
f 1261// 1267// 1269//
f 1269// 1267// 1275//
f 1276// 1277// 17//
f 17// 1277// 18//
f 1277// 1278// 18//
f 18// 1278// 19//
f 1278// 1279// 19//
f 19// 1279// 20//
f 1280// 31// 30//
f 1280// 30// 1281//
f 1281// 30// 23//
f 1281// 23// 1282//
f 1282// 23// 22//
f 1282// 22// 1283//
f 1283// 22// 21//
f 1283// 21// 1284//
f 1284// 21// 29//
f 1284// 29// 1285//
f 1285// 29// 28//
f 1285// 28// 1286//
f 1286// 28// 27//
f 1286// 27// 1287//
f 1287// 27// 20//
f 1287// 20// 1279//
f 1276// 17// 9//
f 1276// 9// 1288//
f 1288// 9// 8//
f 1288// 8// 1289//
f 1289// 8// 7//
f 1289// 7// 1290//
f 1290// 7// 6//
f 1290// 6// 1291//
f 1291// 6// 5//
f 1291// 5// 1292//
f 1292// 5// 32//
f 1292// 32// 1293//
f 1293// 32// 31//
f 1293// 31// 1280//
f 1282// 1283// 1294//
f 1294// 1283// 1284//
f 1294// 1284// 1295//
f 1295// 1284// 1285//
f 1295// 1285// 1296//
f 1296// 1285// 1286//
f 1296// 1286// 1297//
f 1297// 1286// 1287//
f 1297// 1287// 1298//
f 1298// 1287// 1279//
f 1298// 1279// 1299//
f 1299// 1279// 1278//
f 1299// 1278// 1300//
f 1300// 1278// 1277//
f 1300// 1277// 1301//
f 1301// 1277// 1276//
f 1301// 1276// 1302//
f 1302// 1276// 1288//
f 1302// 1288// 1303//
f 1303// 1288// 1289//
f 1303// 1289// 1304//
f 1304// 1289// 1290//
f 1304// 1290// 1305//
f 1305// 1290// 1291//
f 1305// 1291// 1306//
f 1306// 1291// 1292//
f 1306// 1292// 1307//
f 1307// 1292// 1293//
f 1307// 1293// 1308//
f 1308// 1293// 1280//
f 1308// 1280// 1309//
f 1309// 1280// 1281//
f 1309// 1281// 1310//
f 1310// 1281// 1282//
f 1310// 1282// 1294//
f 1298// 1299// 1311//
f 1311// 1299// 1312//
f 1298// 1311// 1313//
f 1298// 1313// 1297//
f 1297// 1313// 1314//
f 1297// 1314// 1296//
f 1296// 1314// 1315//
f 1296// 1315// 1295//
f 1295// 1315// 1316//
f 1295// 1316// 1294//
f 1294// 1316// 1317//
f 1294// 1317// 1310//
f 1310// 1317// 1318//
f 1310// 1318// 1309//
f 1309// 1318// 1319//
f 1309// 1319// 1308//
f 1308// 1319// 1320//
f 1308// 1320// 1307//
f 1307// 1320// 1321//
f 1307// 1321// 1306//
f 1306// 1321// 1322//
f 1306// 1322// 1305//
f 1305// 1322// 1323//
f 1305// 1323// 1304//
f 1304// 1323// 1324//
f 1304// 1324// 1303//
f 1303// 1324// 1325//
f 1303// 1325// 1302//
f 1302// 1325// 1326//
f 1302// 1326// 1301//
f 1300// 1301// 1327//
f 1327// 1301// 1326//
f 1299// 1300// 1312//
f 1312// 1300// 1327//
f 1328// 1329// 38//
f 38// 1329// 39//
f 1329// 1330// 39//
f 39// 1330// 40//
f 1330// 1331// 40//
f 40// 1331// 46//
f 1331// 1332// 46//
f 46// 1332// 60//
f 1332// 1333// 60//
f 60// 1333// 51//
f 1333// 1334// 51//
f 51// 1334// 49//
f 1334// 1335// 49//
f 49// 1335// 50//
f 1335// 1336// 50//
f 50// 1336// 52//
f 1336// 1337// 52//
f 52// 1337// 55//
f 1337// 1338// 55//
f 55// 1338// 53//
f 1338// 1339// 53//
f 53// 1339// 54//
f 1339// 1328// 54//
f 54// 1328// 38//
f 1330// 1329// 1328//
f 1328// 1339// 1330//
f 1330// 1339// 1338//
f 1330// 1338// 1331//
f 1333// 1332// 1334//
f 1334// 1332// 1331//
f 1334// 1331// 1335//
f 1335// 1331// 1338//
f 1335// 1338// 1336//
f 1336// 1338// 1337//
f 1340// 1341// 45//
f 45// 1341// 44//
f 44// 1341// 1342//
f 1343// 36// 34//
f 1343// 34// 1344//
f 1344// 34// 33//
f 1344// 33// 1342//
f 1342// 33// 48//
f 1342// 48// 44//
f 1345// 90// 89//
f 1345// 89// 1346//
f 1346// 89// 87//
f 1346// 87// 1347//
f 1347// 87// 85//
f 1347// 85// 1348//
f 1348// 85// 84//
f 1348// 84// 1349//
f 1349// 84// 59//
f 1349// 59// 1350//
f 1350// 59// 58//
f 1350// 58// 1351//
f 1351// 58// 1343//
f 1343// 58// 37//
f 1343// 37// 36//
f 1352// 94// 93//
f 1352// 93// 1353//
f 1353// 93// 92//
f 1353// 92// 1354//
f 1354// 92// 80//
f 1354// 80// 1355//
f 1355// 80// 76//
f 1355// 76// 1356//
f 1356// 76// 75//
f 1356// 75// 1357//
f 1357// 75// 91//
f 1357// 91// 1358//
f 1358// 91// 90//
f 1358// 90// 1345//
f 1359// 96// 95//
f 1359// 95// 1360//
f 1360// 95// 94//
f 1360// 94// 1352//
f 1359// 1361// 96//
f 96// 1361// 97//
f 1362// 99// 98//
f 1362// 98// 1363//
f 1363// 98// 97//
f 1363// 97// 1361//
f 1364// 66// 79//
f 1364// 79// 1365//
f 1365// 79// 78//
f 1365// 78// 1366//
f 1366// 78// 65//
f 1366// 65// 1367//
f 1367// 65// 64//
f 1367// 64// 1368//
f 1368// 64// 62//
f 1368// 62// 1369//
f 1369// 62// 61//
f 1369// 61// 1370//
f 1370// 61// 99//
f 1370// 99// 1362//
f 1371// 70// 69//
f 1371// 69// 1372//
f 1372// 69// 71//
f 1372// 71// 1373//
f 1373// 71// 72//
f 1373// 72// 1374//
f 1374// 72// 73//
f 1374// 73// 1375//
f 1375// 73// 68//
f 1375// 68// 1376//
f 1376// 68// 67//
f 1376// 67// 1377//
f 1377// 67// 66//
f 1377// 66// 1364//
f 1340// 45// 63//
f 1340// 63// 1378//
f 1378// 63// 74//
f 1378// 74// 1379//
f 1379// 74// 70//
f 1379// 70// 1371//
f 1372// 1343// 1371//
f 1371// 1343// 1344//
f 1371// 1344// 1379//
f 1379// 1344// 1342//
f 1379// 1342// 1378//
f 1378// 1342// 1341//
f 1378// 1341// 1340//
f 1361// 1359// 1363//
f 1363// 1359// 1360//
f 1363// 1360// 1362//
f 1362// 1360// 1352//
f 1362// 1352// 1370//
f 1370// 1352// 1353//
f 1370// 1353// 1369//
f 1369// 1353// 1354//
f 1369// 1354// 1368//
f 1368// 1354// 1355//
f 1368// 1355// 1367//
f 1367// 1355// 1356//
f 1367// 1356// 1366//
f 1366// 1356// 1357//
f 1366// 1357// 1365//
f 1365// 1357// 1358//
f 1365// 1358// 1364//
f 1364// 1358// 1345//
f 1364// 1345// 1377//
f 1377// 1345// 1346//
f 1377// 1346// 1376//
f 1376// 1346// 1347//
f 1376// 1347// 1375//
f 1375// 1347// 1348//
f 1375// 1348// 1374//
f 1374// 1348// 1349//
f 1374// 1349// 1373//
f 1373// 1349// 1350//
f 1373// 1350// 1372//
f 1372// 1350// 1351//
f 1372// 1351// 1343//
f 1380// 1381// 86//
f 86// 1381// 57//
f 1381// 1382// 57//
f 57// 1382// 56//
f 1382// 1383// 56//
f 56// 1383// 81//
f 1383// 1384// 81//
f 81// 1384// 77//
f 1384// 1385// 77//
f 77// 1385// 88//
f 1385// 1380// 88//
f 88// 1380// 86//
f 1384// 1383// 1385//
f 1385// 1383// 1382//
f 1385// 1382// 1380//
f 1380// 1382// 1381//
usemtl 1
f 1268// 1269// 1270//
f 1270// 1269// 1275//
f 1270// 1275// 1271//
f 1271// 1275// 1274//
f 1271// 1274// 1272//
f 1272// 1274// 1273//
f 1312// 1327// 1311//
f 1311// 1327// 1326//
f 1311// 1326// 1325//
f 1319// 1318// 1311//
f 1311// 1318// 1317//
f 1311// 1317// 1313//
f 1325// 1324// 1311//
f 1311// 1324// 1323//
f 1311// 1323// 1322//
f 1322// 1321// 1311//
f 1311// 1321// 1320//
f 1311// 1320// 1319//
f 1316// 1315// 1317//
f 1317// 1315// 1314//
f 1317// 1314// 1313//
