%TF.GenerationSoftware,tscircuit,circuit-json-to-gerber,0.0.111*%
%TF.CreationDate,2026-10-06T21:16:55.892Z*%
%TF.SameCoordinates,Original*%
%TF.FileFunction,Legend,Bot*%
%TF.FilePolarity,Positive*%
%FSLAX46Y46*%
%MOMM*%
G04 Gerber Fmt 4.6, Leading zero omitted, Abs format (unit mm)*
G04 Created by tscircuit (builder) date 2026-10-06T21:16:55.892Z*
G01*
%LPD*%
G75*
G04 APERTURE MACROS START*
%AMHORZPILL*
0 Horizontal pill (stadium) shape macro*
0 Parameters:*
0 $1 = Total width*
0 $2 = Total height*
0 $3 = Circle diameter (equal to height)*
0 $4 = Circle center offset
0 21 = Center Line(Exposure, Width, Height, Center X, Center Y, Rotation)*
0 1 = Circle(Exposure, Diameter, Center X, Center Y, Rotation)*
21,1,$1-$3,$2,0.0,0.0,0.0*
1,1,$3,0.0-$4,0.0*
1,1,$3,$4,0.0*%
%AMVERTPILL*
0 Vertical pill (stadium) shape macro*
0 Parameters:*
0 $1 = Total width*
0 $2 = Total height*
0 $3 = Circle diameter (equal to width)*
0 $4 = Circle center offset
0 21 = Center Line(Exposure, Width, Height, Center X, Center Y, Rotation)*
21,1,$1,$2-$3,0.0,0.0,0.0*
1,1,$3,0.0,0.0-$4*
1,1,$3,0.0,$4*%
%AMROUNDRECT*
0 Rectangle with rounded corners*
0 $1 Corner radius*
0 $2 $3 $4 $5 $6 $7 $8 $9 X,Y Position of each corner*
0 Polygon box body*
4,1,4,$2,$3,$4,$5,$6,$7,$8,$9,$2,$3,0*
0 Circles for rounded corners*
1,1,$1+$1,$2,$3*
1,1,$1+$1,$4,$5*
1,1,$1+$1,$6,$7*
1,1,$1+$1,$8,$9*
0 Rectangles between the rounded corners*
20,1,$1+$1,$2,$3,$4,$5,0*
20,1,$1+$1,$4,$5,$6,$7,0*
20,1,$1+$1,$6,$7,$8,$9,0*
20,1,$1+$1,$8,$9,$2,$3,0*%
G04 APERTURE MACROS END*
G04 aperture START LIST*
%ADD10C,0.150000*%
%ADD11C,0.180000*%
%ADD12C,0.280000*%
%ADD13C,0.400000*%
%ADD14C,0.270000*%
%ADD15C,0.153700*%
%ADD16C,0.198000*%
%ADD17C,0.450000*%
%ADD18C,0.380000*%
%ADD19C,0.200000*%
%ADD20C,0.399999*%
%ADD21C,0.254000*%
%ADD22C,0.100000*%
%ADD23C,0.588010*%
%ADD24R,0.499999X0.540004*%
%ADD25R,0.349999X0.378003*%
%ADD26R,0.565658X0.540004*%
%ADD27R,0.395961X0.378003*%
%ADD28R,1.727987X1.485011*%
%ADD29R,1.209591X1.039508*%
%ADD30R,1.410005X1.350010*%
%ADD31R,0.987003X0.945007*%
%ADD32R,0.799998X0.899998*%
%ADD33R,0.559999X0.629999*%
%ADD34R,1.485011X1.727987*%
%ADD35R,1.039508X1.209591*%
%ADD36R,0.540004X0.499999*%
%ADD37R,0.378003X0.349999*%
%ADD38R,0.280010X0.664997*%
%ADD39R,0.196007X0.465498*%
%ADD40R,0.664997X0.280010*%
%ADD41R,0.465498X0.196007*%
%ADD42R,1.499997X1.499997*%
%ADD43R,1.049998X1.049998*%
%ADD44R,0.399999X0.799998*%
%ADD45R,0.279999X0.559999*%
%ADD46R,2.599995X1.999996*%
%ADD47R,1.819996X1.399997*%
%ADD48R,0.599999X0.899998*%
%ADD49R,0.419999X0.629999*%
%ADD50R,0.210007X0.664997*%
%ADD51R,0.147005X0.465498*%
%ADD52R,0.664997X0.210007*%
%ADD53R,0.465498X0.147005*%
%ADD54R,0.999998X0.650011*%
%ADD55R,0.699999X0.455008*%
%ADD56R,1.699997X0.599999*%
%ADD57R,1.189998X0.419999*%
%ADD58R,1.799996X1.199998*%
%ADD59R,1.259997X0.839998*%
%ADD60R,0.599999X0.299999*%
%ADD61R,0.419999X0.210000*%
%ADD62R,0.200000X0.564998*%
%ADD63R,0.140000X0.395498*%
%ADD64R,0.399999X0.564998*%
%ADD65R,0.279999X0.395498*%
%ADD66R,1.037488X0.532003*%
%ADD67R,0.726242X0.372402*%
%ADD68R,3.650005X2.650007*%
%ADD69R,2.555004X1.855005*%
%ADD70R,0.510007X0.399999*%
%ADD71R,0.357005X0.279999*%
%ADD72R,0.540004X0.565658*%
%ADD73R,0.378003X0.395961*%
%TD*%
G04 aperture END LIST*
D22*
X009026208Y010478591D02*
X003973792Y010478591D01*
D22*
X009026208Y013521409D02*
X003973792Y013521409D01*
D22*
X009026208Y011564619D02*
X009026208Y010478591D01*
D22*
X009026208Y012448894D02*
X009026208Y013521409D01*
D22*
X008567560Y010478591D02*
X009026208Y010478591D01*
D22*
X007297560Y010478591D02*
X008242440Y010478591D01*
D22*
X006027560Y010478591D02*
X006972440Y010478591D01*
D22*
X004757560Y010478591D02*
X005702440Y010478591D01*
D22*
X003973792Y010478591D02*
X004432440Y010478591D01*
D22*
X003973792Y013521409D02*
X003973792Y010478591D01*
D22*
X008567560Y013521409D02*
X009026208Y013521409D01*
D22*
X007297560Y013521409D02*
X008242440Y013521409D01*
D22*
X006027560Y013521409D02*
X006972440Y013521409D01*
D22*
X004757560Y013521409D02*
X005702440Y013521409D01*
D22*
X003973792Y013521409D02*
X004432440Y013521409D01*
D22*
X009026208Y011564619D02*
X009026208Y012448894D01*
D22*
X008555114Y010984000D02*
X008553830Y011003594D01*
X008549999Y011022852D01*
X008543687Y011041446D01*
X008535003Y011059057D01*
X008524093Y011075384D01*
X008511147Y011090147D01*
X008496384Y011103093D01*
X008480057Y011114003D01*
X008462446Y011122687D01*
X008443852Y011128999D01*
X008424594Y011132830D01*
X008405000Y011134114D01*
X008385406Y011132830D01*
X008366148Y011128999D01*
X008347554Y011122687D01*
X008329943Y011114003D01*
X008313616Y011103093D01*
X008298853Y011090147D01*
X008285907Y011075384D01*
X008274997Y011059057D01*
X008266313Y011041446D01*
X008260001Y011022852D01*
X008256170Y011003594D01*
X008254886Y010984000D01*
X008256170Y010964406D01*
X008260001Y010945148D01*
X008266313Y010926554D01*
X008274997Y010908943D01*
X008285907Y010892616D01*
X008298853Y010877853D01*
X008313616Y010864907D01*
X008329943Y010853997D01*
X008347554Y010845313D01*
X008366148Y010839001D01*
X008385406Y010835170D01*
X008405000Y010833886D01*
X008424594Y010835170D01*
X008443852Y010839001D01*
X008462446Y010845313D01*
X008480057Y010853997D01*
X008496384Y010864907D01*
X008511147Y010877853D01*
X008524093Y010892616D01*
X008535003Y010908943D01*
X008543687Y010926554D01*
X008549999Y010945148D01*
X008553830Y010964406D01*
X008555114Y010984000D01*
D22*
X006521385Y008097535D02*
X006021386Y008097535D01*
D22*
X006673811Y007252757D02*
X006673811Y007945161D01*
D22*
X006021386Y007100357D02*
X006521385Y007100357D01*
D22*
X005078615Y007102490D02*
X005578614Y007102490D01*
D22*
X005578614Y008099618D02*
X005078615Y008099618D01*
D22*
X004926189Y007947269D02*
X004926189Y007254839D01*
D22*
X005078615Y008099643D02*
X004970852Y008055006D01*
X004926215Y007947243D01*
D22*
X004926215Y007254839D02*
X004970852Y007147076D01*
X005078615Y007102439D01*
D22*
X006521385Y007100357D02*
X006629148Y007144994D01*
X006673785Y007252757D01*
D22*
X006673785Y007945161D02*
X006629148Y008052924D01*
X006521385Y008097561D01*
D22*
X010976212Y012251398D02*
X011694245Y012251398D01*
X011694245Y013248602D01*
X010976212Y013248602D01*
D22*
X010523788Y012251398D02*
X009805755Y012251398D01*
X009805755Y013248602D01*
X010523788Y013248602D01*
D22*
X007226212Y016001398D02*
X007944245Y016001398D01*
X007944245Y016998602D01*
X007226212Y016998602D01*
D22*
X006773788Y016001398D02*
X006055755Y016001398D01*
X006055755Y016998602D01*
X006773788Y016998602D01*
D22*
X-15092606Y-06661197D02*
X-15092606Y-05176211D01*
D22*
X-12907394Y-05176211D02*
X-12907394Y-06661197D01*
D22*
X-13059794Y-06813597D02*
X-14940206Y-06813597D01*
D22*
X-15092606Y-01838803D02*
X-15092606Y-03323789D01*
D22*
X-12907394Y-03323789D02*
X-12907394Y-01838803D01*
D22*
X-13059794Y-01686403D02*
X-14940206Y-01686403D01*
D22*
X-12907394Y-06661197D02*
X-12952031Y-06768960D01*
X-13059794Y-06813597D01*
D22*
X-14940206Y-06813597D02*
X-15047969Y-06768960D01*
X-15092606Y-06661197D01*
D22*
X-12907394Y-01838803D02*
X-12952031Y-01731040D01*
X-13059794Y-01686403D01*
D22*
X-14940206Y-01686403D02*
X-15047969Y-01731040D01*
X-15092606Y-01838803D01*
D22*
X-07688802Y-16653605D02*
X-09098807Y-16653605D01*
D22*
X-09098807Y-14846395D02*
X-07688802Y-14846395D01*
D22*
X-07536402Y-14998795D02*
X-07536402Y-16501205D01*
D22*
X-11311198Y-16653605D02*
X-09901193Y-16653605D01*
D22*
X-09901193Y-14846395D02*
X-11311198Y-14846395D01*
D22*
X-11463598Y-14998795D02*
X-11463598Y-16501205D01*
D22*
X-07688802Y-14846395D02*
X-07581039Y-14891032D01*
X-07536402Y-14998795D01*
D22*
X-07536402Y-16501205D02*
X-07581039Y-16608968D01*
X-07688802Y-16653605D01*
D22*
X-11311198Y-14846395D02*
X-11418961Y-14891032D01*
X-11463598Y-14998795D01*
D22*
X-11463598Y-16501205D02*
X-11418961Y-16608968D01*
X-11311198Y-16653605D01*
D22*
X-14280187Y-00040426D02*
X-15080160Y-00040426D01*
D22*
X-13719736Y-00039968D02*
X-12919763Y-00039968D01*
D22*
X-14280187Y-01460108D02*
X-15080160Y-01460108D01*
D22*
X-13719736Y-01459625D02*
X-12919763Y-01459625D01*
D22*
X-15389913Y-00350255D02*
X-15389913Y-01150304D01*
D22*
X-12609985Y-01149771D02*
X-12609985Y-00349747D01*
D22*
X-12919814Y-01459625D02*
X-12700723Y-01368869D01*
X-12609985Y-01149771D01*
D22*
X-12609985Y-00349798D02*
X-12700732Y-00130715D01*
X-12919814Y-00039968D01*
D22*
X-15080110Y-00040426D02*
X-15299176Y-00131181D01*
X-15389913Y-00350255D01*
D22*
X-15389913Y-01150228D02*
X-15299193Y-01369334D01*
X-15080110Y-01460108D01*
D22*
X-11588803Y002407394D02*
X-13073789Y002407394D01*
D22*
X-13073789Y004592606D02*
X-11588803Y004592606D01*
D22*
X-11436403Y004440206D02*
X-11436403Y002559794D01*
D22*
X-16411197Y002407394D02*
X-14926211Y002407394D01*
D22*
X-14926211Y004592606D02*
X-16411197Y004592606D01*
D22*
X-16563597Y004440206D02*
X-16563597Y002559794D01*
D22*
X-11588803Y004592606D02*
X-11481040Y004547969D01*
X-11436403Y004440206D01*
D22*
X-11436403Y002559794D02*
X-11481040Y002452031D01*
X-11588803Y002407394D01*
D22*
X-16411197Y004592606D02*
X-16518960Y004547969D01*
X-16563597Y004440206D01*
D22*
X-16563597Y002559794D02*
X-16518960Y002452031D01*
X-16411197Y002407394D01*
D22*
X-09497535Y003971385D02*
X-09497535Y003471386D01*
D22*
X-08652757Y004123811D02*
X-09345161Y004123811D01*
D22*
X-08500357Y003471386D02*
X-08500357Y003971385D01*
D22*
X-08502490Y002528615D02*
X-08502490Y003028614D01*
D22*
X-09499618Y003028614D02*
X-09499618Y002528615D01*
D22*
X-09347269Y002376189D02*
X-08654839Y002376189D01*
D22*
X-09499643Y002528615D02*
X-09455006Y002420852D01*
X-09347243Y002376215D01*
D22*
X-08654839Y002376215D02*
X-08547076Y002420852D01*
X-08502439Y002528615D01*
D22*
X-08500357Y003971385D02*
X-08544994Y004079148D01*
X-08652757Y004123785D01*
D22*
X-09345161Y004123785D02*
X-09452924Y004079148D01*
X-09497561Y003971385D01*
D22*
X-09923803Y011830504D02*
X-09923803Y012576197D01*
X-10669496Y012576197D01*
D22*
X-13076197Y011830504D02*
X-13076197Y012576197D01*
X-12330504Y012576197D01*
D22*
X-09923803Y010169496D02*
X-09923803Y009423803D01*
X-10669496Y009423803D01*
D22*
X-13076197Y010169496D02*
X-13076197Y009423803D01*
X-12330504Y009423803D01*
D22*
X-10925198Y008959872D02*
X-10925839Y008969652D01*
X-10927751Y008979265D01*
X-10930902Y008988546D01*
X-10935237Y008997337D01*
X-10940682Y009005486D01*
X-10947144Y009012856D01*
X-10954514Y009019318D01*
X-10962663Y009024763D01*
X-10971454Y009029098D01*
X-10980735Y009032249D01*
X-10990348Y009034161D01*
X-11000128Y009034802D01*
X-11009908Y009034161D01*
X-11019521Y009032249D01*
X-11028802Y009029098D01*
X-11037593Y009024763D01*
X-11045742Y009019318D01*
X-11053112Y009012856D01*
X-11059574Y009005486D01*
X-11065019Y008997337D01*
X-11069354Y008988546D01*
X-11072505Y008979265D01*
X-11074417Y008969652D01*
X-11075058Y008959872D01*
X-11074417Y008950092D01*
X-11072505Y008940479D01*
X-11069354Y008931198D01*
X-11065019Y008922407D01*
X-11059574Y008914258D01*
X-11053112Y008906888D01*
X-11045742Y008900426D01*
X-11037593Y008894981D01*
X-11028802Y008890646D01*
X-11019521Y008887495D01*
X-11009908Y008885583D01*
X-11000128Y008884942D01*
X-10990348Y008885583D01*
X-10980735Y008887495D01*
X-10971454Y008890646D01*
X-10962663Y008894981D01*
X-10954514Y008900426D01*
X-10947144Y008906888D01*
X-10940682Y008914258D01*
X-10935237Y008922407D01*
X-10930902Y008931198D01*
X-10927751Y008940479D01*
X-10925839Y008950092D01*
X-10925198Y008959872D01*
D22*
X-11564386Y-01080092D02*
X-11564386Y-02275873D01*
D22*
X-11366952Y-04179908D02*
X-11564386Y-04180162D01*
D22*
X-08413008Y-01080092D02*
X-08570361Y-01080092D01*
D22*
X-11429639Y-01080092D02*
X-11564386Y-01080092D01*
D22*
X-08413008Y-04179908D02*
X-08608918Y-04179908D01*
D22*
X-11564386Y-02984127D02*
X-11564386Y-04180162D01*
D22*
X-08413008Y-04179908D02*
X-08413008Y-02984127D01*
D22*
X-08413008Y-02275873D02*
X-08413008Y-01080092D01*
D22*
X-08924564Y-04940130D02*
X-08925420Y-04927067D01*
X-08927974Y-04914228D01*
X-08932182Y-04901833D01*
X-08937972Y-04890092D01*
X-08945244Y-04879208D01*
X-08953876Y-04869366D01*
X-08963718Y-04860734D01*
X-08974602Y-04853462D01*
X-08986343Y-04847672D01*
X-08998738Y-04843464D01*
X-09011577Y-04840910D01*
X-09024640Y-04840054D01*
X-09037703Y-04840910D01*
X-09050542Y-04843464D01*
X-09062937Y-04847672D01*
X-09074678Y-04853462D01*
X-09085562Y-04860734D01*
X-09095404Y-04869366D01*
X-09104036Y-04879208D01*
X-09111308Y-04890092D01*
X-09117098Y-04901833D01*
X-09121306Y-04914228D01*
X-09123860Y-04927067D01*
X-09124716Y-04940130D01*
X-09123860Y-04953193D01*
X-09121306Y-04966032D01*
X-09117098Y-04978427D01*
X-09111308Y-04990168D01*
X-09104036Y-05001052D01*
X-09095404Y-05010894D01*
X-09085562Y-05019526D01*
X-09074678Y-05026798D01*
X-09062937Y-05032588D01*
X-09050542Y-05036796D01*
X-09037703Y-05039350D01*
X-09024640Y-05040206D01*
X-09011577Y-05039350D01*
X-08998738Y-05036796D01*
X-08986343Y-05032588D01*
X-08974602Y-05026798D01*
X-08963718Y-05019526D01*
X-08953876Y-05010894D01*
X-08945244Y-05001052D01*
X-08937972Y-04990168D01*
X-08932182Y-04978427D01*
X-08927974Y-04966032D01*
X-08925420Y-04953193D01*
X-08924564Y-04940130D01*
D22*
X-07650010Y-12800078D02*
X-07650010Y-14200075D01*
D22*
X-05100003Y-12800078D02*
X-07650010Y-12800078D01*
D22*
X-05100003Y-14200075D02*
X-07650010Y-14200075D01*
D22*
X-05349990Y-12800078D02*
X-05349990Y-14200075D01*
D22*
X-05100003Y-12800078D02*
X-05100003Y-14200075D01*
D22*
X-09719813Y-14209574D02*
X-08919840Y-14209574D01*
D22*
X-10280264Y-14210032D02*
X-11080237Y-14210032D01*
D22*
X-09719813Y-12789892D02*
X-08919840Y-12789892D01*
D22*
X-10280264Y-12790375D02*
X-11080237Y-12790375D01*
D22*
X-08610087Y-13899745D02*
X-08610087Y-13099696D01*
D22*
X-11390015Y-13100229D02*
X-11390015Y-13900253D01*
D22*
X-11080186Y-12790375D02*
X-11299277Y-12881131D01*
X-11390015Y-13100229D01*
D22*
X-11390015Y-13900202D02*
X-11299268Y-14119285D01*
X-11080186Y-14210032D01*
D22*
X-08919890Y-14209574D02*
X-08700824Y-14118819D01*
X-08610087Y-13899745D01*
D22*
X-08610087Y-13099772D02*
X-08700807Y-12880666D01*
X-08919890Y-12789892D01*
D22*
X-10219813Y013840426D02*
X-09419840Y013840426D01*
D22*
X-10780264Y013839968D02*
X-11580237Y013839968D01*
D22*
X-10219813Y015260108D02*
X-09419840Y015260108D01*
D22*
X-10780264Y015259625D02*
X-11580237Y015259625D01*
D22*
X-09110087Y014150255D02*
X-09110087Y014950304D01*
D22*
X-11890015Y014949771D02*
X-11890015Y014149747D01*
D22*
X-11580186Y015259625D02*
X-11799277Y015168869D01*
X-11890015Y014949771D01*
D22*
X-11890015Y014149798D02*
X-11799268Y013930715D01*
X-11580186Y013839968D01*
D22*
X-09419890Y013840426D02*
X-09200824Y013931181D01*
X-09110087Y014150255D01*
D22*
X-09110087Y014950228D02*
X-09200807Y015169334D01*
X-09419890Y015260108D01*
D22*
X-09121385Y010402465D02*
X-08621386Y010402465D01*
D22*
X-09273811Y011247243D02*
X-09273811Y010554839D01*
D22*
X-08621386Y011399643D02*
X-09121385Y011399643D01*
D22*
X-07678615Y011397510D02*
X-08178614Y011397510D01*
D22*
X-08178614Y010400382D02*
X-07678615Y010400382D01*
D22*
X-07526189Y010552731D02*
X-07526189Y011245161D01*
D22*
X-07678615Y010400357D02*
X-07570852Y010444994D01*
X-07526215Y010552757D01*
D22*
X-07526215Y011245161D02*
X-07570852Y011352924D01*
X-07678615Y011397561D01*
D22*
X-09121385Y011399643D02*
X-09229148Y011355006D01*
X-09273785Y011247243D01*
D22*
X-09273785Y010554839D02*
X-09229148Y010447076D01*
X-09121385Y010402439D01*
D22*
X-01971385Y-11747535D02*
X-01471386Y-11747535D01*
D22*
X-02123811Y-10902757D02*
X-02123811Y-11595161D01*
D22*
X-01471386Y-10750357D02*
X-01971385Y-10750357D01*
D22*
X-00528615Y-10752490D02*
X-01028614Y-10752490D01*
D22*
X-01028614Y-11749618D02*
X-00528615Y-11749618D01*
D22*
X-00376189Y-11597269D02*
X-00376189Y-10904839D01*
D22*
X-00528615Y-11749643D02*
X-00420852Y-11705006D01*
X-00376215Y-11597243D01*
D22*
X-00376215Y-10904839D02*
X-00420852Y-10797076D01*
X-00528615Y-10752439D01*
D22*
X-01971385Y-10750357D02*
X-02079148Y-10794994D01*
X-02123785Y-10902757D01*
D22*
X-02123785Y-11595161D02*
X-02079148Y-11702924D01*
X-01971385Y-11747561D01*
D22*
X001971385Y-10752465D02*
X001471386Y-10752465D01*
D22*
X002123811Y-11597243D02*
X002123811Y-10904839D01*
D22*
X001471386Y-11749643D02*
X001971385Y-11749643D01*
D22*
X000528615Y-11747510D02*
X001028614Y-11747510D01*
D22*
X001028614Y-10750382D02*
X000528615Y-10750382D01*
D22*
X000376189Y-10902731D02*
X000376189Y-11595161D01*
D22*
X000528615Y-10750357D02*
X000420852Y-10794994D01*
X000376215Y-10902757D01*
D22*
X000376215Y-11595161D02*
X000420852Y-11702924D01*
X000528615Y-11747561D01*
D22*
X001971385Y-11749643D02*
X002079148Y-11705006D01*
X002123785Y-11597243D01*
D22*
X002123785Y-10904839D02*
X002079148Y-10797076D01*
X001971385Y-10752439D01*
D22*
X-15273788Y-08248602D02*
X-14555755Y-08248602D01*
X-14555755Y-07251398D01*
X-15273788Y-07251398D01*
D22*
X-15726212Y-08248602D02*
X-16444245Y-08248602D01*
X-16444245Y-07251398D01*
X-15726212Y-07251398D01*
D22*
X-04226212Y000498602D02*
X-04944245Y000498602D01*
X-04944245Y-00498602D01*
X-04226212Y-00498602D01*
D22*
X-03773788Y000498602D02*
X-03055755Y000498602D01*
X-03055755Y-00498602D01*
X-03773788Y-00498602D01*
D22*
X001773788Y-04751398D02*
X001055755Y-04751398D01*
X001055755Y-05748602D01*
X001773788Y-05748602D01*
D22*
X002226212Y-04751398D02*
X002944245Y-04751398D01*
X002944245Y-05748602D01*
X002226212Y-05748602D01*
D22*
X004476212Y-08248602D02*
X005194245Y-08248602D01*
X005194245Y-07251398D01*
X004476212Y-07251398D01*
D22*
X004023788Y-08248602D02*
X003305755Y-08248602D01*
X003305755Y-07251398D01*
X004023788Y-07251398D01*
D22*
X001773788Y-12001398D02*
X001055755Y-12001398D01*
X001055755Y-12998602D01*
X001773788Y-12998602D01*
D22*
X002226212Y-12001398D02*
X002944245Y-12001398D01*
X002944245Y-12998602D01*
X002226212Y-12998602D01*
D22*
X004273788Y-11501398D02*
X003555755Y-11501398D01*
X003555755Y-12498602D01*
X004273788Y-12498602D01*
D22*
X004726212Y-11501398D02*
X005444245Y-11501398D01*
X005444245Y-12498602D01*
X004726212Y-12498602D01*
D22*
X002773788Y-13251398D02*
X002055755Y-13251398D01*
X002055755Y-14248602D01*
X002773788Y-14248602D01*
D22*
X003226212Y-13251398D02*
X003944245Y-13251398D01*
X003944245Y-14248602D01*
X003226212Y-14248602D01*
D22*
X004971385Y-06002465D02*
X004471386Y-06002465D01*
D22*
X005123811Y-06847243D02*
X005123811Y-06154839D01*
D22*
X004471386Y-06999643D02*
X004971385Y-06999643D01*
D22*
X003528615Y-06997510D02*
X004028614Y-06997510D01*
D22*
X004028614Y-06000382D02*
X003528615Y-06000382D01*
D22*
X003376189Y-06152731D02*
X003376189Y-06845161D01*
D22*
X003528615Y-06000357D02*
X003420852Y-06044994D01*
X003376215Y-06152757D01*
D22*
X003376215Y-06845161D02*
X003420852Y-06952924D01*
X003528615Y-06997561D01*
D22*
X004971385Y-06999643D02*
X005079148Y-06955006D01*
X005123785Y-06847243D01*
D22*
X005123785Y-06154839D02*
X005079148Y-06047076D01*
X004971385Y-06002439D01*
D22*
X008104342Y-10899998D02*
X008499997Y-10899998D01*
D22*
X005900003Y-10899998D02*
X006296166Y-10899998D01*
D22*
X008104342Y-09100002D02*
X008499997Y-09100002D01*
D22*
X005900003Y-09100002D02*
X006296166Y-09100002D01*
D22*
X007885038Y-11310132D02*
X007884397Y-11300352D01*
X007882485Y-11290739D01*
X007879334Y-11281458D01*
X007874999Y-11272667D01*
X007869554Y-11264518D01*
X007863092Y-11257148D01*
X007855722Y-11250686D01*
X007847573Y-11245241D01*
X007838782Y-11240906D01*
X007829501Y-11237755D01*
X007819888Y-11235843D01*
X007810108Y-11235202D01*
X007800328Y-11235843D01*
X007790715Y-11237755D01*
X007781434Y-11240906D01*
X007772643Y-11245241D01*
X007764494Y-11250686D01*
X007757124Y-11257148D01*
X007750662Y-11264518D01*
X007745217Y-11272667D01*
X007740882Y-11281458D01*
X007737731Y-11290739D01*
X007735819Y-11300352D01*
X007735178Y-11310132D01*
X007735819Y-11319912D01*
X007737731Y-11329525D01*
X007740882Y-11338806D01*
X007745217Y-11347597D01*
X007750662Y-11355746D01*
X007757124Y-11363116D01*
X007764494Y-11369578D01*
X007772643Y-11375023D01*
X007781434Y-11379358D01*
X007790715Y-11382509D01*
X007800328Y-11384421D01*
X007810108Y-11385062D01*
X007819888Y-11384421D01*
X007829501Y-11382509D01*
X007838782Y-11379358D01*
X007847573Y-11375023D01*
X007855722Y-11369578D01*
X007863092Y-11363116D01*
X007869554Y-11355746D01*
X007874999Y-11347597D01*
X007879334Y-11338806D01*
X007882485Y-11329525D01*
X007884397Y-11319912D01*
X007885038Y-11310132D01*
D22*
X006473789Y-04973790D02*
X007926211Y-04973790D01*
X007926211Y-06005411D01*
D22*
X006473789Y-08026210D02*
X007926211Y-08026210D01*
X007926211Y-06994589D01*
D22*
X006473789Y-06044603D02*
X006473789Y-06955397D01*
D22*
X009476212Y-03248602D02*
X010194245Y-03248602D01*
X010194245Y-02251398D01*
X009476212Y-02251398D01*
D22*
X009023788Y-03248602D02*
X008305755Y-03248602D01*
X008305755Y-02251398D01*
X009023788Y-02251398D01*
D22*
X009478615Y-11097535D02*
X009978614Y-11097535D01*
D22*
X009326189Y-10252757D02*
X009326189Y-10945161D01*
D22*
X009978614Y-10100357D02*
X009478615Y-10100357D01*
D22*
X010921385Y-10102490D02*
X010421386Y-10102490D01*
D22*
X010421386Y-11099618D02*
X010921385Y-11099618D01*
D22*
X011073811Y-10947269D02*
X011073811Y-10254839D01*
D22*
X010921385Y-11099643D02*
X011029148Y-11055006D01*
X011073785Y-10947243D01*
D22*
X011073785Y-10254839D02*
X011029148Y-10147076D01*
X010921385Y-10102439D01*
D22*
X009478615Y-10100357D02*
X009370852Y-10144994D01*
X009326215Y-10252757D01*
D22*
X009326215Y-10945161D02*
X009370852Y-11052924D01*
X009478615Y-11097561D01*
D22*
X004971385Y-04502465D02*
X004471386Y-04502465D01*
D22*
X005123811Y-05347243D02*
X005123811Y-04654839D01*
D22*
X004471386Y-05499643D02*
X004971385Y-05499643D01*
D22*
X003528615Y-05497510D02*
X004028614Y-05497510D01*
D22*
X004028614Y-04500382D02*
X003528615Y-04500382D01*
D22*
X003376189Y-04652731D02*
X003376189Y-05345161D01*
D22*
X003528615Y-04500357D02*
X003420852Y-04544994D01*
X003376215Y-04652757D01*
D22*
X003376215Y-05345161D02*
X003420852Y-05452924D01*
X003528615Y-05497561D01*
D22*
X004971385Y-05499643D02*
X005079148Y-05455006D01*
X005123785Y-05347243D01*
D22*
X005123785Y-04654839D02*
X005079148Y-04547076D01*
X004971385Y-04502439D01*
D22*
X012476212Y-10498602D02*
X013194245Y-10498602D01*
X013194245Y-09501398D01*
X012476212Y-09501398D01*
D22*
X012023788Y-10498602D02*
X011305755Y-10498602D01*
X011305755Y-09501398D01*
X012023788Y-09501398D01*
D22*
X012226212Y-12498602D02*
X012944245Y-12498602D01*
X012944245Y-11501398D01*
X012226212Y-11501398D01*
D22*
X011773788Y-12498602D02*
X011055755Y-12498602D01*
X011055755Y-11501398D01*
X011773788Y-11501398D01*
D22*
X011976212Y-14248602D02*
X012694245Y-14248602D01*
X012694245Y-13251398D01*
X011976212Y-13251398D01*
D22*
X011523788Y-14248602D02*
X010805755Y-14248602D01*
X010805755Y-13251398D01*
X011523788Y-13251398D01*
D22*
X005226212Y-04248602D02*
X005944245Y-04248602D01*
X005944245Y-03251398D01*
X005226212Y-03251398D01*
D22*
X004773788Y-04248602D02*
X004055755Y-04248602D01*
X004055755Y-03251398D01*
X004773788Y-03251398D01*
D22*
X008726212Y-04498602D02*
X009444245Y-04498602D01*
X009444245Y-03501398D01*
X008726212Y-03501398D01*
D22*
X008273788Y-04498602D02*
X007555755Y-04498602D01*
X007555755Y-03501398D01*
X008273788Y-03501398D01*
D22*
X010976212Y-05248602D02*
X011694245Y-05248602D01*
X011694245Y-04251398D01*
X010976212Y-04251398D01*
D22*
X010523788Y-05248602D02*
X009805755Y-05248602D01*
X009805755Y-04251398D01*
X010523788Y-04251398D01*
D22*
X012345006Y-01031384D02*
X012345006Y-02139993D01*
X014781602Y-02139993D01*
D22*
X014885006Y010199988D02*
X012345006Y010199988D01*
X012345006Y009031130D01*
D22*
X017023000Y-01107915D02*
X017023000Y009107991D01*
D22*
X012787804Y009499735D02*
X012786735Y009516047D01*
X012783546Y009532079D01*
X012778291Y009547558D01*
X012771062Y009562219D01*
X012761980Y009575811D01*
X012751202Y009588101D01*
X012738912Y009598879D01*
X012725320Y009607960D01*
X012710659Y009615190D01*
X012695180Y009620445D01*
X012679148Y009623634D01*
X012662836Y009624703D01*
X012646524Y009623634D01*
X012630492Y009620445D01*
X012615013Y009615190D01*
X012600352Y009607960D01*
X012586760Y009598879D01*
X012574470Y009588101D01*
X012563692Y009575811D01*
X012554611Y009562219D01*
X012547381Y009547558D01*
X012542126Y009532079D01*
X012538937Y009516047D01*
X012537868Y009499735D01*
X012538937Y009483423D01*
X012542126Y009467391D01*
X012547381Y009451912D01*
X012554611Y009437251D01*
X012563692Y009423659D01*
X012574470Y009411369D01*
X012586760Y009400591D01*
X012600352Y009391510D01*
X012615013Y009384280D01*
X012630492Y009379025D01*
X012646524Y009375836D01*
X012662836Y009374767D01*
X012679148Y009375836D01*
X012695180Y009379025D01*
X012710659Y009384280D01*
X012725320Y009391510D01*
X012738912Y009400591D01*
X012751202Y009411369D01*
X012761980Y009423659D01*
X012771062Y009437251D01*
X012778291Y009451912D01*
X012783546Y009467391D01*
X012786735Y009483423D01*
X012787804Y009499735D01*
D22*
X-06524842Y005212524D02*
X-07474802Y005212524D01*
D22*
X-06524842Y006787324D02*
X-07474802Y006787324D01*
D22*
X-07780161Y005069979D02*
X-07780674Y005077803D01*
X-07782204Y005085494D01*
X-07784724Y005092919D01*
X-07788192Y005099951D01*
X-07792548Y005106471D01*
X-07797718Y005112366D01*
X-07803613Y005117536D01*
X-07810133Y005121892D01*
X-07817165Y005125360D01*
X-07824590Y005127880D01*
X-07832281Y005129410D01*
X-07840105Y005129923D01*
X-07847929Y005129410D01*
X-07855620Y005127880D01*
X-07863045Y005125360D01*
X-07870077Y005121892D01*
X-07876597Y005117536D01*
X-07882492Y005112366D01*
X-07887662Y005106471D01*
X-07892018Y005099951D01*
X-07895486Y005092919D01*
X-07898006Y005085494D01*
X-07899536Y005077803D01*
X-07900049Y005069979D01*
X-07899536Y005062155D01*
X-07898006Y005054464D01*
X-07895486Y005047039D01*
X-07892018Y005040007D01*
X-07887662Y005033487D01*
X-07882492Y005027592D01*
X-07876597Y005022422D01*
X-07870077Y005018066D01*
X-07863045Y005014598D01*
X-07855620Y005012078D01*
X-07847929Y005010548D01*
X-07840105Y005010035D01*
X-07832281Y005010548D01*
X-07824590Y005012078D01*
X-07817165Y005014598D01*
X-07810133Y005018066D01*
X-07803613Y005022422D01*
X-07797718Y005027592D01*
X-07792548Y005033487D01*
X-07788192Y005040007D01*
X-07784724Y005047039D01*
X-07782204Y005054464D01*
X-07780674Y005062155D01*
X-07780161Y005069979D01*
D22*
X010326185Y001923776D02*
X010326185Y003076224D01*
D22*
X007673815Y003076224D02*
X007673815Y001923776D01*
D22*
X010100074Y001480952D02*
X010099218Y001494015D01*
X010096664Y001506854D01*
X010092456Y001519249D01*
X010086666Y001530990D01*
X010079394Y001541874D01*
X010070762Y001551716D01*
X010060920Y001560348D01*
X010050036Y001567620D01*
X010038295Y001573410D01*
X010025900Y001577618D01*
X010013061Y001580172D01*
X009999998Y001581028D01*
X009986935Y001580172D01*
X009974096Y001577618D01*
X009961701Y001573410D01*
X009949960Y001567620D01*
X009939076Y001560348D01*
X009929234Y001551716D01*
X009920602Y001541874D01*
X009913330Y001530990D01*
X009907540Y001519249D01*
X009903332Y001506854D01*
X009900778Y001494015D01*
X009899922Y001480952D01*
X009900778Y001467889D01*
X009903332Y001455050D01*
X009907540Y001442655D01*
X009913330Y001430914D01*
X009920602Y001420030D01*
X009929234Y001410188D01*
X009939076Y001401556D01*
X009949960Y001394284D01*
X009961701Y001388494D01*
X009974096Y001384286D01*
X009986935Y001381732D01*
X009999998Y001380876D01*
X010013061Y001381732D01*
X010025900Y001384286D01*
X010038295Y001388494D01*
X010050036Y001394284D01*
X010060920Y001401556D01*
X010070762Y001410188D01*
X010079394Y001420030D01*
X010086666Y001430914D01*
X010092456Y001442655D01*
X010096664Y001455050D01*
X010099218Y001467889D01*
X010100074Y001480952D01*
D22*
X010326185Y-00076224D02*
X010326185Y001076224D01*
D22*
X007673815Y001076224D02*
X007673815Y-00076224D01*
D22*
X010100074Y-00519048D02*
X010099218Y-00505985D01*
X010096664Y-00493146D01*
X010092456Y-00480751D01*
X010086666Y-00469010D01*
X010079394Y-00458126D01*
X010070762Y-00448284D01*
X010060920Y-00439652D01*
X010050036Y-00432380D01*
X010038295Y-00426590D01*
X010025900Y-00422382D01*
X010013061Y-00419828D01*
X009999998Y-00418972D01*
X009986935Y-00419828D01*
X009974096Y-00422382D01*
X009961701Y-00426590D01*
X009949960Y-00432380D01*
X009939076Y-00439652D01*
X009929234Y-00448284D01*
X009920602Y-00458126D01*
X009913330Y-00469010D01*
X009907540Y-00480751D01*
X009903332Y-00493146D01*
X009900778Y-00505985D01*
X009899922Y-00519048D01*
X009900778Y-00532111D01*
X009903332Y-00544950D01*
X009907540Y-00557345D01*
X009913330Y-00569086D01*
X009920602Y-00579970D01*
X009929234Y-00589812D01*
X009939076Y-00598444D01*
X009949960Y-00605716D01*
X009961701Y-00611506D01*
X009974096Y-00615714D01*
X009986935Y-00618268D01*
X009999998Y-00619124D01*
X010013061Y-00618268D01*
X010025900Y-00615714D01*
X010038295Y-00611506D01*
X010050036Y-00605716D01*
X010060920Y-00598444D01*
X010070762Y-00589812D01*
X010079394Y-00579970D01*
X010086666Y-00569086D01*
X010092456Y-00557345D01*
X010096664Y-00544950D01*
X010099218Y-00532111D01*
X010100074Y-00519048D01*
D22*
X007891302Y007026210D02*
X009608698Y007026210D01*
X009608698Y005994589D01*
D22*
X007891302Y003973790D02*
X009608698Y003973790D01*
X009608698Y005005411D01*
D22*
X007891302Y005955397D02*
X007891302Y005044603D01*
D22*
X005976212Y005501398D02*
X006694245Y005501398D01*
X006694245Y006498602D01*
X005976212Y006498602D01*
D22*
X005523788Y005501398D02*
X004805755Y005501398D01*
X004805755Y006498602D01*
X005523788Y006498602D01*
D22*
X005726212Y003501398D02*
X006444245Y003501398D01*
X006444245Y004498602D01*
X005726212Y004498602D01*
D22*
X005273788Y003501398D02*
X004555755Y003501398D01*
X004555755Y004498602D01*
X005273788Y004498602D01*
D22*
X006226212Y001501398D02*
X006944245Y001501398D01*
X006944245Y002498602D01*
X006226212Y002498602D01*
D22*
X005773788Y001501398D02*
X005055755Y001501398D01*
X005055755Y002498602D01*
X005773788Y002498602D01*
D22*
X006476212Y-00498602D02*
X007194245Y-00498602D01*
X007194245Y000498602D01*
X006476212Y000498602D01*
D22*
X006023788Y-00498602D02*
X005305755Y-00498602D01*
X005305755Y000498602D01*
X006023788Y000498602D01*
D22*
X007226212Y-02498602D02*
X007944245Y-02498602D01*
X007944245Y-01501398D01*
X007226212Y-01501398D01*
D22*
X006773788Y-02498602D02*
X006055755Y-02498602D01*
X006055755Y-01501398D01*
X006773788Y-01501398D01*
D22*
X003726212Y005501398D02*
X004444245Y005501398D01*
X004444245Y006498602D01*
X003726212Y006498602D01*
D22*
X003273788Y005501398D02*
X002555755Y005501398D01*
X002555755Y006498602D01*
X003273788Y006498602D01*
D22*
X004226212Y002251398D02*
X004944245Y002251398D01*
X004944245Y003248602D01*
X004226212Y003248602D01*
D22*
X003773788Y002251398D02*
X003055755Y002251398D01*
X003055755Y003248602D01*
X003773788Y003248602D01*
D22*
X003773788Y001998602D02*
X003055755Y001998602D01*
X003055755Y001001398D01*
X003773788Y001001398D01*
D22*
X004226212Y001998602D02*
X004944245Y001998602D01*
X004944245Y001001398D01*
X004226212Y001001398D01*
D22*
X003773788Y000498602D02*
X003055755Y000498602D01*
X003055755Y-00498602D01*
X003773788Y-00498602D01*
D22*
X004226212Y000498602D02*
X004944245Y000498602D01*
X004944245Y-00498602D01*
X004226212Y-00498602D01*
D22*
X004523788Y-01501398D02*
X003805755Y-01501398D01*
X003805755Y-02498602D01*
X004523788Y-02498602D01*
D22*
X004976212Y-01501398D02*
X005694245Y-01501398D01*
X005694245Y-02498602D01*
X004976212Y-02498602D01*
D22*
X-04273788Y005501398D02*
X-03555755Y005501398D01*
X-03555755Y006498602D01*
X-04273788Y006498602D01*
D22*
X-04726212Y005501398D02*
X-05444245Y005501398D01*
X-05444245Y006498602D01*
X-04726212Y006498602D01*
D22*
X003976212Y007001398D02*
X004694245Y007001398D01*
X004694245Y007998602D01*
X003976212Y007998602D01*
D22*
X003523788Y007001398D02*
X002805755Y007001398D01*
X002805755Y007998602D01*
X003523788Y007998602D01*
D22*
X010971385Y011997535D02*
X010471386Y011997535D01*
D22*
X011123811Y011152757D02*
X011123811Y011845161D01*
D22*
X010471386Y011000357D02*
X010971385Y011000357D01*
D22*
X009528615Y011002490D02*
X010028614Y011002490D01*
D22*
X010028614Y011999618D02*
X009528615Y011999618D01*
D22*
X009376189Y011847269D02*
X009376189Y011154839D01*
D22*
X009528615Y011999643D02*
X009420852Y011955006D01*
X009376215Y011847243D01*
D22*
X009376215Y011154839D02*
X009420852Y011047076D01*
X009528615Y011002439D01*
D22*
X010971385Y011000357D02*
X011079148Y011044994D01*
X011123785Y011152757D01*
D22*
X011123785Y011845161D02*
X011079148Y011952924D01*
X010971385Y011997561D01*
D22*
X008528615Y-01747535D02*
X009028614Y-01747535D01*
D22*
X008376189Y-00902757D02*
X008376189Y-01595161D01*
D22*
X009028614Y-00750357D02*
X008528615Y-00750357D01*
D22*
X009971385Y-00752490D02*
X009471386Y-00752490D01*
D22*
X009471386Y-01749618D02*
X009971385Y-01749618D01*
D22*
X010123811Y-01597269D02*
X010123811Y-00904839D01*
D22*
X009971385Y-01749643D02*
X010079148Y-01705006D01*
X010123785Y-01597243D01*
D22*
X010123785Y-00904839D02*
X010079148Y-00797076D01*
X009971385Y-00752439D01*
D22*
X008528615Y-00750357D02*
X008420852Y-00794994D01*
X008376215Y-00902757D01*
D22*
X008376215Y-01595161D02*
X008420852Y-01702924D01*
X008528615Y-01747561D01*
D22*
X-06278615Y008547535D02*
X-06778614Y008547535D01*
D22*
X-06126189Y007702757D02*
X-06126189Y008395161D01*
D22*
X-06778614Y007550357D02*
X-06278615Y007550357D01*
D22*
X-07721385Y007552490D02*
X-07221386Y007552490D01*
D22*
X-07221386Y008549618D02*
X-07721385Y008549618D01*
D22*
X-07873811Y008397269D02*
X-07873811Y007704839D01*
D22*
X-07721385Y008549643D02*
X-07829148Y008505006D01*
X-07873785Y008397243D01*
D22*
X-07873785Y007704839D02*
X-07829148Y007597076D01*
X-07721385Y007552439D01*
D22*
X-06278615Y007550357D02*
X-06170852Y007594994D01*
X-06126215Y007702757D01*
D22*
X-06126215Y008395161D02*
X-06170852Y008502924D01*
X-06278615Y008547561D01*
D22*
X-00773788Y004251398D02*
X-00055755Y004251398D01*
X-00055755Y005248602D01*
X-00773788Y005248602D01*
D22*
X-01226212Y004251398D02*
X-01944245Y004251398D01*
X-01944245Y005248602D01*
X-01226212Y005248602D01*
D22*
X-00773788Y005501398D02*
X-00055755Y005501398D01*
X-00055755Y006498602D01*
X-00773788Y006498602D01*
D22*
X-01226212Y005501398D02*
X-01944245Y005501398D01*
X-01944245Y006498602D01*
X-01226212Y006498602D01*
D22*
X001476212Y005501398D02*
X002194245Y005501398D01*
X002194245Y006498602D01*
X001476212Y006498602D01*
D22*
X001023788Y005501398D02*
X000305755Y005501398D01*
X000305755Y006498602D01*
X001023788Y006498602D01*
D22*
X-01923805Y-06419548D02*
X-01923805Y-05673855D01*
X-02669498Y-05673855D01*
D22*
X-07076246Y-06419548D02*
X-07076246Y-05673855D01*
X-06330553Y-05673855D01*
D22*
X-01923805Y-09080604D02*
X-01923805Y-09826298D01*
X-02669498Y-09826298D01*
D22*
X-07076246Y-09080604D02*
X-07076246Y-09826298D01*
X-06330553Y-09826298D01*
D22*
X-02925327Y-10290000D02*
X-02925968Y-10280220D01*
X-02927880Y-10270607D01*
X-02931031Y-10261326D01*
X-02935366Y-10252535D01*
X-02940811Y-10244386D01*
X-02947273Y-10237016D01*
X-02954643Y-10230554D01*
X-02962792Y-10225109D01*
X-02971583Y-10220774D01*
X-02980864Y-10217623D01*
X-02990477Y-10215711D01*
X-03000257Y-10215070D01*
X-03010037Y-10215711D01*
X-03019650Y-10217623D01*
X-03028931Y-10220774D01*
X-03037722Y-10225109D01*
X-03045871Y-10230554D01*
X-03053241Y-10237016D01*
X-03059703Y-10244386D01*
X-03065148Y-10252535D01*
X-03069483Y-10261326D01*
X-03072634Y-10270607D01*
X-03074546Y-10280220D01*
X-03075187Y-10290000D01*
X-03074546Y-10299780D01*
X-03072634Y-10309393D01*
X-03069483Y-10318674D01*
X-03065148Y-10327465D01*
X-03059703Y-10335614D01*
X-03053241Y-10342984D01*
X-03045871Y-10349446D01*
X-03037722Y-10354891D01*
X-03028931Y-10359226D01*
X-03019650Y-10362377D01*
X-03010037Y-10364289D01*
X-03000257Y-10364930D01*
X-02990477Y-10364289D01*
X-02980864Y-10362377D01*
X-02971583Y-10359226D01*
X-02962792Y-10354891D01*
X-02954643Y-10349446D01*
X-02947273Y-10342984D01*
X-02940811Y-10335614D01*
X-02935366Y-10327465D01*
X-02931031Y-10318674D01*
X-02927880Y-10309393D01*
X-02925968Y-10299780D01*
X-02925327Y-10290000D01*
D22*
X-05450012Y-03100863D02*
X-05450012Y-02899137D01*
D22*
X-05450012Y-03899998D02*
X-05450012Y-03899135D01*
D22*
X-04549988Y-02600864D02*
X-04549988Y-02100002D01*
D22*
X-04549988Y-03899998D02*
X-04549988Y-03399136D01*
D22*
X-04549988Y-03899998D02*
X-05450012Y-03899998D01*
D22*
X-04549988Y-02100002D02*
X-05450012Y-02100002D01*
D22*
X-05450012Y-02100865D02*
X-05450012Y-02100002D01*
D22*
X-05692912Y-04010031D02*
X-05693486Y-04001278D01*
X-05695197Y-03992676D01*
X-05698016Y-03984370D01*
X-05701896Y-03976503D01*
X-05706769Y-03969210D01*
X-05712552Y-03962615D01*
X-05719147Y-03956832D01*
X-05726440Y-03951959D01*
X-05734307Y-03948079D01*
X-05742613Y-03945260D01*
X-05751215Y-03943549D01*
X-05759968Y-03942975D01*
X-05768721Y-03943549D01*
X-05777323Y-03945260D01*
X-05785629Y-03948079D01*
X-05793496Y-03951959D01*
X-05800789Y-03956832D01*
X-05807384Y-03962615D01*
X-05813167Y-03969210D01*
X-05818040Y-03976503D01*
X-05821920Y-03984370D01*
X-05824739Y-03992676D01*
X-05826450Y-04001278D01*
X-05827024Y-04010031D01*
X-05826450Y-04018784D01*
X-05824739Y-04027386D01*
X-05821920Y-04035692D01*
X-05818040Y-04043559D01*
X-05813167Y-04050852D01*
X-05807384Y-04057447D01*
X-05800789Y-04063230D01*
X-05793496Y-04068103D01*
X-05785629Y-04071983D01*
X-05777323Y-04074802D01*
X-05768721Y-04076513D01*
X-05759968Y-04077087D01*
X-05751215Y-04076513D01*
X-05742613Y-04074802D01*
X-05734307Y-04071983D01*
X-05726440Y-04068103D01*
X-05719147Y-04063230D01*
X-05712552Y-04057447D01*
X-05706769Y-04050852D01*
X-05701896Y-04043559D01*
X-05698016Y-04035692D01*
X-05695197Y-04027386D01*
X-05693486Y-04018784D01*
X-05692912Y-04010031D01*
D22*
X-05976212Y-10751398D02*
X-06694245Y-10751398D01*
X-06694245Y-11748602D01*
X-05976212Y-11748602D01*
D22*
X-05523788Y-10751398D02*
X-04805755Y-10751398D01*
X-04805755Y-11748602D01*
X-05523788Y-11748602D01*
D22*
X-04476212Y-12701398D02*
X-05194245Y-12701398D01*
X-05194245Y-13698602D01*
X-04476212Y-13698602D01*
D22*
X-04023788Y-12701398D02*
X-03305755Y-12701398D01*
X-03305755Y-13698602D01*
X-04023788Y-13698602D01*
D22*
X-13476212Y-07001398D02*
X-14194245Y-07001398D01*
X-14194245Y-07998602D01*
X-13476212Y-07998602D01*
D22*
X-13023788Y-07001398D02*
X-12305755Y-07001398D01*
X-12305755Y-07998602D01*
X-13023788Y-07998602D01*
D22*
X-06226212Y-00751398D02*
X-06944245Y-00751398D01*
X-06944245Y-01748602D01*
X-06226212Y-01748602D01*
D22*
X-05773788Y-00751398D02*
X-05055755Y-00751398D01*
X-05055755Y-01748602D01*
X-05773788Y-01748602D01*
D22*
X000498602Y-12573788D02*
X000498602Y-11855755D01*
X-00498602Y-11855755D01*
X-00498602Y-12573788D01*
D22*
X000498602Y-13026212D02*
X000498602Y-13744245D01*
X-00498602Y-13744245D01*
X-00498602Y-13026212D01*
D22*
X000173788Y-15351398D02*
X-00544245Y-15351398D01*
X-00544245Y-16348602D01*
X000173788Y-16348602D01*
D22*
X000626212Y-15351398D02*
X001344245Y-15351398D01*
X001344245Y-16348602D01*
X000626212Y-16348602D01*
D22*
X-02076212Y-15691398D02*
X-02794245Y-15691398D01*
X-02794245Y-16688602D01*
X-02076212Y-16688602D01*
D22*
X-01623788Y-15691398D02*
X-00905755Y-15691398D01*
X-00905755Y-16688602D01*
X-01623788Y-16688602D01*
D22*
X-00023788Y-05748602D02*
X000694245Y-05748602D01*
X000694245Y-04751398D01*
X-00023788Y-04751398D01*
D22*
X-00476212Y-05748602D02*
X-01194245Y-05748602D01*
X-01194245Y-04751398D01*
X-00476212Y-04751398D01*
D22*
X-06773788Y-00498602D02*
X-06055755Y-00498602D01*
X-06055755Y000498602D01*
X-06773788Y000498602D01*
D22*
X-07226212Y-00498602D02*
X-07944245Y-00498602D01*
X-07944245Y000498602D01*
X-07226212Y000498602D01*
D22*
X000519813Y-05790426D02*
X-00280160Y-05790426D01*
D22*
X001080264Y-05789968D02*
X001880237Y-05789968D01*
D22*
X000519813Y-07210108D02*
X-00280160Y-07210108D01*
D22*
X001080264Y-07209625D02*
X001880237Y-07209625D01*
D22*
X-00589913Y-06100255D02*
X-00589913Y-06900304D01*
D22*
X002190015Y-06899771D02*
X002190015Y-06099747D01*
D22*
X001880186Y-07209625D02*
X002099277Y-07118869D01*
X002190015Y-06899771D01*
D22*
X002190015Y-06099798D02*
X002099268Y-05880715D01*
X001880186Y-05789968D01*
D22*
X-00280110Y-05790426D02*
X-00499176Y-05881181D01*
X-00589913Y-06100255D01*
D22*
X-00589913Y-06900228D02*
X-00499193Y-07119334D01*
X-00280110Y-07210108D01*
D22*
X-07969813Y-12584574D02*
X-07169840Y-12584574D01*
D22*
X-08530264Y-12585032D02*
X-09330237Y-12585032D01*
D22*
X-07969813Y-11164892D02*
X-07169840Y-11164892D01*
D22*
X-08530264Y-11165375D02*
X-09330237Y-11165375D01*
D22*
X-06860087Y-12274745D02*
X-06860087Y-11474696D01*
D22*
X-09640015Y-11475229D02*
X-09640015Y-12275253D01*
D22*
X-09330186Y-11165375D02*
X-09549277Y-11256131D01*
X-09640015Y-11475229D01*
D22*
X-09640015Y-12275202D02*
X-09549268Y-12494285D01*
X-09330186Y-12585032D01*
D22*
X-07169890Y-12584574D02*
X-06950824Y-12493819D01*
X-06860087Y-12274745D01*
D22*
X-06860087Y-11474772D02*
X-06950807Y-11255666D01*
X-07169890Y-11164892D01*
D22*
X-01773788Y-14248602D02*
X-01055755Y-14248602D01*
X-01055755Y-13251398D01*
X-01773788Y-13251398D01*
D22*
X-02226212Y-14248602D02*
X-02944245Y-14248602D01*
X-02944245Y-13251398D01*
X-02226212Y-13251398D01*
M02*