M48
; DRILL file {tscircuit} date 2026-10-06T21:16:56.441Z
; FORMAT={-:-/ absolute / metric / decimal}
; #@! TF.CreationDate,2026-10-06T21:16:56.441Z
; #@! TF.GenerationSoftware,tscircuit
; #@! TF.FileFunction,Plated,1,4,PTH
FMAT,2
METRIC
; #@! TA.AperFunction,Plated,PTH,ComponentDrill
T10C0.300000
; #@! TA.AperFunction,Plated,PTH,ComponentDrill
T11C0.200000
; #@! TA.AperFunction,Plated,PTH,ComponentDrill
T12C0.150000
%
G90
G05
T10
X3.1000Y-7.0000
X2.0000Y10.1000
X7.0000Y7.7000
X0.0000Y-11.4000
X-7.2000Y-14.5000
X-12.2500Y15.0000
X-9.5000Y7.0000
X-4.0000Y-5.0000
X-1.0000Y-1.0000
X1.8808Y2.2950
X-15.5000Y-2.0000
X-12.3000Y-3.2000
X-12.3500Y-2.0000
X-13.8000Y4.9000
X-3.2000Y-3.6000
X-15.0000Y0.8000
X-15.5000Y5.0000
X-14.5000Y7.0000
X5.0000Y13.2000
X-3.0000Y-14.5000
X1.6000Y-13.5000
X-12.3000Y-9.5000
X-4.5000Y-7.7500
X3.1000Y-15.0000
X-7.0000Y-15.4000
X-1.1000Y-15.4000
X1.9000Y-15.4000
X-11.9000Y-4.0000
X-5.5000Y-12.3500
X-10.2000Y-0.1000
X-10.2000Y0.7000
X-10.2000Y1.5000
X-11.5000Y11.0000
X-4.7000Y-0.9500
X-7.5500Y-4.1000
X-6.7000Y-9.5000
X-13.8500Y10.5000
X-10.7500Y13.5000
X-7.0000Y10.9000
X-16.2000Y6.2000
X-13.6000Y6.2000
X-16.9000Y-2.0500
X0.8000Y-14.9000
X1.7000Y-8.2500
X5.5500Y3.0000
X5.3000Y-8.8500
X5.7000Y-13.0500
X-14.2000Y-11.7000
X-13.8800Y-10.1000
X13.9999Y1.5697
X4.8750Y-13.2250
X-2.0000Y-6.1000
X1.6250Y9.4500
X9.5750Y13.7250
X9.2000Y14.3750
X2.9000Y10.1000
X-2.1250Y4.1750
X-2.7000Y2.1250
X-7.2750Y7.1250
X12.6000Y10.2250
X-1.9250Y13.0500
X-12.5500Y-13.5500
X-7.7552Y-9.7029
X-6.3226Y3.0668
X0.4385Y-1.2239
X9.2750Y-6.3198
X9.9166Y10.3800
X10.3000Y4.3000
X5.5500Y-1.1500
X-0.6350Y3.0500
X1.3500Y-4.1000
X5.1800Y-5.7500
X8.1900Y-8.1000
X3.6800Y-3.3600
X-4.8000Y-4.4500
X-1.0390Y14.3120
X-2.8000Y3.5000
X14.0129Y-1.4740
X-4.4018Y2.2220
X3.6622Y-8.7762
X12.9095Y-11.2314
X-7.5075Y11.6591
X-15.2790Y-10.7152
X1.0918Y11.5526
X-2.3000Y7.9000
X-11.1530Y5.7747
X-7.5500Y-5.1700
X-6.3794Y-2.0405
X-0.7757Y-12.5949
X3.8578Y-12.7764
X9.1464Y-8.7675
X-7.3960Y4.1547
X-3.4326Y4.2237
X14.0095Y0.2493
X14.5594Y-0.2779
X-5.1616Y0.7167
X7.8397Y3.7509
X11.0700Y-1.6862
X7.0000Y-12.8500
X7.4385Y-7.9404
X10.7359Y-5.7965
X11.6518Y-12.9732
X14.0282Y3.5499
X7.3067Y1.1793
X-1.4328Y6.9597
X1.6617Y7.4104
X0.1030Y7.1192
X-4.0490Y-3.8885
X-0.6828Y-4.2314
X7.1059Y3.1395
X2.7968Y8.2878
X7.9354Y10.6797
X11.4752Y9.7003
X9.0979Y3.8331
X4.4171Y-8.7867
X3.6840Y4.6936
X-14.0000Y12.0000
X3.7090Y-4.1400
X13.4000Y5.2814
X-7.7500Y12.5000
X10.6160Y7.1876
X-8.8000Y9.7500
X1.2490Y-1.4190
X3.5500Y-2.5500
X4.4500Y5.2500
X3.8960Y8.3605
X10.5706Y-9.3989
X7.7968Y-11.9539
X10.5328Y-7.8691
X6.1962Y-12.3154
X-14.3000Y11.2000
X-11.8000Y-8.6000
X-16.3190Y-1.5620
X-15.6110Y9.7457
X-14.5193Y9.7457
X-5.0086Y10.2873
X-1.8833Y-0.1700
X-5.3026Y7.1235
X-12.8172Y-4.5598
X-7.5499Y-3.3290
X0.6439Y1.2252
X-12.8438Y4.8699
X0.9826Y10.3675
X-10.4808Y4.1570
X-1.0950Y8.6965
X-11.8097Y-2.6184
X-10.0000Y9.7000
X-4.4479Y9.0751
X10.0216Y-7.0195
X6.8288Y-8.3955
X-8.4156Y4.3225
X-0.1500Y-7.9000
X-1.1500Y-8.2000
X-0.4500Y-8.7500
X2.1500Y-8.9000
X13.6770Y-6.1000
X-13.6960Y-4.0550
X10.6000Y-11.5000
T11
X-4.8000Y4.5800
X8.7499Y-3.3750
X9.8299Y11.5000
X10.7499Y5.8000
X-5.6500Y-4.3000
X-5.7000Y0.0000
X11.5672Y-12.0000
X10.6000Y-4.1000
X12.0377Y4.6500
X10.0000Y2.2500
X8.1000Y8.0500
X9.0000Y0.1000
X-11.6700Y-13.5000
X-9.0000Y-9.9500
X-1.8000Y-7.7500
X5.4500Y1.2500
X-2.4328Y-13.4200
X-5.5500Y1.8000
X10.4500Y-1.8500
X-6.4328Y-5.0000
X7.1600Y-11.5600
X6.3750Y1.3750
X5.1000Y5.3750
X6.5805Y3.8814
X14.5000Y0.7500
X-0.5000Y7.3500
X7.4750Y11.1250
X-2.7500Y4.3750
X0.0000Y1.1750
X0.5250Y5.3000
X1.8500Y8.1000
X-3.0000Y6.9250
X-0.0250Y-4.2000
X-4.7500Y-1.9250
X-1.4500Y-4.6500
X-1.1750Y-1.6750
X5.8172Y-0.4000
X-6.2500Y5.4990
X11.2501Y-2.9499
X-4.6500Y6.7500
X-7.7500Y6.5000
X5.3500Y2.1500
X13.3900Y2.5499
X11.4000Y1.6500
X8.0000Y1.9000
X6.6828Y-0.4000
X11.5000Y2.4997
X8.4500Y2.2500
X6.4328Y2.0000
X8.7499Y5.1500
X-0.5672Y6.1600
X10.7499Y-3.4000
X5.2500Y-2.9000
X-11.0001Y12.4074
X-12.0001Y12.4074
X6.7000Y-9.9200
X12.1828Y-13.7500
X0.2500Y-13.2328
X-0.0328Y-15.7000
X-0.0500Y-5.6000
X-3.1000Y-15.4000
X8.2501Y5.5500
X1.6828Y6.1600
T12
X-7.3251Y8.1900
X1.7501Y-10.2350
X-1.2499Y-10.2350
M30