%TF.GenerationSoftware,tscircuit,circuit-json-to-gerber,0.0.111*%
%TF.CreationDate,2026-10-06T21:16:55.892Z*%
%TF.SameCoordinates,Original*%
%TF.FileFunction,Soldermask,Top*%
%TF.FilePolarity,Negative*%
%FSLAX46Y46*%
%MOMM*%
G04 Gerber Fmt 4.6, Leading zero omitted, Abs format (unit mm)*
G04 Created by tscircuit (builder) date 2026-10-06T21:16:55.892Z*
G01*
%LPD*%
G75*
G04 APERTURE MACROS START*
%AMHORZPILL*
0 Horizontal pill (stadium) shape macro*
0 Parameters:*
0 $1 = Total width*
0 $2 = Total height*
0 $3 = Circle diameter (equal to height)*
0 $4 = Circle center offset
0 21 = Center Line(Exposure, Width, Height, Center X, Center Y, Rotation)*
0 1 = Circle(Exposure, Diameter, Center X, Center Y, Rotation)*
21,1,$1-$3,$2,0.0,0.0,0.0*
1,1,$3,0.0-$4,0.0*
1,1,$3,$4,0.0*%
%AMVERTPILL*
0 Vertical pill (stadium) shape macro*
0 Parameters:*
0 $1 = Total width*
0 $2 = Total height*
0 $3 = Circle diameter (equal to width)*
0 $4 = Circle center offset
0 21 = Center Line(Exposure, Width, Height, Center X, Center Y, Rotation)*
21,1,$1,$2-$3,0.0,0.0,0.0*
1,1,$3,0.0,0.0-$4*
1,1,$3,0.0,$4*%
%AMROUNDRECT*
0 Rectangle with rounded corners*
0 $1 Corner radius*
0 $2 $3 $4 $5 $6 $7 $8 $9 X,Y Position of each corner*
0 Polygon box body*
4,1,4,$2,$3,$4,$5,$6,$7,$8,$9,$2,$3,0*
0 Circles for rounded corners*
1,1,$1+$1,$2,$3*
1,1,$1+$1,$4,$5*
1,1,$1+$1,$6,$7*
1,1,$1+$1,$8,$9*
0 Rectangles between the rounded corners*
20,1,$1+$1,$2,$3,$4,$5,0*
20,1,$1+$1,$4,$5,$6,$7,0*
20,1,$1+$1,$6,$7,$8,$9,0*
20,1,$1+$1,$8,$9,$2,$3,0*%
G04 APERTURE MACROS END*
G04 aperture START LIST*
%ADD10C,0.150000*%
%ADD11C,0.200000*%
%ADD12C,0.400000*%
%ADD13C,0.600000*%
%ADD14C,0.280000*%
%ADD15C,0.500000*%
%ADD16C,0.270000*%
%ADD17C,0.153700*%
%ADD18C,0.198000*%
%ADD19C,0.450000*%
%ADD20C,0.380000*%
%ADD21C,2.500000*%
%ADD22C,0.270002*%
%ADD23C,0.200000*%
%ADD24C,0.399999*%
%ADD25C,0.254000*%
%ADD26R,0.499999X0.540004*%
%ADD27R,0.349999X0.378003*%
%ADD28C,0.100000*%
%ADD29R,0.565658X0.540004*%
%ADD30R,0.395961X0.378003*%
%ADD31R,0.550012X1.099998*%
%ADD32R,0.385008X0.769998*%
%ADD33R,0.799998X0.899998*%
%ADD34R,0.559999X0.629999*%
%ADD35R,6.499987X1.999996*%
%ADD36R,4.549991X1.399997*%
%ADD37R,1.410005X1.350010*%
%ADD38R,0.987003X0.945007*%
%ADD39R,3.499993X3.499993*%
%ADD40R,2.449995X2.449995*%
%ADD41C,0.280010*%
%ADD42R,1.350010X1.410005*%
%ADD43R,0.945007X0.987003*%
%ADD44R,3.499993X1.199998*%
%ADD45R,2.449995X0.839998*%
%ADD46R,1.207516X1.701013*%
%ADD47R,0.845261X1.190709*%
%ADD48C,0.649986*%
%ADD49R,2.180006X1.999996*%
%ADD50R,1.526004X1.399997*%
%ADD51R,0.299999X1.150010*%
%ADD52R,0.210000X0.805007*%
%ADD53R,0.599999X1.150010*%
%ADD54R,0.419999X0.805007*%
%ADD55R,0.299999X0.200000*%
%ADD56R,0.210000X0.140000*%
%ADD57R,1.550010X0.599999*%
%ADD58R,1.085007X0.419999*%
%ADD59R,1.799996X1.199998*%
%ADD60R,1.259997X0.839998*%
%ADD61R,0.999998X2.699995*%
%ADD62R,0.699999X1.889996*%
%ADD63R,0.599999X1.699997*%
%ADD64R,0.419999X1.189998*%
%ADD65R,0.799998X0.799998*%
%ADD66R,0.559999X0.559999*%
%TD*%
G04 aperture END LIST*
D21*
X-15250000Y-15250000D03*
D21*
X-15250000Y015250000D03*
D21*
X015250000Y-15250000D03*
D21*
X015250000Y015250000D03*
D22*
X005749942Y-03564925D03*
X005749942Y-03564925D02*
X005749942Y-02334930D01*
X005749942Y-02334930D03*
D22*
X006250068Y-03564925D03*
X006250068Y-03564925D02*
X006250068Y-02334930D01*
X006250068Y-02334930D03*
D22*
X006749940Y-03564925D03*
X006749940Y-03564925D02*
X006749940Y-02334930D01*
X006749940Y-02334930D03*
D22*
X007250066Y-03564925D03*
X007250066Y-03564925D02*
X007250066Y-02334930D01*
X007250066Y-02334930D03*
D22*
X007749938Y-03564925D03*
X007749938Y-03564925D02*
X007749938Y-02334930D01*
X007749938Y-02334930D03*
D22*
X008250064Y-03564925D03*
X008250064Y-03564925D02*
X008250064Y-02334930D01*
X008250064Y-02334930D03*
D22*
X008749936Y-03564925D03*
X008749936Y-03564925D02*
X008749936Y-02334930D01*
X008749936Y-02334930D03*
D22*
X009250062Y-03564925D03*
X009250062Y-03564925D02*
X009250062Y-02334930D01*
X009250062Y-02334930D03*
D22*
X009749934Y-03564925D03*
X009749934Y-03564925D02*
X009749934Y-02334930D01*
X009749934Y-02334930D03*
D22*
X010250060Y-03564925D03*
X010250060Y-03564925D02*
X010250060Y-02334930D01*
X010250060Y-02334930D03*
D22*
X010749932Y-03564925D03*
X010749932Y-03564925D02*
X010749932Y-02334930D01*
X010749932Y-02334930D03*
D22*
X011250058Y-03564925D03*
X011250058Y-03564925D02*
X011250058Y-02334930D01*
X011250058Y-02334930D03*
D22*
X012134931Y-01450058D03*
X012134931Y-01450058D02*
X013364926Y-01450058D01*
X013364926Y-01450058D03*
D22*
X012134931Y-00949932D03*
X012134931Y-00949932D02*
X013364926Y-00949932D01*
X013364926Y-00949932D03*
D22*
X012134931Y-00450060D03*
X012134931Y-00450060D02*
X013364926Y-00450060D01*
X013364926Y-00450060D03*
D22*
X012134931Y000050066D03*
X012134931Y000050066D02*
X013364926Y000050066D01*
X013364926Y000050066D03*
D22*
X012134931Y000549938D03*
X012134931Y000549938D02*
X013364926Y000549938D01*
X013364926Y000549938D03*
D22*
X012134931Y001050064D03*
X012134931Y001050064D02*
X013364926Y001050064D01*
X013364926Y001050064D03*
D22*
X012134931Y001549936D03*
X012134931Y001549936D02*
X013364926Y001549936D01*
X013364926Y001549936D03*
D22*
X012134931Y002050062D03*
X012134931Y002050062D02*
X013364926Y002050062D01*
X013364926Y002050062D03*
D22*
X012134931Y002549934D03*
X012134931Y002549934D02*
X013364926Y002549934D01*
X013364926Y002549934D03*
D22*
X012134931Y003050060D03*
X012134931Y003050060D02*
X013364926Y003050060D01*
X013364926Y003050060D03*
D22*
X012134931Y003549932D03*
X012134931Y003549932D02*
X013364926Y003549932D01*
X013364926Y003549932D03*
D22*
X012134931Y004050058D03*
X012134931Y004050058D02*
X013364926Y004050058D01*
X013364926Y004050058D03*
D22*
X011250058Y004934930D03*
X011250058Y004934930D02*
X011250058Y006164925D01*
X011250058Y006164925D03*
D22*
X010749932Y004934930D03*
X010749932Y004934930D02*
X010749932Y006164925D01*
X010749932Y006164925D03*
D22*
X010250060Y004934930D03*
X010250060Y004934930D02*
X010250060Y006164925D01*
X010250060Y006164925D03*
D22*
X009749934Y004934930D03*
X009749934Y004934930D02*
X009749934Y006164925D01*
X009749934Y006164925D03*
D22*
X009250062Y004934930D03*
X009250062Y004934930D02*
X009250062Y006164925D01*
X009250062Y006164925D03*
D22*
X008749936Y004934930D03*
X008749936Y004934930D02*
X008749936Y006164925D01*
X008749936Y006164925D03*
D22*
X008250064Y004934930D03*
X008250064Y004934930D02*
X008250064Y006164925D01*
X008250064Y006164925D03*
D22*
X007749938Y004934930D03*
X007749938Y004934930D02*
X007749938Y006164925D01*
X007749938Y006164925D03*
D22*
X007250066Y004934930D03*
X007250066Y004934930D02*
X007250066Y006164925D01*
X007250066Y006164925D03*
D22*
X006749940Y004934930D03*
X006749940Y004934930D02*
X006749940Y006164925D01*
X006749940Y006164925D03*
D22*
X006250068Y004934930D03*
X006250068Y004934930D02*
X006250068Y006164925D01*
X006250068Y006164925D03*
D22*
X005749942Y004934930D03*
X005749942Y004934930D02*
X005749942Y006164925D01*
X005749942Y006164925D03*
D22*
X003635075Y004050058D03*
X003635075Y004050058D02*
X004865070Y004050058D01*
X004865070Y004050058D03*
D22*
X003635075Y003549932D03*
X003635075Y003549932D02*
X004865070Y003549932D01*
X004865070Y003549932D03*
D22*
X003635075Y003050060D03*
X003635075Y003050060D02*
X004865070Y003050060D01*
X004865070Y003050060D03*
D22*
X003635075Y002549934D03*
X003635075Y002549934D02*
X004865070Y002549934D01*
X004865070Y002549934D03*
D22*
X003635075Y002050062D03*
X003635075Y002050062D02*
X004865070Y002050062D01*
X004865070Y002050062D03*
D22*
X003635075Y001549936D03*
X003635075Y001549936D02*
X004865070Y001549936D01*
X004865070Y001549936D03*
D22*
X003635075Y001050064D03*
X003635075Y001050064D02*
X004865070Y001050064D01*
X004865070Y001050064D03*
D22*
X003635075Y000549938D03*
X003635075Y000549938D02*
X004865070Y000549938D01*
X004865070Y000549938D03*
D22*
X003635075Y000050066D03*
X003635075Y000050066D02*
X004865070Y000050066D01*
X004865070Y000050066D03*
D22*
X003635075Y-00450060D03*
X003635075Y-00450060D02*
X004865070Y-00450060D01*
X004865070Y-00450060D03*
D22*
X003635075Y-00949932D03*
X003635075Y-00949932D02*
X004865070Y-00949932D01*
X004865070Y-00949932D03*
D22*
X003635075Y-01450058D03*
X003635075Y-01450058D02*
X004865070Y-01450058D01*
X004865070Y-01450058D03*
D26*
X007579884Y-04600000D03*
D26*
X008420116Y-04600000D03*
D26*
X008420116Y-06750000D03*
D26*
X007579884Y-06750000D03*
D26*
X005329884Y-04600000D03*
D26*
X006170116Y-04600000D03*
D26*
X006420116Y-06750000D03*
D26*
X005579884Y-06750000D03*
D29*
X010682816Y-05000000D03*
D29*
X009817184Y-05000000D03*
D26*
X015420116Y-03500000D03*
D26*
X014579884Y-03500000D03*
D29*
X001432816Y-03000000D03*
D29*
X000567184Y-03000000D03*
D29*
X001432816Y-05000000D03*
D29*
X000567184Y-05000000D03*
D31*
X-14550040Y-07199896D03*
D31*
X-15500000Y-07199896D03*
D31*
X-16449960Y-07199896D03*
D31*
X-16449960Y-04800104D03*
D31*
X-15500000Y-04800104D03*
D31*
X-14550040Y-04800104D03*
D33*
X-14799976Y-03000000D03*
D33*
X-16200024Y-03000000D03*
D33*
X-16200024Y-09750000D03*
D33*
X-14799976Y-09750000D03*
D35*
X-10150000Y-06899941D03*
D35*
X-10150000Y-11400059D03*
D37*
X-08500002Y-14000000D03*
D37*
X-10499998Y-14000000D03*
D39*
X-09000127Y000699873D03*
D41*
X-11809989Y-00801267D03*
X-11809989Y-00801267D02*
X-11190001Y-00801267D01*
X-11190001Y-00801267D03*
D41*
X-11809989Y-00300887D03*
X-11809989Y-00300887D02*
X-11190001Y-00300887D01*
X-11190001Y-00300887D03*
D41*
X-11809989Y000199493D03*
X-11809989Y000199493D02*
X-11190001Y000199493D01*
X-11190001Y000199493D03*
D41*
X-11809989Y000699873D03*
X-11809989Y000699873D02*
X-11190001Y000699873D01*
X-11190001Y000699873D03*
D41*
X-11809989Y001200253D03*
X-11809989Y001200253D02*
X-11190001Y001200253D01*
X-11190001Y001200253D03*
D41*
X-11809989Y001700633D03*
X-11809989Y001700633D02*
X-11190001Y001700633D01*
X-11190001Y001700633D03*
D41*
X-11809989Y002201013D03*
X-11809989Y002201013D02*
X-11190001Y002201013D01*
X-11190001Y002201013D03*
D41*
X-10501267Y002890001D03*
X-10501267Y002890001D02*
X-10501267Y003509989D01*
X-10501267Y003509989D03*
D41*
X-10000887Y002890001D03*
X-10000887Y002890001D02*
X-10000887Y003509989D01*
X-10000887Y003509989D03*
D41*
X-09500507Y002890001D03*
X-09500507Y002890001D02*
X-09500507Y003509989D01*
X-09500507Y003509989D03*
D41*
X-09000127Y002890001D03*
X-09000127Y002890001D02*
X-09000127Y003509989D01*
X-09000127Y003509989D03*
D41*
X-08499747Y002890001D03*
X-08499747Y002890001D02*
X-08499747Y003509989D01*
X-08499747Y003509989D03*
D41*
X-07999367Y002890001D03*
X-07999367Y002890001D02*
X-07999367Y003509989D01*
X-07999367Y003509989D03*
D41*
X-07498987Y002890001D03*
X-07498987Y002890001D02*
X-07498987Y003509989D01*
X-07498987Y003509989D03*
D41*
X-06809999Y002201013D03*
X-06809999Y002201013D02*
X-06190011Y002201013D01*
X-06190011Y002201013D03*
D41*
X-06809999Y001700633D03*
X-06809999Y001700633D02*
X-06190011Y001700633D01*
X-06190011Y001700633D03*
D41*
X-06809999Y001200253D03*
X-06809999Y001200253D02*
X-06190011Y001200253D01*
X-06190011Y001200253D03*
D41*
X-06809999Y000699873D03*
X-06809999Y000699873D02*
X-06190011Y000699873D01*
X-06190011Y000699873D03*
D41*
X-06809999Y000199493D03*
X-06809999Y000199493D02*
X-06190011Y000199493D01*
X-06190011Y000199493D03*
D41*
X-06809999Y-00300887D03*
X-06809999Y-00300887D02*
X-06190011Y-00300887D01*
X-06190011Y-00300887D03*
D41*
X-06809999Y-00801267D03*
X-06809999Y-00801267D02*
X-06190011Y-00801267D01*
X-06190011Y-00801267D03*
D41*
X-07498987Y-02109989D03*
X-07498987Y-02109989D02*
X-07498987Y-01490001D01*
X-07498987Y-01490001D03*
D41*
X-07999367Y-02109989D03*
X-07999367Y-02109989D02*
X-07999367Y-01490001D01*
X-07999367Y-01490001D03*
D41*
X-08499747Y-02109989D03*
X-08499747Y-02109989D02*
X-08499747Y-01490001D01*
X-08499747Y-01490001D03*
D41*
X-09000127Y-02109989D03*
X-09000127Y-02109989D02*
X-09000127Y-01490001D01*
X-09000127Y-01490001D03*
D41*
X-09500507Y-02109989D03*
X-09500507Y-02109989D02*
X-09500507Y-01490001D01*
X-09500507Y-01490001D03*
D41*
X-10000887Y-02109989D03*
X-10000887Y-02109989D02*
X-10000887Y-01490001D01*
X-10000887Y-01490001D03*
D41*
X-10501267Y-02109989D03*
X-10501267Y-02109989D02*
X-10501267Y-01490001D01*
X-10501267Y-01490001D03*
D26*
X-08329884Y-03500000D03*
D26*
X-09170116Y-03500000D03*
D33*
X-05049976Y-03500000D03*
D33*
X-06450024Y-03500000D03*
D42*
X-03500000Y000499998D03*
D42*
X-03500000Y-01499998D03*
D26*
X-04929884Y004750000D03*
D26*
X-05770116Y004750000D03*
D44*
X-08429952Y008500000D03*
D44*
X-13770048Y008500000D03*
D44*
X010420048Y011500000D03*
D44*
X005079952Y011500000D03*
D46*
X-16328788Y002400000D03*
D46*
X-13371212Y002400000D03*
D46*
X-16328788Y-00200000D03*
D46*
X-13371212Y-00200000D03*
D29*
X-04432816Y003000000D03*
D29*
X-03567184Y003000000D03*
D29*
X-06432816Y-05000000D03*
D29*
X-05567184Y-05000000D03*
D29*
X-02567184Y005000000D03*
D29*
X-03432816Y005000000D03*
D29*
X-00317184Y005500000D03*
D29*
X-01182816Y005500000D03*
D29*
X-04817184Y006000000D03*
D29*
X-05682816Y006000000D03*
D29*
X-02567184Y006250000D03*
D29*
X-03432816Y006250000D03*
D48*
X002890012Y-11310010D03*
D48*
X-02890012Y-11310010D03*
D49*
X005109997Y-14740001D03*
D49*
X-05109997Y-14740001D03*
D49*
X005109997Y-10810011D03*
D49*
X-05109997Y-10810011D03*
D51*
X000249936Y-10235006D03*
D51*
X000750062Y-10235006D03*
D51*
X001249934Y-10235006D03*
D51*
X001750060Y-10235006D03*
D51*
X-00249936Y-10235006D03*
D51*
X-00750062Y-10235006D03*
D51*
X-01249934Y-10235006D03*
D51*
X-01750060Y-10235006D03*
D53*
X002399995Y-10235006D03*
D53*
X-02399995Y-10235006D03*
D53*
X003199994Y-10235006D03*
D53*
X-03199994Y-10235006D03*
D55*
X002499999Y-07350012D03*
D55*
X002499999Y-06649988D03*
D55*
X001500001Y-07000000D03*
D57*
X012400118Y-10399615D03*
D57*
X012400118Y-09398855D03*
D57*
X012400118Y-08399365D03*
D57*
X012400118Y-07399875D03*
D57*
X012400118Y-06399115D03*
D59*
X016274888Y-11700095D03*
D59*
X016274888Y-05099905D03*
D61*
X001974656Y013249566D03*
D61*
X-05474656Y013249566D03*
D63*
X-03624520Y010050436D03*
D63*
X-02374586Y010050436D03*
D63*
X-01124398Y010050436D03*
D63*
X000125536Y010050436D03*
D65*
X-01799465Y001996571D03*
D65*
X-00200535Y002003429D03*
D65*
X000200535Y003996571D03*
D65*
X001799465Y004003429D03*
D65*
X000200535Y-00003429D03*
D65*
X001799465Y000003429D03*
M02*